<svg id="BOX_-_outline" data-name="BOX - outline" xmlns="http://www.w3.org/2000/svg" viewBox="0 0 50.24 50.24"><defs><style>.cls-1{fill:#00a587;}.cls-2{fill:none;stroke:#fff;stroke-miterlimit:10;stroke-width:1.5px;}.cls-3{fill:#fff;}</style></defs><title>CC_LogoCube_white_on_0-165-135_border</title><rect class="cls-1" x="0.75" y="0.75" width="48.74" height="48.74" rx="7.09" ry="7.09"/><rect class="cls-2" x="0.75" y="0.75" width="48.74" height="48.74" rx="7.09" ry="7.09"/><path class="cls-3" d="M12.24,25.51c0-6.14,5.28-11.21,12-11.78V7c-10.53.6-18.9,8.67-18.9,18.52S13.72,43.43,24.25,44V37.29C17.52,36.72,12.24,31.66,12.24,25.51Z" transform="translate(-0.39 -0.39)"/><path class="cls-3" d="M26.77,7v6.75c6.73,0.57,12,5.63,12,11.78s-5.28,11.21-12,11.78V44c10.53-.6,18.9-8.67,18.9-18.53S37.29,7.59,26.77,7Z" transform="translate(-0.39 -0.39)"/></svg>