<svg id="FAQs_copy" data-name="FAQs copy" xmlns="http://www.w3.org/2000/svg" viewBox="0 0 120 120">
  <defs>
    <style>
      .cls-1 {
        fill: #fff;
      }
    </style>
  </defs>
  <title>AMY_found_icons</title>
  <path class="cls-1" d="M108.63,91.33a21.34,21.34,0,0,1-6.67-8.2c4.94-3,8-7.41,8-12.27,0-8.12-8.67-14.88-20.11-16.31,0,0.06,0,.12,0,0.17C89.91,66,79,75.62,63.93,79c4.22,5.05,12.25,8.47,21.46,8.47a35.5,35.5,0,0,0,8.13-.93C99,90.61,117.51,97.47,108.63,91.33Z"/>
  <path class="cls-1" d="M50.44,28C29.49,28,12.53,39.44,12.53,53.56c0,7.49,4.79,14.23,12.41,18.91C22.68,77,19.37,81.84,14.65,85.1,1,94.54,29.54,84,37.94,77.69a54.48,54.48,0,0,0,12.5,1.44,55.11,55.11,0,0,0,12-1.28c15.09-3.37,26-13,26-24.28V53.38C88.23,39.34,71.29,28,50.44,28Zm-0.22,7.28a15.36,15.36,0,0,1,2.91.31c3.83,0.81,8.37,4.55,8.38,10s-4.35,7.51-5.91,8.53a3.94,3.94,0,0,0-2.09,3.44v4.59l-5.94,0V55.31a5,5,0,0,1,2.59-4.69l3.34-2.25a3.85,3.85,0,0,0,.78-5.69,5.92,5.92,0,0,0-5.22-1.37c-3.83.79-4.14,3.6-4.12,6.28v1.19H39c0-5,.58-7.32,3.22-10.19A10.3,10.3,0,0,1,50.22,35.28ZM47.53,64.47h6v6.06h-6V64.47Z"/>
</svg>
