<svg id="feedback_copy" data-name="feedback copy" xmlns="http://www.w3.org/2000/svg" viewBox="0 0 120 120">
  <defs>
    <style>
      .cls-1 {
        fill: #fff;
      }
    </style>
  </defs>
  <title>AMY_found_icons_feed</title>
  <path class="cls-1" d="M17.81,21.22A7.87,7.87,0,0,0,10,29V76.22A7.87,7.87,0,0,0,17.81,84H29l0.23,13,0.16,7.69,5.55-5.35L50.94,84h51.25A7.87,7.87,0,0,0,110,76.22V29a7.87,7.87,0,0,0-7.81-7.81H17.81Zm0,6.72h84.37A1,1,0,0,1,103.28,29V76.22a1,1,0,0,1-1.09,1.09H48.24l-1,.94-11.44,11L35.63,80.6l0-3.28H17.81a1,1,0,0,1-1.09-1.09V29A1,1,0,0,1,17.81,27.94Z"/>
  <polygon class="cls-1" points="34.17 46.82 27.82 46.4 24.64 41.41 22.28 46.77 16.05 48.04 20.93 51.85 20.32 57.65 25.67 54.57 31.46 56.91 29.94 51.23 34.17 46.82"/>
  <polygon class="cls-1" points="51.4 46.82 45.05 46.4 41.87 41.41 39.51 46.77 33.28 48.04 38.16 51.85 37.55 57.65 42.9 54.57 48.69 56.91 47.17 51.23 51.4 46.82"/>
  <polygon class="cls-1" points="68.63 46.82 62.28 46.4 59.1 41.41 56.74 46.77 50.51 48.04 55.4 51.85 54.78 57.65 60.13 54.57 65.92 56.91 64.4 51.23 68.63 46.82"/>
  <polygon class="cls-1" points="85.86 46.82 79.51 46.4 76.33 41.41 73.97 46.77 67.74 48.04 72.63 51.85 72.01 57.65 77.36 54.57 83.15 56.91 81.63 51.23 85.86 46.82"/>
  <path class="cls-1" d="M89.24,57.44l0.61-5.8L85,47.84l6.24-1.27,2.36-5.37,3.18,5,6.36,0.42L98.86,51l1.52,5.67-5.79-2.33Zm-1.68-9L91,51.15l-0.45,4.25,3.93-2.26,4.22,1.7-1.1-4.13,3-3.14-4.54-.3-2.36-3.71-1.75,4Z"/>
</svg>
