<svg id="new_claim_copy" data-name="new_claim copy" xmlns="http://www.w3.org/2000/svg" viewBox="0 0 120 120">
  <defs>
    <style>
      .cls-1 {
        fill: #fff;
      }
    </style>
  </defs>
  <title>CC_icons_amy_newclaim_white</title>
  <path class="cls-1" d="M85.5,66.9a18.6,18.6,0,1,0,18.6,18.6A18.56,18.56,0,0,0,85.5,66.9ZM95.6,88H88v7.6H83V88H75.4V83H83V75.4h5V83h7.6v5ZM51.8,44a2.5,2.5,0,0,1,0-5H74.5a2.5,2.5,0,0,1,0,5H51.8ZM30.6,61.5A2.48,2.48,0,0,1,33.1,59H74.4a2.5,2.5,0,0,1,0,5H33.1A2.54,2.54,0,0,1,30.6,61.5ZM33.1,49H74.4a2.5,2.5,0,1,1,0,5H33.1a2.48,2.48,0,0,1-2.5-2.5A2.54,2.54,0,0,1,33.1,49ZM63.4,74H33.1a2.48,2.48,0,0,1-2.5-2.5h0A2.48,2.48,0,0,1,33.1,69h35a25.41,25.41,0,0,0-3.6,5H63.4ZM30.6,81.5A2.48,2.48,0,0,1,33.1,79H62.4a27.45,27.45,0,0,0-.8,5H33.1A2.54,2.54,0,0,1,30.6,81.5Zm-0.2,10A2.48,2.48,0,0,1,32.9,89H61.8a28.26,28.26,0,0,0,1.3,5H32.9A2.48,2.48,0,0,1,30.4,91.5ZM88.1,29.2V61.7a11,11,0,0,0-2.6-.2,19.27,19.27,0,0,0-2.4.1V29.2a5.59,5.59,0,0,0-5.6-5.6H44.3v8.1A10.67,10.67,0,0,1,33.7,42.3H24.8V93.7a5.59,5.59,0,0,0,5.6,5.6H66a25.34,25.34,0,0,0,4.8,5H30.5A10.54,10.54,0,0,1,19.9,93.7v-53a4.33,4.33,0,0,1,.4-1.9,5.72,5.72,0,0,1,1.1-1.6L39.4,20a4.92,4.92,0,0,1,1.5-1,5.66,5.66,0,0,1,1.8-.3H77.4A10.48,10.48,0,0,1,88.1,29.2Z"/>
</svg>
