<svg id="manage_online_copy" data-name="manage online copy" xmlns="http://www.w3.org/2000/svg" viewBox="0 0 120 120">
  <defs>
    <style>
      .cls-1 {
        fill: #fff;
      }
    </style>
  </defs>
  <title>CC_icons_amy_newclaim_white</title>
  <g>
    <path class="cls-1" d="M39.37,47.54A4.76,4.76,0,0,0,41.49,47l9.13,6.28a6.29,6.29,0,0,0-.16,1.22,4.89,4.89,0,1,0,9.37-2l6.52-6.44a4.71,4.71,0,0,0,4.89-.65l6.2,7.58a4.86,4.86,0,1,0,4.32-2.69,5.6,5.6,0,0,0-2,.41L73,42.48C73,42.24,73,42,73,41.67a4.89,4.89,0,1,0-9.78,0,4.52,4.52,0,0,0,.57,2.28l-6.36,6.28a4.85,4.85,0,0,0-2.2-.49,4.94,4.94,0,0,0-2.85.9l-8.64-6a5.25,5.25,0,0,0,.41-2,4.89,4.89,0,1,0-9.78,0A5,5,0,0,0,39.37,47.54Z"/>
    <path class="cls-1" d="M101.57,18.35H19.72V78.51h81.76V18.35h0.08ZM93.25,70.2H28V26.67H93.25V70.2Z"/>
    <path class="cls-1" d="M101.57,82.67H19.72L9.29,105.25H112ZM68.71,97.34H52.57a1.63,1.63,0,1,1,0-3.26H68.71A1.63,1.63,0,0,1,68.71,97.34Z"/>
  </g>
</svg>
