<?xml version="1.0" encoding="utf-8"?><!DOCTYPE svg PUBLIC "-//W3C//DTD SVG 1.1//EN" "http://www.w3.org/Graphics/SVG/1.1/DTD/svg11.dtd"><svg version="1.1" xmlns="http://www.w3.org/2000/svg" xmlns:xlink="http://www.w3.org/1999/xlink" x="0px" y="0px" viewBox="0 0 100 65.778" enable-background="new 0 0 100 65.778" xml:space="preserve"><path fill="#010101" d="M97.628,63.335c-3.061-2.111-5.205-5.248-6.668-8.203c4.943-3.035,8.047-7.408,8.047-12.272
	c0-8.125-8.665-14.883-20.106-16.313c0,0.058,0.004,0.116,0.004,0.173c0,11.306-10.889,20.897-25.98,24.27
	c4.22,5.052,12.249,8.467,21.463,8.467c2.85,0,5.586-0.328,8.131-0.928C87.97,62.607,106.513,69.469,97.628,63.335z"></path><path fill="#010101" d="M39.436,0C18.492,0,1.528,11.445,1.528,25.563c0,7.492,4.79,14.232,12.407,18.908
	c-2.253,4.551-5.567,9.37-10.282,12.625c-13.686,9.444,14.883-1.124,23.282-7.406c3.92,0.924,8.111,1.438,12.5,1.438
	c4.172,0,8.214-0.442,11.969-1.281c15.092-3.373,25.97-12.977,25.97-24.283v-0.188C77.234,11.338,60.294,0,39.436,0z M39.217,7.282
	c0.973,0.01,1.95,0.117,2.906,0.312c3.83,0.805,8.369,4.545,8.375,9.969c-0.007,5.444-4.351,7.509-5.906,8.531
	c-1.553,1.015-2.108,2.193-2.094,3.438v4.594l-5.938,0.031v-6.844c0.005-2.028,0.659-3.434,2.594-4.688l3.344-2.25
	c2.134-1.454,2.104-4.378,0.781-5.688c-1.173-1.131-3.115-1.786-5.219-1.375c-3.825,0.786-4.137,3.602-4.125,6.282v1.188h-5.938
	c0.011-5.036,0.578-7.315,3.219-10.188C33.42,8.167,36.3,7.251,39.217,7.282z M36.53,36.47h6v6.062h-6V36.47z"></path></svg>