<?xml version="1.0" encoding="utf-8"?><!DOCTYPE svg PUBLIC "-//W3C//DTD SVG 1.1//EN" "http://www.w3.org/Graphics/SVG/1.1/DTD/svg11.dtd"><svg version="1.1" xmlns:sodipodi="http://sodipodi.sourceforge.net/DTD/sodipodi-0.dtd" xmlns:rdf="http://www.w3.org/1999/02/22-rdf-syntax-ns#" xmlns:dc="http://purl.org/dc/elements/1.1/" xmlns:cc="http://creativecommons.org/ns#" xmlns:inkscape="http://www.inkscape.org/namespaces/inkscape" xmlns:svg="http://www.w3.org/2000/svg" xmlns="http://www.w3.org/2000/svg" xmlns:xlink="http://www.w3.org/1999/xlink" x="0px" y="0px" viewBox="0 8.223 100 83.555" enable-background="new 0 8.223 100 83.555" xml:space="preserve"><path d="M7.812,8.223C3.542,8.223,0,11.766,0,16.035v47.188
	c0,4.27,3.542,7.812,7.812,7.812h11.172l0.234,13.047l0.156,7.695l5.547-5.352l16.016-15.391h51.25c4.271,0,7.812-3.543,7.812-7.812
	V16.035c0-4.27-3.542-7.812-7.812-7.812H7.812z M7.812,14.941h84.375c0.657,0,1.094,0.436,1.094,1.094v47.188
	c0,0.657-0.437,1.094-1.094,1.094H39.57h-1.328l-0.977,0.938L25.82,76.27l-0.195-8.672l-0.039-3.281h-3.32H7.812
	c-0.658,0-1.094-0.437-1.094-1.094V16.035C6.719,15.377,7.155,14.941,7.812,14.941z"></path><polygon points="24.174,33.822 17.816,33.4 14.643,28.406 12.283,33.772 6.046,35.041 10.934,38.846 10.321,44.646 15.669,41.571 
	21.457,43.906 19.939,38.232 "></polygon><polygon points="41.403,33.822 35.046,33.4 31.873,28.406 29.513,33.772 23.277,35.041 28.164,38.846 27.552,44.646 32.899,41.571 
	38.687,43.906 37.169,38.232 "></polygon><polygon points="58.633,33.822 52.276,33.4 49.103,28.406 46.743,33.772 40.507,35.041 45.395,38.846 44.781,44.646 50.13,41.571 
	55.918,43.906 54.4,38.232 "></polygon><polygon points="75.865,33.822 69.506,33.4 66.334,28.406 63.974,33.772 57.737,35.041 62.625,38.846 62.011,44.646 67.359,41.571 
	73.147,43.906 71.629,38.232 "></polygon><path d="M79.241,44.442l0.613-5.8l-4.888-3.804l6.236-1.27l2.359-5.366l3.175,4.995l6.356,0.422l-4.234,4.41l1.519,5.673
	l-5.789-2.334L79.241,44.442z M77.556,35.444l3.469,2.701l-0.448,4.248l3.928-2.258l4.225,1.703l-1.104-4.127l3.017-3.142
	l-4.54-0.302l-2.359-3.712l-1.753,3.987L77.556,35.444z"></path></svg>