<svg xmlns="http://www.w3.org/2000/svg" xmlns:xlink="http://www.w3.org/1999/xlink" version="1.1" x="0px" y="0px" viewBox="0 0 128 128" enable-background="new 0 0 128 128" xml:space="preserve"><g><path fill="#000000" d="M37.9,46.5c0.9,0,1.8-0.2,2.6-0.6l11.2,7.7c-0.1,0.5-0.2,1-0.2,1.5c0,3.3,2.7,6,6,6c3.3,0,6-2.7,6-6   c0-0.9-0.2-1.7-0.5-2.4l8-7.9c0.7,0.3,1.5,0.5,2.3,0.5c1.4,0,2.7-0.5,3.7-1.3l7.6,9.3c-0.4,0.8-0.7,1.7-0.7,2.7c0,3.3,2.7,6,6,6   s6-2.7,6-6c0-3.3-2.7-6-6-6c-0.8,0-1.6,0.2-2.4,0.5l-8.4-10.2c0-0.3,0.1-0.6,0.1-1c0-3.3-2.7-6-6-6c-3.3,0-6,2.7-6,6   c0,1,0.2,1.9,0.7,2.8l-7.8,7.7c-0.8-0.4-1.7-0.6-2.7-0.6c-1.3,0-2.5,0.4-3.5,1.1l-10.6-7.3c0.3-0.7,0.5-1.6,0.5-2.4   c0-3.3-2.7-6-6-6s-6,2.7-6,6C31.9,43.8,34.6,46.5,37.9,46.5z"></path><path fill="#000000" d="M114.2,10.7H13.8v73.8h100.3V10.7z M104,74.3H24V20.9h80V74.3z"></path><path fill="#000000" d="M114.2,89.6H13.8L1,117.3h126L114.2,89.6z M73.9,107.6H54.1c-1.1,0-2-0.9-2-2s0.9-2,2-2h19.8   c1.1,0,2,0.9,2,2S75,107.6,73.9,107.6z"></path></g></svg>