<svg xmlns="http://www.w3.org/2000/svg" xmlns:xlink="http://www.w3.org/1999/xlink" version="1.1" x="0px" y="0px" viewBox="0 0 100 100" enable-background="new 0 0 100 100" xml:space="preserve"><path d="M73.5,55.4c-10.3,0-18.6,8.3-18.6,18.6s8.3,18.6,18.6,18.6S92.1,84.2,92.1,74S83.8,55.4,73.5,55.4z M83.6,76.5H76v7.6h-5  v-7.6h-7.6v-5H71v-7.6h5v7.6h7.6V76.5z M39.8,32.5c-1.4,0-2.5-1.1-2.5-2.5s1.1-2.5,2.5-2.5h1.6h7.5h4.5h7.9h1.2  c1.4,0,2.5,1.1,2.5,2.5s-1.1,2.5-2.5,2.5h-1.2h-2.4H43.3h-1.9H39.8z M18.6,50c0-1.4,1.1-2.5,2.5-2.5h10.3h5.3h10.2h4.4h11.1  c1.4,0,2.5,1.1,2.5,2.5c0,1.4-1.1,2.5-2.5,2.5H47.1v0H36.6v0H21.1C19.8,52.5,18.6,51.4,18.6,50z M21.1,37.5h18.7v0h3.9v0h18.7  c1.4,0,2.5,1.1,2.5,2.5c0,1.4-1.1,2.5-2.5,2.5H51.4h-5.5h-8.1h-6.3H21.1c-1.4,0-2.5-1.1-2.5-2.5C18.6,38.6,19.8,37.5,21.1,37.5z   M51.4,62.5h-6.8H39h-7.6H21.1c-1.4,0-2.5-1.1-2.5-2.5v0c0-1.4,1.1-2.5,2.5-2.5h16.2v0h9v0h9.8c-1.4,1.5-2.6,3.2-3.6,5H51.4z   M18.6,70c0-1.4,1.1-2.5,2.5-2.5h20.5h0.3h8.5c-0.4,1.6-0.7,3.3-0.8,5h-3H37H21.1C19.8,72.5,18.6,71.4,18.6,70z M18.4,80  c0-1.4,1.1-2.5,2.5-2.5h28.9c0.3,1.7,0.7,3.4,1.3,5H20.9C19.5,82.5,18.4,81.4,18.4,80z M76.1,17.7v5.7v1.7v25.1  C75.3,50,74.4,50,73.5,50c-0.8,0-1.6,0-2.4,0.1V23.4v-5.7c0-3.1-2.5-5.6-5.6-5.6H32.3v8.1c0,5.8-4.8,10.6-10.6,10.6h-8.9v51.4  c0,3.1,2.5,5.6,5.6,5.6h35.6c1.4,1.9,3,3.6,4.8,5H18.5c-5.9,0-10.6-4.7-10.6-10.6v-53c0-0.6,0.1-1.3,0.4-1.9  c0.3-0.6,0.6-1.1,1.1-1.6L27.4,8.5c0.4-0.4,1-0.8,1.5-1c0.6-0.2,1.2-0.3,1.8-0.3h34.7C71.4,7.1,76.1,11.9,76.1,17.7z"></path></svg>