<svg id="audio_tape" data-name="audio tape" xmlns="http://www.w3.org/2000/svg" viewBox="0 0 179.52 90.18"><defs><style>.cls-1{fill:#fff;}.cls-2{fill:#231f20;}</style></defs><title>CC_comodicons_big_audiotape</title><path class="cls-1" d="M17.47,137.78l1.31-4.49,9.12-12,15.71-19,7.48-10.34,5.9-6.6,3-4.05,5.54-1,14.39,0.18,18.89-1.75,15.91-2.07,13.71-2.39,18.87-1.27,13.34-2.2,12.08-1.44,9.78,0.25s5.13-.64,5.56-0.52,3.43,1.68,3.43,1.68l0,3.14,1.05,11.52-0.85,18.26,1.06,3.43v5.83l1.22,28.41,0.54,4.32,0.24,3.84v4L193,156l-6.9.84-10.36-.65-9-.16-3,.65-8.78.53h-4.65l-4.9.12-10.86-1.07-6.58.15-10.67-1.4-55.8-10.8Z" transform="translate(-17.36 -68.52)"/><path class="cls-1" d="M134.61,142.54l0-.15-0.94-.17-0.32.76,1.25-.46a0.8,0.8,0,0,0,1.15.36l-0.48-.66Zm6.09-62.33c0.2,0.13.33,0.46,0.71,0.2a0.89,0.89,0,0,0-.2-0.34,0.34,0.34,0,0,0-.52.17,1.47,1.47,0,0,0-.11-0.27c-0.43.08-.85,0.18-1.32,0.29,0.33,0.41.34,0.43,0.52,0.36S140.39,80.36,140.7,80.22Zm3.85,9.57-0.93.19,0.53,0.6,0.4-.8c-0.15.63,0.47,0.6,0.76,0.78s0.53-.26.84-0.4c-0.19-.32-0.38-0.43-0.68-0.25A0.72,0.72,0,0,1,144.55,89.78Zm8.35-11.1a3.5,3.5,0,0,1-1.43.14,1.53,1.53,0,0,0-.46.1l-1.23.36a0.87,0.87,0,0,0,.32.21,8.25,8.25,0,0,1,1.24-.08,1.36,1.36,0,0,0,1.57-.73l0,0.37a2.28,2.28,0,0,0,1.92,0,1.36,1.36,0,0,1,.87-0.17,4.63,4.63,0,0,0,1.94,0,7.35,7.35,0,0,1,1.56-.16,5.51,5.51,0,0,0,2.75-.58,0.24,0.24,0,0,1,.15,0,7.37,7.37,0,0,0,1.66-.06c0.83,0,1.62-.18,2.44-0.17a0.75,0.75,0,0,0,.46-0.06,0.58,0.58,0,0,1,.84-0.07c0.27-.47.55,0,0.86,0.07a0.43,0.43,0,0,0-.42-0.59,14.27,14.27,0,0,0-1.6,0c-0.73.06-1.45,0.17-2.18,0.25a9.3,9.3,0,0,1-1.41.1,4,4,0,0,0-1.16.15,15.69,15.69,0,0,1-1.88.24,7,7,0,0,0-1.64.21,3,3,0,0,1-1.12.13c-0.26,0-.52,0-0.78,0ZM140.51,95.77v0a0.32,0.32,0,0,1-.27.41c-1,.34-2,0.64-3,1a7.71,7.71,0,0,0-2.41,1,7.39,7.39,0,0,1-1.33.74l-0.58-.64c-0.13.35-.2,0.57-0.29,0.79a6.79,6.79,0,0,0-.44,3.44,3,3,0,0,0,.95,1.77c0.74,0.72,1.74.37,2.5,0.85a0.48,0.48,0,0,0,.15,0l1.76-.13c0.66-.05,1.33-0.06,2-0.17,1-.16,2-0.41,3-0.59a17.81,17.81,0,0,0,5.23-1.92,5.67,5.67,0,0,0,1.6-1.42,2.39,2.39,0,0,0,.43-2.26,15.48,15.48,0,0,0-.88-2,0.39,0.39,0,0,0-.19-0.15A19.71,19.71,0,0,0,146,95.28a14.46,14.46,0,0,0-4.67-.42c-0.31,0-.61.14-0.92,0.15a10.63,10.63,0,0,0-5.67,1.58,6.87,6.87,0,0,0-1.63,1.52l0.23,0.23a4.38,4.38,0,0,1,1.6-1.26A17.07,17.07,0,0,1,140.51,95.77ZM152,89.95l0.07-.55-2.21.41a1.81,1.81,0,0,0,2.17.12,0.7,0.7,0,0,0,.29.18c0.77,0,1.54-.08,2.31-0.14a13.28,13.28,0,0,1,2.58-.19,15.59,15.59,0,0,0,2.9-.18,13.51,13.51,0,0,1,2.52-.21h0.24c1-.12,2-0.24,3-0.37,1.75-.23,3.51-0.29,5.26-0.47s3.21-.43,4.84-0.46a1.24,1.24,0,0,0,.54-0.23c0.39,0,.63.06,0.86,0.05s0.4-.08.61-0.09a19.43,19.43,0,0,0,2.54-.29c1.38-.29,2.79-0.12,4.17-0.38a25.27,25.27,0,0,1,3.15-.2,4.47,4.47,0,0,1,.54-0.11,5.59,5.59,0,0,1,2.52.9,0.83,0.83,0,0,1,.35.56,29.75,29.75,0,0,1,.15,3.19c-0.12,3.8,0,7.59.19,11.39a10.88,10.88,0,0,0,.19,2.08,20.64,20.64,0,0,1,.7,4.63c0,0.77.21,1.54,0.22,2.31s-0.12,1.73-.14,2.6c0,0.61.09,1.21,0.11,1.82,0.05,1.92.11,3.85,0.12,5.77,0,2.81,0,5.62,0,8.42,0,1.39,0,2.78,0,4.17a55.25,55.25,0,0,1,.16,5.6,1.65,1.65,0,0,0,.11.53,0.86,0.86,0,0,1-.23,1,5.37,5.37,0,0,1-.74.61,9.08,9.08,0,0,1-4,1.19c-0.31,0-.62.06-0.93,0.11-0.92.13-1.83,0.3-2.75,0.41-0.57.07-1.16,0.06-1.73,0.08a0.26,0.26,0,0,0-.29.36,1.65,1.65,0,0,0-1.07-.36c-0.36,0-.72-0.11-1.08-0.13s-0.71,0-1.06,0c0,0.42.12,0.61,0.38,0.45a0.66,0.66,0,0,1,.72,0,4.58,4.58,0,0,0,2,.1,0.33,0.33,0,0,0,.08-0.13,1.36,1.36,0,0,0,.48.22,7.1,7.1,0,0,1,1.26,0,9.17,9.17,0,0,0,3.08-.22c1.59-.19,3.18-0.45,4.76-0.71a0.72,0.72,0,0,1,.69.26,6.41,6.41,0,0,1,1,1.73,5.18,5.18,0,0,1,.6,2.86,20.05,20.05,0,0,0,0,2.47,7.35,7.35,0,0,1-.16,2.3,2.45,2.45,0,0,1-2,1.89c-1.43.35-2.93,0.18-4.34,0.66a1.74,1.74,0,0,1-.4,0c-2,.16-4-0.09-6,0.17a14.21,14.21,0,0,1-3.34,0c-0.76-.08-1.54.12-2.31,0.12-1.3,0-2.6-.09-3.91-0.11-0.87,0-1.75.06-2.62,0.05s-1.62-.09-2.43-0.1c-0.33,0-.68.14-1,0.1a5.21,5.21,0,0,0-2.69.48,10.1,10.1,0,0,1-3.1.93l-1.5.12c-0.35,0-.56.14-0.46,0.55a9.21,9.21,0,0,0,1,.15,5.78,5.78,0,0,0,1.52,0c0.77-.19,1.51-0.51,2.28-0.75a15.44,15.44,0,0,1,2.3-.62,16.83,16.83,0,0,1,2.54-.09c1.71,0,3.41.09,5.12,0.09,3,0,6,0,9-.05,1.64,0,3.29,0,4.93-.07,0.9,0,1.8-.14,2.69-0.26s1.72-.34,2.59-0.4a4.44,4.44,0,0,0,2.5-.92,1.93,1.93,0,0,0,.77-1.25,7.19,7.19,0,0,0,.11-1.36c0-1.74-.05-3.48-0.12-5.22,0-1,.12-2.14-0.63-3.05a1.86,1.86,0,0,0,1.29-.83,2.44,2.44,0,0,1,.68-1.37c0.08-.7.18-1.4,0.24-2.1,0-.28-0.09-0.58,0-0.86a42.56,42.56,0,0,0,0-5.41c0-1.11-.08-2.22-0.09-3.33,0-.77.07-1.53,0.11-2.3,0-.13,0-0.26,0-0.4,0-.93-0.06-1.86-0.05-2.78,0-.63.12-1.27,0.09-1.9-0.08-1.66-.23-3.32-0.31-5a2.69,2.69,0,0,0-1-2.06l-2.06-1.7a5.23,5.23,0,0,1-.09-0.72c0-.66,0-1.32.05-2a15.8,15.8,0,0,0,.15-1.65c-0.08-1.66-.23-3.31-0.34-5a1.74,1.74,0,0,0-.44-1.25,1.11,1.11,0,0,1-.19-0.59,6.33,6.33,0,0,1,0-.72c-0.07-1.62-.18-3.23-0.2-4.85s0.07-3.3.07-4.95c0-1.24-.18-2.49-0.09-3.72a45.45,45.45,0,0,0,0-6.13,9.16,9.16,0,0,1,.07-0.95,2.16,2.16,0,0,0,0-1c-0.18-.34.22-0.6,0-0.91a1.48,1.48,0,0,1-.12-0.62c0-.32.55-0.67,0-0.92a16.2,16.2,0,0,0,.15-5.69L192,72.7a0.73,0.73,0,0,0,.1-1.1,2.88,2.88,0,0,1-.68-0.91,0.76,0.76,0,0,0-.6-0.7c-0.36-.17-0.73-0.31-1.1-0.45a19,19,0,0,0-7.08-1c-1.92,0-3.85.19-5.77,0.36-2.37.21-4.74,0.46-7.11,0.73-1.93.22-3.86,0.5-5.8,0.73s-3.61.41-5.41,0.62c-2.25.26-4.51,0.55-6.76,0.8-2.07.24-4.14,0.45-6.21,0.67-2.9.31-5.8,0.63-8.7,0.93s-5.69.56-8.53,0.84c-0.55.05-1.11,0.06-1.65,0.14-1,.14-2.09.31-3.14,0.49-0.6.1-1.19,0.22-1.79,0.34l0,0c-0.55,0-1.1,0-1.64.08-1,.11-2.06.29-3.09,0.39-1.56.15-3.13,0.2-4.68,0.4-3.14.4-6.28,0.88-9.42,1.31-1.46.2-2.93,0.34-4.4,0.5C97.73,77.93,96.85,78,96,78.1c-2.68.3-5.36,0.65-8,.92-2.4.24-4.8,0.42-7.21,0.56-2.94.17-5.88,0.34-8.83,0.39-1.68,0-3.35.06-5,.21-0.29,0-.59.05-0.88,0.06a20.73,20.73,0,0,0-4.61.47,5.73,5.73,0,0,0-3,1.81c-1,1.13-1.86,2.34-2.77,3.52l-4.11,5.32c-1.21,1.56-2.47,3.08-3.6,4.69a61.35,61.35,0,0,1-4.39,5.72,1.07,1.07,0,0,0-.14,1.26,4,4,0,0,0,.56-0.48c1.37-1.75,2.73-3.49,4.07-5.26a1.55,1.55,0,0,1,1.19-.69c1.41-.11,2.82-0.27,4.23-0.38,1.92-.15,3.84-0.33,5.76-0.39,2.21-.07,4.43,0,6.64,0,1.25,0,2.51-.1,3.76-0.16,1.79-.09,3.58-0.16,5.36-0.3,2.59-.21,5.17-0.48,7.75-0.72,2.19-.2,4.37-0.4,6.56-0.57,2.45-.19,4.89-0.4,7.34-0.52,1.38-.07,2.76-0.08,4.14-0.21,2.89-.27,5.79-0.42,8.69-0.61l7.1-.45,2.86-.2c0.39,0,.78-0.09,1.18-0.11,0.81,0,1.63,0,2.44-.1a39,39,0,0,1,5.55-.33,2.57,2.57,0,0,0,.4,0l3.82-.47a14.47,14.47,0,0,0,2.4-.12,8.93,8.93,0,0,0,1.33-.16c0.51,0,1,0,1.52-.07s0.93-.4,1.47-0.42c-0.62-.4-1.25-0.07-1.85-0.1a17.12,17.12,0,0,1-1.94.15,4.41,4.41,0,0,0-2,.06l-0.69.1L132.8,91l-0.53-.66a1.37,1.37,0,0,1-1.74.24,1.19,1.19,0,0,0-.68-0.07,5.84,5.84,0,0,1-1.56.19c-1.26-.25-2.47.23-3.71,0.17-0.76,0-1.53.07-2.29,0.11-0.93,0-1.86.07-2.79,0.13l-4.29.29c-0.79.06-1.58,0.13-2.37,0.19l-4.53.28c-0.53,0-1,.12-1.57.15l-4.53.32c-0.9.06-1.8,0.14-2.71,0.18-1.73.07-3.46,0.07-5.19,0.19-2.67.19-5.33,0.46-8,.67q-4.89.39-9.77,0.75c-3.18.24-6.36,0.49-9.54,0.67q-5.13.29-10.26,0.46a37.09,37.09,0,0,0-6.84.62,5.81,5.81,0,0,1-.7.06,4.12,4.12,0,0,1,.27-0.58c1.19-1.68,2.33-3.4,3.58-5,1.87-2.44,3.81-4.83,5.75-7.22a4.41,4.41,0,0,1,2-1.39,15.28,15.28,0,0,1,3.71-.63c2.15-.2,4.32-0.09,6.45-0.47a2.22,2.22,0,0,1,.32,0c5-.15,10.07,0,15.09-0.62,2.07-.25,4.18-0.25,6.24-0.57s4.13-.27,6.15-0.74a5.7,5.7,0,0,1,.79-0.12c1.28-.11,2.57-0.19,3.84-0.34,0.92-.11,1.83-0.32,2.75-0.47,1.1-.18,2.19-0.38,3.3-0.48A10.4,10.4,0,0,1,112,77s0.1,0,.15,0a14.74,14.74,0,0,0,2.5-.39c0.44,0,.87,0,1.31-0.07a2.12,2.12,0,0,1,1.08-.14,3,3,0,0,0,1-.07,11.32,11.32,0,0,0,1.63-.15c1.46-.16,2.92-0.29,4.38-0.47l8.6-1.06c2-.24,4-0.43,6-0.67,1.46-.17,2.91-0.41,4.36-0.58,2.69-.3,5.39-0.57,8.09-0.86l1.9-.23c0.63-.07,1.27-0.17,1.91-0.2a13.3,13.3,0,0,0,1.81-.21c0.52-.1,1-0.1,1.57-0.17,1.13-.14,2.27-0.31,3.4-0.44,1.42-.16,2.84-0.3,4.26-0.46l1.82-.2c0.88-.09,1.76-0.16,2.63-0.26,2-.23,4-0.56,6-0.7s4.07-.12,6.1-0.14c1.44,0,2.89.09,4.33,0a7.39,7.39,0,0,1,2.55.25,2.47,2.47,0,0,1,1.94,2.4c0.06,1.08.22,2.15,0.32,3.22a3,3,0,0,1,0,.55,15.92,15.92,0,0,0-.19,2.2,19.55,19.55,0,0,1,0,2.79c-0.07.71-.06,1.44-0.06,2.16,0,1.17,0,2.34,0,3.54a4.38,4.38,0,0,0-.89-0.36c-1.56-.27-3.11-0.7-4.73-0.15a9.74,9.74,0,0,1-2.19.32,3.51,3.51,0,0,1-.77-0.12,0.88,0.88,0,0,0-.53,0,1.81,1.81,0,0,1-1.32.26l-0.87.07c-1,.11-1.9.33-2.88,0.37-1.21.06-2.41,0.28-3.62,0.38a16.84,16.84,0,0,1-3,.29c-0.49,0-1,.14-1.5.12-0.29,0-.37.57-0.72,0.2a17.69,17.69,0,0,0-3,.18,13.82,13.82,0,0,1-2.72.35c-0.94,0-1.88.13-2.82,0.2s-1.65.09-2.48,0.16-1.4.16-2.1,0.25a0.62,0.62,0,0,0-.37.12,1,1,0,0,1-1.22.11,1,1,0,0,0-1,.16C152.33,89.69,152.17,89.82,152,89.95Zm-0.88,52.56-1.17.09c-0.23,0-.41.11-0.33,0.41l1.15,0.06,0.35-.57a0.74,0.74,0,0,0,.68.65,7.13,7.13,0,0,0,1.15-.06,12.25,12.25,0,0,1,1.54-.09,1.05,1.05,0,0,0,1.07-.48l0.05,0.38a0.85,0.85,0,0,1,.69.35,2.2,2.2,0,0,0,.51.2c0.21,0,.37,0,0.32-0.24-0.43-.26-0.82-0.5-1.22-0.71a0.79,0.79,0,0,0-.38,0,5.76,5.76,0,0,1,.57-0.84,1.53,1.53,0,0,0,.46-1.15c0-.94,0-1.87-0.07-2.81-0.09-1.73-.22-3.46-0.3-5.2-0.07-1.52-.11-3-0.16-4.56a5.1,5.1,0,0,1,0-1,9.68,9.68,0,0,0-.3-3.48,1.1,1.1,0,0,0-.76-0.85c-0.41-.16-0.78-0.42-1.19-0.59a2,2,0,0,0-.7-0.09c-0.71,0-1.43,0-2.14,0-0.93,0-1.85-.16-2.78-0.19-1.27,0-2.55,0-3.82,0s-2.66-.15-4-0.06-2.65,0-4,0a5.72,5.72,0,0,0-1.42,0c-1.28.31-2.53-.13-3.81,0a32.28,32.28,0,0,1-3.34-.1c-1.95,0-3.89.06-5.84-.11-1.4-.13-2.81,0-4.22-0.06-1.94-.07-3.88-0.19-5.82-0.28-1.43-.06-2.87-0.12-4.3-0.16-0.64,0-1.28,0-1.92,0-1.87,0-3.74,0-5.6,0-1.25,0-2.49-.06-3.74-0.09-0.11,0-.21,0-0.32,0-1.17,0-2.34.11-3.51,0.1s-2.34-.14-3.51-0.15c-2.24,0-4.47.06-6.71-.05s-4.27,0-6.4.07l-6.58.09c-0.85,0-1.71,0-2.56,0-0.61,0-1.23.09-1.84,0.14-1.57.12-3.14,0.26-4.71,0.35-1,.05-2.08,0-3.12,0-0.58,0-1.17,0-1.75-.06-1.38,0-2.77-.09-4.15-0.11a0.88,0.88,0,0,0-.56.19,42.78,42.78,0,0,0-4.52,4.77c-2,2.43-4.22,4.61-6.37,6.89-1.47,1.56-3.13,3-3.62,5.29H35.73c-1.89-.09-3.79-0.23-5.68-0.24-1.49,0-3,.17-4.47.21s-2.88,0-4.32,0c-0.79,0-1.58-.2-2.37-0.3a0.52,0.52,0,0,1-.49-0.68,10.37,10.37,0,0,1,.44-1.95,20.06,20.06,0,0,1,1.79-3.47,56.17,56.17,0,0,1,4.83-6.39c1.32-1.54,2.66-3.06,3.92-4.65,1.95-2.45,3.83-4.94,5.74-7.42l5.56-7.16c0.28-.36.6-0.68,0.86-1a7.15,7.15,0,0,0,1.25-2,6.83,6.83,0,0,0-1.32,1.09c-1.31,1.51-2.62,3-3.86,4.58-2.32,2.9-4.64,5.8-6.86,8.77s-4.44,5.48-6.77,8.13A39.68,39.68,0,0,0,18.43,134a5.32,5.32,0,0,0-.92,3.65,0.41,0.41,0,0,1,0,.15,6,6,0,0,0,.6,3.8c0.54,1.22,1.07,2.45,1.67,3.64a14.84,14.84,0,0,0,1.87,3.53,1.55,1.55,0,0,1,.4.48,0.68,0.68,0,0,0,.72.51c1.55,0.11,3.09.28,4.64,0.32,4.26,0.11,8.52.17,12.78,0.23a1,1,0,0,1,1,.49,1,1,0,0,0,.84.54c1.22,0.13,2.44.29,3.66,0.37,1.84,0.13,3.69.21,5.53,0.3l4.49,0.19,4.41,0.16a7.72,7.72,0,0,1,1,.1,0.77,0.77,0,0,1,.48.24,2.08,2.08,0,0,0,1.58.83c0.45,0.06.9,0.13,1.35,0.18a34.77,34.77,0,0,0,5.6.34,4.41,4.41,0,0,1,1.35.06,20.87,20.87,0,0,0,4.78.47l5.29,0.11c1.33,0,2.66,0,4,.07,0.53,0,1.06.12,1.6,0.14,1.84,0.05,3.68.06,5.52,0.13,2.51,0.09,5,.23,7.52.3,2,0.06,4.08.07,6.12,0.09,1.16,0,2.32,0,3.47,0a9.25,9.25,0,0,0,2.67.15,5.12,5.12,0,0,0,2,.14,18.11,18.11,0,0,1,2.11,0c0.76,0.19,1.52.14,2.27,0.26,0.3,0.05.62,0,.92,0,0.65,0.06,1.29.19,1.95,0.22,2.1,0.1,4.2.17,6.3,0.26,1.14,0.05,2.28.14,3.42,0.2,1.36,0.07,2.73.1,4.08,0.22,1.07,0.09,2.14-.06,3.21.13,0.48,0.09,1,0,1.52,0a3.91,3.91,0,0,0,.93,0,1.36,1.36,0,0,1,1.44.34l-0.07-.81-0.7-.05a1.83,1.83,0,0,0-.93-0.05,1.66,1.66,0,0,1-1.27,0c-0.21,0-.42-0.09-0.63-0.09a9.29,9.29,0,0,1-3-.2,6.82,6.82,0,0,0-2.66-.14,3,3,0,0,1-1.7-.24,2.75,2.75,0,0,1-.69-1.4,27.93,27.93,0,0,0-1.95-5.3,2.52,2.52,0,0,1-.25-0.67,44.81,44.81,0,0,1-1.31-5.11,10.06,10.06,0,0,0-.24-1c0.44,0,.78,0,1.11,0,0.07,0,.14.29,0.2,0.28,0.46-.05.92-0.14,1.41-0.22,0-.27-0.05-0.48-0.47-0.42a4.26,4.26,0,0,1-1.69-.14,1,1,0,0,1-1-1,1,1,0,0,0-.74-0.93,3.74,3.74,0,0,0-.93-0.2c-0.63-.07-1.27-0.1-1.9-0.15l-2.72-.2c-1-.07-2-0.12-3-0.19a23.29,23.29,0,0,0-2.92-.23,17.22,17.22,0,0,1-2.82-.21c-0.63-.07-1.26-0.11-1.89-0.13-1.08,0-2.17,0-3.24-.06a30.54,30.54,0,0,0-3.89-.21c-0.5,0-1,0-1.51,0-1.51,0-3-.1-4.53,0a25.62,25.62,0,0,1-3.8,0,6.27,6.27,0,0,0-1.75,0c-1.33.26-2.7-.25-4,0.24a1.28,1.28,0,0,1-.47-0.05,10.5,10.5,0,0,0-2-.13,18.78,18.78,0,0,1-3.26.08c-1.46-.09-2.92.32-4.37-0.07a0.33,0.33,0,0,0-.16,0,16.88,16.88,0,0,1-4,.25H71.34c-0.47,0-.95,0-1.42,0a14.41,14.41,0,0,0-2.3-.1,7,7,0,0,1-2.42.14,29,29,0,0,0-3.48,0,35.07,35.07,0,0,1-4.22-.22,31.41,31.41,0,0,0-3.82-.28c-0.8,0-1.6.13-2.39,0.08a23.09,23.09,0,0,0-3.59-.06c-1.37.13-2.76,0.06-4.15,0.09-1.15,0-2.29.06-3.44,0.07-0.85,0-1.7,0-2.55,0l-0.45,0a3.4,3.4,0,0,1,.82-1.76,43.39,43.39,0,0,1,3.75-4.17c1.19-1.26,2.39-2.53,3.55-3.82q2.6-2.89,5.16-5.82a1.74,1.74,0,0,1,1.55-.63c1.84,0.1,3.69.21,5.53,0.2s3.68,0,5.53-.22a52.81,52.81,0,0,1,6.81-.23c3.18,0.08,6.36-.06,9.54-0.07,3.58,0,7.16,0,10.75.05l9.53,0,5.85,0c1.83,0,3.66.1,5.49,0.21,2,0.12,4,.15,6,0.18,1.3,0,2.6.09,3.91,0.07,1.49,0,3,.12,4.48.17q2.47,0.08,5,.12c0.85,0,1.7,0,2.55,0,1.89,0,3.77,0,5.66,0,1.28,0,2.55-.07,3.82-0.07q2.77,0,5.55,0c0.79,0,1.57.09,2.36,0.14,0.47,0,.95.08,1.42,0.09,0.79,0,1.58,0,2.24,0a1.7,1.7,0,0,0,.44.45,1.19,1.19,0,0,1,.83,1.22c0,0.37.08,0.75,0.08,1.12,0,1.36,0,2.73,0,4.09,0,0.59.08,1.17,0.1,1.76,0,1.5.05,3,.11,4.49s0.16,3,.21,4.57a1.06,1.06,0,0,1-.22.72,2.82,2.82,0,0,1-2,.85,4.28,4.28,0,0,0-1.31.27C151.81,142.38,151.46,142.43,151.12,142.51ZM90.81,105c1.19,0,2.3-.08,3.4,0a37.58,37.58,0,0,0,4.3,0c1,0,2,0,3-.12,1.19-.09,2.38-0.28,3.57-0.36,1.88-.13,3.77-0.19,5.66-0.3a23.24,23.24,0,0,0,3.18-.31,4.91,4.91,0,0,1,1.67-.14,0.87,0.87,0,0,0,.37.12c1.16-.09,2.32-0.12,3.48-0.14a12.57,12.57,0,0,0,3.91-.4,3,3,0,0,1,1.23-.06A3.58,3.58,0,0,0,127,103l0.53,0.49a1.27,1.27,0,0,0,.29-0.52,1.56,1.56,0,0,1,.29-1.42,45,45,0,0,0,1.93-5.26,1.09,1.09,0,0,0-.23-1.36c-1.66.21-3.29,0.45-4.93,0.62-1.17.12-2.34,0.16-3.51,0.22-1.92.1-3.84,0.21-5.76,0.27-1.59.05-3.19,0-4.79,0.07-1.84.1-3.68,0.28-5.51,0.46s-3.61.43-5.41,0.59c-1.61.15-3.23,0.19-4.84,0.33-1.11.1-2.22,0.29-3.33,0.42-0.45.05-.91,0-1.36,0.1a0.48,0.48,0,0,0-.34.32,0.51,0.51,0,0,0,.31.37,2.1,2.1,0,0,0,.71,0c0.58-.08,1.16-0.22,1.74-0.24a0.8,0.8,0,0,1,.88,1.21c-0.25.66-.58,1.29-0.81,2a12.5,12.5,0,0,1-2,2.94l-2.29.25a1,1,0,0,1-.24,0l-0.56-.1c0.15-.45.25-0.83,0.41-1.19A16.27,16.27,0,0,1,89,101a0.91,0.91,0,0,0,.14-0.45,0.79,0.79,0,0,0-.15-0.31,0.77,0.77,0,0,0-.35.21,2.5,2.5,0,0,0,0,.65,0.65,0.65,0,0,0-.59.61,3.63,3.63,0,0,1-.36,1c-0.24.46-.55,0.88-0.78,1.35a1.17,1.17,0,0,0-.07.69,1.29,1.29,0,0,0,1.39,1.09,6.33,6.33,0,0,0,2.43-.23ZM138.63,80.6V80.4L138,80.33a15.71,15.71,0,0,0-3.18.36c-0.31,0-.62.28-0.9-0.07a0.3,0.3,0,0,0-.21,0C132.9,81,132,80.73,131.12,81c-0.62.21-1.36,0-2,.2s-1.33,0-2,.13a12.84,12.84,0,0,0-2.91.53,0.46,0.46,0,0,1-.3,0c-0.83-.27-1.63.14-2.46,0.07a19.84,19.84,0,0,0-2.54.08l-0.56,0c-1.48.15-2.95,0.33-4.43,0.46-1.32.11-2.66,0.13-4,.24-1,.09-2.05.29-3.09,0.39-1.38.14-2.76,0.21-4.13,0.34-1,.09-2,0.2-2.94.31-1.32.15-2.65,0.29-4,.46-0.95.12-1.88,0.28-2.83,0.4s-1.77.23-2.66,0.32c-0.68.07-1.36,0.13-2,.17-1.09.07-2.18,0.11-3.27,0.19a26.41,26.41,0,0,1-4.59.31,0.46,0.46,0,0,0-.24,0,4,4,0,0,1-2,.22c-2.1.1-4.2,0-6.3,0.07-1.24,0-2.48.17-3.71,0.28-1,.08-1.9.22-2.85,0.28s-1.87,0-2.8,0-2.07.12-3.11,0.21a8.19,8.19,0,0,1-.88.18,9.9,9.9,0,0,1-1.3-.22l0.27,0.91a7.06,7.06,0,0,0,.86-0.1,30.49,30.49,0,0,1,5.27-.4c2.26-.15,4.52-0.22,6.78-0.33,1.28-.06,2.55-0.15,3.83-0.2,1.92-.08,3.84-0.11,5.75-0.2,1.54-.07,3.08-0.2,4.62-0.32,1.06-.09,2.12-0.21,3.18-0.33,0.55-.06,1.1-0.18,1.66-0.24s1,0,1.43,0a17.18,17.18,0,0,1,3.75-.18,1.13,1.13,0,0,0,.4,0,36.18,36.18,0,0,1,4.19-.53c2.67-.3,5.35-0.49,8-0.66,1.9-.12,3.78-0.45,5.67-0.66,1.43-.16,2.86-0.31,4.3-0.43,2.56-.21,5.13-0.38,7.69-0.61,1.62-.15,3.24-0.38,4.86-0.57l1.73-.21a5.88,5.88,0,0,0,1.61-.26c0.57-.26,1.09.1,1.63-0.06h0.16a13.63,13.63,0,0,1,3.16-.4A1.3,1.3,0,0,0,138.63,80.6ZM85.69,101.11c-0.24-1.05-.41-2-1.4-2.46a16.91,16.91,0,0,0-1.8-.68,3.43,3.43,0,0,0-1-.17,11.71,11.71,0,0,0-3.63.52c-0.41.13-.81,0.26-1.21,0.42-0.94.36-1.91,0.67-2.81,1.11a24.9,24.9,0,0,0-2.3,1.4,2.44,2.44,0,0,0-.7.51,19,19,0,0,0-1.35,2.07,1.93,1.93,0,0,0-.16,1.08,14.64,14.64,0,0,0,.35,1.46,1.4,1.4,0,0,0,.65,1.2,3.87,3.87,0,0,0,1.29.58c1.07,0,2.1.48,3.21,0.16a3,3,0,0,0,1.12-.3,2.09,2.09,0,0,1,.52-0.18c0.35-.13.69-0.26,1-0.4,0.17-.07.31-0.19,0.48-0.27,1-.44,2-0.8,2.86-1.33A17.27,17.27,0,0,0,85.18,102,5.12,5.12,0,0,0,85.69,101.11Zm71.21,53.66a3.27,3.27,0,0,1-2.35.53c-0.77,0-1.53-.08-2.3-0.11a7.08,7.08,0,0,1-1.55,0,0.81,0.81,0,0,0-.83.26c-0.27.23-.21,0.38,0.14,0.52a5.68,5.68,0,0,0,2.12.25c1,0,2.1,0,3.14.07a3.33,3.33,0,0,0,1.55-.15,1.14,1.14,0,0,0,.95-1.21,13.57,13.57,0,0,0,0-2.4,15.72,15.72,0,0,0-1-4.42,1.29,1.29,0,0,0-1.46-1c-1,0-2-.06-2.94-0.1-0.79,0-1.58-.12-2.37-0.15-1.33-.05-2.66-0.08-4-0.11-0.37,0-.75,0-1.12,0a17.88,17.88,0,0,0-4.84,0,1.67,1.67,0,0,1-.4,0l-2.61-.21c-0.55,0-1.09-.13-1.64-0.18a6.12,6.12,0,0,0-1.71-.11,7.58,7.58,0,0,1-2.77-.28c0.14-1.69.14-1.69-.25-1.86-0.18.55-.38,1.1-0.54,1.65-0.22.77,0,1.17,0.79,1.18a28,28,0,0,0,2.93.24,17.19,17.19,0,0,1,2.5.22q2.07,0.12,4.15.17c1.57,0,3.14,0,4.71,0,1.35,0,2.7.2,4.05,0.24a14.75,14.75,0,0,1,2.93.2,2.61,2.61,0,0,0,.56,0c0.82,0,1.65,0,2.47,0a0.71,0.71,0,0,1,.76.56c0.23,0.71.48,1.41,0.67,2.12A11.56,11.56,0,0,1,156.9,154.78Zm-3.69-52.6c0.35,0,.71.09,1.08,0.1,1.3,0,2.59.08,3.89,0,2.13-.05,4.26-0.16,6.39-0.25,1,0,1.91-.11,2.87-0.16l3.34-.18,2.13-.11c1.27-.08,2.54-0.14,3.81-0.27s2.56-.33,3.87-0.5a0.77,0.77,0,0,0-.58-0.74,2.49,2.49,0,0,0-1.39,0c-0.86.11-1.73,0.22-2.59,0.32s-1.47.13-2.21,0.19a1.41,1.41,0,0,1-.39.05,12.12,12.12,0,0,0-2.92.07A13.2,13.2,0,0,1,169,101a14.35,14.35,0,0,0-3.19.15,2.58,2.58,0,0,1-.31,0c-0.48,0-1,0-1.43,0-1,.08-2,0.23-3,0.3-0.41,0-.84-0.09-1.26-0.08-1.78,0-3.57,0-5.35.08a0.82,0.82,0,0,1-1-.45C152.88,101.48,152.88,101.48,153.21,102.17ZM155.08,95l0.51-.18a1.19,1.19,0,0,1,.41-0.19,4.47,4.47,0,0,1,1.88.12,1.53,1.53,0,0,0,.71,0l2.76-.17,1.64-.12c0.52,0,1-.1,1.57-0.1s1.32,0.08,2,.06c1.54-.05,3.08-0.15,4.62-0.23,1.22-.06,2.44-0.1,3.66-0.2s2.53-.31,3.8-0.41c0.94-.08,1.9,0,2.84-0.1a1.23,1.23,0,0,1,1,.17,0.32,0.32,0,0,0,.54-0.06,0.57,0.57,0,0,0-.07-0.51,1.19,1.19,0,0,0-1-.49c-1.33,0-2.66,0-4,.14-1,.08-2.05.35-3.08,0.43-1.68.13-3.37,0.19-5.05,0.27-0.71,0-1.43,0-2.14.06l-2.36.13-2.63.11c-0.55,0-1.11,0-1.66.06-0.8.09-1.61-.47-2.4,0.07a0.33,0.33,0,0,1-.24,0,7.81,7.81,0,0,0-2.55.21C155.26,94.11,155.24,94.18,155.08,95ZM135.19,139.4l2.67-.42a2.92,2.92,0,0,0,1.72-.94,2.32,2.32,0,0,0,.52-2.84,1.84,1.84,0,0,1-.29-0.81,1.43,1.43,0,0,0-.81-1.12,3.28,3.28,0,0,0-1.35-.48,13,13,0,0,0-3.57.1,2.3,2.3,0,0,0-1.31.71,10.23,10.23,0,0,0-1.09,1.46,2.94,2.94,0,0,0,.34,2.86A3.81,3.81,0,0,0,135.19,139.4Zm4.28,15,0-.15a5.42,5.42,0,0,0,1,0c0.95-.19,1.89-0.42,2.83-0.65a1,1,0,0,0,.79-0.72c0.15-.45.32-0.91,0.47-1.36a2.14,2.14,0,0,0-.76-2.47,1,1,0,0,0-1.34,0,1.18,1.18,0,0,1-.44.14,5.81,5.81,0,0,1-1.65.14,8.06,8.06,0,0,0-1.6-.07,3.1,3.1,0,0,0-2.48.89,2.22,2.22,0,0,0-.69,1.14,3.59,3.59,0,0,0,.29,2.17,0.6,0.6,0,0,0,.29.25,2.81,2.81,0,0,0,1.56.48A7.34,7.34,0,0,1,139.47,154.41ZM67.36,135.14a9.54,9.54,0,0,0,3.87-1,2.68,2.68,0,0,0,.54-4.24,3.34,3.34,0,0,0-2.64-.88,8.15,8.15,0,0,0-2.14.55,3.7,3.7,0,0,0-2.69,3.06,1.3,1.3,0,0,0,.09.76A3.08,3.08,0,0,0,67.36,135.14Zm53.15-2.78a1.45,1.45,0,0,0-.73-1.39,4.46,4.46,0,0,0-1.68-.66,9.28,9.28,0,0,0-2.86.06,3.21,3.21,0,0,0-2.78,3.59,1.47,1.47,0,0,0,1.13,1.48c0.74,0.2,1.48.41,2.24,0.54a4.24,4.24,0,0,0,3.31-.85A2.92,2.92,0,0,0,120.51,132.36Zm-70.12,4.43a9.42,9.42,0,0,0,4.18-1,2.69,2.69,0,0,0,1-3.61,1.26,1.26,0,0,0-1.06-.76c-0.8,0-1.59.14-2.38,0.21a7.42,7.42,0,0,0-2.66,1.07,3,3,0,0,0-1.57,2,1.54,1.54,0,0,0,1.57,2h1Zm-1-35.15A0.54,0.54,0,0,0,50,101.2a1.46,1.46,0,0,1,1.33-.86c1.12,0,2.23-.13,3.34-0.19l1.52-.09c0.93,0,1.87,0,2.8-.11,1.62-.1,3.24-0.24,4.86-0.36,1-.07,2-0.11,2.93-0.2a1.21,1.21,0,0,0,1.08-.56,1.56,1.56,0,0,0-.35-0.1c-0.65,0-1.31,0-2,0s-1.59.1-2.39,0.16c-1.51.11-3,.25-4.52,0.33s-3.24.14-4.85,0.22c-0.89,0-1.79.08-2.68,0.18a3.16,3.16,0,0,0-1.51,1A1.08,1.08,0,0,0,49.39,101.64Zm122.12-24a2.45,2.45,0,0,1,.73-0.12,5.27,5.27,0,0,0,2.55-.16,3.87,3.87,0,0,1,1.24-.14,3.4,3.4,0,0,0,1.83,0,2.42,2.42,0,0,1,1.34-.23,2.16,2.16,0,0,0,.83.08,1.37,1.37,0,0,1,1.25,0,0.88,0.88,0,0,0,.46.06,10.52,10.52,0,0,1,2.06-.13,12.74,12.74,0,0,0,2.43-.07,9.4,9.4,0,0,0,1.3-.1,0.89,0.89,0,0,1,.38.16,2.67,2.67,0,0,0,.77.26,4.27,4.27,0,0,0,.94-0.16c0-.48-0.2-0.64-0.79-0.68a17.53,17.53,0,0,0-2.32-.06c-1.08.08-2.14-.15-3.24,0a7.76,7.76,0,0,1-2.74-.09,2.41,2.41,0,0,0-.79,0c-1.23.13-2.45,0.28-3.68,0.4a8.19,8.19,0,0,0-1.83.17c-0.34.12-.8-0.21-1,0.26a0.79,0.79,0,0,1-.21,0L172.17,77C171.6,76.92,171.56,77,171.51,77.67ZM40.16,118.37a1,1,0,0,0,1.2,1.06,4,4,0,0,0,1.28-.41c1.17-.63,2.25-1.35,2.41-2.86a1.27,1.27,0,0,0-1.53-1.33,5.67,5.67,0,0,0-2.87,2.22A5.51,5.51,0,0,0,40.16,118.37Zm13.31-11.93a43.24,43.24,0,0,0,6.27-.12c2.06-.14,4.13-0.11,6.24-0.36l-0.15-.67c-1.7.07-3.34,0.13-5,.22q-3.11.16-6.21,0.36a3.62,3.62,0,0,0-.92.24A1,1,0,0,0,53.47,106.44ZM147.8,157c0.34,0.74.48,0.79,1.1,0.7a4.31,4.31,0,0,1,1.09,0,4.82,4.82,0,0,0,1.32.2c0.92-.18,1.83.46,2.73,0a0.39,0.39,0,0,1,.22.07,1.92,1.92,0,0,0,1.83.05c0.6,0.36,1.12,0,1.76.18a1.36,1.36,0,0,0-.35-0.43c-0.71,0-1.38-.47-2.1-0.2-0.34.13-.28-0.21-0.4-0.3a2.06,2.06,0,0,1-.69.22,11,11,0,0,1-2.74-.31c-1.09-.37-2.18-0.06-3.25-0.3A1.57,1.57,0,0,0,147.8,157Zm1.53-14.22a2.66,2.66,0,0,0-1.58-.14c-0.44,0-.89.07-1.33,0.08a4.29,4.29,0,0,0-1.09,0c-0.6.19-1.2-.18-1.78,0a1.9,1.9,0,0,0-2,.32,0.72,0.72,0,0,0,.91.22,1.93,1.93,0,0,1,1.77,0,1,1,0,0,0,1.28-.14,0.43,0.43,0,0,1,.36-0.13c0.79,0.16,1.6-.25,2.4.1A0.89,0.89,0,0,0,149.33,142.75Zm-1.84-62.9,0.1-.2a0.77,0.77,0,0,0-.29-0.21,9.14,9.14,0,0,0-2.63.1c-0.26.06-.62-0.12-0.75,0.29a0.22,0.22,0,0,1-.14,0c-0.77-.34-1.39.05-2.16,0.36a1.22,1.22,0,0,0,.42.21c0.89-.11,1.78-0.23,2.67-0.36a5.56,5.56,0,0,1,1.4-.21C146.59,79.9,147,79.47,147.49,79.85Zm-7,62.59a1.82,1.82,0,0,1-1.65.16,1.82,1.82,0,0,0-1.57,0,0.83,0.83,0,0,0,.2.35c1.13,0.16,2.25.29,3.4,0.43l0.15-.64Zm7.1,14.68c-1.09-.46-2.27-0.22-3.37-0.39-0.19.33-.14,0.51,0.2,0.54a5.57,5.57,0,0,1,1,.11A2.49,2.49,0,0,0,147.63,157.12ZM171,77.22c-1.22-.47-2.21-0.25-2.39.52l2.23-.12ZM142.37,90.44a1.76,1.76,0,0,0-2.12-.19l0.26,0.53Zm5.58-11.32L148,79.69a1.67,1.67,0,0,0,1.45-.27,0.64,0.64,0,0,0,.08-0.3h-1.59Zm-1.16,10.72-0.2.79,1.35-.5C147.67,89.54,147.12,89.89,146.78,89.84Zm-2.87,66.92c-0.37,0-.65-0.41-0.92,0-0.15.23,0,.38,0.21,0.5C143.66,157.49,143.74,157.16,143.92,156.76Zm5.37-67.13-1.15.08,0,0.14,0.9,0.44Zm10.38,54.21c0.22-.33.07-0.48-0.14-0.57a0.58,0.58,0,0,0-.73.26Zm18,0.57c0.41-.07.88,0.35,1.24-0.23A1.05,1.05,0,0,0,177.62,144.41Zm-45.34-2.28a0.86,0.86,0,0,0-.72.74C132.12,143,132.27,142.69,132.29,142.13Zm4.06,1.27,0.48-.09-0.34-.8-0.41.11Zm6.3-52.88c0.52,0.07.52,0.07,0.46-.53C142.71,90,142.61,90.18,142.65,90.52ZM90.09,99.2c-0.74,0-.74,0-0.59.46Zm79.74,44.56c0.22,0.07.33,0.68,0.78,0.28Zm3.65,0.16c0.54,0.12.54,0.12,0.63-.23Zm-9.69-.15,0.11,0.1a0.62,0.62,0,0,0,.24-0.16,1.48,1.48,0,0,0,0-.48Zm4.78,0.36,0.11-.15a3.24,3.24,0,0,0-.29-0.2,1.44,1.44,0,0,0-.12.16ZM130.48,142c0.25,0.37.25,0.37,0.75,0.25Zm42.19,1.94c0.1,0.35.1,0.35,0.45,0.24Zm-15.41-1.22c0.11,0.42.2,0.55,0.49,0.32Zm18.22,1.56a0.58,0.58,0,0,0-.21-0.15,0.39,0.39,0,0,0-.16.14,0.46,0.46,0,0,0,.17.14A0.49,0.49,0,0,0,175.48,144.27Zm-14.17-.58,0-.17-0.4-.06,0,0.1Z" transform="translate(-17.36 -68.52)"/><path d="M155.55,142.52a1.05,1.05,0,0,1-1.07.48,12.25,12.25,0,0,0-1.54.09,7.13,7.13,0,0,1-1.15.06,0.74,0.74,0,0,1-.68-0.65h0c0.34-.07.69-0.12,1-0.23a4.28,4.28,0,0,1,1.31-.27,2.82,2.82,0,0,0,2-.85,1.06,1.06,0,0,0,.22-0.72c-0.05-1.52-.16-3-0.21-4.57s-0.07-3-.11-4.49c0-.59-0.09-1.17-0.1-1.76,0-1.36,0-2.73,0-4.09,0-.37-0.06-0.75-0.08-1.12a1.19,1.19,0,0,0-.83-1.22,1.7,1.7,0,0,1-.44-0.45c-0.66,0-1.45,0-2.24,0-0.47,0-.95-0.06-1.42-0.09-0.79,0-1.57-.12-2.36-0.14q-2.77,0-5.55,0c-1.28,0-2.55.06-3.82,0.07-1.89,0-3.77,0-5.66,0-0.85,0-1.7,0-2.55,0q-2.48,0-5-.12c-1.49,0-3-.2-4.48-0.17-1.31,0-2.61,0-3.91-.07-2,0-4-.06-6-0.18-1.83-.11-3.66-0.19-5.49-0.21l-5.85,0-9.53,0c-3.58,0-7.16-.06-10.75-0.05-3.18,0-6.36.15-9.54,0.07A52.81,52.81,0,0,0,63,122c-1.85.19-3.69,0.21-5.53,0.22s-3.69-.09-5.53-0.2a1.74,1.74,0,0,0-1.55.63q-2.56,2.93-5.16,5.82c-1.16,1.29-2.36,2.55-3.55,3.82a43.39,43.39,0,0,0-3.75,4.17,3.4,3.4,0,0,0-.82,1.76l0.45,0c0.85,0,1.7,0,2.55,0,1.15,0,2.29-.05,3.44-0.07,1.38,0,2.77,0,4.15-.09a23.09,23.09,0,0,1,3.59.06c0.79,0,1.6-.11,2.39-0.08a31.41,31.41,0,0,1,3.82.28,35.07,35.07,0,0,0,4.22.22,29,29,0,0,1,3.48,0,7,7,0,0,0,2.42-.14,14.41,14.41,0,0,1,2.3.1c0.47,0,.95,0,1.42,0h1.52a16.88,16.88,0,0,0,4-.25,0.33,0.33,0,0,1,.16,0c1.45,0.39,2.91,0,4.37.07a18.78,18.78,0,0,0,3.26-.08,10.5,10.5,0,0,1,2,.13,1.28,1.28,0,0,0,.47.05c1.31-.49,2.68,0,4-0.24a6.27,6.27,0,0,1,1.75,0,25.62,25.62,0,0,0,3.8,0c1.5-.08,3,0,4.53,0,0.5,0,1,0,1.51,0a30.54,30.54,0,0,1,3.89.21c1.07,0.1,2.16,0,3.24.06,0.63,0,1.26.06,1.89,0.13a17.22,17.22,0,0,0,2.82.21,23.29,23.29,0,0,1,2.92.23c1,0.08,2,.12,3,0.19l2.72,0.2c0.63,0,1.27.08,1.9,0.15a3.74,3.74,0,0,1,.93.2,1,1,0,0,1,.74.93,1,1,0,0,0,1,1,4.26,4.26,0,0,0,1.69.14c0.42-.06.44,0.16,0.47,0.42-0.49.08-1,.17-1.41,0.22-0.05,0-.12-0.27-0.2-0.28-0.33,0-.67,0-1.11,0a10.06,10.06,0,0,1,.24,1,44.81,44.81,0,0,0,1.31,5.11,2.52,2.52,0,0,0,.25.67,27.93,27.93,0,0,1,1.95,5.3,2.75,2.75,0,0,0,.69,1.4,3,3,0,0,0,1.7.24,6.82,6.82,0,0,1,2.66.14,9.29,9.29,0,0,0,3,.2c0.21,0,.42.08,0.63,0.09a1.66,1.66,0,0,0,1.27,0,1.83,1.83,0,0,1,.93.05l0.7,0.05,0.07,0.81a1.36,1.36,0,0,0-1.44-.34,3.91,3.91,0,0,1-.93,0c-0.51-.06-1,0-1.52,0-1.07-.2-2.14,0-3.21-0.13-1.36-.12-2.72-0.14-4.08-0.22-1.14-.06-2.28-0.15-3.42-0.2-2.1-.1-4.2-0.16-6.3-0.26-0.65,0-1.3-.16-1.95-0.22-0.31,0-.62,0-0.92,0-0.75-.13-1.51-0.07-2.27-0.26a18.11,18.11,0,0,0-2.11,0,5.12,5.12,0,0,1-2-.14,9.25,9.25,0,0,1-2.67-.15c-1.16,0-2.31,0-3.47,0-2,0-4.08,0-6.12-.09-2.51-.08-5-0.22-7.52-0.3-1.84-.06-3.68-0.07-5.52-0.13-0.53,0-1.06-.12-1.6-0.14-1.33,0-2.66,0-4-.07l-5.29-.11a20.87,20.87,0,0,1-4.78-.47,4.41,4.41,0,0,0-1.35-.06,34.77,34.77,0,0,1-5.6-.34c-0.45,0-.9-0.11-1.35-0.18a2.08,2.08,0,0,1-1.58-.83,0.77,0.77,0,0,0-.48-0.24,7.72,7.72,0,0,0-1-.1l-4.41-.16L51.2,152c-1.84-.09-3.69-0.17-5.53-0.3-1.22-.08-2.44-0.24-3.66-0.37a1,1,0,0,1-.84-0.54,1,1,0,0,0-1-.49c-4.26-.06-8.52-0.12-12.78-0.23-1.55,0-3.1-.2-4.64-0.32a0.68,0.68,0,0,1-.72-0.51,1.55,1.55,0,0,0-.4-0.48,14.84,14.84,0,0,1-1.87-3.53c-0.6-1.19-1.13-2.42-1.67-3.64a6,6,0,0,1-.6-3.8,0.41,0.41,0,0,0,0-.15,5.32,5.32,0,0,1,.92-3.65A39.68,39.68,0,0,1,24,125.83c2.33-2.65,4.65-5.3,6.77-8.13s4.55-5.87,6.86-8.77c1.24-1.56,2.55-3.07,3.86-4.58a6.83,6.83,0,0,1,1.32-1.09,7.15,7.15,0,0,1-1.25,2c-0.26.37-.58,0.69-0.86,1l-5.56,7.16c-1.91,2.47-3.8,5-5.74,7.42-1.26,1.59-2.6,3.11-3.92,4.65a56.17,56.17,0,0,0-4.83,6.39,20.06,20.06,0,0,0-1.79,3.47,10.37,10.37,0,0,0-.44,1.95,0.52,0.52,0,0,0,.49.68c0.79,0.1,1.58.28,2.37,0.3,1.44,0.05,2.88,0,4.32,0s3-.22,4.47-0.21c1.89,0,3.79.16,5.68,0.24h0.44c0.49-2.27,2.15-3.73,3.62-5.29,2.15-2.27,4.39-4.45,6.37-6.89a42.78,42.78,0,0,1,4.52-4.77,0.88,0.88,0,0,1,.56-0.19c1.38,0,2.77.07,4.15,0.11,0.58,0,1.17.06,1.75,0.06,1,0,2.08,0,3.12,0,1.57-.08,3.14-0.23,4.71-0.35,0.61,0,1.23-.12,1.84-0.14,0.85,0,1.71,0,2.56,0l6.58-.09c2.13,0,4.28-.18,6.4-0.07s4.48,0,6.71.05c1.17,0,2.34.14,3.51,0.15s2.34-.06,3.51-0.1c0.11,0,.21,0,0.32,0,1.25,0,2.49.08,3.74,0.09,1.87,0,3.74,0,5.6,0,0.64,0,1.28,0,1.92,0,1.44,0,2.87.1,4.3,0.16,1.94,0.09,3.88.21,5.82,0.28,1.41,0,2.82-.07,4.22.06,2,0.18,3.9.1,5.84,0.11a32.28,32.28,0,0,0,3.34.1c1.28-.13,2.53.31,3.81,0a5.72,5.72,0,0,1,1.42,0c1.32,0,2.64.11,4,0s2.66,0,4,.06,2.55,0,3.82,0c0.93,0,1.85.14,2.78,0.19,0.71,0,1.43,0,2.14,0a2,2,0,0,1,.7.09c0.41,0.17.78,0.43,1.19,0.59a1.1,1.1,0,0,1,.76.85,9.68,9.68,0,0,1,.3,3.48,5.1,5.1,0,0,0,0,1c0,1.52.08,3,.16,4.56,0.08,1.73.21,3.47,0.3,5.2,0,0.93.05,1.87,0.07,2.81a1.53,1.53,0,0,1-.46,1.15,5.76,5.76,0,0,0-.57.84ZM37.11,139.44a1.67,1.67,0,0,0,.21,1.51c0.6,1.15,1.26,2.28,1.81,3.45a15,15,0,0,1,.81,2.32,5.49,5.49,0,0,0,.91,2.28c0.38,0.43,1,.65,1.11,1.33a0.48,0.48,0,0,0,.34.17c1,0.11,2,.26,2.94.29,1.14,0,2.28-.07,3.42.08,1.3,0.17,2.61.25,3.92,0.33,0.77,0,1.55,0,2.32,0,1.23,0,2.45.13,3.68,0.16,0.58,0,1.16-.06,1.74,0a5.58,5.58,0,0,1,1.34.17,1.38,1.38,0,0,1,.84.51,1.6,1.6,0,0,0,1.27.85,25.33,25.33,0,0,0,3.1.24c1.32,0.05,2.64.05,4,.08a2.08,2.08,0,0,1,.32,0,25.32,25.32,0,0,0,3.92.38c1.62,0,3.25,0,4.86.16,2,0.19,3.93-.1,5.89.06a7.52,7.52,0,0,1,2.11.16,4.28,4.28,0,0,0,1.23.23c0.84,0,1.69,0,2.54.05a21.56,21.56,0,0,0,3.59.2,9.7,9.7,0,0,1,1.74,0c1.08,0,2.16.08,3.24,0.14,0.67,0,1.34.15,2,.14a22,22,0,0,0,2.74-.18c1.25-.17,2.5.42,3.75,0a0.44,0.44,0,0,1,.16,0l3.4,0.28c0.71,0.05,1.42.12,2.12,0.14,1.1,0,2.2-.06,3.29,0,1.61,0.15,3.21.37,4.84,0.38,1.27,0,2.54.18,3.81,0.27s2.28,0.17,3.42.23a3.41,3.41,0,0,0,.73-0.13l-0.43-1.36a29.47,29.47,0,0,0-1.3-3.94,42.55,42.55,0,0,1-1.57-4.83,25.64,25.64,0,0,1-.66-2.93,1,1,0,0,1,.32-1.23,1.27,1.27,0,0,1-1.18-.63,1.33,1.33,0,0,0-1.31-.59,9.87,9.87,0,0,1-2.37-.08c-0.85,0-1.7-.42-2.56,0a1.2,1.2,0,0,1-.38-0.06c-0.94,0-1.83-.56-2.81-0.2a1.46,1.46,0,0,1-.68-0.12,1.69,1.69,0,0,0-.82-0.16,2.43,2.43,0,0,1-1,0,2.13,2.13,0,0,1-1,0c-0.72-.17-1.48,0-2.21-0.28a5.44,5.44,0,0,0-1.72-.15,6.92,6.92,0,0,0-2.83.15c-0.22-.26-0.54.07-0.72-0.1a0.77,0.77,0,0,0-.8-0.14,6.45,6.45,0,0,1-2,0,3.34,3.34,0,0,1-.7,0,6,6,0,0,0-2.28,0,4,4,0,0,1-1.24.06,2.51,2.51,0,0,0-1.11-.08,4.17,4.17,0,0,1-1.58.09c-1.13-.31-2.27,0-3.4-0.19a3.2,3.2,0,0,0-1.71.18c-0.69.26-1.46-.13-2.17,0.15a1.4,1.4,0,0,1-.77.11,2.69,2.69,0,0,0-1.67-.12c-0.19.07-.49-0.15-0.67-0.08a1.3,1.3,0,0,1-.85,0,2.5,2.5,0,0,0-.89-0.17,1.29,1.29,0,0,1-.83,0,2.43,2.43,0,0,0-.85,0,6.21,6.21,0,0,0-1.25,0c-0.51.11-1-.3-1.52,0.11a0.18,0.18,0,0,1-.14-0.06c-0.23-.29-0.45-0.12-0.71,0a3,3,0,0,1-.85.17c-0.66,0-1.32,0-2,.06-1.35,0-2.71.08-4.06,0.07a27.42,27.42,0,0,0-2.85-.11,18.28,18.28,0,0,1-3,.09c-0.88-.06-1.76,0-2.64,0H59.59a2.68,2.68,0,0,0-1.11.08,2.92,2.92,0,0,0-.71.88,3.23,3.23,0,0,1-.41-0.45,5.07,5.07,0,0,1-.29-0.66,21.32,21.32,0,0,0-4.57-.23l-3.92.06c-2.22,0-4.43,0-6.65.06-1.42,0-2.83.09-4.25,0.15A4.46,4.46,0,0,0,37.11,139.44Zm-18.67-.36a7.27,7.27,0,0,0,.2,1,46.32,46.32,0,0,0,3.08,6.94,2.73,2.73,0,0,0,1.55,1.42c0.58,0.19,1.12.46,1.7,0.67a2.26,2.26,0,0,0,.71.11c0.86,0,1.71,0,2.57,0a19.1,19.1,0,0,0,2.08.11,28.62,28.62,0,0,1,3.75,0c1.81,0.09,3.63,0,5.45,0a0.72,0.72,0,0,0,.26-0.13,12.33,12.33,0,0,1-.52-1.45,20.3,20.3,0,0,0-2-5c-0.55-1.05-1.36-2-1.22-3.38a9.68,9.68,0,0,0-1.29-.25c-1.15-.06-2.3-0.13-3.44-0.11-1.82,0-3.63.16-5.45,0.2-1.47,0-2.94,0-4.41,0C20.51,139.28,19.56,139.16,18.43,139.08Z" transform="translate(-17.36 -68.52)"/><path d="M182.43,144.51a0.26,0.26,0,0,1,.29-0.36c0.58,0,1.16,0,1.73-.08,0.92-.11,1.83-0.27,2.75-0.41,0.31,0,.62-0.08.93-0.11a9.08,9.08,0,0,0,4-1.19,5.37,5.37,0,0,0,.74-0.61,0.86,0.86,0,0,0,.23-1,1.65,1.65,0,0,1-.11-0.53,55.25,55.25,0,0,0-.16-5.6c0-1.39,0-2.78,0-4.17,0-2.81,0-5.62,0-8.42,0-1.92-.07-3.85-0.12-5.77,0-.61-0.12-1.22-0.11-1.82,0-.87.15-1.73,0.14-2.6s-0.21-1.54-.22-2.31a20.64,20.64,0,0,0-.7-4.63,10.88,10.88,0,0,1-.19-2.08c-0.14-3.8-.31-7.59-0.19-11.39a29.75,29.75,0,0,0-.15-3.19,0.83,0.83,0,0,0-.35-0.56,5.59,5.59,0,0,0-2.52-.9,4.47,4.47,0,0,0-.54.11,25.27,25.27,0,0,0-3.15.2c-1.38.26-2.79,0.09-4.17,0.38a19.43,19.43,0,0,1-2.54.29c-0.2,0-.41.09-0.61,0.09s-0.47,0-.86-0.05a1.24,1.24,0,0,1-.54.23c-1.62,0-3.23.3-4.84,0.46s-3.51.24-5.26,0.47c-1,.13-2,0.25-3,0.37h-0.24a13.51,13.51,0,0,0-2.52.21,15.59,15.59,0,0,1-2.9.18,13.28,13.28,0,0,0-2.58.19c-0.77.06-1.54,0.11-2.31,0.14a0.7,0.7,0,0,1-.29-0.18l0,0c0.17-.12.33-0.26,0.51-0.37a1,1,0,0,1,1-.16,1,1,0,0,0,1.22-.11,0.62,0.62,0,0,1,.37-0.12c0.7-.09,1.4-0.19,2.1-0.25s1.65-.1,2.48-0.16,1.88-.19,2.82-0.2a13.82,13.82,0,0,0,2.72-.35,17.69,17.69,0,0,1,3-.18c0.35,0.37.43-.21,0.72-0.2,0.5,0,1-.17,1.5-0.12a16.84,16.84,0,0,0,3-.29c1.21-.09,2.41-0.32,3.62-0.38,1,0,1.92-.27,2.88-0.37l0.87-.07a1.81,1.81,0,0,0,1.32-.26,0.88,0.88,0,0,1,.53,0,3.51,3.51,0,0,0,.77.12,9.74,9.74,0,0,0,2.19-.32c1.61-.55,3.16-0.12,4.73.15a4.38,4.38,0,0,1,.89.36c0-1.2,0-2.37,0-3.54,0-.72,0-1.44.06-2.16a19.55,19.55,0,0,0,0-2.79,15.92,15.92,0,0,1,.19-2.2,3,3,0,0,0,0-.55c-0.1-1.07-.25-2.14-0.32-3.22a2.47,2.47,0,0,0-1.94-2.4,7.39,7.39,0,0,0-2.55-.25c-1.44.06-2.89,0-4.33,0-2,0-4.07,0-6.1.14s-4,.46-6,0.7c-0.87.1-1.75,0.17-2.63,0.26l-1.82.2c-1.42.15-2.84,0.29-4.26,0.46-1.14.13-2.27,0.3-3.4,0.44-0.52.06-1.05,0.07-1.57,0.17a13.3,13.3,0,0,1-1.81.21c-0.64,0-1.27.13-1.91,0.2l-1.9.23c-2.7.29-5.4,0.56-8.09,0.86-1.46.16-2.91,0.4-4.36,0.58-2,.24-4,0.43-6,0.67l-8.6,1.06c-1.46.17-2.92,0.31-4.38,0.47a11.32,11.32,0,0,1-1.63.15,3,3,0,0,1-1,.07,2.12,2.12,0,0,0-1.08.14c-0.44,0-.87,0-1.31.07a14.74,14.74,0,0,1-2.5.39s-0.1.05-.15,0a10.4,10.4,0,0,0-2.58.24c-1.1.1-2.2,0.3-3.3,0.48-0.92.15-1.83,0.36-2.75,0.47-1.28.15-2.56,0.22-3.84,0.34a5.7,5.7,0,0,0-.79.12c-2,.47-4.11.43-6.15,0.74s-4.17.32-6.24,0.57c-5,.59-10.05.47-15.09,0.62a2.22,2.22,0,0,0-.32,0c-2.14.38-4.31,0.27-6.45,0.47a15.28,15.28,0,0,0-3.71.63,4.41,4.41,0,0,0-2,1.39c-1.94,2.39-3.88,4.78-5.75,7.22-1.25,1.63-2.4,3.35-3.58,5a4.12,4.12,0,0,0-.27.58,5.81,5.81,0,0,0,.7-0.06,37.09,37.09,0,0,1,6.84-.62Q61.87,95.09,67,94.8c3.18-.18,6.36-0.44,9.54-0.67s6.52-.49,9.77-0.75c2.67-.21,5.33-0.49,8-0.67,1.72-.12,3.46-0.12,5.19-0.19,0.9,0,1.8-.11,2.71-0.18l4.53-.32c0.52,0,1-.12,1.57-0.15l4.53-.28c0.79-.05,1.58-0.13,2.37-0.19l4.29-.29c0.93-.06,1.86-0.08,2.79-0.13,0.76,0,1.53-.15,2.29-0.11,1.24,0.06,2.45-.42,3.71-0.17a5.84,5.84,0,0,0,1.56-.19,1.19,1.19,0,0,1,.68.07,1.37,1.37,0,0,0,1.74-.24L132.8,91v0l-3.81.47a2.57,2.57,0,0,1-.4,0,39,39,0,0,0-5.55.33c-0.81.09-1.63,0.06-2.44,0.1-0.39,0-.78.08-1.18,0.11l-2.86.2-7.1.45c-2.9.19-5.8,0.34-8.69,0.61-1.38.13-2.76,0.14-4.14,0.21-2.45.12-4.9,0.33-7.34,0.52-2.19.17-4.37,0.37-6.56,0.57-2.58.24-5.16,0.51-7.75,0.72-1.78.14-3.58,0.21-5.36,0.3-1.25.06-2.51,0.14-3.76,0.16-2.21,0-4.43,0-6.64,0-1.92.06-3.84,0.24-5.76,0.39-1.41.11-2.82,0.27-4.23,0.38A1.55,1.55,0,0,0,48,97.3c-1.34,1.77-2.71,3.51-4.07,5.26a4,4,0,0,1-.56.48,1.07,1.07,0,0,1,.14-1.26,61.35,61.35,0,0,0,4.39-5.72c1.13-1.61,2.4-3.13,3.6-4.69L55.65,86c0.92-1.18,1.8-2.39,2.77-3.52a5.73,5.73,0,0,1,3-1.81A20.73,20.73,0,0,1,66,80.24c0.29,0,.59,0,0.88-0.06,1.67-.15,3.35-0.18,5-0.21,2.94-.06,5.89-0.22,8.83-0.39,2.41-.14,4.81-0.32,7.21-0.56,2.69-.26,5.36-0.61,8-0.92,0.87-.1,1.74-0.16,2.62-0.26,1.47-.16,2.94-0.3,4.4-0.5,3.14-.42,6.27-0.91,9.42-1.31,1.55-.2,3.12-0.25,4.68-0.4,1-.1,2.06-0.27,3.09-0.39,0.54-.06,1.09-0.06,1.64-0.08,0,0.17-.07.43,0.39,0.34l-0.42-.31c0.6-.11,1.19-0.24,1.79-0.34,1-.17,2.09-0.34,3.14-0.49,0.55-.08,1.1-0.08,1.65-0.14,2.85-.28,5.69-0.54,8.53-0.84s5.8-.62,8.7-0.93c2.07-.22,4.14-0.44,6.21-0.67,2.25-.26,4.51-0.54,6.76-0.8,1.8-.21,3.61-0.4,5.41-0.62s3.86-.51,5.8-0.73c2.37-.27,4.73-0.52,7.11-0.73,1.92-.17,3.84-0.32,5.77-0.36a19,19,0,0,1,7.08,1c0.37,0.14.74,0.28,1.1,0.45a0.76,0.76,0,0,1,.6.7,2.88,2.88,0,0,0,.68.91,0.73,0.73,0,0,1-.1,1.1l0.39,0.1a16.2,16.2,0,0,1-.15,5.69c0.57,0.25,0,.6,0,0.92a1.48,1.48,0,0,0,.12.62c0.24,0.31-.16.57,0,0.91a2.16,2.16,0,0,1,0,1,9.16,9.16,0,0,0-.07.95,45.45,45.45,0,0,1,0,6.13c-0.09,1.23.09,2.48,0.09,3.72,0,1.65-.09,3.3-0.07,4.95s0.13,3.23.2,4.85a6.33,6.33,0,0,0,0,.72,1.11,1.11,0,0,0,.19.59,1.74,1.74,0,0,1,.44,1.25c0.1,1.66.25,3.31,0.34,5a15.8,15.8,0,0,1-.15,1.65c0,0.66-.05,1.32-0.05,2a5.23,5.23,0,0,0,.09.72l2.06,1.7a2.69,2.69,0,0,1,1,2.06c0.09,1.66.23,3.32,0.31,5,0,0.63-.09,1.27-0.09,1.9,0,0.93,0,1.86.05,2.78,0,0.13,0,.26,0,0.4,0,0.77-.11,1.53-0.11,2.3,0,1.11.1,2.22,0.09,3.33a42.56,42.56,0,0,1,0,5.41c0,0.28.07,0.58,0,.86-0.06.7-.16,1.4-0.24,2.1a2.44,2.44,0,0,0-.68,1.37,1.86,1.86,0,0,1-1.29.83c0.76,0.92.6,2,.63,3.05,0.06,1.74.09,3.48,0.12,5.22a7.19,7.19,0,0,1-.11,1.36,1.93,1.93,0,0,1-.77,1.25,4.44,4.44,0,0,1-2.5.92c-0.87.06-1.72,0.29-2.59,0.4s-1.79.23-2.69,0.26c-1.64.06-3.29,0.06-4.93,0.07-3,0-6,.05-9,0.05-1.71,0-3.41-.08-5.12-0.09a16.83,16.83,0,0,0-2.54.09,15.44,15.44,0,0,0-2.3.62c-0.76.24-1.5,0.56-2.28,0.75a5.78,5.78,0,0,1-1.52,0,9.21,9.21,0,0,1-1-.15c-0.1-.42.1-0.53,0.46-0.55l1.5-.12a10.1,10.1,0,0,0,3.1-.93,5.21,5.21,0,0,1,2.69-.48c0.33,0,.67-0.11,1-0.1,0.81,0,1.62.09,2.43,0.1s1.75-.06,2.62-0.05c1.3,0,2.6.1,3.91,0.11,0.77,0,1.55-.2,2.31-0.12a14.21,14.21,0,0,0,3.34,0c2-.26,4,0,6-0.17a1.74,1.74,0,0,0,.4,0c1.41-.48,2.92-0.3,4.34-0.66a2.45,2.45,0,0,0,2-1.89,7.35,7.35,0,0,0,.16-2.3,20.05,20.05,0,0,1,0-2.47,5.18,5.18,0,0,0-.6-2.86,6.41,6.41,0,0,0-1-1.73,0.72,0.72,0,0,0-.69-0.26c-1.58.26-3.17,0.52-4.76,0.71a9.17,9.17,0,0,1-3.08.22,7.1,7.1,0,0,0-1.26,0,1.36,1.36,0,0,1-.48-0.22Zm13.48-5.35c0-.82,0-1.45,0-2.09,0-2.24-.12-4.49-0.14-6.73,0-1.2.12-2.4,0.12-3.61,0-1.71,0-3.42-.08-5.12-0.05-1.34-.21-2.67-0.28-4s-1.1-1.83-2-2.63a4.55,4.55,0,0,0-.12.67c0,0.58,0,1.16,0,1.74,0,1,0,2,.1,3a22.4,22.4,0,0,1,.12,4.66c0,0.16,0,.32,0,0.48,0,2.06.07,4.13-.11,6.17-0.09,1.1.08,2.16,0.08,3.23,0,1.3.27,2.6,0.16,3.91,0,0.38,0,.76,0,1.15l0.18,0.17C194.17,139,194.89,138.88,195.91,139.16Zm-1,.68a5.27,5.27,0,0,1-.19,1,1.35,1.35,0,0,0-.06,1.05c-0.48.22,0.05,0.57-.11,0.86s0.13,0.56.32,0.84a1.91,1.91,0,0,0,.94-1.35,9.15,9.15,0,0,0-.08-1.81A0.65,0.65,0,0,0,194.88,139.84Zm-1.15,4.36,0.16,0a5.23,5.23,0,0,0-.24-1.88,1,1,0,0,0-1,.76Z" transform="translate(-17.36 -68.52)"/><path d="M90.81,105l-0.13.52a6.33,6.33,0,0,1-2.43.23,1.29,1.29,0,0,1-1.39-1.09,1.17,1.17,0,0,1,.07-0.69c0.23-.46.54-0.89,0.78-1.35a3.63,3.63,0,0,0,.36-1,0.65,0.65,0,0,1,.59-0.61,2.5,2.5,0,0,1,0-.65,0.77,0.77,0,0,1,.35-0.21,0.79,0.79,0,0,1,.15.31A0.91,0.91,0,0,1,89,101a16.27,16.27,0,0,0-.9,2.51c-0.16.36-.26,0.74-0.41,1.19l0.56,0.1a1,1,0,0,0,.24,0l2.29-.25a12.5,12.5,0,0,0,2-2.94c0.23-.67.56-1.3,0.81-2a0.8,0.8,0,0,0-.88-1.21c-0.58,0-1.16.16-1.74,0.24a2.1,2.1,0,0,1-.71,0A0.51,0.51,0,0,1,90,98.35,0.48,0.48,0,0,1,90.39,98c0.45-.06.91,0,1.36-0.1,1.11-.13,2.22-0.32,3.33-0.42,1.61-.14,3.23-0.18,4.84-0.33,1.81-.16,3.61-0.41,5.41-0.59s3.67-.37,5.51-0.46c1.59-.08,3.19,0,4.79-0.07,1.92-.06,3.84-0.17,5.76-0.27,1.17-.06,2.35-0.1,3.51-0.22,1.64-.17,3.27-0.41,4.93-0.62a1.09,1.09,0,0,1,.23,1.36,45,45,0,0,1-1.93,5.26,1.56,1.56,0,0,0-.29,1.42,1.27,1.27,0,0,1-.29.52L127,103a3.58,3.58,0,0,1-2.43.39,3,3,0,0,0-1.23.06,12.57,12.57,0,0,1-3.91.4c-1.16,0-2.32,0-3.48.14a0.87,0.87,0,0,1-.37-0.12,4.91,4.91,0,0,0-1.67.14,23.24,23.24,0,0,1-3.18.31c-1.88.11-3.77,0.18-5.66,0.3-1.19.08-2.38,0.27-3.57,0.36-1,.08-2,0.1-3,0.12a37.58,37.58,0,0,1-4.3,0C93.11,105,92,105,90.81,105Zm1.41-.63c0.38,0,.77.1,1.17,0.1,1.34,0,2.67,0,4-.09,1.17,0,2.34-.06,3.51-0.15,1.73-.13,3.45-0.34,5.18-0.46,1.41-.1,2.82-0.1,4.24-0.18,1-.06,2-0.24,3-0.27,2.48-.08,5-0.11,7.44-0.17a3,3,0,0,0,.49-0.07c0.35-.92.62-1.78,1-2.58,0.63-1.34,1.32-2.65,2-4-0.35,0-.66,0-1,0-2.09.18-4.18,0.09-6.27,0.32-0.75.08-1.52-.11-2.27-0.07a4.84,4.84,0,0,1-1.38,0,7.35,7.35,0,0,0-1.31.11,26,26,0,0,0-4.26.31c-0.76.11-1.51,0.25-2.27,0.33-1.25.12-2.5,0.21-3.76,0.31l-4.15.31-3.25.24a4.42,4.42,0,0,1-.57,3.22A28.6,28.6,0,0,1,92.22,104.41Zm30.31-1.5c1.62,0.48,2.94-.39,4.26-0.42a50.39,50.39,0,0,0,2.58-6.69l-0.59.05c-0.78.12-1.57,0.21-2.34,0.36a1.79,1.79,0,0,0-1,.41A12.93,12.93,0,0,0,124,98.81a27,27,0,0,0-1.16,2.8A10,10,0,0,0,122.52,102.91Z" transform="translate(-17.36 -68.52)"/><path d="M140.51,95.77A17.07,17.07,0,0,0,135,97.09a4.38,4.38,0,0,0-1.6,1.26l-0.23-.23a6.87,6.87,0,0,1,1.63-1.52A10.63,10.63,0,0,1,140.44,95c0.31,0,.61-0.14.92-0.15a14.46,14.46,0,0,1,4.67.42,19.71,19.71,0,0,1,2.65,1.23,0.39,0.39,0,0,1,.19.15,15.48,15.48,0,0,1,.88,2,2.39,2.39,0,0,1-.43,2.26,5.67,5.67,0,0,1-1.6,1.42,17.81,17.81,0,0,1-5.23,1.92c-1,.17-2,0.42-3,0.59-0.65.11-1.32,0.12-2,.17l-1.76.13a0.48,0.48,0,0,1-.15,0c-0.76-.48-1.76-0.13-2.5-0.85a3,3,0,0,1-.95-1.77,6.79,6.79,0,0,1,.44-3.44c0.08-.22.16-0.44,0.29-0.79L133.5,99a7.39,7.39,0,0,0,1.33-.74,7.71,7.71,0,0,1,2.41-1c1-.39,2-0.69,3-1a0.32,0.32,0,0,0,.27-0.41c0.23,0.35.48,0.37,0.84,0h-0.84Zm7.3,5.19c0.27-.23.46-0.38,0.62-0.55a1.66,1.66,0,0,0,0-2.57c-0.64-.61-1.34-1.15-2-1.71a0.37,0.37,0,0,0-.22-0.08,8,8,0,0,0-1.48,0,18.73,18.73,0,0,1-1.89.4,10.61,10.61,0,0,0-2.09.45c-1.42.43-2.85,0.83-4.22,1.38a5.83,5.83,0,0,0-3,1.94,3.9,3.9,0,0,0-.44,2.69,0.66,0.66,0,0,0,.15.28,2.21,2.21,0,0,0,2.33.65,1,1,0,0,1,0-1.54l1.51-1.55,0.88,0.57,2-.65,0.16-1.38c1.15-.07,2.23-0.17,3.31-0.19a1.25,1.25,0,0,1,.7.44,2.48,2.48,0,0,0,.48.66,2.08,2.08,0,0,0,.89-0.26l0.15-.05a1.24,1.24,0,0,1,1.73.45Zm-11,3.1a7,7,0,0,0,2.81-.21c0.68-.21,1.42-0.21,2.11-0.38a25.85,25.85,0,0,0,2.65-.8,6.29,6.29,0,0,0,2.72-1.38l-0.72-.65-0.45.32c-0.66.5-.64,0.46-1.34,0a1.29,1.29,0,0,0-1.23-.43l-0.3-.59-2.18.25v1.26l-2.4.8a0.49,0.49,0,0,1-.3,0l-0.89-.4-1.05,1.45Z" transform="translate(-17.36 -68.52)"/><path d="M138.63,80.6a1.3,1.3,0,0,1-.55.26,13.63,13.63,0,0,0-3.16.4h-0.16c-0.53.15-1.05-.2-1.63,0.06a5.88,5.88,0,0,1-1.61.26l-1.73.21c-1.62.19-3.24,0.43-4.86,0.57-2.56.23-5.13,0.4-7.69,0.61-1.44.12-2.87,0.27-4.3,0.43-1.89.21-3.77,0.54-5.67,0.66-2.68.17-5.36,0.36-8,.66a36.18,36.18,0,0,0-4.19.53,1.13,1.13,0,0,1-.4,0,17.18,17.18,0,0,0-3.75.18c-0.48,0-1,0-1.43,0s-1.1.17-1.66,0.24c-1.06.12-2.12,0.24-3.18,0.33-1.54.13-3.08,0.25-4.62,0.32-1.92.09-3.84,0.12-5.75,0.2-1.28.05-2.55,0.14-3.83,0.2-2.26.11-4.53,0.18-6.78,0.33a30.49,30.49,0,0,0-5.27.4,7.06,7.06,0,0,1-.86.1l-0.27-.91a9.9,9.9,0,0,0,1.3.22,8.19,8.19,0,0,0,.88-0.18c1-.09,2.07-0.17,3.11-0.21s1.87,0,2.8,0,1.9-.19,2.85-0.28c1.24-.11,2.47-0.25,3.71-0.28,2.1-.05,4.2,0,6.3-0.07a4,4,0,0,0,2-.22,0.46,0.46,0,0,1,.24,0A26.41,26.41,0,0,0,85,85.37c1.09-.08,2.18-0.12,3.27-0.19,0.68,0,1.37-.1,2-0.17q1.33-.14,2.66-0.32c0.94-.13,1.88-0.29,2.83-0.4,1.32-.17,2.65-0.31,4-0.46,1-.11,2-0.23,2.94-0.31,1.38-.12,2.76-0.2,4.13-0.34,1-.1,2.05-0.3,3.09-0.39,1.32-.11,2.66-0.13,4-0.24,1.48-.12,3-0.3,4.43-0.46l0.56,0a19.84,19.84,0,0,1,2.54-.08c0.83,0.07,1.63-.34,2.46-0.07a0.46,0.46,0,0,0,.3,0,12.84,12.84,0,0,1,2.91-.53c0.67-.13,1.32.06,2-0.13s1.38,0,2-.2c0.86-.29,1.77,0,2.61-0.38a0.3,0.3,0,0,1,.21,0c0.28,0.35.59,0.1,0.9,0.07a15.71,15.71,0,0,1,3.18-.36l0.59,0.08v0.2Z" transform="translate(-17.36 -68.52)"/><path d="M85.69,101.11a5.12,5.12,0,0,1-.5.87,17.27,17.27,0,0,1-4.36,3.84c-0.9.53-1.91,0.89-2.86,1.33-0.17.08-.31,0.2-0.48,0.27-0.34.15-.69,0.27-1,0.4a2.09,2.09,0,0,0-.52.18,3,3,0,0,1-1.12.3c-1.1.32-2.14-.13-3.21-0.16a3.87,3.87,0,0,1-1.29-.58,1.4,1.4,0,0,1-.65-1.2,14.64,14.64,0,0,1-.35-1.46,1.93,1.93,0,0,1,.16-1.08,19,19,0,0,1,1.35-2.07,2.44,2.44,0,0,1,.7-0.51,24.9,24.9,0,0,1,2.3-1.4c0.9-.44,1.87-0.75,2.81-1.11,0.4-.15.8-0.29,1.21-0.42a11.71,11.71,0,0,1,3.63-.52,3.43,3.43,0,0,1,1,.17,16.91,16.91,0,0,1,1.8.68C85.27,99.11,85.45,100.06,85.69,101.11Zm-4.93,1.49a1.89,1.89,0,0,0,1.57-.43,1.45,1.45,0,0,1,.82,0,1.33,1.33,0,0,1,.42.24c0.62-.58,1.47-1,1.33-2a4.18,4.18,0,0,0-2-.39c-0.88.09-1.76,0.2-2.62,0.36a16,16,0,0,0-7.4,3.46,8.48,8.48,0,0,0-1.32,1.28,4.58,4.58,0,0,0-1.15,1.82,3,3,0,0,0,2.79.48c-0.45-1.85.64-2.77,2.08-3.52l1.07,0.67c0.14-.09.27-0.18,0.42-0.25a0.81,0.81,0,0,0,.6-1.17c0-.22,0-0.46-0.07-0.71,0.33-.07.59-0.12,0.85-0.19s0.51-.16.76-0.25C80.31,101.48,80.16,101.57,80.76,102.6Zm-6.66,5.25,2.46-1a20.84,20.84,0,0,0,4.36-2.3c0.54-.39,1.09-0.76,1.62-1.15a1,1,0,0,0,.44-0.75,3.73,3.73,0,0,1-2.75.76l-0.31-.93-1.92.67a1.22,1.22,0,0,1-.36,1.75,1.73,1.73,0,0,1-2.31-.16C73.65,105.85,73.39,106.47,74.1,107.86ZM70,105.79c3.56-4.62,8.23-6.59,14-6.65C83.56,99,83.3,98.87,83,98.78a6.59,6.59,0,0,0-4,.1,22.09,22.09,0,0,0-6.73,2.71A5.55,5.55,0,0,0,70,104.71,4.24,4.24,0,0,0,70,105.79Z" transform="translate(-17.36 -68.52)"/><path d="M156.9,154.78a11.56,11.56,0,0,0-.29-4.1c-0.19-.72-0.45-1.42-0.67-2.12a0.71,0.71,0,0,0-.76-0.56c-0.82,0-1.65,0-2.47,0a2.61,2.61,0,0,1-.56,0,14.75,14.75,0,0,0-2.93-.2c-1.35,0-2.7-.2-4.05-0.24-1.57,0-3.14,0-4.71,0q-2.08,0-4.15-.17a17.19,17.19,0,0,0-2.5-.22,28,28,0,0,1-2.93-.24c-0.78,0-1-.41-0.79-1.18,0.16-.56.36-1.1,0.53-1.65,0.39,0.17.39,0.17,0.25,1.86a7.58,7.58,0,0,0,2.77.28,6.12,6.12,0,0,1,1.71.11c0.55,0.05,1.09.13,1.64,0.18l2.61,0.21a1.67,1.67,0,0,0,.4,0,17.88,17.88,0,0,1,4.84,0c0.37,0,.75,0,1.12,0,1.33,0,2.66.06,4,.11,0.79,0,1.58.11,2.37,0.15,1,0,2,.08,2.94.1a1.29,1.29,0,0,1,1.46,1,15.72,15.72,0,0,1,1,4.42,13.57,13.57,0,0,1,0,2.4,1.14,1.14,0,0,1-.95,1.21,3.33,3.33,0,0,1-1.55.15c-1-.08-2.09-0.05-3.14-0.07A5.68,5.68,0,0,1,150,156c-0.35-.14-0.41-0.3-0.14-0.52a0.81,0.81,0,0,1,.83-0.26,7.08,7.08,0,0,0,1.55,0c0.77,0,1.53.12,2.3,0.11A3.27,3.27,0,0,0,156.9,154.78Z" transform="translate(-17.36 -68.52)"/><path d="M153.21,102.17c-0.33-.69-0.33-0.69.33-1.21a0.82,0.82,0,0,0,1,.45c1.78-.05,3.57-0.07,5.35-0.08,0.42,0,.84.11,1.26,0.08,1-.07,2-0.22,3-0.3,0.47,0,1,0,1.43,0a2.58,2.58,0,0,0,.31,0A14.35,14.35,0,0,1,169,101a13.2,13.2,0,0,0,1.46-.25,12.12,12.12,0,0,1,2.92-.07,1.41,1.41,0,0,0,.39-0.05c0.74-.07,1.48-0.12,2.21-0.19s1.73-.2,2.59-0.32a2.49,2.49,0,0,1,1.39,0,0.77,0.77,0,0,1,.58.74c-1.32.17-2.59,0.37-3.87,0.5s-2.54.19-3.81,0.27l-2.13.11-3.34.18c-1,.05-1.91.12-2.87,0.16-2.13.09-4.26,0.2-6.39,0.25-1.29,0-2.59,0-3.89,0C153.92,102.27,153.56,102.21,153.21,102.17Z" transform="translate(-17.36 -68.52)"/><path d="M155.08,95c0.16-.79.18-0.85,0.78-0.89a7.81,7.81,0,0,1,2.55-.21,0.33,0.33,0,0,0,.24,0c0.78-.54,1.6,0,2.4-0.07,0.55-.06,1.11,0,1.66-0.06l2.63-.11,2.36-.13c0.71,0,1.43,0,2.14-.06,1.68-.08,3.37-0.13,5.05-0.27,1-.08,2.05-0.35,3.08-0.43,1.32-.1,2.65-0.12,4-0.14a1.19,1.19,0,0,1,1,.49,0.57,0.57,0,0,1,.07.51,0.32,0.32,0,0,1-.54.06,1.23,1.23,0,0,0-1-.17c-0.95.06-1.9,0-2.84,0.1-1.27.1-2.53,0.3-3.8,0.41s-2.44.14-3.66,0.2c-1.54.08-3.08,0.17-4.62,0.23-0.66,0-1.32-.06-2-0.06s-1,.07-1.57.1l-1.64.12-2.76.17a1.53,1.53,0,0,1-.71,0,4.47,4.47,0,0,0-1.88-.12,1.19,1.19,0,0,0-.41.19Z" transform="translate(-17.36 -68.52)"/><path d="M135.19,139.4a3.81,3.81,0,0,1-3.18-1.47,2.94,2.94,0,0,1-.34-2.86,10.23,10.23,0,0,1,1.09-1.46,2.3,2.3,0,0,1,1.31-.71,13,13,0,0,1,3.57-.1,3.28,3.28,0,0,1,1.35.48,1.43,1.43,0,0,1,.81,1.12,1.84,1.84,0,0,0,.29.81,2.32,2.32,0,0,1-.52,2.84,2.92,2.92,0,0,1-1.72.94Zm0.51-1a6.19,6.19,0,0,0,3.07-.69,1.53,1.53,0,0,0,.72-1.54,3.36,3.36,0,0,0-2.6-2.44,5.85,5.85,0,0,0-3.15.24,2.19,2.19,0,0,0-1.45,1.84,1.68,1.68,0,0,0,.1,1.08,2.7,2.7,0,0,0,2.1,1.43Z" transform="translate(-17.36 -68.52)"/><path d="M139.47,154.41a7.34,7.34,0,0,0-1.67-.28,2.81,2.81,0,0,1-1.56-.48,0.6,0.6,0,0,1-.29-0.25,3.59,3.59,0,0,1-.29-2.17,2.22,2.22,0,0,1,.69-1.14,3.1,3.1,0,0,1,2.48-.89,8.06,8.06,0,0,1,1.6.07,5.81,5.81,0,0,0,1.65-.14,1.18,1.18,0,0,0,.44-0.14,1,1,0,0,1,1.34,0,2.14,2.14,0,0,1,.76,2.47c-0.15.46-.31,0.91-0.47,1.36a1,1,0,0,1-.79.72c-0.94.22-1.88,0.46-2.83,0.65a5.42,5.42,0,0,1-1,0Zm-0.34-4.3a0.67,0.67,0,0,0-1.14,0,0.89,0.89,0,0,1-.28.13,2.5,2.5,0,0,0-1.29,2.06,0.65,0.65,0,0,0,.53.72,10.28,10.28,0,0,0,2.18.19,27.82,27.82,0,0,0,2.83-.44,4.61,4.61,0,0,0,.86-0.2,1.07,1.07,0,0,0,.5-0.36,6.2,6.2,0,0,0,.5-1c0.27-.62.17-0.84-0.48-1.09a8,8,0,0,0-3.85-.25A1.19,1.19,0,0,0,139.13,150.11Z" transform="translate(-17.36 -68.52)"/><path d="M67.36,135.14a3.08,3.08,0,0,1-3-1.74,1.3,1.3,0,0,1-.09-0.76A3.7,3.7,0,0,1,67,129.58a8.15,8.15,0,0,1,2.14-.55,3.34,3.34,0,0,1,2.64.88,2.68,2.68,0,0,1-.54,4.24A9.54,9.54,0,0,1,67.36,135.14Zm1.84-5.05a5.57,5.57,0,0,0-3.42,1.16c-1.18,1.11-1,2,.36,2.57a3.71,3.71,0,0,0,2.28.17,7.83,7.83,0,0,0,2.67-.78,1.39,1.39,0,0,0,.49-1.93A2.69,2.69,0,0,0,69.2,130.08Z" transform="translate(-17.36 -68.52)"/><path d="M120.51,132.36a2.92,2.92,0,0,1-1.36,2.76,4.24,4.24,0,0,1-3.31.85c-0.76-.13-1.5-0.34-2.24-0.54a1.47,1.47,0,0,1-1.13-1.48,3.21,3.21,0,0,1,2.78-3.59,9.28,9.28,0,0,1,2.86-.06,4.46,4.46,0,0,1,1.68.66A1.45,1.45,0,0,1,120.51,132.36Zm-1-.21a1.74,1.74,0,0,1-.67-0.32,1.45,1.45,0,0,0-1.25-.55c-0.32,0-.64-0.06-1-0.07a4.82,4.82,0,0,0-2.59.62,2.28,2.28,0,0,0-.77,2.06,0.77,0.77,0,0,0,.37.37,5.65,5.65,0,0,0,4.54.47A1.86,1.86,0,0,0,119.5,132.15Z" transform="translate(-17.36 -68.52)"/><path d="M50.39,136.79h-1a1.54,1.54,0,0,1-1.57-2,3,3,0,0,1,1.57-2,7.42,7.42,0,0,1,2.66-1.07c0.8-.07,1.59-0.18,2.38-0.21a1.26,1.26,0,0,1,1.06.76,2.69,2.69,0,0,1-1,3.61A9.42,9.42,0,0,1,50.39,136.79Zm0.51-1a7.58,7.58,0,0,0,3.66-1,1.25,1.25,0,0,0,.48-1.34,0.79,0.79,0,0,0-.82-0.71A7,7,0,0,0,49,134.14a1.08,1.08,0,0,0-.26.3c-0.41.62-.21,1.08,0.52,1.18C49.78,135.7,50.31,135.73,50.91,135.79Z" transform="translate(-17.36 -68.52)"/><path d="M49.39,101.64a1.08,1.08,0,0,1,.24-1,3.16,3.16,0,0,1,1.51-1c0.89-.1,1.78-0.14,2.68-0.18,1.62-.08,3.24-0.12,4.85-0.22s3-.22,4.52-0.33c0.8-.06,1.59-0.12,2.39-0.16s1.31,0,2,0a1.56,1.56,0,0,1,.35.1,1.21,1.21,0,0,1-1.08.56c-1,.09-2,0.13-2.93.2-1.62.12-3.24,0.25-4.86,0.36-0.93.06-1.87,0.07-2.8,0.11l-1.52.09c-1.11.07-2.23,0.15-3.34,0.19a1.46,1.46,0,0,0-1.33.86A0.54,0.54,0,0,1,49.39,101.64Z" transform="translate(-17.36 -68.52)"/><path d="M171.51,77.67c0.05-.71.09-0.75,0.66-0.68L173,77.11a0.79,0.79,0,0,0,.21,0c0.23-.48.69-0.14,1-0.26a8.19,8.19,0,0,1,1.83-.17c1.23-.12,2.45-0.28,3.68-0.4a2.41,2.41,0,0,1,.79,0,7.76,7.76,0,0,0,2.74.09c1.1-.14,2.16.09,3.24,0a17.53,17.53,0,0,1,2.32.06c0.59,0,.75.2,0.79,0.68a4.27,4.27,0,0,1-.94.16,2.67,2.67,0,0,1-.77-0.26,0.89,0.89,0,0,0-.38-0.16,9.4,9.4,0,0,1-1.3.1,12.74,12.74,0,0,1-2.43.07,10.52,10.52,0,0,0-2.06.13,0.88,0.88,0,0,1-.46-0.06,1.37,1.37,0,0,0-1.25,0,2.16,2.16,0,0,1-.83-0.08,2.42,2.42,0,0,0-1.34.23,3.4,3.4,0,0,1-1.83,0,3.87,3.87,0,0,0-1.24.14,5.27,5.27,0,0,1-2.55.16A2.45,2.45,0,0,0,171.51,77.67Z" transform="translate(-17.36 -68.52)"/><path d="M40.16,118.37a5.51,5.51,0,0,1,.5-1.32,5.67,5.67,0,0,1,2.87-2.22,1.27,1.27,0,0,1,1.53,1.33c-0.16,1.51-1.24,2.23-2.41,2.86a4,4,0,0,1-1.28.41A1,1,0,0,1,40.16,118.37Zm0.93,0.34a4.68,4.68,0,0,0,3-1.7,1.52,1.52,0,0,0,.31-1.18,1.3,1.3,0,0,0-1.46.2c-0.52.46-1,.94-1.54,1.39A1.15,1.15,0,0,0,41.08,118.72Z" transform="translate(-17.36 -68.52)"/><path d="M152.9,78.68l3.22-.33c0.26,0,.52,0,0.78,0a3,3,0,0,0,1.12-.13,7,7,0,0,1,1.64-.21,15.69,15.69,0,0,0,1.88-.24,4,4,0,0,1,1.16-.15,9.3,9.3,0,0,0,1.41-.1c0.73-.08,1.45-0.19,2.18-0.25a14.27,14.27,0,0,1,1.6,0,0.43,0.43,0,0,1,.42.59c-0.31-.11-0.6-0.53-0.86-0.07a0.58,0.58,0,0,0-.84.07,0.75,0.75,0,0,1-.46.06c-0.82,0-1.61.21-2.44,0.17a7.37,7.37,0,0,1-1.66.06,0.24,0.24,0,0,0-.15,0,5.51,5.51,0,0,1-2.75.58,7.35,7.35,0,0,0-1.56.16,4.63,4.63,0,0,1-1.94,0,1.36,1.36,0,0,0-.87.17,2.28,2.28,0,0,1-1.92,0l0-.37h0Z" transform="translate(-17.36 -68.52)"/><path d="M53.47,106.44a1,1,0,0,1,.24-0.33,3.62,3.62,0,0,1,.92-0.24q3.1-.2,6.21-0.36c1.64-.09,3.28-0.15,5-0.22L66,106c-2.11.25-4.18,0.22-6.24,0.36A43.24,43.24,0,0,1,53.47,106.44Z" transform="translate(-17.36 -68.52)"/><path d="M147.8,157a1.57,1.57,0,0,1,.53-0.11c1.07,0.24,2.16-.07,3.25.3a11,11,0,0,0,2.74.31,2.06,2.06,0,0,0,.69-0.22c0.12,0.09.05,0.43,0.4,0.3,0.72-.27,1.4.18,2.1,0.2a1.36,1.36,0,0,1,.35.43c-0.63-.18-1.15.18-1.76-0.18a1.92,1.92,0,0,1-1.83-.05,0.39,0.39,0,0,0-.22-0.07c-0.9.5-1.82-.13-2.73,0a4.82,4.82,0,0,1-1.32-.2,4.31,4.31,0,0,0-1.09,0C148.28,157.77,148.14,157.71,147.8,157Z" transform="translate(-17.36 -68.52)"/><path d="M132.8,91l0.22-.57,0.69-.1a4.41,4.41,0,0,1,2-.06,17.12,17.12,0,0,0,1.94-.15c0.61,0,1.23-.3,1.85.1-0.54,0-1,.37-1.47.42s-1,0-1.52.07a8.93,8.93,0,0,1-1.33.16,14.87,14.87,0,0,1-2.4.12Z" transform="translate(-17.36 -68.52)"/><path d="M149.33,142.75a0.89,0.89,0,0,1-1.12.35c-0.8-.34-1.6.07-2.4-0.1a0.43,0.43,0,0,0-.36.13,1,1,0,0,1-1.28.14,1.93,1.93,0,0,0-1.77,0,0.72,0.72,0,0,1-.91-0.22,1.9,1.9,0,0,1,2-.32c0.58-.23,1.18.14,1.78,0a4.29,4.29,0,0,1,1.09,0c0.45,0,.89,0,1.33-0.08A2.66,2.66,0,0,1,149.33,142.75Z" transform="translate(-17.36 -68.52)"/><path d="M147.49,79.85c-0.47-.39-0.9,0-1.38,0a5.56,5.56,0,0,0-1.4.21c-0.89.13-1.78,0.25-2.67,0.36a1.22,1.22,0,0,1-.42-0.21c0.77-.31,1.4-0.71,2.16-0.36a0.22,0.22,0,0,0,.14,0c0.13-.41.49-0.23,0.75-0.29a9.14,9.14,0,0,1,2.63-.1,0.77,0.77,0,0,1,.29.21Z" transform="translate(-17.36 -68.52)"/><path d="M140.52,142.44l0.54,0.3-0.15.64c-1.14-.14-2.27-0.27-3.4-0.43a0.83,0.83,0,0,1-.2-0.35,1.82,1.82,0,0,1,1.57,0A1.82,1.82,0,0,0,140.52,142.44Z" transform="translate(-17.36 -68.52)"/><path d="M147.63,157.12a2.49,2.49,0,0,1-2.17.26,5.57,5.57,0,0,0-1-.11c-0.35,0-.39-0.21-0.2-0.54C145.36,156.9,146.53,156.66,147.63,157.12Z" transform="translate(-17.36 -68.52)"/><path d="M182.41,144.48a0.33,0.33,0,0,1-.08.13,4.58,4.58,0,0,1-2-.1,0.66,0.66,0,0,0-.72,0c-0.27.16-.43,0-0.38-0.45,0.35,0,.71-0.05,1.06,0s0.72,0.13,1.08.13a1.65,1.65,0,0,1,1.07.36Z" transform="translate(-17.36 -68.52)"/><path d="M171,77.22l-0.16.41-2.23.12C168.78,77,169.78,76.75,171,77.22Z" transform="translate(-17.36 -68.52)"/><path d="M152.9,78.68a1.36,1.36,0,0,1-1.57.73,8.25,8.25,0,0,0-1.24.08,0.87,0.87,0,0,1-.32-0.21l1.23-.36a1.53,1.53,0,0,1,.46-0.1,3.49,3.49,0,0,0,1.43-.14h0Z" transform="translate(-17.36 -68.52)"/><path d="M152,89.92a1.81,1.81,0,0,1-2.17-.12l2.21-.41-0.07.55Z" transform="translate(-17.36 -68.52)"/><path d="M142.37,90.44l-1.87.35-0.26-.53A1.76,1.76,0,0,1,142.37,90.44Z" transform="translate(-17.36 -68.52)"/><path d="M147.94,79.12h1.59a0.64,0.64,0,0,1-.08.3,1.67,1.67,0,0,1-1.45.27Z" transform="translate(-17.36 -68.52)"/><path d="M144.55,89.78a0.72,0.72,0,0,0,.92.12c0.3-.18.49-0.07,0.68,0.25-0.31.14-.46,0.64-0.84,0.4s-0.9-.14-0.76-0.78h0Z" transform="translate(-17.36 -68.52)"/><path d="M155.53,142.54a0.79,0.79,0,0,1,.38,0c0.4,0.21.79,0.46,1.22,0.71,0,0.2-.12.28-0.32,0.24a2.2,2.2,0,0,1-.51-0.2,0.85,0.85,0,0,0-.69-0.35l-0.05-.38Z" transform="translate(-17.36 -68.52)"/><path d="M140.7,80.22c-0.31.13-.61,0.28-0.92,0.4s-0.19.05-.52-0.36c0.47-.11.89-0.21,1.32-0.29a1.47,1.47,0,0,1,.11.27v0Z" transform="translate(-17.36 -68.52)"/><path d="M146.78,89.84c0.34,0.06.89-.3,1.15,0.29l-1.35.5Z" transform="translate(-17.36 -68.52)"/><path d="M151.11,142.5l-0.35.57-1.15-.06c-0.08-.3.1-0.39,0.33-0.41l1.17-.09h0Z" transform="translate(-17.36 -68.52)"/><path d="M143.92,156.76c-0.17.39-.26,0.73-0.71,0.51-0.23-.11-0.36-0.27-0.21-0.5C143.26,156.35,143.54,156.71,143.92,156.76Z" transform="translate(-17.36 -68.52)"/><path d="M134.61,142.54l0.69-.32,0.48,0.66a0.8,0.8,0,0,1-1.15-.36Z" transform="translate(-17.36 -68.52)"/><path d="M149.28,89.63l-0.29.66-0.9-.44,0-.14Z" transform="translate(-17.36 -68.52)"/><path d="M134.63,142.52l-1.25.46,0.32-.76,0.94,0.17,0,0.15Z" transform="translate(-17.36 -68.52)"/><path d="M159.66,143.84l-0.86-.32a0.58,0.58,0,0,1,.73-0.26C159.73,143.35,159.88,143.5,159.66,143.84Z" transform="translate(-17.36 -68.52)"/><path d="M177.62,144.41a1.05,1.05,0,0,1,1.24-.23C178.51,144.75,178,144.34,177.62,144.41Z" transform="translate(-17.36 -68.52)"/><path d="M132.29,142.13c0,0.56-.16.83-0.72,0.74A0.86,0.86,0,0,1,132.29,142.13Z" transform="translate(-17.36 -68.52)"/><path d="M136.35,143.4l-0.26-.77,0.41-.11,0.34,0.8Z" transform="translate(-17.36 -68.52)"/><path d="M142.65,90.52c0-.34.06-0.56,0.46-0.53C143.17,90.59,143.17,90.59,142.65,90.52Z" transform="translate(-17.36 -68.52)"/><path d="M144.55,89.78l-0.4.8-0.53-.6,0.93-.19h0Z" transform="translate(-17.36 -68.52)"/><path d="M90.09,99.2l-0.59.46C89.35,99.17,89.35,99.17,90.09,99.2Z" transform="translate(-17.36 -68.52)"/><path d="M169.83,143.76l0.78,0.28C170.16,144.44,170.05,143.83,169.83,143.76Z" transform="translate(-17.36 -68.52)"/><path d="M140.69,80.24a0.34,0.34,0,0,1,.52-0.17,0.89,0.89,0,0,1,.2.34c-0.38.27-.51-0.06-0.71-0.19v0Z" transform="translate(-17.36 -68.52)"/><path d="M173.49,143.92l0.63-.23C174,144,174,144,173.49,143.92Z" transform="translate(-17.36 -68.52)"/><path d="M163.79,143.76l0.33-.54a1.48,1.48,0,0,1,0,.48,0.62,0.62,0,0,1-.24.16Z" transform="translate(-17.36 -68.52)"/><path class="cls-1" d="M121.8,75.18l0.42,0.31c-0.46.09-.37-0.16-0.39-0.34Z" transform="translate(-17.36 -68.52)"/><path d="M168.57,144.12l-0.3-.18a1.44,1.44,0,0,1,.12-0.16,3.24,3.24,0,0,1,.29.2Z" transform="translate(-17.36 -68.52)"/><path d="M130.48,142l0.75,0.25C130.72,142.36,130.72,142.36,130.48,142Z" transform="translate(-17.36 -68.52)"/><path d="M172.67,143.93l0.45,0.24C172.77,144.28,172.77,144.28,172.67,143.93Z" transform="translate(-17.36 -68.52)"/><path d="M157.27,142.71l0.49,0.32C157.46,143.26,157.38,143.13,157.27,142.71Z" transform="translate(-17.36 -68.52)"/><path d="M175.48,144.27a0.49,0.49,0,0,1-.2.12,0.46,0.46,0,0,1-.17-0.14,0.39,0.39,0,0,1,.16-0.14A0.58,0.58,0,0,1,175.48,144.27Z" transform="translate(-17.36 -68.52)"/><path d="M161.31,143.69l-0.39-.13,0-.1,0.4,0.06Z" transform="translate(-17.36 -68.52)"/><path class="cls-1" d="M37.11,139.44a4.46,4.46,0,0,1,.59-0.1c1.42-.06,2.83-0.13,4.25-0.15,2.22,0,4.43,0,6.65-.06l3.92-.06a21.32,21.32,0,0,1,4.57.23,5.07,5.07,0,0,0,.29.66,3.23,3.23,0,0,0,.41.45,2.92,2.92,0,0,1,.71-0.88,2.68,2.68,0,0,1,1.11-.08h3.26c0.88,0,1.76-.07,2.64,0a18.28,18.28,0,0,0,3-.09,27.42,27.42,0,0,1,2.85.11c1.35,0,2.71,0,4.06-.07,0.66,0,1.32,0,2-.06a3,3,0,0,0,.85-0.17c0.25-.09.48-0.27,0.71,0a0.18,0.18,0,0,0,.14.06c0.48-.41,1,0,1.52-0.11a6.21,6.21,0,0,1,1.25,0,2.43,2.43,0,0,1,.85,0,1.29,1.29,0,0,0,.83,0,2.5,2.5,0,0,1,.89.17,1.3,1.3,0,0,0,.85,0c0.18-.07.48,0.15,0.67,0.08a2.69,2.69,0,0,1,1.67.12,1.4,1.4,0,0,0,.77-0.11c0.72-.28,1.48.11,2.17-0.15a3.2,3.2,0,0,1,1.71-.18c1.13,0.23,2.27-.12,3.4.19a4.17,4.17,0,0,0,1.58-.09,2.51,2.51,0,0,1,1.11.08,4,4,0,0,0,1.24-.06,6,6,0,0,1,2.28,0,3.34,3.34,0,0,0,.7,0,6.45,6.45,0,0,0,2,0,0.77,0.77,0,0,1,.8.14c0.18,0.17.51-.16,0.72,0.1a6.92,6.92,0,0,1,2.83-.15,5.44,5.44,0,0,1,1.72.15c0.73,0.24,1.48.11,2.21,0.28a2.13,2.13,0,0,0,1,0,2.43,2.43,0,0,0,1,0,1.69,1.69,0,0,1,.82.16,1.46,1.46,0,0,0,.68.12c1-.37,1.87.18,2.81,0.2a1.2,1.2,0,0,0,.38.06c0.86-.39,1.71,0,2.56,0a9.87,9.87,0,0,0,2.37.08,1.33,1.33,0,0,1,1.31.59,1.27,1.27,0,0,0,1.18.63,1,1,0,0,0-.32,1.23,25.64,25.64,0,0,0,.66,2.93,42.55,42.55,0,0,0,1.57,4.83,29.47,29.47,0,0,1,1.3,3.94l0.43,1.36a3.41,3.41,0,0,1-.73.13c-1.14-.06-2.28-0.15-3.42-0.23s-2.54-.26-3.81-0.27c-1.63,0-3.23-.24-4.84-0.38-1.09-.1-2.19,0-3.29,0-0.71,0-1.42-.08-2.12-0.14l-3.4-.28a0.44,0.44,0,0,0-.16,0c-1.25.42-2.49-.17-3.75,0a22,22,0,0,1-2.74.18c-0.67,0-1.34-.11-2-0.14-1.08-.06-2.16-0.09-3.24-0.14a9.7,9.7,0,0,0-1.74,0,21.56,21.56,0,0,1-3.59-.2c-0.85,0-1.69,0-2.54-.05a4.28,4.28,0,0,1-1.23-.23,7.52,7.52,0,0,0-2.11-.16c-2-.15-3.92.13-5.89-0.06-1.61-.15-3.24-0.13-4.86-0.16a25.32,25.32,0,0,1-3.92-.38,2.08,2.08,0,0,0-.32,0c-1.32,0-2.64,0-4-.08a25.33,25.33,0,0,1-3.1-.24A1.6,1.6,0,0,1,62.5,152a1.38,1.38,0,0,0-.84-0.51,5.58,5.58,0,0,0-1.34-.17c-0.58,0-1.16.06-1.74,0-1.23,0-2.45-.12-3.68-0.16-0.77,0-1.55,0-2.32,0-1.31-.08-2.62-0.16-3.92-0.33-1.15-.15-2.28,0-3.42-0.08-1,0-2-.18-2.94-0.29a0.48,0.48,0,0,1-.34-0.17c-0.1-.68-0.73-0.9-1.11-1.33a5.49,5.49,0,0,1-.91-2.28,15,15,0,0,0-.81-2.32c-0.55-1.17-1.21-2.3-1.81-3.45A1.67,1.67,0,0,1,37.11,139.44Zm44.55,6c0.06-.4.11-0.74,0.16-1.08a0.61,0.61,0,0,1,.58-0.57c0.53-.06,1.06-0.12,1.59-0.13,2.75,0,5.5-.07,8.24,0,1.89,0,3.79.18,5.68,0.22,1.51,0,2-.71,1.54-2a1.27,1.27,0,0,0-.62-0.76,8,8,0,0,0-1.86-.26c-1-.05-2,0-3-0.08-1.45-.08-2.9-0.21-4.35-0.29a5.2,5.2,0,0,1-.83.19,7.39,7.39,0,0,0-2.52,0c-1.22,0-2.44-.09-3.66-0.14l-3.89-.15c-0.42,0-.85,0-1.27,0A1.3,1.3,0,0,0,76,141.58a3.21,3.21,0,0,0,.16,1.49c0.3,0.91.47,1.87,0.79,2.77,0.66,1.89,1.39,3.76,2.06,5.64a1.75,1.75,0,0,0,1,1.16,5.32,5.32,0,0,0,1.61.44c2.29,0.07,4.59.09,6.88,0.1a25.31,25.31,0,0,0,2.73-.06,15.78,15.78,0,0,1,4.87.22,1.78,1.78,0,0,0,.32,0l2.55,0c0.8,0,1.59,0,2.39,0,0.55,0,1.1-.08,1.65-0.08s0.94,0.12,1.41.11a0.9,0.9,0,0,0,1-1.17,12.67,12.67,0,0,0-.24-1.58c-0.23-1-.44-2.09-0.74-3.11a2.1,2.1,0,0,0-2.07-1.57c-0.34,0-.68,0-1,0-1,0-2-.2-3-0.11-0.75.06-1.49-.09-2.26,0a2.6,2.6,0,0,1-1.75-.07,7.1,7.1,0,0,1-2.9-.09,1.44,1.44,0,0,0-.24,0c-0.76-.07-1.5.13-2.27,0.06a7.94,7.94,0,0,1-1.71-.08,5.88,5.88,0,0,0-2.2,0A7.54,7.54,0,0,1,81.66,145.46ZM57.22,141a6.19,6.19,0,0,1-.94.3c-1,.15-2,0.27-2.93.39a5.17,5.17,0,0,1-.64,0c-1,0-1.91,0-2.86,0a16.81,16.81,0,0,1-2.07-.11,10.31,10.31,0,0,0-4-.11,1.69,1.69,0,0,0-1.42,1.25,5.27,5.27,0,0,0,0,2.78c0.24,0.76.56,1.5,0.86,2.24a2.13,2.13,0,0,0,2.25,1.48,29.25,29.25,0,0,1,3.41.28c1.23,0,2.45.19,3.68,0.24a11.36,11.36,0,0,1,2.84.38,4.22,4.22,0,0,0,1.27.12c0.61,0,1.22-.08,1.83-0.13a1.16,1.16,0,0,0,1-1.34,10.65,10.65,0,0,0-.88-3.15,0.63,0.63,0,0,1,.12-0.92,0.35,0.35,0,0,0-.12-0.64,0.75,0.75,0,0,1-.43-0.78c0-.4-0.12-0.79-0.18-1.19A1.25,1.25,0,0,0,57.22,141Zm58.63,5.39,1.83-.06c0.53,0,1.07,0,1.6,0s0.65-.21.57-0.67-0.26-1.15-.39-1.72a0.72,0.72,0,0,0-.68-0.58c-0.87-.06-1.75-0.07-2.62-0.09a21,21,0,0,1-2.35-.05,1.83,1.83,0,0,0-1.05.07,1.52,1.52,0,0,1-.83.1c-0.89-.16-1.23.12-1,1a13.89,13.89,0,0,0,.77,2.59,19.3,19.3,0,0,1,1.24,3.87,1.6,1.6,0,0,0,1.21,1.33,7.77,7.77,0,0,0,1.95.33c1.68,0,3.36,0,5,0,0.66,0,.81-0.2.61-0.82-0.29-.88-0.51-1.79-0.88-2.65a1.64,1.64,0,0,0-2-1.27,15.35,15.35,0,0,1-2.46-.16,0.5,0.5,0,0,1-.51-0.59C115.86,146.81,115.85,146.63,115.85,146.36ZM68,144.63c-0.08-.91.13-1.15,0.93-1.16h1.28a0.87,0.87,0,0,0,.92-0.59,0.9,0.9,0,0,0-1-1.15l-5.45,0c-0.37,0-.74.06-1.12,0.1a0.64,0.64,0,0,0-.61.63,1.78,1.78,0,0,0,0,.71c0.37,1.14.75,2.28,1.18,3.4,0.23,0.6.55,1.16,0.83,1.74s0.54,1.16.81,1.74a0.92,0.92,0,0,0,1,.57q1.08,0,2.16,0a13.53,13.53,0,0,1,3.73.19,0.38,0.38,0,0,0,.51-0.49,3.07,3.07,0,0,0-.24-0.67c-0.13-.29-0.3-0.57-0.41-0.87-0.42-1.09-.81-2.2-1.24-3.29a1.08,1.08,0,0,0-1.09-.8c-0.32,0-.64,0-1,0H68Z" transform="translate(-17.36 -68.52)"/><path class="cls-1" d="M18.43,139.08c1.12,0.08,2.08.2,3,.22,1.47,0,2.94,0,4.41,0,1.82,0,3.63-.17,5.45-0.2,1.15,0,2.3,0,3.44.11a9.68,9.68,0,0,1,1.29.25c-0.14,1.36.67,2.33,1.22,3.38a20.3,20.3,0,0,1,2,5,12.33,12.33,0,0,0,.52,1.45,0.72,0.72,0,0,1-.26.13c-1.82,0-3.64.13-5.45,0a28.62,28.62,0,0,0-3.75,0,19.1,19.1,0,0,1-2.08-.11c-0.86,0-1.71,0-2.57,0a2.26,2.26,0,0,1-.71-0.11c-0.57-.21-1.12-0.48-1.7-0.67a2.73,2.73,0,0,1-1.55-1.42,46.32,46.32,0,0,1-3.08-6.94A7.27,7.27,0,0,1,18.43,139.08Z" transform="translate(-17.36 -68.52)"/><path class="cls-1" d="M195.91,139.16c-1-.28-1.74-0.19-1.89,1l-0.18-.17c0-.38,0-0.77,0-1.15,0.11-1.32-.15-2.62-0.16-3.91,0-1.07-.18-2.14-0.08-3.23,0.17-2,.09-4.11.11-6.17,0-.16,0-0.32,0-0.48a22.4,22.4,0,0,0-.12-4.66c-0.11-1-.07-2-0.1-3,0-.58,0-1.16,0-1.74a4.55,4.55,0,0,1,.12-0.67c0.9,0.8,1.92,1.32,2,2.63s0.23,2.67.28,4c0.06,1.71.08,3.42,0.08,5.12,0,1.2-.13,2.4-0.12,3.61,0,2.24.09,4.49,0.14,6.73C195.92,137.71,195.91,138.35,195.91,139.16Z" transform="translate(-17.36 -68.52)"/><path class="cls-1" d="M194.88,139.84a0.65,0.65,0,0,1,.83.57,9.15,9.15,0,0,1,.08,1.81,1.91,1.91,0,0,1-.94,1.35c-0.2-.28-0.53-0.48-0.32-0.84s-0.37-.64.11-0.86a1.35,1.35,0,0,1,.06-1.05A5.29,5.29,0,0,0,194.88,139.84Z" transform="translate(-17.36 -68.52)"/><path class="cls-1" d="M193.72,144.2l-1-1.16a1,1,0,0,1,1-.76,5.23,5.23,0,0,1,.24,1.88Z" transform="translate(-17.36 -68.52)"/><path class="cls-1" d="M92.22,104.41a28.6,28.6,0,0,0,1.61-2.84,4.42,4.42,0,0,0,.57-3.22l3.25-.24,4.15-.31c1.25-.1,2.51-0.18,3.76-0.31,0.76-.08,1.52-0.22,2.27-0.33a26,26,0,0,1,4.26-.31,7.35,7.35,0,0,1,1.31-.11,4.84,4.84,0,0,0,1.38,0c0.76,0,1.53.16,2.27,0.07,2.09-.23,4.18-0.14,6.27-0.32,0.31,0,.62,0,1,0-0.7,1.4-1.39,2.71-2,4-0.37.8-.64,1.65-1,2.58a3,3,0,0,1-.49.07c-2.48.06-5,.09-7.44,0.17-1,0-2,.21-3,0.27-1.41.08-2.83,0.08-4.24,0.18-1.73.12-3.45,0.33-5.18,0.46-1.17.09-2.34,0.11-3.51,0.15-1.34,0-2.67.08-4,.09C93,104.52,92.6,104.45,92.22,104.41Z" transform="translate(-17.36 -68.52)"/><path class="cls-1" d="M122.52,102.91a10,10,0,0,1,.3-1.3,27,27,0,0,1,1.16-2.8,12.93,12.93,0,0,1,1.44-2.18,1.79,1.79,0,0,1,1-.41c0.78-.15,1.56-0.25,2.34-0.36l0.59-.05a50.39,50.39,0,0,1-2.58,6.69C125.47,102.53,124.14,103.39,122.52,102.91Z" transform="translate(-17.36 -68.52)"/><path class="cls-1" d="M147.81,101l-0.47-.59a1.24,1.24,0,0,0-1.73-.45l-0.15.05a2.08,2.08,0,0,1-.89.26,2.48,2.48,0,0,1-.48-0.66,1.25,1.25,0,0,0-.7-0.44c-1.08,0-2.17.11-3.31,0.19l-0.16,1.38-2,.65-0.88-.57-1.51,1.55a1,1,0,0,0,0,1.54,2.21,2.21,0,0,1-2.33-.65,0.66,0.66,0,0,1-.15-0.28,3.9,3.9,0,0,1,.44-2.69,5.83,5.83,0,0,1,3-1.94c1.37-.54,2.8-1,4.22-1.38a10.61,10.61,0,0,1,2.09-.45,18.73,18.73,0,0,0,1.89-.4,8,8,0,0,1,1.48,0,0.37,0.37,0,0,1,.22.08c0.68,0.57,1.38,1.11,2,1.71a1.66,1.66,0,0,1,0,2.57C148.26,100.58,148.08,100.73,147.81,101Z" transform="translate(-17.36 -68.52)"/><path class="cls-1" d="M136.82,104.07l-0.57-.78,1.05-1.45,0.89,0.4a0.49,0.49,0,0,0,.3,0l2.4-.8v-1.26l2.18-.25,0.3,0.59a1.29,1.29,0,0,1,1.23.43c0.7,0.42.67,0.47,1.34,0l0.45-.32,0.72,0.65a6.29,6.29,0,0,1-2.72,1.38,25.85,25.85,0,0,1-2.65.8c-0.69.17-1.43,0.17-2.11,0.38A7,7,0,0,1,136.82,104.07Z" transform="translate(-17.36 -68.52)"/><path class="cls-1" d="M140.51,95.77h0.84c-0.36.36-.61,0.34-0.84,0h0Z" transform="translate(-17.36 -68.52)"/><path class="cls-1" d="M80.76,102.6c-0.6-1-.45-1.13-1.85-0.64-0.25.09-.5,0.18-0.76,0.25s-0.51.12-.85,0.19c0,0.25,0,.48.07,0.71a0.81,0.81,0,0,1-.6,1.17c-0.14.07-.27,0.16-0.42,0.25l-1.07-.67c-1.44.75-2.53,1.67-2.08,3.52a3,3,0,0,1-2.79-.48,4.58,4.58,0,0,1,1.15-1.82,8.48,8.48,0,0,1,1.32-1.28,16,16,0,0,1,7.4-3.46c0.87-.16,1.75-0.27,2.62-0.36a4.18,4.18,0,0,1,2,.39c0.14,1.07-.71,1.44-1.33,2a1.33,1.33,0,0,0-.42-0.24,1.45,1.45,0,0,0-.82,0A1.89,1.89,0,0,1,80.76,102.6Z" transform="translate(-17.36 -68.52)"/><path class="cls-1" d="M74.1,107.86c-0.7-1.38-.44-2,1.24-3.11a1.73,1.73,0,0,0,2.31.16,1.22,1.22,0,0,0,.36-1.75l1.92-.67,0.31,0.93a3.73,3.73,0,0,0,2.75-.76,1,1,0,0,1-.44.75c-0.53.39-1.08,0.76-1.62,1.15a20.84,20.84,0,0,1-4.36,2.3Z" transform="translate(-17.36 -68.52)"/><path class="cls-1" d="M70,105.79a4.24,4.24,0,0,1,0-1.08,5.55,5.55,0,0,1,2.37-3.12,22.09,22.09,0,0,1,6.73-2.71,6.59,6.59,0,0,1,4-.1c0.27,0.1.52,0.21,0.9,0.36C78.2,99.2,73.53,101.17,70,105.79Z" transform="translate(-17.36 -68.52)"/><path class="cls-1" d="M135.7,138.42l-1.2-.08a2.7,2.7,0,0,1-2.1-1.43,1.68,1.68,0,0,1-.1-1.08,2.19,2.19,0,0,1,1.45-1.84,5.85,5.85,0,0,1,3.15-.24,3.36,3.36,0,0,1,2.6,2.44,1.53,1.53,0,0,1-.72,1.54A6.19,6.19,0,0,1,135.7,138.42Z" transform="translate(-17.36 -68.52)"/><path class="cls-1" d="M139.13,150.11a1.19,1.19,0,0,1,.36-0.2,8,8,0,0,1,3.85.25c0.65,0.25.74,0.47,0.48,1.09a6.2,6.2,0,0,1-.5,1,1.07,1.07,0,0,1-.5.36,4.61,4.61,0,0,1-.86.2,27.82,27.82,0,0,1-2.83.44,10.28,10.28,0,0,1-2.18-.19,0.65,0.65,0,0,1-.53-0.72,2.5,2.5,0,0,1,1.29-2.06,0.89,0.89,0,0,0,.28-0.13A0.67,0.67,0,0,1,139.13,150.11Z" transform="translate(-17.36 -68.52)"/><path class="cls-1" d="M69.2,130.08a2.69,2.69,0,0,1,2.37,1.2,1.39,1.39,0,0,1-.49,1.93,7.83,7.83,0,0,1-2.67.78,3.71,3.71,0,0,1-2.28-.17c-1.37-.62-1.54-1.47-0.36-2.57A5.57,5.57,0,0,1,69.2,130.08Z" transform="translate(-17.36 -68.52)"/><path class="cls-1" d="M119.5,132.15a1.86,1.86,0,0,1-1.33,2.59,5.65,5.65,0,0,1-4.54-.47,0.77,0.77,0,0,1-.37-0.37,2.28,2.28,0,0,1,.77-2.06,4.82,4.82,0,0,1,2.59-.62c0.32,0,.64,0,1,0.07a1.45,1.45,0,0,1,1.25.55A1.74,1.74,0,0,0,119.5,132.15Z" transform="translate(-17.36 -68.52)"/><path class="cls-1" d="M50.91,135.79c-0.6-.06-1.13-0.09-1.66-0.16-0.73-.1-0.93-0.56-0.52-1.18a1.08,1.08,0,0,1,.26-0.3,7,7,0,0,1,5.24-1.44,0.79,0.79,0,0,1,.82.71,1.25,1.25,0,0,1-.48,1.34A7.58,7.58,0,0,1,50.91,135.79Z" transform="translate(-17.36 -68.52)"/><path class="cls-1" d="M41.08,118.72a1.15,1.15,0,0,1,.28-1.28c0.52-.45,1-0.94,1.54-1.39a1.3,1.3,0,0,1,1.46-.2A1.52,1.52,0,0,1,44,117,4.68,4.68,0,0,1,41.08,118.72Z" transform="translate(-17.36 -68.52)"/><path d="M81.66,145.46a7.54,7.54,0,0,0,3.41.25,5.88,5.88,0,0,1,2.2,0,7.94,7.94,0,0,0,1.71.08c0.77,0.07,1.51-.13,2.27-0.06a1.44,1.44,0,0,1,.24,0,7.1,7.1,0,0,0,2.9.09,2.6,2.6,0,0,0,1.75.07c0.76-.07,1.51.09,2.26,0,1-.09,2,0.12,3,0.11,0.34,0,.68,0,1,0a2.1,2.1,0,0,1,2.07,1.57c0.3,1,.51,2.07.74,3.11a12.67,12.67,0,0,1,.24,1.58,0.9,0.9,0,0,1-1,1.17c-0.47,0-.94-0.11-1.41-0.11s-1.1.07-1.65,0.08c-0.8,0-1.59,0-2.39,0l-2.55,0a1.78,1.78,0,0,1-.32,0,15.78,15.78,0,0,0-4.87-.22,25.31,25.31,0,0,1-2.73.06c-2.29,0-4.59,0-6.88-.1a5.32,5.32,0,0,1-1.61-.44,1.75,1.75,0,0,1-1-1.16c-0.67-1.89-1.4-3.75-2.06-5.64-0.32-.91-0.48-1.86-0.79-2.77a3.21,3.21,0,0,1-.16-1.49,1.3,1.3,0,0,1,1.47-1.23c0.42,0,.85,0,1.27,0l3.89,0.15c1.22,0.05,2.44.19,3.66,0.14a7.39,7.39,0,0,1,2.52,0,5.2,5.2,0,0,0,.83-0.19c1.45,0.07,2.9.21,4.35,0.29,1,0.05,2,0,3,.08a8,8,0,0,1,1.86.26,1.27,1.27,0,0,1,.62.76c0.44,1.29,0,2-1.54,2-1.89,0-3.79-.2-5.68-0.22-2.75,0-5.5,0-8.24,0-0.53,0-1.06.07-1.59,0.13a0.61,0.61,0,0,0-.58.57C81.77,144.72,81.72,145.06,81.66,145.46Zm23,6.65c-0.26-1.38-.47-2.65-0.77-3.89a1.17,1.17,0,0,0-1-1c-0.29,0-.57-0.15-0.85-0.17-0.69,0-1.38,0-2.07,0-1.14,0-2.27-.1-3.41-0.1s-2,.12-3,0.11c-1.33,0-2.65-.12-4-0.14a45.72,45.72,0,0,0-5.86,0,6.18,6.18,0,0,1-2-.26,1.26,1.26,0,0,1-1-1.52c0.05-.34.12-0.68,0.2-1a1.4,1.4,0,0,1,1.46-1.22c0.34,0,.68-0.09,1-0.14A2,2,0,0,1,84,142.6a10.35,10.35,0,0,0,2.38,0,16.29,16.29,0,0,1,3.26,0,2.7,2.7,0,0,0,.56,0,19.82,19.82,0,0,1,2.41-.09c1.31,0.13,2.64.15,4,.19,0.66,0,1.32,0,2,0,0-.44,0-0.69-0.4-0.7-0.88,0-1.76-.08-2.64-0.13s-2-.13-3-0.18c-1.57-.07-3.15-0.23-4.72-0.17a52.84,52.84,0,0,1-6.17-.16,19.4,19.4,0,0,0-5.08.13,3.43,3.43,0,0,0,.07.6c0.14,0.49.3,1,.46,1.45,0.38,1.14.75,2.28,1.14,3.41s0.92,2.34,1.25,3.55A1.63,1.63,0,0,0,81,151.93c0.79,0.09,1.59.15,2.39,0.18,1.1,0,2.19.08,3.29,0.05,1.81,0,3.61-.14,5.42-0.2a25,25,0,0,0,3.76-.08,1.17,1.17,0,0,1,.91.19,1.5,1.5,0,0,0,1.56.33,9.37,9.37,0,0,1,2-.09c1.18-.08,2.36-0.06,3.54-0.1A7.1,7.1,0,0,0,104.66,152.11Z" transform="translate(-17.36 -68.52)"/><path d="M57.22,141a1.25,1.25,0,0,1,.85,1.11c0.06,0.4.15,0.79,0.18,1.19a0.75,0.75,0,0,0,.43.78,0.35,0.35,0,0,1,.12.64,0.63,0.63,0,0,0-.12.92,10.65,10.65,0,0,1,.88,3.15,1.16,1.16,0,0,1-1,1.34c-0.61.05-1.22,0.12-1.83,0.13a4.22,4.22,0,0,1-1.27-.12,11.36,11.36,0,0,0-2.84-.38c-1.23-.05-2.45-0.2-3.68-0.24a29.25,29.25,0,0,0-3.41-.28,2.13,2.13,0,0,1-2.25-1.48c-0.3-.74-0.62-1.48-0.86-2.24a5.27,5.27,0,0,1,0-2.78,1.69,1.69,0,0,1,1.42-1.25,10.31,10.31,0,0,1,4,.11,16.81,16.81,0,0,0,2.07.11c1,0,1.91,0,2.86,0a5.17,5.17,0,0,0,.64,0c1-.12,2-0.24,2.93-0.39A6.19,6.19,0,0,0,57.22,141Zm-14.28,3.52c0.29,0.88.58,1.68,0.82,2.49a1.6,1.6,0,0,0,1.62,1.18l2.07,0.16L53,148.8l1.35,0.13a8.93,8.93,0,0,0,.41-1A2.63,2.63,0,0,1,56,146.49a8.7,8.7,0,0,1,1.26-.7,0.48,0.48,0,0,0,.24-0.84,6,6,0,0,0-.6-0.07l-4.31-.09c-0.8,0-1.6,0-2.39-.05-1-.09-1.89-0.34-2.85-0.4-1.14-.07-2.29,0-3.43,0A7.41,7.41,0,0,0,42.94,144.49ZM57.3,142c-1.11.14-2.06,0.28-3,.37s-1.92.17-2.87,0.2c-1.17,0-2.34,0-3.51,0a19.66,19.66,0,0,0-3.17-.32,9.78,9.78,0,0,0-1.24.22,0.61,0.61,0,0,0-.46.89,1.25,1.25,0,0,0,.37.07,25,25,0,0,1,5.11,0c0.79,0.08,1.58.27,2.37,0.31,1.49,0.07,3,.06,4.48.08h2.16ZM58.72,149a5,5,0,0,0-.44-1.92c-0.2-.55-0.36-0.64-0.89-0.39a7.29,7.29,0,0,0-1.5.92,1.48,1.48,0,0,0-.63,1.29A7.78,7.78,0,0,0,58.72,149Z" transform="translate(-17.36 -68.52)"/><path d="M115.85,146.36c0,0.27,0,.45,0,0.63a0.5,0.5,0,0,0,.51.59,15.35,15.35,0,0,0,2.46.16,1.64,1.64,0,0,1,2,1.27c0.37,0.85.59,1.76,0.88,2.65,0.2,0.62.06,0.82-.61,0.82-1.68,0-3.36,0-5,0a7.77,7.77,0,0,1-1.95-.33,1.6,1.6,0,0,1-1.21-1.33,19.3,19.3,0,0,0-1.24-3.87,13.89,13.89,0,0,1-.77-2.59c-0.2-.91.14-1.19,1-1a1.52,1.52,0,0,0,.83-0.1,1.83,1.83,0,0,1,1.05-.07,21,21,0,0,0,2.35.05c0.87,0,1.75,0,2.62.09a0.72,0.72,0,0,1,.68.58c0.13,0.57.29,1.14,0.39,1.72s-0.08.63-.57,0.67-1.06,0-1.6,0Zm4.11,2.52c-1.05-.07-2.06-0.17-3.07-0.2-1.29,0-1.8-.47-1.87-1.72a1.6,1.6,0,0,0,0-.48,1.2,1.2,0,0,1,.1-1.05l3.71-.2c0.07-.66,0-0.84-0.35-0.89a20.56,20.56,0,0,0-2.06-.19c-0.82,0-1.64,0-2.46,0-0.34,0-.68.07-1,0.11l-1.18.09c0.24,0.82.43,1.57,0.67,2.3,0.32,1,.69,2,1,2.94a7.56,7.56,0,0,1,.26,1,0.69,0.69,0,0,0,.64.6,3.6,3.6,0,0,0,1.77.12,14.93,14.93,0,0,0,3.64,0c0.3,0,.6,0,1-0.07Z" transform="translate(-17.36 -68.52)"/><path d="M68,144.63h1.18c0.32,0,.64,0,1,0a1.08,1.08,0,0,1,1.09.8c0.44,1.09.82,2.2,1.24,3.29,0.11,0.3.28,0.58,0.41,0.87a3.07,3.07,0,0,1,.24.67,0.38,0.38,0,0,1-.51.49,13.53,13.53,0,0,0-3.73-.19q-1.08,0-2.16,0a0.92,0.92,0,0,1-1-.57q-0.4-.87-0.81-1.74c-0.28-.58-0.6-1.14-0.83-1.74-0.43-1.12-.81-2.26-1.18-3.4a1.78,1.78,0,0,1,0-.71,0.64,0.64,0,0,1,.61-0.63c0.37,0,.74-0.1,1.12-0.1l5.45,0a0.9,0.9,0,0,1,1,1.15,0.87,0.87,0,0,1-.92.59H68.91C68.12,143.48,67.91,143.72,68,144.63Zm-4.28-1.92a9.44,9.44,0,0,0,.31,1.21c0.69,1.7,1.4,3.4,2.09,5.1a0.81,0.81,0,0,0,.85.57c1.44,0,2.89,0,4.33,0,0.18,0,.35,0,0.64-0.06-0.47-1.15-.93-2.23-1.35-3.32a0.89,0.89,0,0,0-1-.64c-0.51,0-1,.05-1.52,0-0.82,0-1-.2-0.91-1,0.09-.64.29-1.27,0.45-1.94A28.34,28.34,0,0,0,63.7,142.71Z" transform="translate(-17.36 -68.52)"/><path class="cls-1" d="M104.66,152.11a7.1,7.1,0,0,1-.77.11c-1.18,0-2.36,0-3.54.1a9.37,9.37,0,0,0-2,.09,1.5,1.5,0,0,1-1.56-.33,1.17,1.17,0,0,0-.91-0.19,25,25,0,0,1-3.76.08c-1.81.06-3.61,0.16-5.42,0.2-1.1,0-2.19,0-3.29-.05-0.8,0-1.6-.09-2.39-0.18a1.63,1.63,0,0,1-1.49-1.41c-0.32-1.21-.83-2.37-1.25-3.55s-0.77-2.27-1.14-3.41c-0.16-.48-0.32-1-0.46-1.45a3.43,3.43,0,0,1-.07-0.6,19.4,19.4,0,0,1,5.08-.13,52.84,52.84,0,0,0,6.17.16c1.57-.06,3.15.1,4.72,0.17,1,0,2,.12,3,0.18s1.76,0.1,2.64.13c0.43,0,.45.26,0.4,0.7-0.68,0-1.34,0-2,0-1.32,0-2.65-.06-4-0.19a19.82,19.82,0,0,0-2.41.09,2.7,2.7,0,0,1-.56,0,16.29,16.29,0,0,0-3.26,0,10.35,10.35,0,0,1-2.38,0,2,2,0,0,0-.63.07c-0.34,0-.68.12-1,0.14A1.4,1.4,0,0,0,80.91,144c-0.07.34-.15,0.68-0.2,1a1.26,1.26,0,0,0,1,1.52,6.18,6.18,0,0,0,2,.26,45.72,45.72,0,0,1,5.86,0c1.33,0,2.66.13,4,.14,1,0,2-.11,3-0.11s2.27,0.07,3.41.1c0.69,0,1.38,0,2.07,0,0.29,0,.56.13,0.85,0.17a1.17,1.17,0,0,1,1,1C104.2,149.46,104.4,150.73,104.66,152.11Z" transform="translate(-17.36 -68.52)"/><path class="cls-1" d="M42.94,144.49a7.41,7.41,0,0,1,.95-0.14c1.14,0,2.29-.06,3.43,0,1,0.06,1.89.31,2.85,0.4,0.79,0.07,1.6,0,2.39.05l4.31,0.09a6,6,0,0,1,.6.07,0.48,0.48,0,0,1-.24.84,8.7,8.7,0,0,0-1.26.7,2.63,2.63,0,0,0-1.21,1.44,8.93,8.93,0,0,1-.41,1L53,148.8l-5.57-.47-2.07-.16A1.6,1.6,0,0,1,43.76,147C43.53,146.17,43.24,145.37,42.94,144.49Z" transform="translate(-17.36 -68.52)"/><path class="cls-1" d="M57.3,142l0.23,1.81H55.36c-1.5,0-3,0-4.48-.08-0.79,0-1.58-.23-2.37-0.31a25,25,0,0,0-5.11,0,1.25,1.25,0,0,1-.37-0.07,0.61,0.61,0,0,1,.46-0.89,9.78,9.78,0,0,1,1.24-.22,19.66,19.66,0,0,1,3.17.32c1.17,0,2.34.06,3.51,0,1,0,1.92-.1,2.87-0.2S56.19,142.18,57.3,142Z" transform="translate(-17.36 -68.52)"/><path class="cls-1" d="M58.72,149a7.78,7.78,0,0,1-3.46-.1,1.48,1.48,0,0,1,.63-1.29,7.29,7.29,0,0,1,1.5-.92c0.53-.25.69-0.16,0.89,0.39A5,5,0,0,1,58.72,149Z" transform="translate(-17.36 -68.52)"/><path class="cls-1" d="M120,148.88l0.75,2.39c-0.4,0-.7.08-1,0.07a14.93,14.93,0,0,1-3.64,0,3.6,3.6,0,0,1-1.77-.12,0.69,0.69,0,0,1-.64-0.6,7.56,7.56,0,0,0-.26-1c-0.33-1-.7-2-1-2.94-0.24-.73-0.43-1.47-0.67-2.3l1.18-.09c0.34,0,.68-0.1,1-0.11,0.82,0,1.64,0,2.46,0a20.56,20.56,0,0,1,2.06.19c0.37,0.05.42,0.23,0.35,0.89l-3.71.2a1.2,1.2,0,0,0-.1,1.05,1.6,1.6,0,0,1,0,.48c0.07,1.24.58,1.68,1.87,1.72C117.9,148.71,118.91,148.81,120,148.88Z" transform="translate(-17.36 -68.52)"/><path class="cls-1" d="M63.7,142.71a28.34,28.34,0,0,1,3.91,0c-0.16.67-.36,1.3-0.45,1.94-0.12.8,0.09,1,.91,1,0.51,0,1,0,1.52,0a0.89,0.89,0,0,1,1,.64c0.42,1.09.88,2.16,1.35,3.32-0.29,0-.47.06-0.64,0.06-1.44,0-2.89,0-4.33,0A0.81,0.81,0,0,1,66.1,149c-0.69-1.7-1.41-3.39-2.09-5.1A9.44,9.44,0,0,1,63.7,142.71Z" transform="translate(-17.36 -68.52)"/><path class="cls-2" d="M156.11,143.45c8.88,0.08,17.92,1.15,26.85,1.31,0.4,0,2.19-.75,1.26-0.77-8.94-.16-18-1.23-26.85-1.31-0.4,0-2.18.76-1.26,0.77h0Z" transform="translate(-17.36 -68.52)"/><path class="cls-2" d="M140.65,157.32l7.79,0.35c0.69,0,2.07-1,.77-1l-7.79-.35c-0.69,0-2.07,1-.77,1h0Z" transform="translate(-17.36 -68.52)"/><path class="cls-2" d="M126.63,142.39a26.89,26.89,0,0,1,5.71.4,2.11,2.11,0,0,0,1.35-.24c0.16-.09.67-0.42,0.23-0.52a28.42,28.42,0,0,0-6-.45,2.1,2.1,0,0,0-1.37.37c-0.2.22-.34,0.44,0.12,0.45h0Z" transform="translate(-17.36 -68.52)"/><path class="cls-2" d="M129.27,142.46c7.84,0.94,15.69.51,23.57,0.83,0.5,0,2.22-.87,1.22-0.91-7.86-.31-15.76.12-23.57-0.83-0.51-.06-2.24.79-1.22,0.91h0Z" transform="translate(-17.36 -68.52)"/><path class="cls-2" d="M128.78,142.8c3.46-.11,6.79.55,10.22,0.53,4.35,0,8.72-.27,13.07-0.41,0.73,0,2-1.15.75-1.11-4.35.13-8.73,0.45-13.07,0.41-3.44,0-6.76-.64-10.22-0.53-0.73,0-2,1.15-.75,1.11h0Z" transform="translate(-17.36 -68.52)"/><path class="cls-2" d="M155.71,142.9l0.09-.06-0.73.27c-0.2,0-.26-0.1-0.07.06a3.11,3.11,0,0,0,.37.24l0.67,0.42a1.27,1.27,0,0,0,1.39-.11,0.61,0.61,0,0,0,.1-1,16.25,16.25,0,0,0-1.39-.86,1.69,1.69,0,0,0-1.72.16,0.61,0.61,0,0,0-.1,1,1.28,1.28,0,0,0,1.39-.11h0Z" transform="translate(-17.36 -68.52)"/><path class="cls-2" d="M156.83,158.56a2.15,2.15,0,0,1,.73.11,1.62,1.62,0,0,0,1.37-.37c0.31-.29.21-0.58-0.18-0.69a4.78,4.78,0,0,0-1.65-.13,1.25,1.25,0,0,0-1.1.66c-0.07.44,0.57,0.43,0.83,0.42h0Z" transform="translate(-17.36 -68.52)"/><path class="cls-2" d="M42.87,102.71l-0.29.4c-0.09.13,0.35,0.07,0.38,0.07a1,1,0,0,0,.57-0.25l0.29-.4c0.09-.13-0.35-0.07-0.38-0.07a1,1,0,0,0-.57.25h0Z" transform="translate(-17.36 -68.52)"/><path class="cls-2" d="M43.06,102.45l-0.51.61c-0.14.17,0.13,0.21,0.24,0.21a0.91,0.91,0,0,0,.64-0.25l0.51-.61c0.14-.17-0.13-0.21-0.24-0.21a0.91,0.91,0,0,0-.64.25h0Z" transform="translate(-17.36 -68.52)"/><path class="cls-2" d="M43.16,102.21l-0.76.93c-0.22.27,0.72,0.16,0.88,0l0.76-.93c0.22-.27-0.72-0.16-0.88,0h0Z" transform="translate(-17.36 -68.52)"/><path class="cls-2" d="M43.39,101.82l-1.19,1.45c-0.39.47,0.53,0.61,0.81,0.28l1.19-1.45c0.39-.47-0.53-0.61-0.81-0.28h0Z" transform="translate(-17.36 -68.52)"/><path class="cls-2" d="M43.22,102.19q-0.63.72-1.24,1.46c-0.15.18,0.13,0.29,0.27,0.3a0.79,0.79,0,0,0,.64-0.27q0.55-.67,1.12-1.32c0.38-.43-0.56-0.43-0.78-0.17h0Z" transform="translate(-17.36 -68.52)"/><path class="cls-2" d="M43.05,102.54l-1.19,1.32c-0.4.45,0.52,0.58,0.8,0.27l1.19-1.32c0.4-.45-0.52-0.58-0.8-0.27h0Z" transform="translate(-17.36 -68.52)"/><path class="cls-2" d="M42.77,102.87l-1.35,1.58c-0.15.18,0.13,0.24,0.25,0.24a0.87,0.87,0,0,0,.64-0.25l1.35-1.58c0.15-.18-0.13-0.24-0.25-0.24a0.87,0.87,0,0,0-.64.25h0Z" transform="translate(-17.36 -68.52)"/><path class="cls-2" d="M42.53,102.88l-1.06,1.24c-0.39.45,0.54,0.51,0.79,0.22l1.06-1.24c0.39-.45-0.54-0.51-0.79-0.22h0Z" transform="translate(-17.36 -68.52)"/><path class="cls-2" d="M41.58,104.15a3.88,3.88,0,0,0-.49.64c-0.1.16,0.35,0.13,0.39,0.12a0.81,0.81,0,0,0,.56-0.28,3.24,3.24,0,0,1,.41-0.53c0.15-.16-0.14-0.19-0.24-0.19a1,1,0,0,0-.64.24h0Z" transform="translate(-17.36 -68.52)"/><path class="cls-2" d="M90,98.39a1,1,0,0,0-.47.52c-0.07.17,0.85,0.08,1-.17a0.47,0.47,0,0,1,.26-0.32c0.18-.11.09-0.18-0.06-0.22a1.13,1.13,0,0,0-.68.18h0Z" transform="translate(-17.36 -68.52)"/><path class="cls-2" d="M89.92,98.53l-0.38.67c-0.08.14,0.34,0.07,0.38,0.07A0.91,0.91,0,0,0,90.5,99l0.38-.67c0.08-.14-0.34-0.07-0.38-0.07a0.91,0.91,0,0,0-.57.25h0Z" transform="translate(-17.36 -68.52)"/><path class="cls-2" d="M91.06,98.1a1,1,0,0,0-1,.12A6.23,6.23,0,0,0,89,99.46c-0.22.26,0.72,0.16,0.88,0l0.46-.56s0.49-.53.23-0.45H90.1l0.06,0c0.24,0.17,1.09-.22.91-0.34h0Z" transform="translate(-17.36 -68.52)"/><path class="cls-2" d="M89.84,98.18q-0.82,1.3-1.6,2.62c-0.09.15,0.34,0.1,0.39,0.09a0.87,0.87,0,0,0,.57-0.26Q90,99.31,90.79,98c0.09-.15-0.35-0.1-0.39-0.09a0.87,0.87,0,0,0-.57.26h0Z" transform="translate(-17.36 -68.52)"/><path class="cls-2" d="M89.9,98.44q-1,1.47-1.88,2.95c-0.26.41,0.72,0.37,0.91,0.06q0.93-1.48,1.88-2.95c0.26-.41-0.71-0.36-0.91-0.06h0Z" transform="translate(-17.36 -68.52)"/><path class="cls-2" d="M89.75,98.76a4.12,4.12,0,0,0-.93,1.3c-0.34.57-.65,1.16-1,1.75-0.1.21,0.82,0.13,1-.15,0.23-.46.47-0.92,0.73-1.37a4.59,4.59,0,0,1,1-1.45c0.18-.13.08-0.22-0.07-0.27a0.94,0.94,0,0,0-.68.18h0Z" transform="translate(-17.36 -68.52)"/><path class="cls-2" d="M88.61,99.93l-0.71,1.43c-0.24.48,0.74,0.45,0.92,0.09L89.53,100c0.24-.48-0.74-0.45-0.92-0.09h0Z" transform="translate(-17.36 -68.52)"/></svg>