<svg id="Layer_3" data-name="Layer 3" xmlns="http://www.w3.org/2000/svg" viewBox="0 0 56.69 56.69"><defs><style>.cls-1{fill:#fff;}</style></defs><title>CC_comodicons_small_incidentfolder_NEW</title><path class="cls-1" d="M33.38,31c-0.33.05-.65,0.11-1,0.15s-0.53,0-.8,0H30.33l-0.76,0H28.86l-0.45,0c-0.22,0-.45,0-0.67,0a0.8,0.8,0,0,0-.25.08l0,0.45c0,0.41,0,.83.05,1.24s0,0.79.05,1.19c0,0.17,0,.35,0,0.52s0.05,0.46.08,0.7c0,0.07,0,.14,0,0.21,0,0.32,0,.65.07,1s0,0.43,0,.64,0,0.4.05,0.6,0,0.36,0,.54,0,0.24,0,.36S28,39,28,39.23s0,0.55.08,0.82,0.07,0.63.12,0.94c0,0.11.08,0.22,0.11,0.33a1.14,1.14,0,0,1,0,.28c0,0.15,0,.3,0,0.46a0.25,0.25,0,0,1,0,.07,1.18,1.18,0,0,1-.34.69,0.33,0.33,0,0,0-.12.15,0.63,0.63,0,0,1-.58.36c-0.27,0-.54.05-0.81,0.08H26.24l-0.71.09L25,43.56c-0.29,0-.59.1-0.88,0.14l-1.05.1L22,43.94l-0.36,0-0.86.13-0.53.07-1.07.19-1.9.38c-0.36.08-.72,0.17-1.07,0.26l-0.72.18c-0.46.12-.92,0.22-1.37,0.35-0.65.18-1.29,0.38-1.93,0.58a1,1,0,0,1-.48.13l-0.25-.05a0.74,0.74,0,0,1-.5-0.68,3.31,3.31,0,0,0-.1-0.72c0-.27-0.11-0.54-0.17-0.8,0,0,0,0,0-.05-0.05-.39-0.1-0.78-0.16-1.17s-0.13-.66-0.18-1-0.08-.72-0.13-1.08S10,40,10,39.6c0-.22,0-0.44-0.07-0.65,0-.41-0.1-0.81-0.15-1.22,0-.17,0-0.33,0-0.5s0-.29,0-0.43,0-.42-0.07-0.64,0-.35,0-0.52-0.05-.64-0.07-1,0-.74-0.05-1.1a1.53,1.53,0,0,1,0-.47,1.6,1.6,0,0,0-.05-0.31c0-.24,0-0.47,0-0.71a0.41,0.41,0,0,0,0-.12,0.2,0.2,0,0,1,0-.05c0-.21,0-0.42,0-0.63s0-.51,0-0.77c0-.1,0-0.19,0-0.29s0-.43,0-0.65,0-.46,0-0.68,0-.45,0-0.68a3.27,3.27,0,0,0-.09-1,1.28,1.28,0,0,1,0-.37,0.25,0.25,0,0,1,.28-0.29,1.71,1.71,0,0,1,.37.05,2.47,2.47,0,0,0,.81.12c0.32,0,.64,0,1,0l1-.06,1-.1c0.12,0,.24,0,0.36,0l0.35,0,0.83-.08c0.58-.05,1.17-0.09,1.75-0.16s1.4-.19,2.1-0.29c0.16,0,.32,0,0.49,0l0.92-.06a0.24,0.24,0,0,0,.25-0.3c0-.12,0-0.25,0-0.37s0-.28,0-0.43c0-.33,0-0.66-0.05-1s0-.8-0.05-1.21c0-.25,0-0.5,0-0.75s0-.72,0-1.09,0-.71,0-1.07c0-.16,0-0.32,0-0.47,0-.41,0-0.81,0-1.22s0-1-.07-1.53-0.08-1.15-.13-1.73-0.09-.91-0.15-1.36a4.64,4.64,0,0,0-.12-0.51c0-.09-0.05-0.18-0.07-0.28a0.15,0.15,0,0,1,0-.1,2,2,0,0,1,.23-0.29A0.64,0.64,0,0,1,20.81,12a0.94,0.94,0,0,1,.48,0,1.74,1.74,0,0,0,.5,0h0.57c0.32,0,.63,0,1,0s0.49,0,.74,0h0.61l0.87,0,0.66,0L27,12l1.52-.06,1.38,0c0.09,0,.19,0,0.28,0l1,0h0.44l0.7,0,1,0.06,0.57,0h1.9c0.37,0,.74,0,1.11,0a1.11,1.11,0,0,1,.74.25,0.6,0.6,0,0,1,.17.43c0,0.31,0,.62.05,0.93s0,0.4,0,.6,0,0.44,0,.66,0,0.6,0,.9,0,0.4,0,.6,0,0.43-.07.64,0,0.31,0,.46-0.06.32-.07,0.48,0,0.24,0,.36a8.21,8.21,0,0,0-.07,1,8.19,8.19,0,0,1-.07,1c0,0.34,0,.69-0.07,1s0,0.5-.05.75,0,0.64,0,1l1.06,0.31c0.22,0.06.44,0.08,0.66,0.14l0.62,0.17c0.34,0.08.68,0.15,1,.25a6.19,6.19,0,0,0,1.25.17c0.25,0,.49.06,0.74,0.08s0.69,0,1,0,0.82,0,1.24,0c0.16,0,.32,0,0.48,0a4.93,4.93,0,0,1,1.39.19,0.7,0.7,0,0,0,.29,0,1.91,1.91,0,0,1,.56.06,0.23,0.23,0,0,1,.2.16c0,0.15.13,0.3,0.18,0.45a0.36,0.36,0,0,1-.08.38,1.8,1.8,0,0,0-.27.51c-0.08.2-.12,0.42-0.19,0.63s-0.14.32-.2,0.49-0.15.47-.23,0.7-0.08.2-.1,0.31c-0.07.29-.13,0.59-0.2,0.88s-0.18.72-.26,1.08-0.18.87-.26,1.31A3.52,3.52,0,0,1,46,32a4.06,4.06,0,0,0-.13.91c-0.06.42-.06,0.85-0.09,1.27,0,0.14,0,.29,0,0.43q0,0.48-.06,1c0,0.07,0,.14,0,0.2s0,0.3,0,.44,0,0.52,0,.78,0,0.34,0,.5l0,0.77c0,0.43,0,.86.07,1.29,0,0.18,0,.36,0,0.53a4.46,4.46,0,0,1-.08.51c0,0.22-.06.43-0.1,0.65s-0.07.28-.1,0.43a0.22,0.22,0,0,0,0,.12,0.9,0.9,0,0,1,0,.62,1,1,0,0,1-.11.37,0.67,0.67,0,0,1-.86.15,2.06,2.06,0,0,0-.77-0.28c-0.1,0-.19-0.06-0.29-0.08l-0.62-.09c-0.2,0-.41,0-0.62,0s-0.35,0-.53,0H41.05c-0.17,0-.34,0-0.51.06l-0.63.06-0.59.09-0.36,0L38,42.81H37.71c-0.4,0-.79.07-1.19,0.08s-0.65,0-1,0l-0.56,0a0.22,0.22,0,0,0-.1,0,0.22,0.22,0,0,1-.27,0,0.19,0.19,0,0,0-.11,0h-1a1.82,1.82,0,0,1-.78-0.2,0.93,0.93,0,0,1-.37-0.3,0.64,0.64,0,0,1-.09-0.45c0-.39.1-0.77,0.17-1.15s0.15-.76.22-1.15,0.08-.58.12-0.86,0.07-.54.11-0.81c0.07-.45.15-0.89,0.2-1.34s0.06-.86.1-1.29,0.09-.76.12-1.14c0-.17,0-0.35,0-0.53s0-.25.05-0.38,0-.41,0-0.61,0-.13,0-0.19c0-.24,0-0.47,0-0.71s0-.37,0-0.56A2,2,0,0,0,33.38,31ZM22,25.74l0.84-.08,0.84,0,1.62-.12a1.21,1.21,0,0,0,.5-0.08,0.83,0.83,0,0,1,.53-0.15,0.65,0.65,0,0,1,.57.31,1.58,1.58,0,0,1,.15.44c0,0.11,0,.23,0,0.33,0.08,0.33.08,0.67,0.15,1a6.8,6.8,0,0,1,.07.87c0,0.18,0,.37,0,0.55s0,0.32.06,0.48,0,0.45,0,.67a0.15,0.15,0,0,0,.09.1l0.77,0.08,1,0.07c0.41,0,.82.07,1.23,0.07s0.8,0,1.21,0,0.79-.07,1.19-0.12,0.8-.13,1.2-0.19c0.22,0,.44,0,0.66-0.05a2,2,0,0,1,.68,0,0.17,0.17,0,0,0,.23-0.11,0.61,0.61,0,0,1,.14-0.31,0.54,0.54,0,0,0,.08-0.26c0-.2,0-0.4,0-0.6s0-.34,0-0.52,0-.61.05-0.91c0-.46,0-0.92.06-1.38s0-.94.06-1.41a5.34,5.34,0,0,1,0-.78,4.65,4.65,0,0,0,0-.49c0-.33.07-0.65,0.09-1s0-.56,0-0.84,0.07-.69.1-1,0-.76.07-1.14c0-.21,0-0.43,0-0.64,0-.43.1-0.85,0.14-1.28s0-.7.08-1.06,0.06-.46.09-0.69,0-.16,0-0.24,0-.42,0-0.62,0-.53,0-0.79,0-.41,0-0.61a0.21,0.21,0,0,0-.1-0.16,1.21,1.21,0,0,0-.33,0l-0.36,0-0.44,0c-0.39,0-.78,0-1.17,0s-0.81-.05-1.22-0.08L32,12.81l-0.83,0c-0.22,0-.43,0-0.65,0L29,12.82l-0.75,0c-0.3,0-.61,0-0.91,0L25.47,13l-1.19,0L23,13l-1.39,0a0.19,0.19,0,0,0-.15.11,1.44,1.44,0,0,0,0,.34c0,0.33,0,.66,0,1s0.07,0.7.09,1.06c0,0.51,0,1,.06,1.53,0,0.25,0,.49.06,0.73s0,0.72,0,1.07c0,0.19,0,.39,0,0.58,0,0.4,0,.8,0,1.19,0,0.05,0,.11,0,0.16,0,0.22,0,.43,0,0.65s0,0.25,0,.38c0,0.36,0,.73,0,1.09s0,0.57.06,0.86c0,0.11,0,.22,0,0.33s0.07,0.34.09,0.51,0,0.31,0,.46,0,0.33.06,0.49Zm3.11,0.89v0H25l-1.38.09-1.73.07H21.7l-1.27.13c-0.4,0-.8,0-1.2.07s-0.66.08-1,.13l-0.83.12-1.26.12-1.45.12-1.77.12-2.27.19a0.26,0.26,0,0,0-.24.23c0,0.3,0,.6,0,0.89s0,0.39,0,.58,0.06,0.56.07,0.85,0,0.31,0,.46,0,0.49,0,.73,0,0.39,0,.59,0,0.54,0,.82,0,0.43,0,.65,0,0.29,0,.44,0,0.57.05,0.85c0,0.09,0,.18,0,0.26s0.06,0.46.08,0.69c0,0,0,.07,0,0.11,0,0.19.06,0.38,0.08,0.57a9.82,9.82,0,0,0,.12,1,1.93,1.93,0,0,0,.13.69,0.14,0.14,0,0,1,0,.07,0.43,0.43,0,0,0,0,.14,5.19,5.19,0,0,1,.12,1.06,0.31,0.31,0,0,0,0,.05c0,0.17.06,0.34,0.09,0.51s0.06,0.39.09,0.59,0,0.24.06,0.36c0,0.29.07,0.59,0.12,0.88s0.1,0.52.14,0.78,0.09,0.59.14,0.88,0.07,0.31.1,0.47,0.05,0.29.08,0.44S12,44.59,12,44.69s0.08,0.23.27,0.17a6,6,0,0,1,.79-0.21,7.44,7.44,0,0,0,.87-0.2l1.28-.32,1.22-.27,1.45-.33,1.22-.23c0.32-.06.63-0.14,1-0.18S21,43,21.42,43a4.45,4.45,0,0,0,.72-0.1c0.45-.13.91-0.1,1.36-0.19,0.21,0,.43,0,0.64-0.06s0.65-.14,1-0.2L26,42.28l0.85-.09c0.1,0,.19,0,0.19-0.15s0-.39,0-0.58c0-.4-0.09-0.8-0.1-1.2s-0.06-.52-0.09-0.78,0-.24,0-0.36c0-.28-0.08-0.55-0.1-0.83,0-.43,0-0.86-0.07-1.3s-0.06-.85-0.08-1.28c0-.27,0-0.54,0-0.81,0-.09,0-0.17,0-0.26s0-.23,0-0.34,0-.34,0-0.52,0-.48,0-0.73,0-.3,0-0.45,0-.38,0-0.56,0-.47,0-0.7,0-.36,0-0.54,0-.37,0-0.56,0-.29,0-0.44c0-.36,0-0.73-0.07-1.09s0-.56-0.08-0.83-0.07-.41-0.11-0.61a4.93,4.93,0,0,0-.09-0.54c0-.07,0-0.2-0.16-0.19l-0.62.07H25.12ZM37,25.53l0.59,0.07,0.82,0.08h0.55l0.56,0,0.57,0,1,0.12,0.53,0.05,0.73,0.13c0.21,0,.43,0,0.64.06l0.49,0c0.28,0,.57,0,0.85,0a0.57,0.57,0,0,1,.5.36,0.5,0.5,0,0,1,0,.49,0.38,0.38,0,0,1-.44.12l-0.94-.07c-0.34,0-.67,0-1-0.07S41.68,27,41.3,26.91s-0.61-.11-0.91-0.14c-0.55,0-1.1-.08-1.65-0.11l-0.92,0c-0.24,0-.47,0-0.71,0a0.21,0.21,0,0,0-.12.12A0.44,0.44,0,0,1,37,27c0,0.36,0,.73,0,1.09a0.14,0.14,0,0,0,.06.11,1.15,1.15,0,0,0,.29.09l0.64,0.06h0.22l0.6,0.07,1,0.08,0.69,0.09,1,0.08a2,2,0,0,1,.69.06,0.36,0.36,0,0,1,.17.5,0.81,0.81,0,0,1-.5.32,4.07,4.07,0,0,1-1.23,0,1.31,1.31,0,0,1-.32,0,4.57,4.57,0,0,0-1-.13c-0.14,0-.28,0-0.42,0l-1-.11c-0.22,0-.43,0-0.65,0s-0.19,0-.24.16a1.59,1.59,0,0,1-.2.44,0.39,0.39,0,0,0-.18.4,2.09,2.09,0,0,0,0,.24,0.16,0.16,0,0,1-.06.24c-0.05,0-.08.11-0.12,0.15a0.24,0.24,0,0,1-.13.07,1.17,1.17,0,0,1-.5,0,2.09,2.09,0,0,0-.48,0,0.22,0.22,0,0,1-.11,0,0.55,0.55,0,0,0-.44-0.08,0.26,0.26,0,0,0-.17.12,1.3,1.3,0,0,0-.09.35c0,0.14,0,.28,0,0.43,0,0.33-.06.66-0.09,1,0,0.09,0,.18,0,0.26l0,0.82s0,0.08,0,.13c0,0.3-.09.6-0.12,0.9s-0.07.76-.11,1.14S34,36.78,34,37.17s-0.07.6-.11,0.9,0,0.39-.08.58-0.12.58-.15,0.87a7.5,7.5,0,0,1-.18,1.27,0.76,0.76,0,0,0,0,.13c0,0.17,0,.34-0.05.51a0.23,0.23,0,0,0,.21.32c0.18,0,.36.05,0.54,0.06l1.07,0,0.73,0,1.17,0c0.41,0,.82-0.08,1.23-0.06a12.57,12.57,0,0,0,1.39-.1c0.33,0,.66-0.09,1-0.13l0.33,0h1.9a2.73,2.73,0,0,1,.29,0c0.13,0,.27,0,0.4,0l0.7,0.17a0.18,0.18,0,0,0,.24-0.11c0.05-.24.09-0.49,0.13-0.74s0.09-.59.13-0.88a2.47,2.47,0,0,0,0-.29c0-.21,0-0.41,0-0.62s0-.66-0.05-1,0-.5,0-0.76,0-.69,0-1c0-.54,0-1.08,0-1.61s0.09-1,.14-1.52,0.05-.78.1-1.17,0.11-.58.16-0.87,0.07-.42.11-0.63,0.1-.44.15-0.66c0.1-.43.19-0.86,0.29-1.29,0-.21.11-0.42,0.17-0.64,0.14-.49.28-1,0.42-1.48,0.1-.33.2-0.66,0.31-1a0.14,0.14,0,0,0-.09-0.19,0.36,0.36,0,0,0-.15,0,4.15,4.15,0,0,0-.91-0.13c-0.26,0-.52,0-0.78,0H43.42c-0.33,0-.66,0-1,0S41.55,25,41.12,24.9s-0.67-.1-1-0.17-0.78-.2-1.17-0.29-0.52-.1-0.79-0.15l-0.92-.22c-0.16,0-.24,0-0.22.2a1.76,1.76,0,0,1,0,.23C37,24.85,37,25.19,37,25.53Z"/><path class="cls-1" d="M23.25,16.67c0-.12,0-0.2,0-0.29a0.29,0.29,0,0,1,.35-0.26c0.18,0,.35.07,0.52,0.09a6.38,6.38,0,0,0,1.5,0c0.19,0,.38,0,0.58,0l1.18-.07h0.77l1,0,1.73,0h0.49a0.31,0.31,0,0,1,.35.21l0,0a0.43,0.43,0,0,1,.05.68,0.35,0.35,0,0,1-.37.13,6.29,6.29,0,0,0-1.68-.07H28.13c-0.28,0-.56,0-0.84.06l-1.51.08c-0.37,0-.75.05-1.12,0a3.65,3.65,0,0,1-.9-0.1,0.55,0.55,0,0,1-.47-0.42A0.16,0.16,0,0,0,23.25,16.67Z"/><path class="cls-1" d="M31.5,23.64a2.53,2.53,0,0,1-.12.26,0.44,0.44,0,0,1-.44.16H29.86L29,24.1l-0.51.05-1.07,0-1.12.09c-0.3,0-.61.07-0.91,0.08s-0.6,0-.9,0a1.28,1.28,0,0,1-.48-0.09,0.61,0.61,0,0,1-.42-0.47,1.32,1.32,0,0,1,0-.37,0.27,0.27,0,0,1,.32-0.26c0.17,0,.34.06,0.51,0.08l0.53,0.06a6,6,0,0,0,.62,0c0.22,0,.44,0,0.66-0.06l0.94-.06,0.66-.06,0.76,0,0.19,0L29.52,23l1,0a3.75,3.75,0,0,1,.58,0,0.32,0.32,0,0,1,.2.12A0.45,0.45,0,0,1,31.5,23.64Z"/><path class="cls-1" d="M30.54,20.06c0,0.1,0,.17,0,0.24a0.43,0.43,0,0,1-.37.46,8.7,8.7,0,0,0-1.53.1c-0.47,0-1,.07-1.43.11l-1.12.11-1.65.13a2.33,2.33,0,0,1-.63,0,0.69,0.69,0,0,1-.58-1A0.4,0.4,0,0,1,23.74,20a1.29,1.29,0,0,0,.33.07l0.5,0,0.16,0,1.09-.08,1-.1,0.9,0,0.89-.08c0.38,0,.77-0.12,1.15-0.15a0.62,0.62,0,0,1,.67.25A0.41,0.41,0,0,0,30.54,20.06Z"/><path class="cls-1" d="M13.29,35.6l0.35-.21,0.6-.42,1.53-1.07,1.4-1c0.29-.2.6-0.37,0.89-0.57s0.6-.44.91-0.64a0.61,0.61,0,0,1,.36-0.1,1.51,1.51,0,0,1,.8.31,6.76,6.76,0,0,0,1.16.66,6.65,6.65,0,0,0,1.15.45c0.1,0,.12,0,0.13-0.08s0-.39,0-0.59,0-.31,0-0.47,0-.45,0-0.67,0-.4,0-0.6a4.4,4.4,0,0,0,0-.82,2.72,2.72,0,0,1-.06-0.49c0-.19-0.06-0.38-0.08-0.58a1.26,1.26,0,0,1,0-.54,0.43,0.43,0,0,1,.38-0.26,0.82,0.82,0,0,1,.54.25,0.73,0.73,0,0,1,.12.35c0,0.17,0,.34.05,0.5a0.16,0.16,0,0,0,0,0,7,7,0,0,1,.07.91c0,0.22,0,.47,0,0.69s0,0.37,0,.55a1.4,1.4,0,0,1,0,.31c0,0.35,0,.7.06,1,0,0.16,0,.32,0,0.49s0,0.43,0,.65,0,0.31,0,.46,0,0.39,0,.58c0,0.39,0,.78,0,1.17,0,0.23,0,.46.06,0.69s0.08,0.59.13,0.88a1.92,1.92,0,0,0,.14.35,0.06,0.06,0,0,1,0,0c-0.07.25,0.14,0.22,0.26,0.26a0.54,0.54,0,0,1,.27.94,0.69,0.69,0,0,1-.63.23,3.89,3.89,0,0,0-.77.07l-0.81.14L21,39.77c-0.22.05-.44,0.13-0.65,0.19l-0.23,0A0.45,0.45,0,0,0,20,40a5,5,0,0,1-1,.28l-0.66.16-0.6.12-0.53.12-1,.21-0.55.15a2.15,2.15,0,0,0-.3.06,6.28,6.28,0,0,1-1.18.25,3.56,3.56,0,0,1-.88.08,0.75,0.75,0,0,1-.67-0.34l-0.2-.32a0.25,0.25,0,0,1,0-.11c0-.16,0-0.32,0-0.47,0-.32,0-0.65-0.06-1s0-.72,0-1.08c0-.13,0-0.25-0.05-0.38s0-.13,0-0.19,0-.25,0-0.38a0.86,0.86,0,0,0-.08-0.36,0.55,0.55,0,0,1,0-.38A1.13,1.13,0,0,0,12.2,36c0-.3,0-0.6,0-0.9s0-.75,0-1.12S12,33.46,12,33.2s-0.07-.54-0.09-0.81,0-.57-0.08-0.86S11.75,31,11.71,30.8s0-.42-0.06-0.62-0.08-.48-0.14-0.71a0.35,0.35,0,0,1,.26-0.52,2.42,2.42,0,0,1,.49-0.08,0.64,0.64,0,0,1,.43.48,2.19,2.19,0,0,0,.09.56,0.65,0.65,0,0,1,0,.18c0,0.18,0,.36,0,0.54s0,0.09,0,.14c0,0.33.06,0.66,0.1,1S13,32.2,13,32.43s0.05,0.52.08,0.77c0,0.1,0,.19,0,0.29s0.05,0.49.07,0.74,0,0.39,0,.59S13.27,35.32,13.29,35.6Zm9.53,2.7a2.65,2.65,0,0,1-.11-0.43c0-.22,0-0.44,0-0.67s0-.45,0-0.68-0.06-.67-0.07-1,0-.67,0-1a0.53,0.53,0,0,0-.08-0.32c-0.07-.08-0.19-0.11-0.28-0.19a1.32,1.32,0,0,0-.42-0.18L21,33.53l-0.06,0a1,1,0,0,0-.22-0.14,3.12,3.12,0,0,1-.54-0.2A2.35,2.35,0,0,1,19.75,33a0.42,0.42,0,0,0-.5-0.08l-1,.63L17.46,34c-0.23.16-.46,0.31-0.68,0.47-0.38.28-.74,0.57-1.12,0.85s-0.75.52-1.13,0.78L14,36.53l-0.3.24a0.44,0.44,0,0,0-.3.41c0,0.27,0,.54,0,0.82s0,0.75.05,1.13c0,0.09,0,.19,0,0.28s0.06,0.37.09,0.55a0.33,0.33,0,0,0,.29.32l0.53-.07,0.37-.09,1.45-.3,0.39-.1,1.3-.26,0.75-.17,0.8-.19,0.66-.15c0.31-.08.62-0.19,0.93-0.26l1.56-.35Z"/><path class="cls-1" d="M39.53,39.64H38.89l-0.8,0-0.57,0-1.35.13c-0.27,0-.54.09-0.81,0.11a1.28,1.28,0,0,1-.66-0.1,0.65,0.65,0,0,1-.33-0.84,0.38,0.38,0,0,1,.36-0.19c0.25,0,.49,0,0.74.05s0.42,0,.63-0.05l1.31-.08a12.15,12.15,0,0,1,1.3-.06c0.28,0,.56,0,0.84,0l0.41,0c0.13,0,.27,0,0.4,0l0.88,0.07H42c0.23,0,.46,0,0.7,0s0.41-.06.61-0.06a0.65,0.65,0,0,1,.55.16,0.92,0.92,0,0,1,.22.32,0.41,0.41,0,0,1-.14.45,0.52,0.52,0,0,1-.49.12,0.89,0.89,0,0,0-.29,0H41.34l-0.86,0H39.53v0Z"/><path class="cls-1" d="M43.15,36a0.47,0.47,0,0,1-.24.31,0.68,0.68,0,0,1-.51.08,0.55,0.55,0,0,0-.15,0c-0.3,0-.6,0-0.91,0l-1.51-.07c-0.42,0-.85,0-1.27,0s-1,0-1.45,0a5.41,5.41,0,0,0-.6.09H36.33a3.18,3.18,0,0,1-.67-0.09,0.79,0.79,0,0,1-.36-0.31,0.54,0.54,0,0,1-.06-0.59,0.22,0.22,0,0,1,.1-0.11,1.51,1.51,0,0,1,.51-0.06,4.9,4.9,0,0,0,1,.07c0.4,0,.8,0,1.2,0H39l0.93,0h0.58l0.42,0,0.42,0h0.61a4.24,4.24,0,0,1,.61,0,0.57,0.57,0,0,1,.53.36C43.09,35.85,43.12,35.93,43.15,36Z"/><path class="cls-1" d="M35.87,32.24l0.9,0.09c0.16,0,.33.06,0.49,0.06h1c0.14,0,.29,0,0.43,0l1.41,0.07a8.49,8.49,0,0,0,1,0,0.77,0.77,0,0,1,.46.16,0.4,0.4,0,0,1-.06.7,2.2,2.2,0,0,1-.62.13,4.8,4.8,0,0,1-.64,0L39,33.46c-0.28,0-.57-0.06-0.85-0.07s-0.39,0-.59,0l-0.78,0c-0.25,0-.51,0-0.76,0a0.64,0.64,0,0,1-.54-0.26,0.9,0.9,0,0,1-.16-0.52,0.35,0.35,0,0,1,.37-0.35h0.19v0Z"/></svg>