<svg id="noticeboard_-_gallery_-_real" data-name="noticeboard - gallery - real" xmlns="http://www.w3.org/2000/svg" viewBox="0 0 226.77 226.77"><defs><style>.cls-1{fill:#fff;}</style></defs><title>CC_comodicons_small_uploadgallery_NEW</title><path class="cls-1" d="M197.37,85c-0.2-1-.35-1.51-0.39-2-0.63-7.33-1.38-14.64-1.81-22-0.25-4.19,0-8.42.05-12.63a13.17,13.17,0,0,0-.13-4.1C195,43.9,193,44,191.82,44.11c-8.51.59-17,1.17-25.52,1.86-9.23.75-18.46,1.62-27.85,2.46l1.26,18.33-9.75.6c0.18-2.31-.06-4.19-2.14-4.91s-3.19.67-4.42,2c-1.09,1.19-2.31,2.82-3.69,3.08-4.16.77-8.43,1-12.64,1.38-0.17-2.15-.37-4.16-0.47-6.18q-0.54-10.09-1-20.19c-0.07-1.45-.46-2.05-2.2-1.89-5.39.49-10.8,0.76-16.21,1-4,.16-8,0-11.93.19-5.61.31-11.21,0.76-16.79,1.33-4.66.47-9.3,1.13-13.93,1.82-3.79.56-7.53,1.44-11.33,1.9-2.85.34-2.87,0.15-2.6,3,0.89,9.44,1.84,18.87,2.64,28.31C33.73,84.1,34,90,34.34,95.89a2.54,2.54,0,0,0,3.09,2.35c1.27-.15,2.54-0.45,3.82-0.48,9.33-.24,18.66-0.35,28-0.67,5-.17,10-0.68,15.1-1,0.36,2.74.82,5.27,1,7.82,0.49,6.86.71,13.74,1.39,20.58,0.23,2.31-.57,2.74-2.45,2.92-3.23.31-6.45,0.72-9.67,1.14-6.52.86-13,1.7-19.55,2.65-4.26.62-8.49,1.42-12.62,2.12,0.66,7.45,1.28,14.82,2,22.18,0.45,4.59,1.07,9.17,1.57,13.76,1.06,9.79,2.19,19.56,5.14,29,0.53,1.69.93,3.41,1.47,5.42,2.77,0.83,5.82.13,8.8-.55,3.67-.83,7.23-2.13,10.9-2.9,6.8-1.43,13.63-2.69,20.48-3.91s13.6-2.43,20.56-2.22c2,0.06,1.86-1.16,1.64-2.62-0.68-4.6-1.36-9.21-1.88-13.83-1-9-1.93-18-2.85-27-0.26-2.55-1.64-5.08-.12-7.95l30.08-2.25-6.83,46.07a5.51,5.51,0,0,0,2,1c3,0.46,6,.8,9,1,5,0.38,10.1.62,15.14,0.94,4.57,0.29,9.13.68,13.7,0.9a3.06,3.06,0,0,0,3.51-2.53c0.86-3.68,1.95-7.31,2.8-11q1.8-7.8,3.38-15.65c1.09-5.42,2-10.87,3-16.32,0.34-1.85.56-3.72,0.92-5.57,0.63-3.25,1.35-6.48,2-9.73a50.33,50.33,0,0,0,1.09-7.31,3.1,3.1,0,0,0-1.89-2.36c-9.13-.73-18.28-1.26-27.73-1.86V88Z"/><path d="M197.37,85l-37.08,3v30c9.45,0.6,18.6,1.13,27.73,1.86a3.1,3.1,0,0,1,1.89,2.36,50.33,50.33,0,0,1-1.09,7.31c-0.61,3.25-1.34,6.48-2,9.73-0.36,1.85-.58,3.72-0.92,5.57-1,5.44-2,10.89-3,16.32q-1.57,7.85-3.38,15.65c-0.85,3.68-1.94,7.31-2.8,11a3.06,3.06,0,0,1-3.51,2.53c-4.57-.22-9.13-0.61-13.7-0.9-5-.32-10.1-0.57-15.14-0.94-3-.23-6-0.57-9-1a5.51,5.51,0,0,1-2-1l6.83-46.07-30.08,2.25c-1.53,2.87-.14,5.4.12,7.95,0.92,9,1.84,18,2.85,27,0.52,4.62,1.19,9.23,1.88,13.83,0.22,1.45.33,2.67-1.64,2.62-7-.21-13.76,1-20.56,2.22s-13.68,2.48-20.48,3.91c-3.67.77-7.24,2.07-10.9,2.9-3,.68-6,1.37-8.8.55-0.54-2-.95-3.73-1.47-5.42-3-9.45-4.08-19.22-5.14-29-0.5-4.59-1.12-9.16-1.57-13.76-0.71-7.36-1.33-14.73-2-22.18,4.13-.7,8.37-1.5,12.62-2.12,6.51-.95,13-1.79,19.55-2.65,3.22-.42,6.44-0.84,9.67-1.14,1.88-.18,2.68-0.6,2.45-2.92-0.67-6.84-.89-13.72-1.39-20.58-0.18-2.55-.64-5.08-1-7.82-5.05.36-10.07,0.87-15.1,1-9.33.32-18.66,0.43-28,.67-1.28,0-2.54.33-3.82,0.48a2.54,2.54,0,0,1-3.09-2.35C34,90,33.73,84.1,33.23,78.22c-0.8-9.44-1.74-18.88-2.64-28.31-0.27-2.88-.26-2.68,2.6-3,3.8-.46,7.54-1.33,11.33-1.9,4.63-.69,9.27-1.35,13.93-1.82,5.59-.57,11.19-1,16.79-1.33,4-.22,8,0,11.93-0.19,5.41-.22,10.82-0.5,16.21-1,1.74-.16,2.13.44,2.2,1.89q0.48,10.1,1,20.19c0.11,2,.31,4,0.47,6.18,4.2-.42,8.47-0.61,12.64-1.38,1.38-.26,2.59-1.89,3.69-3.08,1.24-1.34,2.48-2.69,4.42-2s2.32,2.6,2.14,4.91l9.75-.6-1.26-18.33c9.4-.83,18.62-1.71,27.85-2.46,8.5-.69,17-1.27,25.52-1.86,1.13-.08,3.14-0.21,3.27.18a13.17,13.17,0,0,1,.13,4.1c0,4.21-.3,8.44-0.05,12.63,0.43,7.34,1.18,14.66,1.81,22C197,83.5,197.17,84,197.37,85Zm-88.16,55.51c5.24-.35,10.13-0.69,15-1,2.78-.17,5.57-0.19,8.35-0.37,7.09-.48,14.17-1.14,21.27-1.46,3.45-.16,4.35-0.73,4.25-4.09,0-.3,0-0.61,0-0.91,0-14.6,0-29.2-.1-43.79,0-6-.16-12-0.33-18.06,0-1-.12-2.19-1.69-2.15-5.65.13-11.3,0.29-17,.33-5.83,0-11.45.57-16.22,4.53a3.55,3.55,0,0,1-3.22.28c-1.34-.74-1.84-2.24-0.88-3.93-5,.3-9.81.53-14.63,0.89-5.51.41-11,.94-16.51,1.44-1,.09-2,0.2-1.94,1.64,0,1.22-.12,2.46-0.06,3.68,0.23,4.92.54,9.84,0.74,14.76,0.07,1.71-.31,3.45-0.14,5.14,0.43,4.29.83,8.6,1.66,12.82,0.57,2.87-.47,5.77,1.13,8.73,1,1.9.19,4.8,0.19,7.51,1.72-.1,2.77-0.11,3.81-0.24,3.31-.41,6.62-0.9,9.94-1.31,4.75-.58,4.94-0.33,5.25,4.4C108.38,133,108.84,136.7,109.21,140.52ZM45,134.34c0.22,1.69.41,3,.53,4.22,1.12,11.6,2,23.23,3.4,34.79,1,8.33,2.65,16.59,4.06,24.87a4.1,4.1,0,0,0,4.94,3.61c4-.8,7.87-2,11.84-2.86q9.82-2.14,19.68-4c4.53-.87,9.09-1.61,13.66-2.27,3-.43,6.11-0.6,9.42-0.91l-7.39-65.12ZM174.3,188.89c6.26-21.91,9.52-44.23,13.12-66.76l-27.26-2.53c0,4,0,7.63.07,11.23a2,2,0,0,0,1.48,1.14c3.81,0.5,7.65.81,11.46,1.34a8.4,8.4,0,0,1,2.49,1.32l-0.3.69c-1,0-1.92,0-2.88-.14-3.29-.31-6.57-0.77-9.87-1-2.76-.16-3,0.26-2.29,3.16-0.89.73-1.79,2.1-2.81,2.19-4.3.41-8.63,0.5-12.95,0.57-1.51,0-2.22.48-2.3,2s-0.3,3.14-.53,4.7q-1.61,10.93-3.26,21.86c-0.77,5-1.5,10-2.46,15-0.39,2,0,2.68,2.08,2.43a15.67,15.67,0,0,1,2.94.16c8.76,0.59,17.51,1.15,26.26,1.79C169.66,188.23,172,188.62,174.3,188.89ZM40.54,58a7.89,7.89,0,0,1,1.69.86c2.54,2.6,5.1,5.2,7.56,7.88,2.11,2.29,4.12,4.66,6.14,7a1.75,1.75,0,0,0,2.71.35C64,70.64,69.4,67.29,74.78,63.92c4.87-3.05,9.75-6.08,14.61-9.15a93.9,93.9,0,0,0,7.92-5.22c1.61-1.26,1.93-.52,2.18.83,0.33,1.79.64,3.59,0.79,5.4,0.38,4.51.66,9,1,13.61l3.78-.55c-0.38-3.06-1-6.1-1.08-9.15-0.2-4.87-.1-9.74-0.11-14.61,0-1.46-.48-2.22-2.14-2.15-6.18.27-12.38,0.26-18.56,0.67q-17.88,1.19-35.74,2.78c-4.72.43-9.4,1.43-14.28,2.21L37.08,96.2l47.14-1.86-0.55-5.51c-4.76.39-9.32,0.84-13.89,1.11-8.29.49-16.59,0.8-24.87,1.36-2,.14-2.66-0.78-2.79-2.33-0.31-3.85-.45-7.7-0.68-11.56-0.29-4.92-.63-9.83-0.9-14.75C40.48,61.22,40.54,59.76,40.54,58ZM194.46,83.51c-0.09-2-.1-3.72-0.25-5.43-0.94-10.24-2.55-20.45-1.14-30.79a2.05,2.05,0,0,0-1.22-1.56c-5.4.26-10.8,0.63-16.19,1.05-10.72.84-21.44,1.75-32.16,2.58-2.72.21-3,.48-2.73,3.13,0.44,4.14,1,8.28,1.19,12.43,0.07,2,.8,2.22,2.4,2.16,3.64-.13,7.28-0.1,10.92-0.21,3.05-.09,4.36,1,4.56,4.06,0.06,0.83,0,1.66,0,2.49,0,4.11,0,8.21,0,12.74,6.11-.55,11.72-1.12,17.33-1.55S188.66,83.88,194.46,83.51ZM98,51.9c-5.5,3.32-10.49,6.26-15.4,9.32-7.53,4.69-15,9.5-22.52,14.2-1.63,1-3.09,1.21-4.66-.62-4.07-4.71-8.4-9.21-12.79-14l1.25,28.4c1.13,0,2.09.05,3,0,5.59-.37,11.17-0.8,16.76-1.13,6-.35,11.95-0.66,17.93-0.88,1.72-.06,2.46-0.54,2.25-2.4-0.38-3.35-.64-6.72-0.83-10.09A27.8,27.8,0,0,1,83.26,71L99.63,69.5Zm21.86,20.35,0.44,0.39,5.24-3-1.86-2.39Zm6.45-4c1-1.21,2.79-1.9,1.45-4.23C127.23,65.54,124.74,65.94,126.28,68.2Z"/><path class="cls-1" d="M109.21,140.52c-0.37-3.82-.83-7.49-1.07-11.17-0.31-4.73-.51-5-5.25-4.4-3.32.41-6.62,0.89-9.94,1.31-1,.13-2.09.14-3.81,0.24,0-2.71.84-5.62-.19-7.51-1.61-3-.57-5.86-1.13-8.73C87,106,86.58,101.73,86.16,97.44,86,95.75,86.36,94,86.3,92.3c-0.2-4.92-.51-9.84-0.74-14.76-0.06-1.22.1-2.45,0.06-3.68-0.05-1.44.94-1.55,1.94-1.64,5.5-.49,11-1,16.51-1.44,4.82-.36,9.65-0.59,14.63-0.89-1,1.69-.46,3.19.88,3.93a3.55,3.55,0,0,0,3.22-.28c4.77-4,10.39-4.49,16.22-4.53,5.65,0,11.3-.2,17-0.33,1.57,0,1.66,1.17,1.69,2.15,0.17,6,.3,12,0.33,18.06,0.07,14.6.07,29.2,0.1,43.79,0,0.3,0,.61,0,0.91,0.1,3.37-.81,3.94-4.25,4.09-7.1.32-14.18,1-21.27,1.46-2.78.19-5.57,0.21-8.35,0.37C119.34,139.83,114.45,140.18,109.21,140.52Zm30.09-49.7-0.15-1c-7.72-.55-15.38.95-23.06,1.4-7.86.46-15.7,1.12-23.91,1.73,1.6,2.33,3.45,1.5,5.07,1.4Q117,93.06,136.7,91.68A11.06,11.06,0,0,0,139.3,90.82Zm-12.63-9.89,0.2-.65c-0.36-.39-0.74-1.13-1.09-1.11-11,.4-22,0.87-32.92,1.34l-0.12,1.23a11.92,11.92,0,0,0,3.32.83c7.1-.33,14.19-0.8,21.28-1.2C120.45,81.19,123.57,81.08,126.68,80.93ZM93.33,105l-0.19,1.31a8.93,8.93,0,0,0,2.64.66c1.88-.12,3.74-0.61,5.62-0.76,6.25-.48,12.51-0.87,18.76-1.33,1.29-.09,2.57-0.36,3.85-0.55l0.1-.85a13.77,13.77,0,0,0-2.9-.83,20.65,20.65,0,0,0-2.9.43Q105.82,104.07,93.33,105Zm1,11.18c1,2.12,7.07,2.06,13.22-.14C106.43,114.26,103,114.29,94.36,116.18Z"/><path class="cls-1" d="M45,134.34l60.14-7.7,7.39,65.12c-3.31.31-6.38,0.48-9.42,0.91-4.57.65-9.13,1.4-13.66,2.27q-9.87,1.89-19.68,4c-4,.86-7.86,2.06-11.84,2.86a4.1,4.1,0,0,1-4.94-3.61c-1.41-8.28-3.06-16.54-4.06-24.87-1.39-11.57-2.28-23.19-3.4-34.79C45.36,137.29,45.17,136,45,134.34Zm55.25,23.21a23.94,23.94,0,0,0-2.15-1.22c-3.64-1.54-7.21-3.32-11-4.49-3.13-1-6.27-3.79-9.85-.55-2.28,2.06-5,3.66-7.38,5.58-2,1.57-3.7,3.43-5.7,5-1.72,1.31-3.73,2.23-5.46,3.53-0.67.5-.91,1.58-1.35,2.39L56.42,167q-0.43-3.6-.86-7.2c-0.67-5.64-1.29-11.28-2.05-16.91-0.14-1.07-.25-2.71-2.33-2.09,0.41,2.4.91,4.65,1.15,6.94,0.67,6.2,1.09,12.43,1.86,18.62,1.1,8.84,2.46,17.64,3.62,26.48a16.14,16.14,0,0,1-.52,3.83,3.87,3.87,0,0,0,1.83.11c1.91-.72,3.76-1.63,5.6-2.53a59.41,59.41,0,0,1,14.43-4.92c3.06-.62,6-1.92,9.08-2.32,4.51-.59,9.09-0.72,13.64-0.91,3.41-.14,4.27-1.05,3.78-4.44s-0.92-6.66-1.39-10c-0.68-4.78-1.38-9.56-2-14.34q-1-7.5-2-15c-0.27-2.09-.4-4.21-0.77-6.28-0.08-.46-0.92-0.78-1.4-1.17a4.13,4.13,0,0,0-.57,1.54c0.17,2.11.45,4.2,0.73,6.3C98.83,147.52,99.5,152.35,100.21,157.55ZM70.93,135c1.43,2.19,2.84,2.85,4.9,2,1-.39,2.23-0.27,3.26-0.63a3.35,3.35,0,0,0,2-1.48c0.33-1.09-.14-2-1.53-2.55C76,131,74.05,134.21,70.93,135Z"/><path class="cls-1" d="M174.3,188.89c-2.27-.28-4.64-0.66-7-0.84-8.75-.63-17.51-1.2-26.26-1.79a15.67,15.67,0,0,0-2.94-.16c-2,.26-2.46-0.42-2.08-2.43,1-5,1.69-10,2.46-15q1.68-10.92,3.26-21.86c0.23-1.56.45-3.13,0.53-4.7s0.8-2,2.3-2c4.32-.07,8.65-0.16,12.95-0.57,1-.1,1.92-1.46,2.81-2.19-0.7-2.9-.47-3.31,2.29-3.16,3.3,0.19,6.58.64,9.87,1,1,0.09,1.92.09,2.88,0.14l0.3-.69a8.4,8.4,0,0,0-2.49-1.32c-3.81-.53-7.64-0.84-11.46-1.34a2,2,0,0,1-1.48-1.14c-0.12-3.59-.07-7.19-0.07-11.23l27.26,2.53C183.82,144.67,180.56,167,174.3,188.89Zm-32.05-11.62-0.14,1a17.28,17.28,0,0,0,3,.72c0.88,0.06,1.78-.37,2.67-0.39,6.82-.13,13.65-0.19,20.47-0.33a4.76,4.76,0,0,0,1.58-.68,4,4,0,0,0-1.47-.84c-5.29-.21-10.58-0.5-15.87-0.44C149.08,176.38,145.67,176.95,142.25,177.28Zm5.15-22.89-0.24.58a8.46,8.46,0,0,0,2.34,1.29,53.84,53.84,0,0,0,5.59.57c5.34,0.41,10.68.83,16,1.13,0.53,0,1.1-.68,1.66-1a4.47,4.47,0,0,0-1.56-.9c-5.65-.45-11.3-0.84-16.95-1.22C152,154.64,149.7,154.52,147.41,154.38ZM170.46,170c-0.31-1.77-1.45-1.86-2.72-2-5.94-.5-11.88-1.08-17.82-1.62-1.6-.15-3.2-0.26-5.06-0.4C146.42,168.36,163.15,170.79,170.46,170Zm3.12-21.7,0.46-1a5.81,5.81,0,0,0-2-1.1c-6.12-.38-12.24-0.65-18.37-1-1.2-.06-2.39-0.23-3.59-0.35l-0.24.91a15.49,15.49,0,0,0,3.48,1.23c2.77,0.29,5.58.28,8.36,0.46C165.64,147.65,169.61,148,173.59,148.26Zm-3.86-21.7,0.18-.66-1.71-.59c-0.36-.92-0.45-1.76-0.81-1.9a3.49,3.49,0,0,0-1.7.4c0.28,0.63.4,1.57,0.88,1.82A14.86,14.86,0,0,0,169.72,126.56Z"/><path class="cls-1" d="M40.54,58c0,1.8-.07,3.25,0,4.7,0.27,4.92.61,9.83,0.9,14.75,0.23,3.85.37,7.71,0.68,11.56,0.12,1.55.79,2.47,2.79,2.33,8.28-.56,16.58-0.87,24.87-1.36,4.57-.27,9.12-0.73,13.89-1.11l0.55,5.51L37.08,96.2,33.15,48.57C38,47.8,42.7,46.8,47.43,46.37q17.85-1.62,35.74-2.78c6.17-.41,12.37-0.41,18.56-0.67,1.66-.07,2.14.69,2.14,2.15,0,4.87-.09,9.75.11,14.61,0.12,3.05.71,6.08,1.08,9.15l-3.78.55c-0.33-4.59-.61-9.1-1-13.61-0.15-1.81-.46-3.61-0.79-5.4-0.25-1.34-.56-2.09-2.18-0.83a93.9,93.9,0,0,1-7.92,5.22c-4.86,3.07-9.74,6.1-14.61,9.15C69.4,67.29,64,70.64,58.65,74.09a1.75,1.75,0,0,1-2.71-.35c-2-2.37-4-4.74-6.14-7-2.47-2.68-5-5.28-7.56-7.88A7.89,7.89,0,0,0,40.54,58Zm31.51-8.09c-1.55-1.1-2.5-2.25-3.57-2.38-0.77-.09-2.1,1-2.45,1.9-0.43,1.08,1.92,3.29,3.12,2.93C70,52.06,70.72,51,72.05,49.87Z"/><path class="cls-1" d="M194.46,83.51c-5.8.37-11.53,0.68-17.26,1.12s-11.22,1-17.33,1.55c0-4.53,0-8.64,0-12.74,0-.83,0-1.66,0-2.49-0.21-3-1.51-4.14-4.56-4.06C151.63,67,148,67,144.36,67.1c-1.61.06-2.34-.17-2.4-2.16-0.14-4.15-.74-8.29-1.19-12.43-0.28-2.65,0-2.92,2.73-3.13,10.72-.83,21.44-1.74,32.16-2.58,5.39-.42,10.79-0.79,16.19-1.05a2.05,2.05,0,0,1,1.22,1.56c-1.41,10.34.21,20.55,1.14,30.79C194.36,79.79,194.37,81.51,194.46,83.51ZM170,53.81c0-2-1.24-3.9-2.68-4s-3.11,1.87-3.17,3.78c-0.05,1.6,1.32,3.42,2.63,3.5A3.13,3.13,0,0,0,170,53.81Z"/><path class="cls-1" d="M98,51.9l1.66,17.6L83.26,71A27.8,27.8,0,0,0,83,74.73c0.19,3.37.44,6.74,0.83,10.09,0.21,1.86-.52,2.34-2.25,2.4-6,.22-12,0.53-17.93.88-5.59.33-11.17,0.76-16.76,1.13-1,.06-1.91,0-3,0L42.6,60.83c4.39,4.76,8.71,9.26,12.79,14,1.58,1.82,3,1.63,4.66.62,7.52-4.7,15-9.51,22.52-14.2C87.48,58.16,92.47,55.22,98,51.9Z"/><path class="cls-1" d="M119.83,72.25l3.82-5,1.86,2.39-5.24,3Z"/><path class="cls-1" d="M126.28,68.2c-1.54-2.27.95-2.66,1.45-4.23C129.07,66.31,127.29,67,126.28,68.2Z"/><path d="M139.3,90.82a11.06,11.06,0,0,1-2.6.86Q117,93.07,97.26,94.34c-1.62.1-3.47,0.93-5.07-1.4,8.2-.6,16-1.27,23.91-1.73,7.68-.45,15.34-1.95,23.06-1.4Z"/><path d="M126.68,80.93c-3.11.14-6.23,0.26-9.34,0.44-7.09.4-14.18,0.88-21.28,1.2a11.92,11.92,0,0,1-3.32-.83l0.12-1.23c11-.46,21.95-0.94,32.92-1.34,0.35,0,.73.72,1.09,1.11Z"/><path d="M93.33,105q12.49-1,25-1.91a20.65,20.65,0,0,1,2.9-.43,13.77,13.77,0,0,1,2.9.83l-0.1.85c-1.28.19-2.56,0.45-3.85,0.55-6.25.46-12.51,0.84-18.76,1.33-1.88.15-3.74,0.64-5.62,0.76a8.93,8.93,0,0,1-2.64-.66Z"/><path d="M94.36,116.18c8.68-1.89,12.06-1.93,13.22-.14C101.43,118.24,95.35,118.3,94.36,116.18Z"/><path d="M100.21,157.55c-0.71-5.2-1.38-10-2-14.86-0.28-2.1-.56-4.19-0.73-6.3a4.13,4.13,0,0,1,.57-1.54c0.49,0.39,1.32.71,1.4,1.17,0.37,2.07.5,4.19,0.77,6.28q1,7.5,2,15c0.66,4.78,1.37,9.56,2,14.34,0.47,3.33.91,6.66,1.39,10s-0.37,4.3-3.78,4.44c-4.55.18-9.13,0.32-13.64,0.91-3.07.4-6,1.7-9.08,2.32a59.41,59.41,0,0,0-14.43,4.92c-1.84.9-3.69,1.81-5.6,2.53a3.87,3.87,0,0,1-1.83-.11,16.14,16.14,0,0,0,.52-3.83c-1.15-8.83-2.51-17.64-3.62-26.48-0.77-6.19-1.2-12.42-1.86-18.62-0.25-2.29-.75-4.54-1.15-6.94,2.08-.62,2.19,1,2.33,2.09,0.76,5.63,1.38,11.27,2.05,16.91q0.43,3.6.86,7.2l0.94,0.77c0.44-.81.68-1.89,1.35-2.39,1.73-1.3,3.74-2.22,5.46-3.53,2-1.53,3.73-3.39,5.7-5,2.41-1.93,5.1-3.52,7.38-5.58,3.57-3.23,6.71-.43,9.85.55,3.76,1.18,7.32,3,11,4.49A23.94,23.94,0,0,1,100.21,157.55Zm-41.63,23.9,43.79-7.93a64.91,64.91,0,0,1-1.16-8.29c-0.06-4.18-1-7.43-5.81-8a4,4,0,0,1-.53-0.4c-4.56-1.77-9.1-3.57-13.7-5.22a2.89,2.89,0,0,0-2.26.61c-2.05,1.6-4,3.39-6,5-5,4.1-10,8.16-15,12.28a2.35,2.35,0,0,0-.93,1.62C57.44,174.49,58,177.82,58.58,181.45Zm1.5,12.32c14.28-6,28.69-9.57,44-9.31l-1.46-9.51-43.65,8.42Z"/><path d="M70.93,135c3.12-.81,5-4,8.67-2.61,1.39,0.53,1.86,1.46,1.53,2.55a3.35,3.35,0,0,1-2,1.48c-1,.36-2.25.24-3.26,0.63C73.77,137.87,72.37,137.22,70.93,135Z"/><path d="M142.25,177.28c3.42-.33,6.83-0.9,10.25-0.93,5.29-.06,10.58.23,15.87,0.44a4,4,0,0,1,1.47.84,4.76,4.76,0,0,1-1.58.68c-6.82.14-13.65,0.2-20.47,0.33-0.89,0-1.79.45-2.67,0.39a17.28,17.28,0,0,1-3-.72Z"/><path d="M147.41,154.38c2.29,0.14,4.59.25,6.88,0.41,5.65,0.39,11.3.77,16.95,1.22a4.47,4.47,0,0,1,1.56.9c-0.55.37-1.13,1.07-1.66,1-5.35-.31-10.69-0.72-16-1.13a53.84,53.84,0,0,1-5.59-.57,8.46,8.46,0,0,1-2.34-1.29Z"/><path d="M170.46,170c-7.31.82-24-1.61-25.6-4,1.86,0.15,3.46.26,5.06,0.4,5.94,0.54,11.88,1.11,17.82,1.62C169,168.1,170.15,168.19,170.46,170Z"/><path d="M173.59,148.26c-4-.29-7.94-0.61-11.92-0.86-2.79-.18-5.59-0.17-8.36-0.46a15.49,15.49,0,0,1-3.48-1.23l0.24-.91c1.2,0.12,2.39.29,3.59,0.35,6.12,0.32,12.25.59,18.37,1a5.81,5.81,0,0,1,2,1.1Z"/><path d="M169.72,126.56a14.86,14.86,0,0,1-3.17-.92c-0.48-.26-0.6-1.19-0.88-1.82a3.49,3.49,0,0,1,1.7-.4c0.36,0.14.45,1,.81,1.9l1.71,0.59Z"/><path d="M72.05,49.87c-1.34,1.17-2,2.19-2.9,2.45-1.21.36-3.56-1.85-3.12-2.93,0.35-.87,1.69-2,2.45-1.9C69.56,47.62,70.51,48.77,72.05,49.87Z"/><path d="M170,53.81a3.13,3.13,0,0,1-3.22,3.33c-1.31-.08-2.68-1.9-2.63-3.5,0.06-1.91,1.68-3.84,3.17-3.78S170,51.8,170,53.81Zm-3.52,1.38h1.34l0.34-2.92c-0.59.11-1.64,0.12-1.69,0.35A10.42,10.42,0,0,0,166.43,55.2Z"/><path class="cls-1" d="M58.58,181.45c-0.57-3.63-1.14-7-1.55-10.32a2.35,2.35,0,0,1,.93-1.62c5-4.12,10-8.17,15-12.28,2-1.66,3.92-3.44,6-5a2.89,2.89,0,0,1,2.26-.61c4.6,1.65,9.15,3.45,13.7,5.22a4,4,0,0,0,.53.4c4.84,0.59,5.75,3.84,5.81,8a64.91,64.91,0,0,0,1.16,8.29Z"/><path class="cls-1" d="M60.08,193.77l-1.13-10.4,43.65-8.42,1.46,9.51C88.77,184.21,74.36,187.78,60.08,193.77Z"/><path class="cls-1" d="M166.43,55.2a10.42,10.42,0,0,1,0-2.57c0.05-.23,1.1-0.24,1.69-0.35l-0.34,2.92h-1.34Z"/></svg>