<svg id="ring" xmlns="http://www.w3.org/2000/svg" viewBox="0 0 226.77 226.77"><defs><style>.cls-1{fill:#fff;}</style></defs><title>CC_comodicons_big_jewellery-01</title><path d="M51.63,68.91c-1.74-2.38-1.7-2.85.38-4.92,1.46-1.45,2.95-2.84,5.07-3.28a1.16,1.16,0,0,0,.8-0.67c0.53-4,3.59-6.57,5.21-9.53-0.82-.72-2-1.29-2.27-2.15a3.17,3.17,0,0,1,1-2.63,21.93,21.93,0,0,1,5-3.42c1.9-.9,3.57,0,5.23,2.36,4.09-2.17,8.59-2.35,13.11-2.1,2.46-3.63,6.39-4.68,10.2-.67A5,5,0,0,0,95.55,40c-1.18-2.78-.48-5.14,2.09-6.7,2-1.24,4.18-1.62,6.3-.34a6.44,6.44,0,0,1,1.74,2,14.25,14.25,0,0,1,.94,2.09,14.44,14.44,0,0,1,6.69.16,33.84,33.84,0,0,0,7,.56c2,0,3.54.89,5.13,1.76,3.23,1.76,6.4,3.63,9.59,5.45,1.39-2.47,3.14-3.43,7-2.34a3.6,3.6,0,0,1,2.38,5c-0.82,2-1.59,4-2.43,6.15,4.07,0,6.09,2.37,7.24,5.9C157,59,163,62.13,166.59,69.22c3.73-1.57,6.69-.78,8.08,2.41a7.8,7.8,0,0,1,.24,4.51c-0.2.93-1.31,1.8-2.21,2.41-2.9,2-3.72,5-4.14,8.17A1.9,1.9,0,0,0,169,88c4.46,5.4,9.3,10.51,12.79,16.66a88.25,88.25,0,0,1,9.09,23.09,42,42,0,0,1,.87,10.84c-0.1,5-.34,9.92-1.79,14.69-1.33,4.38-2.33,8.94-5,12.77s-5.53,7.83-8.57,11.51c-1.9,2.3-4.72,3.55-7.52,4.55-7,2.49-14.27,3.52-21.58,4.1-5.29.42-10.65,0.07-16,0-2.67,0-5.35-.33-8-0.26-8,.19-15.38-2.47-22.72-5.25-4.5-1.7-9.07-3.2-13.57-4.87a36.83,36.83,0,0,1-4.57-2.15,104.63,104.63,0,0,1-9.34-5.23,76.34,76.34,0,0,1-14.43-12.31c-2.16-2.43-4.45-4.73-6.56-7.2-3.19-3.72-6.31-7.49-8.35-12-1.95-4.32-4.16-8.53-6-12.88A36,36,0,0,1,35,109.88,52,52,0,0,1,40.66,85.6C43.7,79.64,47,73.86,51.63,68.91Zm119.19,66.55,0.94-.41c0,0.31-.06.65-0.08,1m0.66,0.85a1.71,1.71,0,0,1,.7,1.1,34.08,34.08,0,0,1,1.15,4.2c0.73,5.06,1.29,10.13-1,15-0.75,1.56-1.51,3.12-2.39,4.6a21,21,0,0,1-3,4.37,29.78,29.78,0,0,1-5.9,4.63,68.56,68.56,0,0,1-11.32,5.51,37.52,37.52,0,0,1-10.35,1.67c-4.28.2-8.59-.09-12.88-0.31a87.06,87.06,0,0,1-9.23-.88c-2.73-.43-5.41-1.22-8.09-1.92-2.84-.74-5.71-1.42-8.47-2.41a63.77,63.77,0,0,1-7.38-3.31,123,123,0,0,1-10.84-5.86c-3.89-2.5-7.44-5.54-11.26-8.16a58.09,58.09,0,0,1-10.22-8.69c-5.4-5.94-10.13-12.32-13-19.95-1.77-4.76-3.29-9.59-3.3-14.68a20.42,20.42,0,0,1,5.77-14.09c3.88-4.19,8.84-7,14-9.25,2-.88,4.15-1.48,6.51-2.31-2.35-2-4.51-3.83-6.75-5.61a1.71,1.71,0,0,0-1.47-.19C59.39,82.28,55,84,51.32,87a24.67,24.67,0,0,0-8,10.86c-0.41,1.15-.93,2.26-1.41,3.38l-0.65-.35C43,89.71,49.42,81.39,58,74.5l-5.68-5c-0.58.72-1.1,1.42-1.67,2.07C46,76.84,42.86,83,39.88,89.31c-1.86,3.94-2.63,8.19-3.41,12.46a40.75,40.75,0,0,0-.26,12.6,54.7,54.7,0,0,0,5.12,16A73.16,73.16,0,0,0,54,149.73c4.51,4.86,8.83,9.86,14.11,13.94,4.36,3.37,8.71,6.75,13.88,8.81,3.95,1.57,8,2.89,12,4.36s7.85,3.09,11.83,4.46a44.14,44.14,0,0,0,9.23,2.57c6.45,0.72,12.95,1.16,19.44,1.26a171.77,171.77,0,0,0,17.91-.76A61.65,61.65,0,0,0,168.63,181a18.93,18.93,0,0,0,4.76-2.75c2-1.53,3.91-3.13,4.85-5.71,0.63-1.75,2.15-3.18,2.76-4.93a80,80,0,0,0,2.88-10.31,44.3,44.3,0,0,0,.39-6.94c0.09-2.21.28-4.42,0.21-6.63,0-1.16-.64-2.29-0.79-3.45-0.08-.6-0.14-1.72-0.25-2.19l0.05-1.24-0.18-.15a1.22,1.22,0,0,1-.26-0.52c-1-2.87-2-5.76-3-8.62a43.88,43.88,0,0,0-2.06-4.93c-1.21-2.37-2.59-4.65-3.89-7-0.3-.53-0.47-1.14-0.81-1.64-0.89-1.29-1.84-2.54-2.75-3.82-0.66-.93-1.09-2.33-2-2.73-3.08-1.39-4.57-4.43-7.09-6.38-1.08-.83-1.79-1.48-3-0.62-0.34.24-.72,0.42-1.05,0.61,2.71,3.22,5.58,6.23,8,9.58s4.28,7,6.39,10.55l-0.46.34a5.47,5.47,0,0,1-1.28-1.21c-1.27-2.44-3.34-4.19-5.18-6.12a24.92,24.92,0,0,0-2-1.9q-5.16-4.34-10.37-8.63a1.48,1.48,0,0,0-1.22-.31c-1.73.77-3.42,1.65-5.21,2.54,0.88,0.82,1.59,1.53,2.36,2.18,5,4.23,10.15,8.31,15,12.73a29.52,29.52,0,0,1,8.4,13.9c0,0.1.47,1.44,0.47,1.54m-71.82,21.13c3.43,1.31,6.92,2.46,10.42,3.59,4.19,1.36,8.41,2.62,12.62,3.92a57.62,57.62,0,0,0,16.64,2.41,86.9,86.9,0,0,0,11.15-1.08c4.91-.61,9.64-1.76,13.83-4.62,4.47-3,8.38-6.46,8.63-12.39a15.21,15.21,0,0,0-.42-3.84c-0.6-2.73-1.29-5.71-2-8.44l-0.16-.49a9.13,9.13,0,0,1-.64-1.41c-0.7-1.54-1-3.31-1.94-4.67a92.87,92.87,0,0,0-6.71-8.84A62.55,62.55,0,0,0,151,111.84c-1.79-1.29-3.44-2.77-5.15-4.18a2.4,2.4,0,0,0-2.38-.63c-2.3.6-5.1-1.17-5.9-3.44a3.77,3.77,0,0,0-1.21-1.69c-2-1.5-4-3-6.16-4.3s-4.09-2.31-5.75-3.23c-1.22.92-2.13,1.64-3.07,2.32a5.89,5.89,0,0,1-5.29.76,3.07,3.07,0,0,1-2-4.12,15.4,15.4,0,0,0,.46-1.92,2.26,2.26,0,0,0-.6-0.13,21.7,21.7,0,0,1-10.77-.89,2,2,0,0,0-1.94.21c-2.2,1.38-4.63,1.18-6-.72s-2.74-3.59-4.19-5.47a20.49,20.49,0,0,0-2.41.18c-4,.73-7.92,1.36-11.66,3a3.74,3.74,0,0,1-3.07.08,2.69,2.69,0,0,0-2.68-.21,47,47,0,0,0-15.62,8,2.08,2.08,0,0,0-.8,1,19.72,19.72,0,0,0-.7,4.58c0.34,8.76,2.2,17.17,6.74,24.75a51.44,51.44,0,0,0,7.2,10c4.8,4.83,9.3,10.08,15.31,13.6a60.71,60.71,0,0,0,5.19,3.2M85.52,57.6a5.59,5.59,0,0,1,4,3.21c2,4.11,3.77,8.31,5.71,12.44a2.92,2.92,0,0,0,1.38,1.38c1.69,0.69,3.46,1.18,5.18,1.78a30.4,30.4,0,0,0,15,1.8c2.19-.35,2.61-0.53,2.82-2.76,0.28-3.08,2.62-4.09,4.91-4.67a5.36,5.36,0,0,1,5.76,1.76c4.3-2.84,6.52-7.25,8.52-11.81a7,7,0,0,0,.31-1.7c0.52-3.24-.08-6.12-2.61-8.41a2.5,2.5,0,0,1-.34-0.64c-1.12-2-2.3-3.92-4.36-5.12-2.68-1.56-5.27-3.3-8-4.67a18,18,0,0,0-5-1.3c-1.71-.29-3.49-0.21-5.2-0.51a23.15,23.15,0,0,0-14,1.75,11,11,0,0,0-1.83.76c-2,1.4-3.8,3-5.81,4.29a11.46,11.46,0,0,0-4.73,6.17C86.58,53.39,86.09,55.51,85.52,57.6Zm31,108.48a8.15,8.15,0,0,0-4.57-3.41c-7.28-2.69-14.65-5.17-21.77-8.22a46.44,46.44,0,0,1-14.78-9.95c-3.28-3.31-6.53-6.66-10-10.17l-5,8.61a54.39,54.39,0,0,0,4.19,4.46c2.93,2.53,6,4.86,9,7.3a98.13,98.13,0,0,0,33.9,18.3,5.23,5.23,0,0,0,5.47-1.09c-0.59-1.43-.59-1.43,1.85-2.59C113.76,167.07,113.89,166.81,116.51,166.08Zm48.2-74.5a22.31,22.31,0,0,0,2.07-3.67,42.82,42.82,0,0,0,1.52-6.17,6.2,6.2,0,0,0-.12-3.06c-0.58-1.61-1.53-3.09-2.22-4.67a3.48,3.48,0,0,1-.45-2.22c0.72-1.88-.69-2.79-1.51-4a6.07,6.07,0,0,0-.84-1c-2.09-1.93-3.35-4.83-6.76-5.21-2.71-.3-5.26-1.13-8.15-0.43-8.29,2-13,7.32-13.5,15.56a7.83,7.83,0,0,0,0,2.76,15.88,15.88,0,0,0,6.91,8.86,23.48,23.48,0,0,0,10.2,3.23c2.06,0.19,4.24.48,5.86-1.62a3.53,3.53,0,0,1,4-.77C162.71,89.82,163.56,90.62,164.71,91.58ZM61.63,54.3A12.87,12.87,0,0,0,59.82,57c-0.38,1.12-1.3,2.29-.43,3.56a3.53,3.53,0,0,1,.17,4.32,1.15,1.15,0,0,0,.22,1.75,9.22,9.22,0,0,0,7.15,2c2.06-.16,4.06-1,6.12-1.18a16.68,16.68,0,0,0,5.78-1.83c1-.5,1.46-1,0.94-2.1a2.07,2.07,0,0,1,0-1.28,6.84,6.84,0,0,1,4.57-4.59c0.81-4.05,1.55-7.93,4.39-10.91-2.79-4.07-9.23-3.49-13-2.51a16.79,16.79,0,0,0,2.46.53c1.13,0.07,1.92.59,1.71,1.67A8.52,8.52,0,0,1,78.58,50c-1.12,1.43-2.76,2.45-3.94,3.84-2.09,2.46-4.85,3.35-7.85,3.85S62.54,57.5,61.63,54.3Zm-8.3,43.33-0.38-.2c-1.15,1.63-2.33,3.24-3.46,4.89a8.76,8.76,0,0,0-1.4,2.43A41.72,41.72,0,0,0,47,110.38a16.21,16.21,0,0,0-.09,4.41,46.43,46.43,0,0,0,1.46,6.13,46.33,46.33,0,0,0,2.56,7.75,50.07,50.07,0,0,0,7.6,11.66A16.31,16.31,0,0,0,60,141.6c1.17-2.08,2.07-4,3.29-5.76s0.59-2.87-.28-4.35c-2-3.46-4.38-6.85-5.79-10.58a90.49,90.49,0,0,1-3.54-13.5A49.64,49.64,0,0,1,53,99.86,12.17,12.17,0,0,1,53.33,97.63Zm93.21,70.48c-10.1,1.34-19.9-.35-29.37-3.81,0.22,0.85.76,1.75,0.5,2.2s-1.3.85-2,1.24c0.74,2.3.68,2.42-1.6,3.48,1.57,2.5-1.73,1.59-2.07,3,2.55,0.48,5.06,1.1,7.61,1.39,3.41,0.38,6.85.45,10.26,0.74a61.65,61.65,0,0,0,14.22-.1c1.06-.16,2-0.64,1.76-2.06a1.51,1.51,0,0,1,.42-0.81,6.58,6.58,0,0,0,.61-0.74c-0.88-1.19.31-1.68,0.82-2.44ZM81.28,64.72c0.23,0.67.38,1.22,0.61,1.74C85.22,74.24,90.28,81,95,87.92A5.54,5.54,0,0,0,99,90.73a1.81,1.81,0,0,0,2.09-2.38,36.43,36.43,0,0,0-1.87-4.26c-1.61-3.2-3.36-6.33-4.93-9.55-2-4.19-4-8.43-5.95-12.69A8.73,8.73,0,0,1,81.28,64.72ZM124.44,93c3.5,2.11,6.84,4.17,10.22,6.16a9.54,9.54,0,0,1,4.35,4.69,3.8,3.8,0,0,0,5.38,2c1.7-.83,3.38-1.7,5.11-2.47,2.79-1.24,5.61-2.38,8.4-3.61a26.51,26.51,0,0,0,2.55-1.52,5,5,0,0,1-3.87-4.35c-0.16-.94-0.81-1-1.55-0.54-3.41,1.95-6.82,3.9-10.25,5.83a5,5,0,0,1-2.07.91c-3.42,0-6.34-1.68-9.18-3.24-2.43-1.34-3.38-4.13-4.58-6.54a3.59,3.59,0,0,1-.45-2.34c0.68-2.24,1.57-4.43,2.45-6.6,0.72-1.78,1.54-3.51,2.31-5.26l-0.35-.21c-1,1.24-2.41,2.33-3.05,3.75C127.92,84,126.24,88.49,124.44,93Zm-33.9-9.65c-0.94-1.41-1.74-2.69-2.64-3.89a1.38,1.38,0,0,0-1.15-.35c-2.41.49-4.79,1.14-7.21,1.57a9.43,9.43,0,0,1-7.21-1.4,58.5,58.5,0,0,1-5-4.23c-1.37-1.21-2.65-2.5-4-3.72-1.78-1.59-3.61-3.13-5.45-4.71L53.1,68.73c0.85,0.77,1.58,1.47,2.35,2.14C60.67,75.37,65.81,80,71.16,84.34c3.58,2.91,4.28,3.13,8.87,1.18a6.32,6.32,0,0,1,1.22-.45C84.29,84.48,87.32,83.91,90.54,83.31Zm29.81-5.62c-1.75,5.34-3.49,10.56-5.15,15.82a2.31,2.31,0,0,0,1.72,2.81c2.47,0.8,5,0,6.29-3.48,1.14-3.23,2.66-6.31,3.93-9.5,0.65-1.62,1.1-3.32,1.73-5.26C125.75,79.68,123,80,120.35,77.69Zm51.3,79.67-0.43-.43a29.62,29.62,0,0,1-2.87,3.42,28.06,28.06,0,0,1-13.61,6.53c-2.15.42-4.27,0.94-6.76,1.49,1,1.26,1.14,2.15.07,2.85a0.45,0.45,0,0,0-.18.36c0.8,1.74-1.26,2.73-1,4.29C154.74,176.17,170.27,164.62,171.65,157.36ZM80.42,65.74c-5.09,3.22-11,3.15-16.55,4.38a22.32,22.32,0,0,1,2.19,2A10,10,0,0,0,71.3,75c2.79,0.79,5.49.05,8.21-.23a39.18,39.18,0,0,0,4.76-1.08ZM66,56.56L66.11,57c2.13-.73,4.47-1.12,6.33-2.29a25.84,25.84,0,0,0,5-4.86,6.59,6.59,0,0,0,1.17-2.58,1.32,1.32,0,0,0-.76-1,25.72,25.72,0,0,0-4.28-.8,4,4,0,0,0-2.25.54c-2,1.16-3.83,2.45-5.71,3.72-1.51,1-2.78,2-2.45,4.26S63.67,56.54,66,56.56Zm67.4,22.65c-1.52,1.74-1.64,3.48-.72,5.88a14.17,14.17,0,0,0,6.9,7.94,19,19,0,0,0,9.9,1.83c1.23-.09,2.41-0.9,3.61-1.38L152.93,93a22.71,22.71,0,0,0-3.37-.66,18.61,18.61,0,0,1-7.39-2.23,13.14,13.14,0,0,1-2.71-1.24A18.55,18.55,0,0,1,133.38,79.21ZM131,84.76c-1.41,2.32-1.5,3.16-.79,4.92a13.58,13.58,0,0,0,9.89,8.52c3,0.74,5.2-.51,7.75-2.05C136.89,95.15,133.63,90.16,131,84.76ZM58.85,75.19C54,78.71,47.31,86.61,46.8,89.08a80.08,80.08,0,0,1,7.43-5.74A91.3,91.3,0,0,1,63.29,79Zm59.67,3.64c-7.47,2-14.45-.35-21.61-2.21a9.84,9.84,0,0,0,3.18,3.22c4.72,2.25,9.79,2.64,14.92,2.11C117.82,81.66,118.2,81.2,118.52,78.83ZM99,81.11c0.65,1.23,1.25,2.23,1.71,3.29a1.29,1.29,0,0,0,1.4.89,52.36,52.36,0,0,1,6.92.62c2.27,0.4,4.47,1.15,6.82,1.79l1.51-5.1C111,84.2,105.08,83.3,99,81.11ZM71,76.47a7.64,7.64,0,0,0,3.93,2.85c4.16,1.29,8-.36,12.13-1.24l-2.16-3.56A28.78,28.78,0,0,1,71,76.47Zm54.27,1.79c3.89-.68,5.2-1.53,3.78-4.9-0.66-1.57-2.28-1.51-3.63-1.68a4.67,4.67,0,0,0-3.95,2.26C120.59,76.44,122.15,78.22,125.26,78.26Zm48.8-4a5.13,5.13,0,0,0-4-4.65,2.72,2.72,0,0,0-2.25.21c-0.73.69-1.67,1.69-.87,2.89a12.09,12.09,0,0,0,2.49,3,3,3,0,0,0,3.56.22A5.2,5.2,0,0,0,174.06,74.24ZM115.48,89.43c-3.34-1.84-9.28-3.47-13.71-2.79a3.25,3.25,0,0,0,2.35,2.67,25,25,0,0,0,10.3.87A3.08,3.08,0,0,0,115.48,89.43ZM99.11,39.3a25.13,25.13,0,0,0,4-2c1.34-.94.92-2.75-0.49-3.56-1.85-1.06-4.73,0-5.83,1.81S96.32,39.26,99.11,39.3ZM148,60c-0.21-2.92-3.22-5.28-5.84-4.71a1.53,1.53,0,0,0-.89.61,5,5,0,0,0-.22,4.45c0.37,1.07,1.06,1.56,2.23.76a5.29,5.29,0,0,1,1.8-.48C146.08,60.42,147.07,60.22,148,60ZM70.41,45.5c-0.7-1.79-1.28-2.33-2.5-2.41C66,43,62.68,45.11,62,46.92c-0.35,1-.07,1.79.86,1.93a5.13,5.13,0,0,0,2.93-.33A47.51,47.51,0,0,0,70.41,45.5ZM164,95a16.36,16.36,0,0,0-1.42-3.34c-0.42-.63-1.78-1.34-2.21-1.1a5.07,5.07,0,0,0-2.43,2.58c-0.48,1.72,2.44,4.43,4.24,4.23C163.25,97.28,163.84,96.58,164,95ZM59.17,63.56C59,61.85,58.55,61.5,57,61.81a8.52,8.52,0,0,0-5,3.3,2.07,2.07,0,0,0-.49,1.36,2.39,2.39,0,0,0,1.69.82,23.94,23.94,0,0,0,4.67-1.86A5.42,5.42,0,0,0,59.17,63.56Zm93.95,39.15,12.26,10.36a16.54,16.54,0,0,0-2-3.12c-1.88-2.22-3.88-4.34-5.76-6.58C156.09,101.56,155.61,101.42,153.11,102.71ZM82.75,63.88c1.42-.62,2.85-1.16,4.2-1.86a1.47,1.47,0,0,0,.49-1.33,2.71,2.71,0,0,0-3.68-1.64,6.7,6.7,0,0,0-2.2,1.8,2.55,2.55,0,0,0-.6,1.92C81.07,63.21,82,63.44,82.75,63.88Zm57.4-16.23,0.09-.27a6.59,6.59,0,0,0,1,0c1.69-.27,2.08-1.24,1.08-2.64a4.11,4.11,0,0,0-4.65-1.17c-1.44.67-1.64,2.24-.3,3.06A14.4,14.4,0,0,0,140.15,47.65ZM89.61,45.36l4.12-3.06c-1.75-2.25-6.16-1.67-7.26.78Zm47.57,3.23,3.54,5L143,48.11ZM135.56,70l-0.47-.37-2.87,2.85c-1.52,1.5-1.52,1.5-.34,3.82ZM170,80.11l3.12-3-3.9.2Zm-29.84-19-1.34,2.61L139,63.92l2.19-1.66Z"/><path class="cls-1" d="M183.44,138.11a13.41,13.41,0,0,1,.25,2.19c0.15,1.17.75,2.3,0.79,3.45,0.07,2.21-.11,4.42-0.21,6.63a44.3,44.3,0,0,1-.39,6.94A80,80,0,0,1,181,167.63c-0.61,1.75-2.13,3.18-2.76,4.93-0.93,2.57-2.86,4.17-4.85,5.71a18.93,18.93,0,0,1-4.76,2.75,61.65,61.65,0,0,1-16.24,3.35,171.77,171.77,0,0,1-17.91.76c-6.49-.09-13-0.54-19.44-1.26a44.14,44.14,0,0,1-9.23-2.57c-4-1.37-7.88-3-11.83-4.46s-8-2.79-12-4.36c-5.16-2.06-9.51-5.44-13.88-8.81-5.28-4.08-9.6-9.08-14.11-13.94a73.16,73.16,0,0,1-12.68-19.31,54.7,54.7,0,0,1-5.12-16,40.75,40.75,0,0,1,.26-12.6c0.78-4.26,1.55-8.52,3.41-12.46C42.86,83,46,76.84,50.64,71.55c0.57-.65,1.08-1.34,1.67-2.07l5.68,5c-8.57,6.9-15,15.21-16.76,26.4l0.65,0.35c0.47-1.13,1-2.24,1.41-3.38a24.67,24.67,0,0,1,8-10.86c3.7-3,8.06-4.72,12.31-6.68a1.71,1.71,0,0,1,1.47.19c2.24,1.78,4.41,3.64,6.75,5.61-2.36.83-4.49,1.43-6.51,2.31-5.21,2.26-10.17,5.06-14,9.25a20.42,20.42,0,0,0-5.77,14.09c0,5.1,1.53,9.93,3.3,14.68,2.84,7.63,7.57,14,13,19.95A58.09,58.09,0,0,0,72,155.09c3.82,2.62,7.37,5.66,11.26,8.16a123,123,0,0,0,10.84,5.86,63.77,63.77,0,0,0,7.38,3.31c2.76,1,5.63,1.66,8.47,2.41,2.68,0.7,5.36,1.48,8.09,1.92a87.06,87.06,0,0,0,9.23.88c4.29,0.22,8.6.51,12.88,0.31a37.52,37.52,0,0,0,10.35-1.67,68.56,68.56,0,0,0,11.32-5.51,29.78,29.78,0,0,0,5.9-4.63,21,21,0,0,0,3-4.37c0.89-1.48,1.65-3,2.39-4.6,2.32-4.85,1.76-9.93,1-15A34.08,34.08,0,0,0,173,138a1.41,1.41,0,0,0-.55-0.88l-0.73-2a1.32,1.32,0,0,0,0-.36,29.52,29.52,0,0,0-8.4-13.9c-4.84-4.42-10-8.49-15-12.73-0.77-.65-1.48-1.37-2.36-2.18,1.79-.89,3.48-1.77,5.21-2.54a1.48,1.48,0,0,1,1.22.31q5.22,4.28,10.37,8.63a24.92,24.92,0,0,1,2,1.9c1.85,1.94,3.91,3.68,5.18,6.12a5.47,5.47,0,0,0,1.28,1.21l0.46-.34c-2.11-3.53-4-7.21-6.39-10.55s-5.26-6.36-8-9.58c0.33-.19.71-0.38,1.05-0.61,1.25-.86,2-0.21,3,0.62,2.53,1.95,4,5,7.09,6.38,0.89,0.4,1.32,1.81,2,2.73,0.91,1.28,1.87,2.52,2.75,3.82,0.34,0.5.51,1.11,0.81,1.64,1.29,2.32,2.68,4.6,3.89,7a43.88,43.88,0,0,1,2.06,4.93c1,2.86,2,5.75,3,8.62a1.22,1.22,0,0,0,.26.52c0.07,0.06,0,.46.1,0.52Z"/><path class="cls-1" d="M184.59,136.18a61,61,0,0,0-2.25-7.23,105.11,105.11,0,0,0-11-19.86,38,38,0,0,0-4-4.13c-1.82-1.87-3.62-3.76-5.47-5.68a25.82,25.82,0,0,1,2.44-2,2.43,2.43,0,0,0,1-3.07c-0.52-1.57.13-2.55,1.19-3.52a23.27,23.27,0,0,0,1.6-1.79c0.79,1,1.57,2.17,2.45,3.23,1.91,2.3,4,4.44,5.77,6.86a93.91,93.91,0,0,1,5.79,9.16c1.36,2.45,2.3,5.14,3.5,7.69,0.56,1.19,1.4,2.26,1.93,3.46a14.65,14.65,0,0,1,.25,2.09c0.83,3.12,1.75,6.22,2.58,9.35a6.93,6.93,0,0,1-.07,1.55c0,2.91.23,5.82,0.13,8.72a48,48,0,0,1-.83,6.24,67,67,0,0,1-1.71,8.83c-1.18,3.77-2.83,7.39-4.31,11.06a1.41,1.41,0,0,1-.81.57A65.86,65.86,0,0,0,185,138.45l-0.17-1.18a3,3,0,0,0-.22-1l0-.13"/><path class="cls-1" d="M85.52,57.6c0.57-2.09,1.06-4.21,1.74-6.26A11.46,11.46,0,0,1,92,45.17c2-1.32,3.85-2.89,5.81-4.29a11,11,0,0,1,1.83-.76,23.15,23.15,0,0,1,14-1.75c1.71,0.3,3.49.22,5.2,0.51a18,18,0,0,1,5,1.3c2.77,1.37,5.36,3.11,8,4.67,2.06,1.2,3.23,3.14,4.36,5.12a2.5,2.5,0,0,0,.34.64c2.53,2.29,3.13,5.18,2.61,8.41a7,7,0,0,1-.31,1.7c-2,4.56-4.22,9-8.52,11.81a5.36,5.36,0,0,0-5.76-1.76c-2.29.58-4.62,1.59-4.91,4.67-0.2,2.22-.63,2.41-2.82,2.76a30.4,30.4,0,0,1-15-1.8c-1.73-.6-3.49-1.1-5.18-1.78a2.92,2.92,0,0,1-1.38-1.38c-1.94-4.13-3.74-8.32-5.71-12.44A5.59,5.59,0,0,0,85.52,57.6Zm41.68,3c-0.17-2-.42-3.85-0.46-5.73a2.61,2.61,0,0,1,.78-2c1.32-.89,2.86-1.45,4.22-2.28a10.84,10.84,0,0,0,1.79-1.74,7.76,7.76,0,0,0-1.6-1.5c-4.23-2.15-8.51-4.22-12.77-6.32a8,8,0,0,0-5.9-.9,14.42,14.42,0,0,1-2.3.25c-2.56.27-5.06,0.54-7.15,2.39a34.3,34.3,0,0,1-4.22,2.78l-0.83-3.47a1.17,1.17,0,0,0-.87,1.81,3.61,3.61,0,0,1-1.42,4.61,18,18,0,0,0-3,2.73,1.69,1.69,0,0,1-1.91.5,7.24,7.24,0,0,0-1.84.12v0.52l2.07,0.8-0.83,3.12c2.07-.09,1.24-2.09,2.16-2.6,1.53,0.4,3,.74,4.38,1.18a1.43,1.43,0,0,1,1.2,1.51c0,1.92.39,3.84,0.51,5.76a2.29,2.29,0,0,1-.6,1.33A19.73,19.73,0,0,1,97,65.08l0.36,0.43,2-1.33L100.7,69c1,0,1.3-.38,1.05-1.27a26.74,26.74,0,0,1-.74-3.27,1.62,1.62,0,0,1,.38-1.34c1.61-.83,3.29-1.54,5-2.24a1.07,1.07,0,0,1,.69.37c1.81,1.66,3.64,3.3,5.4,5,0.61,0.6,1,.67,1.5,0q1.07-1.56,2.17-3.1c2.19-3.09,1.24-2.73,5-2.08,0.77,0.13,1.54.25,2.31,0.37,2.31,0.37,2.31.37,2.67,2.58,1.83,0.21.67-1.58,1.15-1.92,1,0,1.68,0,2.39,0a1.78,1.78,0,0,0,.65-0.4,2.33,2.33,0,0,0-.67-0.53C128.79,60.9,128,60.75,127.2,60.58Z"/><path class="cls-1" d="M116.51,166.08c-2.62.73-2.74,1-1.65,3.25-2.45,1.16-2.45,1.16-1.85,2.59a5.23,5.23,0,0,1-5.47,1.09,98.13,98.13,0,0,1-33.9-18.3c-3-2.45-6.11-4.77-9-7.3a54.39,54.39,0,0,1-4.19-4.46l5-8.61c3.44,3.51,6.69,6.86,10,10.17a46.44,46.44,0,0,0,14.78,9.95c7.12,3.05,14.49,5.53,21.77,8.22A8.15,8.15,0,0,1,116.51,166.08Z"/><path class="cls-1" d="M164.71,91.58c-1.15-1-2-1.76-2.95-2.41a3.53,3.53,0,0,0-4,.77c-1.62,2.1-3.8,1.81-5.86,1.62a23.48,23.48,0,0,1-10.2-3.23,15.88,15.88,0,0,1-6.91-8.86,7.83,7.83,0,0,1,0-2.76c0.53-8.24,5.21-13.54,13.5-15.56,2.89-.7,5.43.12,8.15,0.43,3.41,0.38,4.66,3.28,6.76,5.21a6.07,6.07,0,0,1,.84,1c0.83,1.19,2.23,2.09,1.51,4A3.48,3.48,0,0,0,166,74c0.69,1.58,1.65,3.05,2.22,4.67a6.2,6.2,0,0,1,.12,3.06,42.82,42.82,0,0,1-1.52,6.17A22.31,22.31,0,0,1,164.71,91.58Zm-8.87-9.32a9.24,9.24,0,0,0,1.65-.41c1.53-.71,3.06-1.42,4.51-2.27A2.43,2.43,0,0,0,163.17,78c0.19-3.28.93-6.73-2.25-9.21a4.27,4.27,0,0,1-.81-1.21,4.09,4.09,0,0,0-3-2.14,11.09,11.09,0,0,1-3.35-.9,3.49,3.49,0,0,0-4.14.57c-1.46,1.13-2.84,2-3.12,4.33a11.23,11.23,0,0,0,2,8.58C150.44,80.78,153.23,81.22,155.85,82.26Z"/><path class="cls-1" d="M61.63,54.3c0.91,3.2,2.1,3.94,5.16,3.43s5.76-1.39,7.85-3.85c1.18-1.39,2.83-2.41,3.94-3.84A8.52,8.52,0,0,0,80,46.43c0.2-1.08-.58-1.61-1.71-1.67a16.79,16.79,0,0,1-2.46-.53c3.73-1,10.18-1.56,13,2.51-2.83,3-3.58,6.86-4.39,10.91a6.84,6.84,0,0,0-4.57,4.59,2.07,2.07,0,0,0,0,1.28c0.52,1.13.06,1.59-.94,2.1A16.68,16.68,0,0,1,73,67.44c-2.06.22-4.06,1-6.12,1.18a9.22,9.22,0,0,1-7.15-2,1.15,1.15,0,0,1-.22-1.75,3.53,3.53,0,0,0-.17-4.32c-0.86-1.27.05-2.45,0.43-3.56A12.87,12.87,0,0,1,61.63,54.3Z"/><path class="cls-1" d="M53.33,97.63A12.17,12.17,0,0,0,53,99.86a49.64,49.64,0,0,0,.62,7.54,90.49,90.49,0,0,0,3.54,13.5c1.42,3.72,3.74,7.11,5.79,10.58,0.88,1.48,1.45,2.7.28,4.35s-2.12,3.68-3.29,5.76a16.31,16.31,0,0,1-1.48-1.27,50.07,50.07,0,0,1-7.6-11.66,46.33,46.33,0,0,1-2.56-7.75,46.43,46.43,0,0,1-1.46-6.13,16.21,16.21,0,0,1,.09-4.41,41.72,41.72,0,0,1,1.12-5.63,8.76,8.76,0,0,1,1.4-2.43c1.13-1.65,2.3-3.26,3.46-4.89Z"/><path class="cls-1" d="M146.53,168.11l1.18,2.1c-0.51.76-1.7,1.26-.82,2.44a6.58,6.58,0,0,1-.61.74,1.51,1.51,0,0,0-.42.81c0.24,1.42-.7,1.9-1.76,2.06a61.65,61.65,0,0,1-14.22.1c-3.42-.29-6.86-0.36-10.26-0.74-2.54-.28-5.05-0.91-7.61-1.39,0.34-1.43,3.64-.52,2.07-3,2.28-1.06,2.33-1.18,1.6-3.48,0.68-.39,1.64-0.64,2-1.24s-0.28-1.35-.5-2.2C126.63,167.76,136.44,169.45,146.53,168.11Z"/><path class="cls-1" d="M81.28,64.72a8.73,8.73,0,0,0,7.11-2.87c2,4.26,3.91,8.51,5.95,12.69,1.57,3.22,3.31,6.35,4.93,9.55a36.43,36.43,0,0,1,1.87,4.26A1.81,1.81,0,0,1,99,90.73,5.54,5.54,0,0,1,95,87.92C90.28,81,85.22,74.24,81.89,66.46,81.66,65.94,81.51,65.39,81.28,64.72Z"/><path class="cls-1" d="M124.44,93c1.8-4.47,3.47-9,5.43-13.35,0.64-1.42,2-2.51,3.05-3.75l0.35,0.21c-0.77,1.75-1.59,3.49-2.31,5.26-0.88,2.18-1.77,4.36-2.45,6.6a3.59,3.59,0,0,0,.45,2.34c1.2,2.41,2.15,5.2,4.58,6.54,2.83,1.56,5.75,3.28,9.18,3.24a5,5,0,0,0,2.07-.91c3.42-1.93,6.83-3.88,10.25-5.83,0.74-.42,1.39-0.4,1.55.54a5,5,0,0,0,3.87,4.35,26.51,26.51,0,0,1-2.55,1.52c-2.79,1.23-5.61,2.38-8.4,3.61-1.73.77-3.41,1.64-5.11,2.47a3.8,3.8,0,0,1-5.38-2,9.54,9.54,0,0,0-4.35-4.69C131.29,97.13,127.94,95.07,124.44,93Z"/><path class="cls-1" d="M90.54,83.31c-3.22.61-6.26,1.17-9.28,1.76a6.32,6.32,0,0,0-1.22.45c-4.59,1.95-5.3,1.73-8.87-1.18-5.35-4.36-10.49-9-15.72-13.48-0.77-.66-1.5-1.37-2.35-2.14l4.74-2.15c1.84,1.58,3.66,3.13,5.45,4.71,1.36,1.21,2.64,2.51,4,3.72a58.5,58.5,0,0,0,5,4.23,9.43,9.43,0,0,0,7.21,1.4c2.42-.43,4.8-1.08,7.21-1.57a1.38,1.38,0,0,1,1.15.35C88.81,80.62,89.6,81.89,90.54,83.31Z"/><path class="cls-1" d="M120.35,77.69c2.66,2.27,5.4,2,8.52.4-0.63,1.94-1.09,3.63-1.73,5.26-1.27,3.18-2.79,6.27-3.93,9.5-1.24,3.51-3.83,4.28-6.29,3.48a2.31,2.31,0,0,1-1.72-2.81C116.86,88.25,118.6,83,120.35,77.69Z"/><path class="cls-1" d="M171.65,157.36c-1.38,7.26-16.91,18.8-24.78,18.52-0.26-1.56,1.8-2.55,1-4.29a0.45,0.45,0,0,1,.18-0.36c1.07-.71.89-1.59-0.07-2.85,2.48-.55,4.61-1.07,6.76-1.49a28.06,28.06,0,0,0,13.61-6.53,29.62,29.62,0,0,0,2.87-3.42Z"/><path class="cls-1" d="M80.42,65.74l3.87,8a39.18,39.18,0,0,1-4.76,1.08c-2.72.28-5.42,1-8.21,0.23a10,10,0,0,1-5.24-2.88,22.32,22.32,0,0,0-2.19-2C69.4,68.89,75.33,69,80.42,65.74Z"/><path class="cls-1" d="M66,56.56c-2.31,0-2.52-.48-2.84-2.64s0.95-3.25,2.45-4.26c1.89-1.27,3.76-2.56,5.71-3.72a4,4,0,0,1,2.25-.54,25.72,25.72,0,0,1,4.28.8,1.32,1.32,0,0,1,.76,1,6.59,6.59,0,0,1-1.17,2.58,25.84,25.84,0,0,1-5,4.86c-1.85,1.17-4.2,1.56-6.33,2.29Z"/><path class="cls-1" d="M133.38,79.21a18.55,18.55,0,0,0,6.09,9.66,13.14,13.14,0,0,0,2.71,1.24,18.61,18.61,0,0,0,7.39,2.23,22.71,22.71,0,0,1,3.37.66l0.14,0.49c-1.2.48-2.38,1.29-3.61,1.38a19,19,0,0,1-9.9-1.83,14.17,14.17,0,0,1-6.9-7.94C131.74,82.69,131.86,80.95,133.38,79.21Z"/><path class="cls-1" d="M131,84.76c2.63,5.41,5.89,10.39,16.85,11.38-2.55,1.55-4.77,2.79-7.75,2.05a13.58,13.58,0,0,1-9.89-8.52C129.49,87.92,129.59,87.08,131,84.76Z"/><path class="cls-1" d="M58.85,75.19L63.29,79a91.3,91.3,0,0,0-9.06,4.34,80.08,80.08,0,0,0-7.43,5.74C47.31,86.61,54,78.71,58.85,75.19Z"/><path class="cls-1" d="M118.52,78.83c-0.33,2.37-.7,2.83-3.51,3.12-5.13.53-10.21,0.14-14.92-2.11a9.84,9.84,0,0,1-3.18-3.22C104.08,78.48,111.06,80.82,118.52,78.83Z"/><path class="cls-1" d="M99,81.11c6.05,2.19,12,3.09,18.36,1.47l-1.51,5.1c-2.35-.63-4.55-1.39-6.82-1.79a52.36,52.36,0,0,0-6.92-.62,1.29,1.29,0,0,1-1.4-.89C100.28,83.34,99.67,82.34,99,81.11Z"/><path class="cls-1" d="M71,76.47a28.78,28.78,0,0,0,13.9-2l2.16,3.56c-4.13.88-8,2.53-12.13,1.24A7.64,7.64,0,0,1,71,76.47Z"/><path class="cls-1" d="M125.26,78.26c-3.1,0-4.67-1.82-3.8-4.33a4.67,4.67,0,0,1,3.95-2.26c1.35,0.17,3,.11,3.63,1.68C130.45,76.73,129.14,77.58,125.26,78.26Z"/><path class="cls-1" d="M174.06,74.24a5.2,5.2,0,0,1-1.1,1.63,3,3,0,0,1-3.56-.22,12.09,12.09,0,0,1-2.49-3c-0.79-1.19.15-2.2,0.87-2.89a2.72,2.72,0,0,1,2.25-.21A5.13,5.13,0,0,1,174.06,74.24Z"/><path class="cls-1" d="M115.48,89.43a3.08,3.08,0,0,1-1.06.75,25,25,0,0,1-10.3-.87,3.25,3.25,0,0,1-2.35-2.67C106.2,86,112.13,87.59,115.48,89.43Z"/><path class="cls-1" d="M99.11,39.3c-2.79,0-3.53-1.86-2.36-3.79s4-2.86,5.83-1.81c1.42,0.81,1.83,2.62.49,3.56A25.13,25.13,0,0,1,99.11,39.3Z"/><path class="cls-1" d="M148,60c-1,.2-1.94.4-2.91,0.62a5.29,5.29,0,0,0-1.8.48c-1.17.8-1.86,0.31-2.23-.76a5,5,0,0,1,.22-4.45,1.53,1.53,0,0,1,.89-0.61C144.8,54.73,147.81,57.09,148,60Z"/><path class="cls-1" d="M70.41,45.5a47.51,47.51,0,0,1-4.6,3,5.13,5.13,0,0,1-2.93.33c-0.94-.14-1.21-1-0.86-1.93,0.67-1.81,4-4,5.89-3.84C69.13,43.16,69.7,43.7,70.41,45.5Z"/><path class="cls-1" d="M164,95c-0.13,1.54-.72,2.24-1.83,2.36-1.8.21-4.72-2.5-4.24-4.23a5.07,5.07,0,0,1,2.43-2.58c0.43-.24,1.79.48,2.21,1.1A16.36,16.36,0,0,1,164,95Z"/><path class="cls-1" d="M59.17,63.56a5.42,5.42,0,0,1-1.32,1.87,23.94,23.94,0,0,1-4.67,1.86,2.39,2.39,0,0,1-1.69-.82A2.07,2.07,0,0,1,52,65.11a8.52,8.52,0,0,1,5-3.3C58.55,61.5,59,61.85,59.17,63.56Z"/><path class="cls-1" d="M153.11,102.71c2.5-1.29,3-1.15,4.49.65,1.87,2.23,3.87,4.35,5.76,6.58a16.54,16.54,0,0,1,2,3.12Z"/><path class="cls-1" d="M82.75,63.88c-0.78-.45-1.69-0.68-1.8-1.11a2.55,2.55,0,0,1,.6-1.92,6.7,6.7,0,0,1,2.2-1.8,2.71,2.71,0,0,1,3.68,1.64A1.47,1.47,0,0,1,87,62C85.61,62.73,84.18,63.27,82.75,63.88Z"/><path class="cls-1" d="M140.15,47.65a14.4,14.4,0,0,1-2.77-1c-1.34-.82-1.14-2.39.3-3.06a4.11,4.11,0,0,1,4.65,1.17c1,1.4.62,2.37-1.08,2.64a6.59,6.59,0,0,1-1,0Z"/><path class="cls-1" d="M89.61,45.36l-3.14-2.28c1.1-2.45,5.51-3,7.26-.78Z"/><path class="cls-1" d="M137.18,48.59l5.85-.48-2.31,5.47Z"/><path class="cls-1" d="M135.56,70l-3.68,6.3c-1.18-2.32-1.18-2.32.34-3.82l2.87-2.85Z"/><path class="cls-1" d="M170,80.11l-0.77-2.77,3.9-.2Z"/><path class="cls-1" d="M140.11,61.13l1.06,1.12L139,63.92l-0.21-.17Z"/><path d="M127.2,60.58c0.79,0.17,1.59.32,2.37,0.54a2.33,2.33,0,0,1,.67.53,1.78,1.78,0,0,1-.65.4c-0.71.05-1.43,0-2.39,0-0.48.34,0.68,2.13-1.15,1.92-0.36-2.21-.36-2.21-2.67-2.58-0.77-.12-1.54-0.24-2.31-0.37-3.73-.65-2.77-1-5,2.08q-1.09,1.55-2.17,3.1c-0.49.72-.89,0.64-1.5,0-1.76-1.72-3.59-3.36-5.4-5a1.07,1.07,0,0,0-.69-0.37c-1.68.7-3.36,1.41-5,2.24a1.62,1.62,0,0,0-.38,1.34,26.74,26.74,0,0,0,.74,3.27C102,68.62,101.69,69,100.7,69l-1.26-4.81-2,1.33L97,65.08a19.73,19.73,0,0,0,1.53-1.58,2.29,2.29,0,0,0,.6-1.33c-0.12-1.92-.47-3.84-0.51-5.76a1.43,1.43,0,0,0-1.2-1.51c-1.41-.44-2.85-0.77-4.38-1.18-0.91.51-.09,2.51-2.16,2.6l0.83-3.12-2.07-.8V51.87a7.24,7.24,0,0,1,1.84-.12,1.69,1.69,0,0,0,1.91-.5,18,18,0,0,1,3-2.73A3.61,3.61,0,0,0,97.9,43.9a1.17,1.17,0,0,1,.87-1.81l0.83,3.47a34.3,34.3,0,0,0,4.22-2.78c2.08-1.85,4.59-2.12,7.15-2.39a14.42,14.42,0,0,0,2.3-.25,8,8,0,0,1,5.9.9c4.26,2.1,8.53,4.17,12.77,6.32a7.77,7.77,0,0,1,1.6,1.5,10.84,10.84,0,0,1-1.79,1.74c-1.36.83-2.9,1.39-4.22,2.28a2.61,2.61,0,0,0-.78,2C126.78,56.73,127,58.6,127.2,60.58Zm-2-12.41h0.05a4.67,4.67,0,0,1,0-.88c0.31-1.58-.25-2.47-1.85-3-2.3-.77-4.49-1.85-6.77-2.69a10.36,10.36,0,0,0-2.91-.54,9.92,9.92,0,0,0-2.61.22c-2,.42-4.16.16-6,1.58-1.55,1.23-3.31,2.2-4.91,3.37a1.8,1.8,0,0,0-.64,1.29c0,2,.11,3.94.3,5.89a2.33,2.33,0,0,0,.89,1.47c1.49,1.07,3.08,2,4.6,3s2.77,2.16,4.68,2c1.25-.08,2.51-0.09,3.75-0.25s2.83-.14,3.91-0.79A75.66,75.66,0,0,0,124.62,54a2,2,0,0,0,.59-1.32C125.28,51.15,125.24,49.66,125.24,48.17Zm7.21,1-5.91-3.45V52.2Zm-6.78,11.2-0.5-5.62-6.37,4.68ZM100.49,56.1l-0.5.24,0.53,6.05L105.95,60Zm-1.94-2V47.72l-5.23,4.76Zm10.65,7.08,4.17,3.92,3.33-4.62Z"/><path d="M155.85,82.26c-2.61-1-5.4-1.47-7.35-4.21a11.23,11.23,0,0,1-2-8.58c0.28-2.33,1.67-3.2,3.12-4.33a3.49,3.49,0,0,1,4.14-.57,11.09,11.09,0,0,0,3.35.9,4.09,4.09,0,0,1,3,2.14,4.27,4.27,0,0,0,.81,1.21c3.18,2.48,2.45,5.94,2.25,9.21A2.43,2.43,0,0,1,162,79.58c-1.45.85-3,1.56-4.51,2.27A9.24,9.24,0,0,1,155.85,82.26Zm-8.41-8.63a2.52,2.52,0,0,0,.29.72c0.88,1.34,1.73,2.71,2.73,4a8,8,0,0,0,1.93,1.31c2.44,1.6,4.7,1.37,7.24-.09,1.31-.75,2.39-1,2.47-2.85,0.09-2.06.6-4-1.32-5.61a15.47,15.47,0,0,1-1.62-2.19,5.17,5.17,0,0,0-1.73-1.67,59.32,59.32,0,0,0-5.82-1.78c-1-.28-3.36,1.38-3.5,2.42C147.87,69.65,147.68,71.47,147.43,73.63Z"/><path class="cls-1" d="M125.24,48.17c0,1.49,0,3,0,4.46a2,2,0,0,1-.59,1.32,75.66,75.66,0,0,1-6.86,4.93c-1.08.64-2.58,0.62-3.91,0.79s-2.5.17-3.75,0.25c-1.91.13-3.24-1.06-4.68-2s-3.11-2-4.6-3a2.33,2.33,0,0,1-.89-1.47c-0.19-2-.28-3.93-0.3-5.89a1.8,1.8,0,0,1,.64-1.29c1.61-1.17,3.36-2.14,4.91-3.37,1.8-1.42,4-1.16,6-1.58a9.92,9.92,0,0,1,2.61-.22,10.36,10.36,0,0,1,2.91.54c2.28,0.84,4.47,1.92,6.77,2.69,1.6,0.53,2.16,1.43,1.85,3a4.67,4.67,0,0,0,0,.88h-0.05Z"/><path class="cls-1" d="M132.44,49.16l-5.91,3V45.71Z"/><path class="cls-1" d="M125.66,60.36l-6.88-.93,6.37-4.68Z"/><path class="cls-1" d="M100.49,56.1L105.95,60l-5.43,2.44L100,56.34Z"/><path class="cls-1" d="M98.55,54.09l-5.23-1.61,5.23-4.76v6.37Z"/><path class="cls-1" d="M109.19,61.17l7.51-.7-3.33,4.62Z"/><path class="cls-1" d="M147.43,73.63c0.25-2.16.44-4,.66-5.78,0.13-1,2.47-2.7,3.5-2.42a59.32,59.32,0,0,1,5.82,1.78,5.17,5.17,0,0,1,1.73,1.67,15.47,15.47,0,0,0,1.62,2.19c1.92,1.58,1.41,3.55,1.32,5.61-0.08,1.86-1.16,2.1-2.47,2.85-2.55,1.46-4.8,1.69-7.24.09a8,8,0,0,1-1.93-1.31c-1-1.24-1.85-2.61-2.73-4A2.52,2.52,0,0,1,147.43,73.63Z"/></svg>