<svg id="Layer_3" data-name="Layer 3" xmlns="http://www.w3.org/2000/svg" viewBox="0 0 56.69 56.69"><defs><style>.cls-1{fill:#fff;}</style></defs><title>CC_comodicons_small_flooring_alt-01</title><path class="cls-1" d="M47.76,21.24c0,0.17,0,.33,0,0.5a5.22,5.22,0,0,1-.17,1.72,3.43,3.43,0,0,1-.39,1,5,5,0,0,1-.39.71l-0.44.49a3.68,3.68,0,0,1-.92.67,5.34,5.34,0,0,1-.72.39,4.85,4.85,0,0,1-1.41.5,3.7,3.7,0,0,0-.84.22,7,7,0,0,0-.82.3c-0.4.18-.79,0.4-1.19,0.6-0.14.07-.29,0.11-0.44,0.17l-0.61.24-1.19.44-1.15.48c-0.3.13-.61,0.25-0.91,0.38l-1.61.75-1.63.79a11.48,11.48,0,0,1-1.29.6c-0.47.16-.88,0.41-1.32,0.61s-0.61.25-.91,0.39-0.42.25-.64,0.35c-0.58.27-1.16,0.53-1.74,0.8s-0.89.46-1.34,0.69c-0.16.08-.32,0.13-0.48,0.2a0.28,0.28,0,0,0-.13.09,1.4,1.4,0,0,1-.93.51L24,35.88a0.86,0.86,0,0,1-.7-0.07,2.17,2.17,0,0,0-.49-0.1c-0.35-.06-0.7-0.13-1-0.17-0.65-.07-1.3-0.11-2-0.17-0.27,0-.53-0.08-0.8-0.13s-0.74-.11-1.1-0.19-0.52-.16-0.78-0.23l-0.58-.13L16,34.55l-0.7-.18-0.92-.28-1-.34c-0.21-.07-0.41-0.18-0.62-0.24s-0.57-.14-0.85-0.22-0.35-.15-0.53-0.21L10,32.61c-0.33-.11-0.67-0.22-1-0.37s-0.63-.34-1-0.5-0.73-.33-1.09-0.48C6.71,31.17,6.49,31.1,6.27,31a0.8,0.8,0,0,1-.59-1,0.84,0.84,0,0,1,0-.11,0.3,0.3,0,0,1,.4-0.28,1.19,1.19,0,0,0,.61-0.08c0.29-.1.61-0.14,0.89-0.25,0.45-.18.88-0.4,1.33-0.6s0.65-.29,1-0.45l1.58-.81,0.42-.18L12.53,27l1.21-.59L15,25.77l1.5-.71,1.61-.81L18.65,24c0.22-.11.46-0.21,0.67-0.33s0.64-.4,1-0.61a1,1,0,0,0,.26-0.27,0.32,0.32,0,0,0,0-.23c-0.06-.25-0.12-0.51-0.2-0.75s-0.18-.49-0.27-0.73A2.22,2.22,0,0,1,20,20.82,5,5,0,0,1,20,19.56a2.38,2.38,0,0,1,.22-0.86,6.92,6.92,0,0,1,.45-1,5.67,5.67,0,0,1,.93-1.33l0.88-.8a1.17,1.17,0,0,0,.15-0.19,1.54,1.54,0,0,1,.6-0.34,0.52,0.52,0,0,1,.49.22,0.46,0.46,0,0,0,.43.24c0.38,0,.76,0,1.14.08l1.39,0.14,1.21,0.11L29.18,16c0.18,0,.36.08,0.54,0.11s0.38,0,.57.05l1.23,0.08,1.56,0.16c0.08,0,.16,0,0.24,0l1.31,0.13h0.24l0.61,0.08,0.44,0,1,0.1,1.37,0.08,1,0.07,1,0,0.67,0,1,0c0.25,0,.51,0,0.77,0h0.83c0.21,0,.42-0.05.63,0a1.28,1.28,0,0,1,.45.11,4.89,4.89,0,0,1,.7.36,4.69,4.69,0,0,1,.76.56,6.87,6.87,0,0,1,.89,1,4.07,4.07,0,0,1,.44,1c0.13,0.38.22,0.77,0.33,1.15a1.06,1.06,0,0,1,0,.21h0ZM37.59,28.1V28c-0.23-.06-0.45-0.13-0.69-0.18l-1.07-.17c-0.29-.05-0.57-0.13-0.86-0.2l-0.88-.21-0.87-.2L32.56,27l-0.89-.2-0.87-.24-1-.25-1.28-.37L28,25.74l-1-.24-0.56-.13c-0.3-.08-0.6-0.19-0.91-0.26l-1.24-.29-0.72-.18-0.8-.22L22,24.22a5,5,0,0,1-.54-0.14,0.78,0.78,0,0,0-.66.07c-0.43.22-.85,0.47-1.27,0.7s-0.65.32-1,.48-0.6.31-.91,0.46-0.71.29-1.05,0.45-0.81.4-1.22,0.6l-1,.47-0.85.43-1.28.63c-0.14.07-.26,0.18-0.4,0.25s-0.55.23-.82,0.37-0.65.37-1,.54l-1.47.72-0.52.26v0.05l0.25,0.15L9.23,31.2a1.66,1.66,0,0,0,.21.07c0.3,0.11.6,0.24,0.91,0.34s0.5,0.13.75,0.21,0.43,0.16.65,0.24l1.5,0.49L14,32.83,14.62,33l0.31,0.08,0.7,0.17,0.95,0.26,0.65,0.14c0.1,0,.2.08,0.3,0.1l0.68,0.14c0.34,0.06.68,0.12,1,.17s0.67,0,1,.11a8.76,8.76,0,0,0,1.24.09c0.19,0,.38,0,0.57,0,0.37,0,.74.1,1.1,0.11a2.82,2.82,0,0,0,1.21-.16l1-.45,0.59-.29,0.87-.39,0.9-.43,0.78-.37,1.15-.56,0.94-.45,1.26-.55L33,30.21l1.44-.68c0.07,0,.12-0.09.19-0.12l1.42-.63L37,28.38ZM42.15,18v0H41.62l-1-.07-1.67-.07-1.18-.09L36,17.61l-1.18-.1-0.68,0-0.7-.06-0.55,0-0.54,0-0.7-.05-1-.09L29.39,17l-1-.09-1.65-.17-1-.09a5.77,5.77,0,0,0-.86-0.07,7.77,7.77,0,0,1-1.39-.1,0.63,0.63,0,0,0-.49.07c-0.14.11-.28,0.23-0.41,0.35a3.43,3.43,0,0,0-.75.81c-0.16.29-.38,0.54-0.55,0.83a2.67,2.67,0,0,0-.44,1.29,3.39,3.39,0,0,0,.07.86c0.08,0.35.24,0.67,0.33,1a2,2,0,0,1,.15.79,0.11,0.11,0,0,0,0,.09,2.26,2.26,0,0,0,.44.37,9.73,9.73,0,0,0,1.93.66c0.41,0.11.83,0.18,1.24,0.27l0.75,0.17,1,0.27,1,0.23,0.58,0.15L29.2,25l0.88,0.25,0.73,0.2,0.6,0.18L32,25.74c0.25,0.06.49,0.13,0.74,0.18l1,0.17,0.83,0.18,0.75,0.14c0.27,0.05.55,0.12,0.82,0.17l1.37,0.21c0.33,0.06.65,0.15,1,.2A0.68,0.68,0,0,0,39,26.92c-0.2-.26-0.37-0.52-0.58-0.75A2.28,2.28,0,0,1,37.94,25a3.65,3.65,0,0,1,0-1.44,8.53,8.53,0,0,1,.36-1.21,3.55,3.55,0,0,1,.64-1.07c0.23-.26.42-0.54,0.64-0.81l0.32-.38c0.15-.18.28-0.37,0.44-0.53s0.51-.47.75-0.72a3.06,3.06,0,0,1,.72-0.59A3.78,3.78,0,0,0,42.15,18Zm-3.39,6.38h0c0,0.1,0,.19,0,0.29a1.78,1.78,0,0,0,.29.84,2.91,2.91,0,0,0,.42.37,1.07,1.07,0,0,0,.31.19,3.15,3.15,0,0,0,1.31.26c0.38,0,.76,0,1.13-0.09a14.54,14.54,0,0,0,1.53-.44,5.39,5.39,0,0,0,.87-0.37,7.86,7.86,0,0,0,.91-0.57,2.3,2.3,0,0,0,.54-0.52,6,6,0,0,0,.51-0.92,2.59,2.59,0,0,0,.21-0.69,6.23,6.23,0,0,0,.1-1.17,7.94,7.94,0,0,0-.19-1.18,2.23,2.23,0,0,0-.16-0.53,2.8,2.8,0,0,0-.36-0.6,8.9,8.9,0,0,0-.66-0.66l-0.22-.18a0.55,0.55,0,0,0-.65-0.13,1,1,0,0,1-.22,0,3.17,3.17,0,0,0-.53.09c-0.18.06-.34,0.17-0.52,0.24a5.25,5.25,0,0,0-1.29.78c-0.44.36-.84,0.77-1.25,1.17-0.23.23-.43,0.49-0.65,0.73a3.1,3.1,0,0,0-.29.31c-0.28.43-.56,0.87-0.83,1.31a1.28,1.28,0,0,0-.18.36C38.89,23.69,38.83,24.06,38.76,24.42Z"/><path class="cls-1" d="M34.22,30.07H34.6l0.38,0,1.21,0.05,1.12,0c0.08,0,.17,0,0.25,0l0.73,0h1l2.36,0.06c0.32,0,.64,0,1,0s0.5,0,.75.06,0.42,0.05.63,0.06a0.29,0.29,0,0,0,.19-0.1,0.21,0.21,0,0,1,.35,0l0.28,0.24a0.17,0.17,0,0,1,0,.08,0.37,0.37,0,0,0,0,.11,0.55,0.55,0,0,1-.08.66c-0.13.24-.31,0.46-0.46,0.69s-0.26.42-.4,0.62l-0.73,1-0.59.8c-0.22.29-.44,0.58-0.65,0.87s-0.33.5-.49,0.75l-0.67,1c-0.17.27-.33,0.55-0.5,0.82l-0.85,1.3c-0.28.44-.56,0.87-0.83,1.32s-0.6,1.08-.9,1.62c-0.19.33-.38,0.67-0.56,1-0.07.13-.12,0.27-0.18,0.41l-0.33.74a0.1,0.1,0,0,1,0,0l-0.43.17v0L35,44.63a0.19,0.19,0,0,1-.11,0,1.65,1.65,0,0,0-1-.2,5.51,5.51,0,0,1-.56-0.06l-0.19,0-1.39,0a9,9,0,0,1-.9,0C30.21,44.21,29.59,44.11,29,44l-0.74-.11-1-.11L26,43.65l-1.22-.12c-0.19,0-.38-0.08-0.57-0.1l-1-.12-0.67-.09-0.77-.11L21.07,43l-0.79-.11-0.62-.08-1-.09c-0.16,0-.32-0.07-0.47-0.09l-0.88-.09-0.84-.11L16,42.4c-0.39,0-.78-0.06-1.17-0.11s-0.87-.13-1.3-0.2L12.88,42a3.14,3.14,0,0,0-.48-0.09,5,5,0,0,1-1-.18c-0.21,0-.42-0.1-0.64-0.15s-0.5-.13-0.74-0.21a5.33,5.33,0,0,1-.65-0.25,0.44,0.44,0,0,1-.21-0.22,0.78,0.78,0,0,1-.09-0.62,0.92,0.92,0,0,1,.48-0.4,0.79,0.79,0,0,0,.2-0.16c0.08-.1.14-0.23,0.22-0.33a0.22,0.22,0,0,1,.12-0.09,1.56,1.56,0,0,0,.69-0.43c0.36-.26.72-0.53,1.08-0.8l1.22-.91,0.83-.63,0.92-.73c0.29-.23.58-0.45,0.86-0.69s0.73-.65,1.11-1l1.43,0.27L17.62,35l-0.93.76c-0.36.3-.71,0.61-1.08,0.91l-1.52,1.2-1,.76c-0.57.43-1.15,0.84-1.71,1.28a4.73,4.73,0,0,0-.57.66l0,0.06,0.55,0.12c0.2,0,.39.11,0.59,0.14,0.35,0.05.7,0.08,1.05,0.14l1.51,0.27c0.23,0,.47,0,0.71.06s0.66,0,1,.07,0.45,0.08.67,0.12h0.24l0.46,0,0.8,0.1,0.45,0,0.71,0.1c0.15,0,.3,0,0.45,0L21.14,42,22,42.11l1,0.13,1,0.12a1.3,1.3,0,0,0,.48,0,1,1,0,0,1,.37.08,2.65,2.65,0,0,1,.88.14,7.29,7.29,0,0,1,1.16.1,6.35,6.35,0,0,1,1.22.12l0.41,0c0.38,0.07.75,0.15,1.13,0.2s0.7,0.05,1.05.08l0.4,0c0.15,0,.29,0,0.44.05h0.91L34,43.33c0.22,0,.44,0,0.66,0l0.29,0,0.59,0.1a0.21,0.21,0,0,0,.16-0.06,4,4,0,0,0,.38-0.52c0.17-.3.32-0.62,0.48-0.93s0.48-.89.73-1.33,0.38-.57.56-0.86,0.47-.76.72-1.14,0.49-.72.74-1.08,0.42-.58.6-0.89A13.36,13.36,0,0,1,41,35c0.17-.22.3-0.48,0.46-0.71s0.53-.71.8-1.07,0.41-.56.61-0.84,0.43-.63.64-1a0.15,0.15,0,0,0,0-.11,0.21,0.21,0,0,0-.13,0H42.85c-0.19,0-.38,0-0.56,0-0.45,0-.91,0-1.36,0-0.26,0-.52,0-0.78,0H39.4c-0.34,0-.69-0.06-1-0.07l-1.74,0-0.79,0-1.1,0L32.91,31Z"/></svg>