<svg id="flooring" xmlns="http://www.w3.org/2000/svg" viewBox="0 0 226.77 226.77"><defs><style>.cls-1{fill:#fff;}</style></defs><title>CC_comodicons_big_flooring</title><path class="cls-1" d="M186.91,201.11l0.45-.31c0-.44,0-0.88,0-1.31,0-4.74,0-9.47.06-14.21,0.08-3.49.4-7,.54-10.46,0.16-3.71.28-7.42,0.34-11.13,0-3.09,0-6.18,0-9.28,0-2.33-.07-4.66-0.15-7a1.5,1.5,0,0,0-.48-1c-1.87-1.56-3.79-3.06-5.66-4.61a3,3,0,0,1-1.52-2.8c0.17-6.14-.2-12.29-0.19-18.44,0-10.37.06-20.75,0.28-31.12,0.15-7,.72-14,0.9-21,0.12-4.6-.18-9.2-0.19-13.81,0-3.22.11-6.43,0.24-9.65a1,1,0,0,0-1.17-1.28c-1.23,0-2.47-.06-3.7-0.06-4.35,0-8.7.07-13.06,0.08-3.27,0-6.54,0-9.8,0-3.87,0-7.74.12-11.61,0-4.46-.11-8.91-0.6-13.36-0.55-7,.07-14,0.45-21,0.72q-3.7.14-7.4,0.36c-4,.24-7.94.57-11.91,0.74-4.31.19-8.63,0.26-12.95,0.34-5.06.09-10.13,0.21-15.19,0.17-3,0-5.94-.42-8.91-0.47C45.85,45,40.29,45,34.73,45c-0.66,0-1.19.07-1.12,1,0.09,1.23-.05,2.48,0,3.72,0,4.11.15,8.23,0.06,12.33-0.17,7-.53,13.9-0.71,20.85C32.75,89,32.71,95,32.64,101c0,1.59,0,3.19,0,4.78a8.7,8.7,0,0,1-.2,1.23L31,106.42c-0.09.94-.18,1.67-0.22,2.4-0.21,3.67-.42,7.33-0.6,11-0.08,1.55-.09,3.09-0.14,4.64a1.24,1.24,0,0,0,1.25.65c2.16-.41,4.29-1,6.44-1.46L53.53,120c4-.91,7.93-1.78,11.88-2.74,2.71-.66,2.68-0.71,4.27,1.69s3.18,4.8,4.84,7.15c4.3,6.07,8.7,12.06,12.94,18.18,2.34,3.38,4.37,7,6.63,10.42q3.61,5.5,7.4,10.88a2.54,2.54,0,0,0,1.77,1.08,53.47,53.47,0,0,0,6-.8c2.52-.44,5-1,7.33-1.45,3,3.69,5.77,7.22,8.63,10.7a1.23,1.23,0,0,0,1.08.08c0.63-.25,1.16-0.76,1.79-1,7.78-2.64,15.84-4.13,23.86-5.78a2.08,2.08,0,0,1,1.51.45c0.82,0.67,1.48,1.51,2.26,2.24,3.51,3.3,6.9,6.73,10.58,9.83a139.7,139.7,0,0,1,18,17.59A35.31,35.31,0,0,0,186.91,201.11Z"/><path d="M186.91,201.11a35.31,35.31,0,0,1-2.54-2.52,139.7,139.7,0,0,0-18-17.59c-3.68-3.1-7.07-6.53-10.58-9.83-0.77-.73-1.44-1.57-2.26-2.24a2.08,2.08,0,0,0-1.51-.45c-8,1.65-16.08,3.14-23.86,5.78-0.63.22-1.16,0.72-1.79,1a1.23,1.23,0,0,1-1.08-.08c-2.86-3.49-5.67-7-8.63-10.7-2.31.46-4.81,1-7.33,1.45a53.47,53.47,0,0,1-6,.8,2.54,2.54,0,0,1-1.77-1.08q-3.78-5.38-7.4-10.88c-2.26-3.44-4.29-7-6.63-10.42-4.23-6.11-8.64-12.11-12.94-18.18-1.66-2.35-3.25-4.75-4.84-7.15s-1.56-2.35-4.27-1.69c-3.95,1-7.92,1.84-11.88,2.74l-15.79,3.61c-2.15.49-4.28,1-6.44,1.46a1.24,1.24,0,0,1-1.25-.65c0-1.55.06-3.1,0.14-4.64,0.18-3.67.39-7.33,0.6-11,0-.73.13-1.46,0.22-2.4L32.45,107a8.7,8.7,0,0,0,.2-1.23c0-1.59,0-3.19,0-4.78,0.07-6,.11-12.05.26-18.08,0.18-7,.55-13.9.71-20.85,0.1-4.11,0-8.22-.06-12.33,0-1.24.14-2.49,0-3.72-0.07-1,.47-1,1.12-1,5.56,0,11.11,0,16.67.08,3,0.05,5.94.45,8.91,0.47,5.06,0,10.13-.08,15.19-0.17,4.32-.08,8.64-0.15,12.95-0.34,4-.17,7.94-0.5,11.91-0.74q3.7-.22,7.4-0.36c7-.27,14-0.64,21-0.72,4.45,0,8.91.45,13.36,0.55,3.87,0.09,7.74,0,11.61,0,3.27,0,6.54,0,9.8,0,4.35,0,8.7-.07,13.06-0.08,1.23,0,2.47.07,3.7,0.06A1,1,0,0,1,181.5,45c-0.13,3.21-.25,6.43-0.24,9.65,0,4.6.31,9.21,0.19,13.81-0.18,7-.76,14-0.9,21-0.22,10.37-.27,20.75-0.28,31.12,0,6.15.37,12.3,0.19,18.44a3,3,0,0,0,1.52,2.8c1.88,1.55,3.8,3,5.66,4.61a1.5,1.5,0,0,1,.48,1c0.08,2.33.13,4.66,0.15,7,0,3.09.09,6.19,0,9.28-0.06,3.71-.18,7.42-0.34,11.13-0.15,3.49-.47,7-0.54,10.46-0.1,4.73,0,9.47-.06,14.21,0,0.44,0,.88,0,1.31Zm-7.85-61.71a5.41,5.41,0,0,0,.1-0.68c0-3.36-.13-6.71-0.15-10.07,0-5.93-.07-11.86,0-17.79,0-6.95.06-13.9,0.27-20.84,0.25-8.23.75-16.46,1-24.69,0.09-2.82-.25-5.66-0.31-8.49-0.07-3.44,0-6.88-.09-10.32,0-1.6-.21-1.76-1.84-1.74-7.17.06-14.34,0.17-21.51,0.16-5.67,0-11.34-.2-17-0.29-6.9-.11-13.8-0.22-20.7-0.27-1.88,0-3.76.19-5.67,0.3,0,0.71,0,1.33,0,1.94-0.08,2.65-.19,5.3-0.23,8-0.09,7-.09,14-0.23,20.94-0.1,5.09-.39,10.18-0.54,15.28a1.61,1.61,0,0,0,.59,1.16c1.39,1,2.83,2,4.29,2.89,3.11,1.95,6.32,3.74,9.35,5.8,4.16,2.84,8.21,5.85,12.29,8.81,5,3.66,10.07,7.35,15.11,11,2,1.45,4.05,2.83,6,4.32,4.44,3.36,8.83,6.78,13.26,10.15C175,136.43,177,137.86,179.06,139.41ZM33.6,106.56c26.1-4.08,51.53-9.79,77-14.89,0.78-15.73,1.64-31.21.78-46.76-2.93.11-5.93,0.21-8.93,0.34-7.07.32-14.13,0.68-21.2,1q-4.65.2-9.3,0.29c-3.19.06-6.38,0.16-9.56,0.05-4.6-.16-9.2-0.6-13.8-0.71-4.24-.11-8.5,0-12.74.09-0.29,0-.58,0-0.83,0Zm69,0.56c1.24,1.37,2.34,2.45,3.29,3.65,3.54,4.46,6.85,9.12,10.58,13.42,4.18,4.81,8.78,9.26,13.11,13.94,4.78,5.17,9.42,10.46,14.2,15.63a54.15,54.15,0,0,0,5.41,5.1c1.85,1.51,3.09,3.62,5.56,4.6,1.75,0.69,3,2.57,4.48,4,4.89,4.84,9.73,9.72,14.62,14.56,3.43,3.41,6.91,6.77,10.36,10.15,0.67,0.65,1.35,1.28,2.15,2,0.07-5.46.1-10.73,0.22-16a100.14,100.14,0,0,1,.51-10.87c0.36-2.73-.61-4.28-2.72-5.75-6.21-4.31-12.3-8.79-18.46-13.17-5.9-4.2-11.87-8.32-17.72-12.58q-6.54-4.76-12.87-9.81-7.82-6.25-15.44-12.75c-2.63-2.23-5-4.71-7.6-7a2.35,2.35,0,0,0-1.58-.72C108.09,106,105.5,106.54,102.62,107.12Zm48.91,56.67c-1.52-1.7-3.07-3.51-4.71-5.23-3.59-3.77-7.29-7.45-10.83-11.26-4.45-4.79-8.64-9.83-13.22-14.5A167.61,167.61,0,0,1,107.4,115c-1.65-2.24-3.48-4.36-5.29-6.48a2.07,2.07,0,0,0-1.5-.77c-3.17.56-6.33,1.24-9.48,1.91-2.48.53-4.95,1.1-7.49,1.66,0.45,0.62.81,1.07,1.12,1.54,3.15,4.81,6.29,9.63,9.46,14.43,0.65,1,1.51,1.81,2.2,2.77,2,2.73,3.88,5.5,5.84,8.23,2.76,3.85,5.51,7.71,8.33,11.52s5.4,7.34,8.28,10.87c2.31,2.84,4.92,5.43,7.33,8.2a1.44,1.44,0,0,0,1.68.61c2-.56,4.1-1.1,6.16-1.59C140,166.5,145.89,165.11,151.52,163.79Zm36.13-.89a6.13,6.13,0,0,1-.43-1.49c0-4.23,0-8.47,0-12.7a2.34,2.34,0,0,0-.64-1.59c-2.61-2.25-5.24-4.48-8-6.6-5-3.9-10.12-7.73-15.2-11.56s-9.91-7.43-14.89-11.11c-4.63-3.41-9.24-6.87-14-10.14-6.36-4.41-12.83-8.67-19.26-13-1-.65-2-1.24-3.11-1.92-0.26,3.34-.47,6.49-0.78,9.64a3.35,3.35,0,0,0,1.35,3.17c5,4.28,9.72,8.79,14.74,13,5.47,4.56,11.12,8.91,16.76,13.26,3.64,2.81,7.37,5.52,11.13,8.17,7.58,5.36,15.22,10.65,22.82,16C181.34,158.27,184.46,160.58,187.66,162.9ZM110.91,92.48a3.68,3.68,0,0,0-.66,0c-3.66.8-7.31,1.66-11,2.42Q89.2,97,79.11,99q-11.39,2.25-22.79,4.4c-7.39,1.4-14.78,2.74-22.17,4.11-2.38.44-2.37,0.45-2.48,2.89-0.2,4.53-.41,9.05-0.63,13.9,12.44-2.57,24.73-5.43,37.05-8.72-0.34-1.72.88-2,2.33-2.28,2-.34,4-0.82,6-1.25L90,109l12.29-2.68,7.87-1.7ZM70.66,114.16c0.79,0.9,1.49,1.58,2,2.36,2.14,3,4.25,6,6.35,8.95,2.82,4,5.68,8,8.42,12.06,1.78,2.64,3.24,5.49,5.05,8.1,3,4.39,6.24,8.67,9.39,13a22.82,22.82,0,0,0,2.08,2.58,1.93,1.93,0,0,0,1.43.51c3.59-.47,7.17-1,10.75-1.57a1.52,1.52,0,0,0,.43-0.23c-1.07-1.26-2.19-2.41-3.12-3.7q-6.41-8.89-12.73-17.84c-1.89-2.67-3.7-5.4-5.6-8.06-2.26-3.16-4.65-6.24-6.86-9.44-1.89-2.73-3.6-5.58-5.43-8.35a1.53,1.53,0,0,0-1-.73C78.15,112.51,74.49,113.33,70.66,114.16Zm83.26,53.51c1.52,1.68,2.88,3.45,4.51,4.93,4.06,3.69,8.16,7.35,12.39,10.84a104.57,104.57,0,0,1,14,14c0.4,0.48.88,0.9,1.32,1.35l0.39-.18c-0.2-1.08,0-2.48-.65-3.2-2.33-2.72-4.86-5.28-7.42-7.79-5.5-5.38-11.08-10.69-16.62-16-2.31-2.23-4.57-4.51-7.07-7Zm-51.33-2.39,0.43-.17c0-1.24.55-2.45-.38-3.71-2.76-3.74-5.5-7.5-8.16-11.31-2-2.9-3.89-5.9-5.87-8.83q-4.95-7.32-10-14.6-3.51-5.08-7.12-10.09a26,26,0,0,0-1.95-2.16c-0.76,1-.86,1.78,0,2.64a19.44,19.44,0,0,1,1.79,2.47c1.36,2,2.65,4.06,4.07,6,4,5.47,8.15,10.79,11.94,16.38,4.54,6.7,8.74,13.63,13.11,20.44C101.1,163.36,101.87,164.31,102.59,165.29Zm24,8.58,6.27-1.84c2.49-.72,5-1.53,7.48-2.11,3.72-.84,7.49-1.49,11.22-2.27,1.74-.36,2.19-1.21,1.72-3.13a14.9,14.9,0,0,0-1.67.2c-7.37,1.68-14.75,3.35-22.11,5.1-3,.72-3,0.8-3,4A0.12,0.12,0,0,0,126.55,173.86Zm-9.35-13.22-10.94,1.78c-2.23.36-2.66,1-2.12,3.51l12.85-2.3Zm1,0.56c-0.17,2.07-.63,3.83,1.21,5a3.73,3.73,0,0,1,.63.83l5.54,6.84a20.07,20.07,0,0,1,.31-2.28,2.2,2.2,0,0,0-.71-2.49,12.53,12.53,0,0,1-1.11-1.31Z"/><path class="cls-1" d="M179.06,139.41c-2.1-1.54-4.1-3-6.06-4.47-4.43-3.37-8.82-6.79-13.26-10.15-2-1.49-4-2.87-6-4.32-5-3.67-10.06-7.36-15.11-11-4.08-3-8.12-6-12.29-8.81-3-2.06-6.24-3.86-9.35-5.8-1.46-.92-2.9-1.88-4.29-2.89a1.61,1.61,0,0,1-.59-1.16c0.15-5.09.44-10.18,0.54-15.28,0.14-7,.14-14,0.23-20.94,0-2.65.15-5.3,0.23-8,0-.61,0-1.23,0-1.94,1.91-.11,3.79-0.32,5.67-0.3,6.9,0,13.8.16,20.7,0.27,5.67,0.09,11.34.28,17,.29,7.17,0,14.34-.1,21.51-0.16,1.63,0,1.82.14,1.84,1.74,0,3.44,0,6.88.09,10.32,0.06,2.83.4,5.67,0.31,8.49-0.26,8.23-.76,16.46-1,24.69C179,97,179,103.92,179,110.87c0,5.93,0,11.86,0,17.79,0,3.36.1,6.71,0.15,10.07A5.41,5.41,0,0,1,179.06,139.41Z"/><path class="cls-1" d="M33.6,106.56L35,46c0.25,0,.54,0,0.83,0,4.25,0,8.5-.19,12.74-0.09,4.6,0.12,9.2.56,13.8,0.71,3.18,0.11,6.38,0,9.56-.05s6.2-.15,9.3-0.29c7.07-.31,14.13-0.67,21.2-1,3-.14,6-0.23,8.93-0.34,0.86,15.54,0,31-.78,46.76C85.13,96.78,59.69,102.48,33.6,106.56Z"/><path class="cls-1" d="M102.62,107.12c2.88-.58,5.47-1.15,8.09-1.58a2.35,2.35,0,0,1,1.58.72c2.56,2.32,5,4.79,7.6,7q7.63,6.48,15.44,12.75,6.32,5,12.87,9.81c5.86,4.26,11.82,8.38,17.72,12.58,6.16,4.39,12.25,8.86,18.46,13.17,2.12,1.47,3.09,3,2.72,5.75a100.14,100.14,0,0,0-.51,10.87c-0.12,5.27-.15,10.54-0.22,16-0.8-.76-1.49-1.39-2.15-2-3.46-3.38-6.93-6.75-10.36-10.15-4.88-4.84-9.73-9.72-14.62-14.56-1.43-1.42-2.73-3.29-4.48-4-2.47-1-3.71-3.09-5.56-4.6a54.15,54.15,0,0,1-5.41-5.1c-4.78-5.17-9.42-10.46-14.2-15.63-4.33-4.68-8.92-9.13-13.11-13.94-3.73-4.29-7-9-10.58-13.42C105,109.57,103.85,108.49,102.62,107.12Z"/><path class="cls-1" d="M151.52,163.79c-5.63,1.32-11.56,2.71-17.49,4.12-2.06.49-4.11,1-6.16,1.59a1.44,1.44,0,0,1-1.68-.61c-2.41-2.76-5-5.36-7.33-8.2-2.88-3.53-5.57-7.2-8.28-10.87s-5.57-7.67-8.33-11.52c-2-2.73-3.87-5.5-5.84-8.23-0.69-1-1.55-1.79-2.2-2.77-3.18-4.79-6.31-9.62-9.46-14.43-0.31-.47-0.66-0.92-1.12-1.54,2.55-.57,5-1.14,7.49-1.66,3.15-.67,6.31-1.35,9.48-1.91a2.07,2.07,0,0,1,1.5.77c1.81,2.12,3.63,4.24,5.29,6.48a167.61,167.61,0,0,0,15.36,17.78c4.58,4.67,8.77,9.71,13.22,14.5,3.54,3.82,7.24,7.49,10.83,11.26C148.45,160.28,150,162.09,151.52,163.79Z"/><path class="cls-1" d="M187.66,162.9c-3.2-2.32-6.31-4.63-9.48-6.86-7.6-5.35-15.23-10.63-22.82-16-3.76-2.66-7.49-5.36-11.13-8.17-5.64-4.35-11.29-8.7-16.76-13.26-5-4.19-9.79-8.7-14.74-13a3.35,3.35,0,0,1-1.35-3.17c0.31-3.15.52-6.3,0.78-9.64,1.11,0.68,2.13,1.27,3.11,1.92,6.43,4.31,12.9,8.57,19.26,13,4.73,3.28,9.34,6.73,14,10.14Q156,123.37,163.4,129c5.09,3.83,10.17,7.66,15.2,11.56,2.72,2.11,5.35,4.35,8,6.6a2.34,2.34,0,0,1,.64,1.59c0,4.23,0,8.47,0,12.7A6.13,6.13,0,0,0,187.66,162.9Z"/><path class="cls-1" d="M110.91,92.48l-0.73,12.18-7.87,1.7L90,109l-13.64,3c-2,.43-4,0.91-6,1.25-1.45.25-2.67,0.56-2.33,2.28-12.33,3.29-24.61,6.15-37.05,8.72,0.22-4.85.43-9.37,0.63-13.9,0.11-2.44.1-2.45,2.48-2.89,7.39-1.37,14.79-2.71,22.17-4.11q11.4-2.16,22.79-4.4,10.08-2,20.15-4.08c3.67-.76,7.32-1.61,11-2.42A3.68,3.68,0,0,1,110.91,92.48Z"/><path class="cls-1" d="M70.66,114.16c3.83-.83,7.49-1.65,11.16-2.38a1.53,1.53,0,0,1,1,.73c1.83,2.77,3.54,5.62,5.43,8.35,2.22,3.2,4.6,6.27,6.86,9.44,1.9,2.66,3.71,5.39,5.6,8.06q6.34,8.94,12.73,17.84c0.93,1.29,2,2.44,3.12,3.7a1.52,1.52,0,0,1-.43.23c-3.58.54-7.16,1.1-10.75,1.57a1.93,1.93,0,0,1-1.43-.51,22.82,22.82,0,0,1-2.08-2.58c-3.15-4.31-6.35-8.6-9.39-13-1.81-2.61-3.28-5.46-5.05-8.1-2.74-4.07-5.6-8.05-8.42-12.06-2.1-3-4.21-6-6.35-8.95C72.14,115.74,71.44,115.06,70.66,114.16Z"/><path class="cls-1" d="M153.92,167.67l0.82-3.14c2.5,2.48,4.76,4.76,7.07,7,5.53,5.36,11.11,10.66,16.62,16,2.56,2.51,5.09,5.07,7.42,7.79,0.62,0.72.46,2.11,0.65,3.2l-0.39.18c-0.44-.45-0.92-0.87-1.32-1.35a104.57,104.57,0,0,0-14-14c-4.23-3.49-8.33-7.15-12.39-10.84C156.79,171.13,155.43,169.35,153.92,167.67Z"/><path class="cls-1" d="M102.59,165.29c-0.71-1-1.48-1.92-2.14-2.94-4.37-6.81-8.57-13.74-13.11-20.44-3.79-5.59-8-10.91-11.94-16.38-1.42-2-2.71-4-4.07-6A19.44,19.44,0,0,0,69.54,117c-0.81-.86-0.71-1.61,0-2.64a26,26,0,0,1,1.95,2.16q3.6,5,7.12,10.09,5,7.27,10,14.6c2,2.93,3.84,5.93,5.87,8.83,2.66,3.81,5.4,7.57,8.16,11.31,0.93,1.26.42,2.47,0.38,3.71Z"/><path class="cls-1" d="M126.55,173.86a0.12,0.12,0,0,1-.06-0.07c0-3.18,0-3.26,3-4,7.36-1.75,14.73-3.41,22.11-5.1a14.9,14.9,0,0,1,1.67-.2c0.47,1.92,0,2.77-1.72,3.13-3.74.78-7.5,1.42-11.22,2.27-2.52.57-5,1.39-7.48,2.11Z"/><path class="cls-1" d="M117.2,160.65l-0.22,3-12.85,2.3c-0.53-2.47-.1-3.15,2.12-3.51Z"/><path class="cls-1" d="M118.16,161.21l5.88,6.64a12.53,12.53,0,0,0,1.11,1.31,2.2,2.2,0,0,1,.71,2.49,20.07,20.07,0,0,0-.31,2.28L120,167.08a3.73,3.73,0,0,0-.63-0.83C117.53,165,118,163.28,118.16,161.21Z"/></svg>