<svg id="Layer_3" data-name="Layer 3" xmlns="http://www.w3.org/2000/svg" viewBox="0 0 56.69 56.69"><defs><style>.cls-1{fill:#fff;}</style></defs><title>CC_comodicons_small_uploadgallery_NEW</title><path class="cls-1" d="M45,18.42c0,0.29,0,.56,0,0.84s0,0.7-.07,1.05c0,0.16,0,.32,0,0.48s0,0.37-.06.55,0,0.21,0,.32,0,0.41-.06.62-0.08.56-.11,0.85,0,0.5-.05.75c0,0.07,0,.13,0,0.2,0,0.31-.07.62-0.1,0.93,0,0.11,0,.22,0,0.33,0,0.34-.05.67-0.08,1s0,0.39,0,.59,0,0.51-.07.76,0,0.49-.05.74c0,0.06,0,.12,0,0.18,0,0.34-.07.68-0.11,1,0,0.18,0,.36,0,0.54s-0.05.4-.07,0.6,0,0.23,0,.34,0,0.29,0,.43,0,0.55-.06.82,0,0.62-.09.92a4,4,0,0,1-.18.56,2,2,0,0,0-.06.24,0.48,0.48,0,0,1-.3.29,1.68,1.68,0,0,0-.18.15,0.3,0.3,0,0,1-.05.05l-0.6.27-0.62.26-0.74.3L39.79,36l-0.86.4c-0.22.11-.42,0.24-0.64,0.35L37.72,37l-0.85.43L35.7,38l-1,.47-0.83.41-0.61.27-0.88.41-0.19.07-0.88.4-1.08.54-1.1.51-0.56.26-0.85.38L27.17,42l-0.74.34L26,42.58,25.05,43l-0.65.29-0.54.27-0.33.15-0.42.21-0.72.34-0.35.2-0.45.22-0.21.12L20.9,45l-0.71.33c-0.17.09-.32,0.2-0.48,0.29l-0.42.2-0.18.1-0.54.28-0.51.29-0.7.34L17.18,47l-0.51.28c-0.23.11-.48,0.21-0.71,0.33s-0.59.32-.89,0.49l-0.7.41c-0.2.12-.41,0.23-0.62,0.33a0.52,0.52,0,0,1-.62-0.17,0.5,0.5,0,0,1-.08-0.36,2.31,2.31,0,0,0,0-.4,0.92,0.92,0,0,1,0-.13c0-.12.07-0.23,0.09-0.35s0-.13-0.1-0.09a3.28,3.28,0,0,1-.35.08h0a1.61,1.61,0,0,1-.35-0.21,0.46,0.46,0,0,1-.14-0.39,4.12,4.12,0,0,0,0-.51c0-.2,0-0.39,0-0.59s0-.38,0-0.57,0-.14,0-0.21a6.41,6.41,0,0,1,.06-0.83c0-.19,0-0.39,0-0.58s0-.62.06-0.93,0-.68,0-1c0-.11,0-0.23,0-0.34a0.07,0.07,0,0,0,0,0,2.73,2.73,0,0,1,0-.77c0-.33,0-0.65,0-1s0-.39,0-0.59,0-.33,0-0.5,0-.57,0-0.86c0-.11,0-0.22,0-0.33,0-.34,0-0.68,0-1s0-.39,0-0.59,0-.26,0-0.4,0-.48,0-0.71,0-.49,0-0.73,0-.35,0-0.53c0-.38,0-0.76,0-1.14,0-.13,0-0.27,0-0.4s0-.31,0-0.47,0-.31,0-0.46,0-.36,0-0.54,0-.48-0.06-0.72a4.67,4.67,0,0,0,0-.47,8.27,8.27,0,0,0-.12-0.83,6.55,6.55,0,0,1-.12-0.8c0-.22-0.09-0.43-0.13-0.65s-0.07-.42-0.1-0.63-0.05-.43-0.09-0.65-0.12-.55-0.16-0.83,0-.34,0-0.51,0-.37-0.08-0.56a5.06,5.06,0,0,1-.1-0.61,0.33,0.33,0,0,1,.18-0.21,1.46,1.46,0,0,1,.31-0.06l0.43-.12a0.08,0.08,0,0,0,.06-0.12c0-.17-0.08-0.35-0.13-0.52s-0.15-.51-0.22-0.76l-0.12-.42c0-.07,0-0.13-0.07-0.2a0.13,0.13,0,0,1,.13-0.19,4.31,4.31,0,0,0,.67-0.05A4.05,4.05,0,0,0,13.08,20l0.76-.3,1.09-.38,0.37-.16L15.75,19l0.46-.19,0.4-.14,0.57-.18,1.07-.35,1.13-.39,0.87-.29,0.53-.16,0.46-.18,0.57-.2L23,16.55c0.31-.11.6-0.24,0.91-0.34l0.83-.26,0.64-.2,0.82-.25,0.14-.06,1.31-.4,0.62-.2,0.22-.06,0.65-.21a2.6,2.6,0,0,1,.44-0.16A0.86,0.86,0,0,0,30,14.18a0.49,0.49,0,0,0,.18-0.34c0-.18.08-0.36,0.11-0.54a0.54,0.54,0,0,1,.45-0.43c0.25-.08.49-0.17,0.74-0.24l0.86-.22L33,12.23,34,11.91l0.87-.27,1.4-.38L37,11.05,37.32,11l0.43-.11a1.33,1.33,0,0,1,.25,0,2.34,2.34,0,0,1,.44,0,0.62,0.62,0,0,1,.49.34c0.06,0.12.15,0.23,0.21,0.35s0.09,0.27.13,0.41,0.08,0.14.1,0.21a3.07,3.07,0,0,1,.06.36c0,0.13,0,.27,0,0.4s0.07,0.13.14,0.08a0.46,0.46,0,0,1,.48.05,0.31,0.31,0,0,1,.18.25c0,0.13.06,0.25,0.09,0.38s0,0.31.08,0.46,0.08,0.34.11,0.51a7.82,7.82,0,0,1,.16,1.27c0,0.37,0,.73.06,1.1a1.68,1.68,0,0,1,0,.36,2.38,2.38,0,0,0,0,.46,0.08,0.08,0,0,0,.13.07l0.73-.25c0.43-.13.86-0.26,1.29-0.37a4.43,4.43,0,0,1,.77-0.13,0.92,0.92,0,0,1,.82.34,1.29,1.29,0,0,0,.17.15,0.61,0.61,0,0,1,.23.36C44.92,18.16,44.94,18.3,45,18.42ZM31,18.57v0l-0.59.18-1,.31-0.72.21-1.33.44c-0.24.08-.48,0.19-0.72,0.26l-1.35.41-0.76.23L23.49,21l-0.65.24-0.28.1-0.61.2-0.86.33-1.1.41c-0.12,0-.25.07-0.37,0.12l-0.78.35-0.78.33-0.84.33-0.53.23L15.89,24c-0.15.06-.31,0.09-0.45,0.15a0.23,0.23,0,0,0-.12.14,4.24,4.24,0,0,0,0,.48c0,0.28,0,.56,0,0.84s0,0.69,0,1,0,0.68,0,1c0,0.08,0,.16,0,0.23s0,0.36,0,.54,0,0.36,0,.54,0,0.27,0,.4,0,0.32,0,.48,0,0.28,0,.42,0,0.57,0,.86,0,0.35-.05.52c0,0.41,0,.82-0.07,1.23s0,0.73-.07,1.1-0.06.66-.07,1,0,0.62,0,.92,0,0.37,0,.55c0,0.47,0,.94-0.07,1.41s-0.06.83-.09,1.24-0.07,1-.1,1.54c0,0.18,0,.35,0,0.53s0,0.31,0,.46,0,0.51-.07.76,0,0.62-.06.93-0.08.89-.11,1.33c0,0.28,0,.55-0.06.83s0,0.42,0,.63a2.52,2.52,0,0,0,0,.34A4,4,0,0,1,14,47.61c0,0.07,0,.11.08,0.08l0.22-.12,0.41-.22c0.22-.11.43-0.23,0.65-0.34s0.56-.23.83-0.36,0.75-.39,1.12-0.58L18,45.72l0.15-.06,0.53-.3,1.08-.57,1-.51L21.3,44l0.9-.45c0.19-.1.38-0.22,0.58-0.31l0.87-.4,0.25-.11,0.43-.19,0.6-.28L25.43,42l0.31-.15,0.74-.33,0.86-.42,1-.46c0.26-.12.53-0.22,0.78-0.34S29.69,40,30,39.9l0.89-.41,0.28-.12L32,38.95l0.75-.32,0.67-.33,0.81-.36,0.85-.41,0.33-.16L36.28,37l0.7-.36,0.74-.37,0.17-.08,0.78-.41,1.09-.52,0.92-.41,1.16-.49a0.7,0.7,0,0,0,.25-0.14,0.79,0.79,0,0,1,.34-0.2,0.75,0.75,0,0,0,.53-0.5c0-.16.09-0.33,0.12-0.5s0.06-.44.09-0.66,0.06-.47.08-0.7,0.05-.75.08-1.13,0.07-.68.1-1c0-.16,0-0.33,0-0.49s0-.24,0-0.36c0-.3,0-0.61.08-0.91s0.09-.81.12-1.21,0-.82.07-1.22,0.08-.85.12-1.27,0.07-.8.11-1.19,0.08-.67.12-1,0.08-.56.11-0.84,0-.54,0-0.81,0-.52.06-0.79,0-.53,0-0.79A1.07,1.07,0,0,0,44.17,18a0.29,0.29,0,0,0-.2-0.13,3.6,3.6,0,0,0-.82.06c-0.29.11-.62,0.14-0.92,0.26-0.46.17-.94,0.31-1.41,0.47l-0.47.16-0.15,0L39.71,19l-0.89.25-0.7.23-0.55.15-0.8.27-0.68.2-0.42.09A0.23,0.23,0,0,1,35.42,20a0.53,0.53,0,0,0-.19-0.24A2,2,0,0,1,34.65,19c-0.11-.24-0.25-0.47-0.38-0.71s-0.18-.29-0.27-0.43a0.32,0.32,0,0,0-.26-0.11l-0.56.14L33,18l-1,.3-0.75.23Zm9.15-3.19c0-.09-0.07-0.24-0.09-0.39s-0.09-.55-0.14-0.83-0.07-.31-0.12-0.46a0.1,0.1,0,0,0-.14-0.08l-0.26.05-0.76.18L38.14,14l-0.59.13-1.13.3L35,14.8l-1.31.38-1.25.38-0.7.23-0.92.3-0.41.14-0.79.24-0.75.25-0.65.21-0.76.29-1.27.42-1,.3-1,.34-1,.36-0.66.24L22.2,19c-0.28.11-.56,0.24-0.84,0.35s-0.56.18-.83,0.28L19.75,20l-0.61.23-1,.43-0.58.24-0.49.2a9.08,9.08,0,0,0-.93.36c-0.29.15-.6,0.21-0.88,0.39a3.1,3.1,0,0,1-.36.15L14,22.37l-0.76.38c-0.17.08-.34,0.18-0.52,0.24s-0.36.11-.55,0.16a0.12,0.12,0,0,0-.1.15c0.06,0.36.11,0.72,0.16,1.08,0,0.17,0,.34.07,0.5s0.08,0.5.12,0.74,0.06,0.39.1,0.59,0.09,0.45.13,0.67,0.1,0.64.15,1,0.11,0.79.16,1.18,0.07,0.6.1,0.9c0,0.09,0,.19,0,0.28s0,0.39,0,.58,0,0.14,0,.21a4.56,4.56,0,0,0,0,.51,1.77,1.77,0,0,1,0,.37c0,0.24,0,.49,0,0.73s0,0.56,0,.84,0,0.44,0,.66,0,0.44,0,.66,0,0.33,0,.49q0,0.58,0,1.17c0,0.09,0,.18,0,0.27s0,0.4,0,.61,0,0.42,0,.63q0,0.6,0,1.19c0,0.16,0,.32,0,0.48s0,0.37,0,.56,0,0.41,0,.61,0,0.52,0,.78,0,0.52,0,.78,0,0.55,0,.82,0,0.47,0,.7,0,0.41,0,.62,0,0.36,0,.54,0,0.51,0,.77,0,0.24,0,.36,0,0.07,0,.11a0.56,0.56,0,0,0,0,.16,0.14,0.14,0,0,0,.16.12,0.18,0.18,0,0,0,.13-0.07,1.93,1.93,0,0,0,.06-0.38c0-.28,0-0.55,0-0.83s0.06-.58.08-0.87,0-.67.08-1,0.05-.49.07-0.73,0-.6.06-0.9,0.07-.74.1-1.1,0.05-.6.08-0.9,0-.42,0-0.64c0-.45,0-0.89.06-1.34,0-.28,0-0.56.07-0.84,0-.08,0-0.16,0-0.23s0-.4,0-0.6,0-.6.05-0.91,0-.31,0-0.46,0-.19,0-0.29,0-.33,0-0.5,0-.57.06-0.86,0-.42,0-0.64,0-.29,0-0.43,0-.3,0-0.46,0.06-.54.07-0.81,0-.48,0-0.72,0-.39,0-0.59c0-.36,0-0.73,0-1.09s0-.53,0-0.79c0-.08,0-0.16,0-0.24s0-.32,0-0.47c0-.32,0-0.64,0-1a0.89,0.89,0,0,0,0-.33,1.79,1.79,0,0,1,0-.37,2,2,0,0,1,0-.51c0-.28,0-0.57,0-0.85s0-.19.2-0.21a4,4,0,0,0,.56-0.12c0.16,0,.31-0.13.46-0.19l0.27-.09,0.82-.35,1.21-.49,1.12-.45,1.09-.42,0.55-.21,0.87-.3,0.72-.27,1-.32,0.5-.16,0.48-.15,0.76-.26,0.71-.23,0.42-.15,0.46-.13,0.47-.16,1-.31,0.85-.29,1-.31,0.57-.16,0.69-.22,1.11-.35,0.69-.19a6.07,6.07,0,0,0,.59-0.18,0.56,0.56,0,0,1,.57.15l0.27,0.45,0.37,0.65a2.81,2.81,0,0,0,.57.87,0.59,0.59,0,0,0,.5.15c0.19,0,.37-0.09.55-0.14l0.74-.2,0.64-.22,0.85-.25,1-.32a0.31,0.31,0,0,0,.29-0.19,2.57,2.57,0,0,0,.07-0.42c0-.34,0-0.68,0-1S40.17,15.85,40.18,15.39Zm-1.34-2.77h0c0-.15-0.05-0.29-0.1-0.43s-0.11-.24-0.15-0.36a0.38,0.38,0,0,0-.4-0.32H38.1l-0.34,0c-0.28,0-.56.07-0.83,0.14s-0.72.21-1.09,0.31l-1,.29-0.58.18-0.72.21c-0.25.08-.5,0.17-0.75,0.24l-1.08.28-0.3.08-0.24.11a0.55,0.55,0,0,0-.31.38,1.4,1.4,0,0,1-.09.48c-0.08.14-.15,0.3-0.22,0.45a0.31,0.31,0,0,1-.32.2,0.54,0.54,0,0,0-.16,0l-0.42.15-0.74.21-0.76.24-0.62.2-0.4.1-1.45.49-0.27.08-0.53.18c-0.19.06-.38,0.1-0.56,0.17L23,17.19l-0.56.2c-0.22.07-.44,0.12-0.65,0.19L20.65,18l-0.62.2-0.39.15-0.29.11-0.41.11-0.15.05-0.39.13c-0.16.06-.32,0.14-0.48,0.2-0.41.13-.82,0.23-1.23,0.37s-0.73.28-1.09,0.42l-0.3.12-0.62.25-0.58.2-0.57.24-0.3.1-0.53.18-0.22.1a0.11,0.11,0,0,0,0,.09,4,4,0,0,1,.16.49,2.94,2.94,0,0,0,.17.62c0,0.06.06,0.1,0.14,0.05s0.39-.22.6-0.31c0.39-.18.76-0.37,1.16-0.52s0.68-.29,1-0.43l0.64-.27L17,20.41l0.72-.3L18.06,20l0.63-.27,0.62-.23,0.94-.37,1.08-.41,0.3-.09c0.37-.14.74-0.31,1.12-0.43s0.5-.21.76-0.28,0.48-.19.73-0.27l1.07-.34,0.43-.15,0.79-.23c0.19-.06.38-0.15,0.57-0.22l0.18-.05c0.16-.06.31-0.14,0.48-0.2l0.64-.19L29.18,16l0.29-.08,0.55-.2,1.37-.44L32,15.1l0.5-.15,0.79-.23,0.44-.13,0.78-.23L35,14.23l0.56-.18,1.29-.34,0.71-.18,0.55-.14,0.71-.17a0.09,0.09,0,0,0,.08-0.13C38.87,12.94,38.86,12.78,38.84,12.62Z"/></svg>