<svg id="Layer_3" data-name="Layer 3" xmlns="http://www.w3.org/2000/svg" viewBox="0 0 56.69 56.69"><defs><style>.cls-1{fill:#fff;}</style></defs><title>CC_comodicons_small_jewellery</title><path class="cls-1" d="M21.28,12.43c0.12-.22.21-0.42,0.32-0.61s0.25-.38.37-0.57,0.22-.32.31-0.49a0.71,0.71,0,0,0,.05-0.26c0-.2,0-0.4,0-0.6a1.14,1.14,0,0,1,.23-0.59c0.07-.08.1-0.2,0.17-0.28s0.21-.22.32-0.33l0.06,0A0.83,0.83,0,0,1,24,8.45a3.13,3.13,0,0,1,1.27.47,0.94,0.94,0,0,1,.45.39,1.9,1.9,0,0,1,1.1-.12,0.36,0.36,0,0,1,.08,0,1.1,1.1,0,0,0,.4,0c0.48,0.1,1,.13,1.47.23a5.11,5.11,0,0,1,.54.17l1,0.34C30.57,10,30.79,10,31,10.1s0.4,0.2.61,0.29l0.49,0.22a4.48,4.48,0,0,1,.87.67,0.21,0.21,0,0,0,.28,0,1.61,1.61,0,0,1,.69-0.09c0.15,0,.3,0,0.44,0a1.19,1.19,0,0,1,.78.45,1.6,1.6,0,0,1,.28.42,2.42,2.42,0,0,1,.16.68,2.8,2.8,0,0,1-.07.68,1.57,1.57,0,0,1-.66.95l-0.14.1c-0.05,0-.13.06-0.06,0.15a0.14,0.14,0,0,1,0,.07,0.46,0.46,0,0,0,0,.34l0.52-.23a1.11,1.11,0,0,1,.58-0.11c0.12,0,.25,0,0.38,0,0.3,0,.6,0,0.89.07l0.23,0c0.31,0.06.62,0.11,0.93,0.21a6.73,6.73,0,0,1,.87.34,3.26,3.26,0,0,1,.87.6c0.16,0.15.32,0.3,0.47,0.46a1.58,1.58,0,0,1,.34.54c0.08,0.24.2,0.47,0.26,0.72s0.16,0.66.21,1,0,0.5.08,0.75a5.46,5.46,0,0,1-.06.75,1,1,0,0,1-.12.43L41,20.76C41,20.94,41,21,41.12,21.08a2.74,2.74,0,0,1,.33.37l0.61,0.74,0.67,0.86c0.25,0.32.49,0.64,0.73,1s0.23,0.39.35,0.57l0.51,0.76c0.1,0.16.19,0.32,0.29,0.48l0.45,0.65s0,0.1.08,0.15c0.12,0.2.25,0.4,0.36,0.6s0.21,0.41.31,0.62l0.37,0.81c0.15,0.33.3,0.66,0.43,1s0.3,0.82.46,1.23c0.07,0.19.16,0.38,0.23,0.57s0.1,0.34.16,0.51l0.29,0.85c0.1,0.31.21,0.63,0.3,0.95s0.08,0.43.14,0.64a10.39,10.39,0,0,1,.11,1,0.62,0.62,0,0,0,.08.27,0.52,0.52,0,0,1,0,.45c0,0.24,0,.48,0,0.73s0,0.37-.07.55a1.75,1.75,0,0,0,0,.18c0,0.2,0,.4,0,0.6s-0.07.4-.13,0.6-0.16.54-.24,0.8l0,0.06c-0.09.22-.17,0.44-0.27,0.66s-0.12.25-.18,0.37-0.2.43-.3,0.65-0.12.21-.19,0.32a4,4,0,0,0-.34.6,3.89,3.89,0,0,1-.48.77,6.45,6.45,0,0,1-.75.9c-0.21.22-.46,0.4-0.68,0.61s-0.22.26-.33,0.38a1,1,0,0,1-.25.23,2.55,2.55,0,0,0-.57.44,4.58,4.58,0,0,1-.52.43c-0.18.12-.38,0.2-0.56,0.31s-0.23.19-.35,0.27a2.65,2.65,0,0,1-.27.16,0.12,0.12,0,0,1-.09,0,0.39,0.39,0,0,0-.34.11,4.86,4.86,0,0,1-.55.24c-0.21.08-.42,0.13-0.62,0.21s-0.34.18-.51,0.26-0.29.05-.42,0.13c-0.28,0-.56.11-0.84,0.13a1.93,1.93,0,0,0-.6.17,1.05,1.05,0,0,1-.68.14,2.33,2.33,0,0,0-.84,0l-0.82.06-0.52.05-0.61.05c-0.25,0-.51.06-0.76,0.06H33.62a2.61,2.61,0,0,0-.78,0,1.41,1.41,0,0,1-.23,0H32.07l-0.41,0c-0.08,0-.17,0-0.25,0l-0.36-.05H29.76l-1-.11-0.52-.08L27,48l-1-.18c-0.28,0-.56-0.06-0.83-0.12a5.32,5.32,0,0,1-1-.21c-0.15-.06-0.32-0.09-0.48-0.13l-0.81-.23a10.26,10.26,0,0,1-1-.26l0,0c-0.27-.12-0.55-0.23-0.82-0.36L20.16,46l-0.63-.34L18.45,45l-0.65-.41c-0.16-.11-0.31-0.24-0.47-0.35s-0.49-.33-0.73-0.51-0.29-.25-0.45-0.37-0.3-.21-0.43-0.33-0.34-.34-0.51-0.5l-0.43-.48-0.44-.51L14,41.15l-0.51-.6C13.23,40.27,13,40,12.78,39.7s-0.33-.47-0.49-0.7L12,38.63c-0.07-.1-0.14-0.21-0.21-0.32l-0.46-.8,0,0-0.39-.67c-0.1-.17-0.22-0.33-0.31-0.5s-0.21-.42-0.32-0.63-0.21-.37-0.29-0.57c-0.15-.36-0.29-0.73-0.42-1.1s-0.33-.95-0.47-1.43c0-.06,0-0.13,0-0.2C9,32,8.89,31.53,8.81,31.1c0-.23-0.07-0.45-0.09-0.68s-0.07-.57-0.08-0.86,0-.72,0-1.08q0-.3,0-0.59a8.08,8.08,0,0,1,.09-0.83c0.06-.34.15-0.68,0.23-1s0.17-.82.26-1.22c0-.17.12-0.34,0.18-0.51,0.11-.32.19-0.65,0.31-1s0.37-.73.54-1.1l0.07-.15c0.2-.37.41-0.74,0.62-1.11,0.11-.19.23-0.38,0.36-0.57l0.51-.73c0.19-.27.36-0.56,0.56-0.82a6.52,6.52,0,0,1,.71-0.8,5.93,5.93,0,0,0,.51-0.59,0.28,0.28,0,0,0,0-.16c0-.3,0-0.61,0-0.91a8.06,8.06,0,0,1,.3-1.14,4.59,4.59,0,0,1,.25-0.64c0.08-.13.15-0.26,0.22-0.4l0,0A0.94,0.94,0,0,0,15,13.75a4.63,4.63,0,0,1,1-1l1.09-.72L17.2,12a0.13,0.13,0,0,0,.06-0.08c0-.17.17-0.16,0.29-0.24l0.08,0A6.8,6.8,0,0,1,19,11.35a2.82,2.82,0,0,1,.67,0,7.29,7.29,0,0,1,.75.26c0.15,0.11.3,0.23,0.44,0.35l0.16,0.14a0.17,0.17,0,0,1,.11.17A0.35,0.35,0,0,0,21.28,12.43ZM31.37,23.6c-0.09.19-.16,0.35-0.24,0.5s-0.2.39-.32,0.58a2.48,2.48,0,0,1-.59.63,0.64,0.64,0,0,1-.28.16,2.47,2.47,0,0,1-.87,0,1.81,1.81,0,0,1-.86-0.57c-0.14-.14-0.28-0.3-0.43-0.42a2.64,2.64,0,0,0-.36-0.21A2.19,2.19,0,0,0,26.62,24a8.37,8.37,0,0,0-.92,0H25.24l-0.43,0-0.4,0A2.38,2.38,0,0,0,24,24a0.94,0.94,0,0,1-1-.32c-0.2-.23-0.41-0.45-0.6-0.68s-0.29-.38-0.43-0.58l-0.38-.55L21.52,22a2.42,2.42,0,0,1-.36.27,9.62,9.62,0,0,1-.9.35l-0.5.16a1.62,1.62,0,0,1-.54.09,3.5,3.5,0,0,1-.56-0.15c-0.14.06-.29,0.12-0.43,0.19s-0.48.3-.72,0.45l-0.63.4c-0.31.2-.62,0.41-0.92,0.63s-0.46.39-.7,0.59l-0.65.53a0.19,0.19,0,0,0-.09.24,0.3,0.3,0,0,1,0,.25,2.11,2.11,0,0,0-.38.88c0,0.26-.07.52-0.11,0.78a7.11,7.11,0,0,1,0,.73,0.49,0.49,0,0,0,0,.2c0.05,0.25.13,0.49,0.2,0.73a12.07,12.07,0,0,0,.43,1.34,9,9,0,0,0,.46.93q0.26,0.5.54,1C15.76,32.77,15.9,33,16,33.2s0.23,0.31.34,0.47l0.41,0.51L17,34.46c0.14,0.17.26,0.34,0.41,0.5s0.39,0.41.59,0.62,0.33,0.34.5,0.5l0.52,0.46c0.22,0.18.44,0.37,0.67,0.54s0.49,0.35.75,0.51l1.14,0.74,0.44,0.26a9.79,9.79,0,0,0,1,.59,2.82,2.82,0,0,1,.45.27L24,39.71,24.47,40l0.79,0.43,0.54,0.26c0.1,0,.19.12,0.28,0.16l0.85,0.35c0.19,0.09.37,0.2,0.56,0.29L27.8,41.6l0.32,0.1a5.25,5.25,0,0,0,1.05.41,4.92,4.92,0,0,1,.65.18l0.71,0.16L31.1,42.6l0.65,0.14h0l0.61,0.05,0.53,0.08,0.66,0.05,0.52,0c0.11,0,.21,0,0.32,0l0.71,0,0.7,0,0.73-.07,0.48,0,0.54,0,0.75-.1,1.11-.17,0.33-.05a0.89,0.89,0,0,0,.15,0l0.64-.22a1.48,1.48,0,0,1,.35-0.11,1.07,1.07,0,0,0,.49-0.17c0.19-.11.39-0.19,0.57-0.32a5.26,5.26,0,0,0,.6-0.55c0.2-.2.38-0.42,0.56-0.64a0.62,0.62,0,0,0,.09-0.22c0-.16.08-0.32,0.12-0.47l0.1-.38c0-.15.07-0.31,0.12-0.46s0.06-.15.08-0.23,0-.29.07-0.43a5.24,5.24,0,0,0,.11-1.42c0-.21,0-0.42-0.05-0.62-0.05-.38-0.14-0.76-0.22-1.13,0-.07,0-0.13,0-0.2-0.12-.44-0.3-0.86-0.44-1.28l0-.07c-0.12-.28-0.27-0.54-0.41-0.81-0.06-.11-0.1-0.23-0.17-0.33-0.19-.31-0.38-0.62-0.58-0.91s-0.6-.83-0.91-1.23-0.45-.54-0.67-0.81l-0.53-.63c-0.16-.19-0.32-0.38-0.49-0.56s-0.54-.55-0.82-0.82l-0.17-.14c-0.17-.15-0.34-0.31-0.51-0.47a1,1,0,0,1-.31-0.27,0.19,0.19,0,0,0-.07-0.06L37,26.21l-0.8-.63A1,1,0,0,0,36,25.49a0.26,0.26,0,0,0-.23,0,1.76,1.76,0,0,1-.91.24c-0.1,0-.21,0-0.31,0a2,2,0,0,1-1-.19,5.38,5.38,0,0,1-1.29-1.07L31.72,24ZM36.51,25l0.78,0.6q0.38,0.3.74,0.63l1,0.92q0.36,0.34.7,0.69c0.11,0.11.28,0.31,0.38,0.43,0.37,0.45.76,0.89,1.13,1.35s0.54,0.71.81,1.06L42.31,31l0.37,0.58c0.11,0.17.24,0.32,0.34,0.5s0.36,0.64.52,1,0.26,0.61.38,0.92,0.13,0.42.19,0.63,0.16,0.45.21,0.69,0.11,0.56.15,0.84,0.07,0.7.11,1.06-0.06.64-.11,1-0.12.75-.2,1.12c0,0.21-.13.42-0.18,0.63a4.09,4.09,0,0,1-.24.85c-0.07.14-.11,0.3-0.18,0.44s-0.28.5-.42,0.75l-0.07.14a1.73,1.73,0,0,1-.17.28c-0.14.16-.29,0.3-0.43,0.46s-0.25.33-.38,0.49a2,2,0,0,0-.51.49c-0.17.24-.35,0.47-0.53,0.7a1,1,0,0,1-.7.45,1.32,1.32,0,0,0-.27.09,1.85,1.85,0,0,1-.5.16,1.57,1.57,0,0,0-.63.19,1.92,1.92,0,0,1-.5.12c-0.11,0-.23,0-0.34,0l-0.83.18c-0.23,0-.47.06-0.7,0.09L36,45.94,35.17,46a10.2,10.2,0,0,1-1.33.07H33.75c-0.25,0-.49,0-0.74,0s-0.41,0-.62,0a1.61,1.61,0,0,0-.65,0H31.69L31.21,46l-0.58-.06-0.28,0-0.44-.08L29,45.61l-0.24-.07L28,45.37l-0.38-.11c-0.25-.06-0.51-0.11-0.76-0.19s-0.5-.16-0.75-0.25l-0.24-.07-0.56-.22-0.68-.28c-0.08,0-.18,0-0.26-0.07l-0.73-.33-0.81-.35-0.24-.11-0.46-.22-0.6-.32c-0.17-.09-0.36-0.17-0.52-0.27s-0.4-.28-0.59-0.42l-0.67-.47-0.59-.45c-0.13-.1-0.27-0.21-0.4-0.32a0.88,0.88,0,0,0-.44-0.3,7.34,7.34,0,0,1-.63-0.57l-0.72-.65-0.72-.64-0.51-.49c-0.13-.13-0.26-0.27-0.39-0.41S15.14,37.62,15,37.5L14.61,37,14,36.29l-0.32-.42c-0.06-.09-0.11-0.18-0.17-0.27s-0.18-.24-0.26-0.37-0.29-.51-0.44-0.77-0.27-.48-0.39-0.74-0.27-.78-0.42-1.16a1,1,0,0,1,0-.14,11.56,11.56,0,0,1-.23-1.23,7.43,7.43,0,0,1,0-.94s0-.12,0-0.17A7.7,7.7,0,0,1,11.94,29c0-.17.11-0.34,0.15-0.51s0.06-.3.11-0.43c0.12-.32.25-0.64,0.4-1s0.3-.56.45-0.83,0.35-.56.57-0.79a7.78,7.78,0,0,1,.68-0.62c0.31-.27.63-0.51,0.93-0.79a8.17,8.17,0,0,1,.9-0.65c0.32-.23.65-0.44,1-0.65l0.54-.34L18,22.2l-0.42-.4c-0.13-.12-0.28-0.22-0.4-0.34s-0.35-.35-0.53-0.53l-0.38-.37-0.36-.33L15.58,20l-0.3-.26C15,19.47,14.71,19.24,14.42,19L14.32,19a0.62,0.62,0,0,1-.39-0.55s0-.07,0-0.12a5.22,5.22,0,0,0-.77.74l-0.54.74c-0.13.17-.26,0.34-0.38,0.52s-0.17.29-.27,0.44-0.33.47-.48,0.71-0.34.61-.5,0.92-0.26.5-.38,0.76-0.15.47-.26,0.68a4,4,0,0,0-.24.73C10,24.78,10,25,9.9,25.29s-0.11.47-.16,0.71,0,0.34-.08.51-0.1.35-.13,0.53-0.08.6-.11,0.91c0,0.12,0,.25,0,0.37,0,0.32,0,.65,0,1,0,0.06,0,.15,0,0.21,0,0.21,0,.43,0,0.64,0.06,0.44.11,0.88,0.2,1.31s0.2,0.82.32,1.23,0.26,0.81.39,1.22l0.08,0.21c0.12,0.29.25,0.58,0.38,0.86s0.27,0.6.42,0.9c0.07,0.14.16,0.26,0.23,0.4l0.36,0.62,0.52,0.86c0.18,0.29.36,0.59,0.55,0.88s0.27,0.37.42,0.56l0.48,0.62a1.35,1.35,0,0,1,.12.15,3.51,3.51,0,0,0,.5.64c0.14,0.15.29,0.29,0.42,0.44s0.3,0.37.46,0.54,0.34,0.35.51,0.53,0.25,0.29.39,0.41,0.43,0.36.65,0.54c0.06,0,.11.11,0.17,0.15l1,0.68L19,44.6q0.39,0.25.79,0.48c0.19,0.11.4,0.2,0.6,0.29l0.29,0.14,0.45,0.23,0.4,0.19c0.24,0.1.48,0.2,0.73,0.28s0.31,0.07.46,0.11l0.66,0.18L24,46.68c0.32,0.08.63,0.17,1,.24s0.41,0,.62.06l1.13,0.18,0.35,0,0.73,0.15,0.53,0.11,0.35,0.06,0.69,0.06L30,47.63h0.11l1.18,0.05,0.72,0h1.29l1,0,0.29,0,0.78,0,0.35,0c0.17,0,.33,0,0.5,0a6.29,6.29,0,0,0,1-.18,0.25,0.25,0,0,1,.15,0A1.48,1.48,0,0,0,38,47.26c0.11,0,.21-0.08.32-0.1s0.37,0,.55-0.06,0.48-.13.72-0.21l0.26-.09,0.33-.16a8.18,8.18,0,0,0,1-.4c0.16-.1.33-0.17,0.5-0.25s0.26-.1.37-0.17c0.29-.17.58-0.37,0.86-0.56l0.21-.16c0.44-.37.85-0.78,1.29-1.16l0.24-.22a11.87,11.87,0,0,0,1.06-1.23c0.18-.24.31-0.53,0.47-0.79s0.33-.61.48-0.91c0.3-.59.58-1.18,0.84-1.79a1.42,1.42,0,0,1,.11-0.47c0-.21.06-0.42,0.08-0.63s0.06-.69.08-1a1.15,1.15,0,0,0,0-.16,1.45,1.45,0,0,0-.11-0.87,0.8,0.8,0,0,1-.07-0.32c-0.05-.3-0.1-0.6-0.15-0.9s0-.36-0.07-0.53-0.11-.5-0.18-0.74c-0.12-.4-0.25-0.8-0.38-1.2s-0.29-.84-0.43-1.26c-0.08-.24-0.16-0.47-0.25-0.71s-0.23-.54-0.35-0.81l-0.34-.77c-0.11-.25-0.22-0.5-0.35-0.75s-0.21-.37-0.32-0.56-0.15-.32-0.24-0.47-0.27-.43-0.41-0.65l-0.3-.47-0.51-.76c-0.2-.3-0.38-0.61-0.59-0.91s-0.49-.67-0.74-1-0.46-.61-0.71-0.9-0.37-.39-0.57-0.59l-0.13.18c-0.14.18-.26,0.37-0.41,0.53a8,8,0,0,1-.66.63c-0.28.24-.57,0.46-0.87,0.68a1,1,0,0,0-.42.38,1.31,1.31,0,0,0-.47.26c-0.22.16-.48,0.27-0.71,0.42S36.69,24.86,36.51,25Zm-9-5.08v0l0.61-.09,0.5-.09c0.18,0,.36,0,0.54-0.07a4.38,4.38,0,0,1,.46-0.12,2.11,2.11,0,0,0,.65-0.15l0.32-.11a5.23,5.23,0,0,0,.77-0.32,9.45,9.45,0,0,0,1.05-.79L32.52,18a10.68,10.68,0,0,0,.9-1.15c0.11-.16.19-0.34,0.29-0.5A5,5,0,0,0,34,15.6a0.32,0.32,0,0,0,0-.12,8.29,8.29,0,0,0,0-.95c0-.34-0.15-0.67-0.22-1s-0.2-.39-0.31-0.58a6.64,6.64,0,0,0-.44-0.72c-0.22-.21-0.4-0.47-0.62-0.69a2.19,2.19,0,0,0-.31-0.21c-0.09-.06-0.16-0.13-0.25-0.19l-0.41-.22a3.86,3.86,0,0,0-.5-0.25c-0.3-.1-0.61-0.18-0.91-0.27l-0.57-.18-0.28-.07c-0.16,0-.32-0.1-0.49-0.14-0.32-.07-0.64-0.09-1-0.17h0a11.13,11.13,0,0,0-1.15,0,2.29,2.29,0,0,0-.49.1c-0.11,0-.21.08-0.31,0.11a2.87,2.87,0,0,0-.9.35,0.45,0.45,0,0,1-.16.05,1.7,1.7,0,0,0-.23,0c-0.47.17-.93,0.34-1.39,0.53a1.63,1.63,0,0,0-.44.37c-0.19.3-.39,0.6-0.57,0.91s-0.33.6-.49,0.9a0.52,0.52,0,0,1-.19.34,5.54,5.54,0,0,0-.32,1c0,0.15-.07.3-0.09,0.46s0,0.25,0,.37a1.47,1.47,0,0,0,.13.77,1.47,1.47,0,0,0,.33.56,1.25,1.25,0,0,1,.13.13c0.13,0.14.25,0.28,0.39,0.41s0.33,0.3.49,0.46,0.24,0.3.37,0.44a2.18,2.18,0,0,0,.37.28l0.82,0.49c0.2,0.12.41,0.22,0.62,0.32l0.85,0.36c0.16,0.06.32,0.11,0.49,0.16l0.68,0.17h0.8Zm-14.2,7.57h0l-0.07.14c-0.07.16-.16,0.33-0.22,0.5s-0.1.39-.17,0.58A8,8,0,0,0,12.48,30a4.44,4.44,0,0,0,0,1,5.76,5.76,0,0,0,.14.89c0.11,0.48.27,0.95,0.4,1.42a1.81,1.81,0,0,0,.26.54c0.16,0.24.3,0.51,0.45,0.76s0.35,0.54.53,0.8,0.29,0.39.44,0.58,0.24,0.27.36,0.41,0.19,0.28.3,0.41,0.44,0.54.68,0.78c0.53,0.54,1.1,1,1.67,1.53l0.12,0.08a6.57,6.57,0,0,0,.52.41,3.39,3.39,0,0,1,.63.49l0.33,0.28c0.09,0.07.18,0.12,0.26,0.19s0.27,0.29.43,0.4a4.26,4.26,0,0,0,.87.6c0.14,0.1.26,0.24,0.41,0.32,0.49,0.28,1,.54,1.48.78l0.08,0c0.22,0.09.43,0.21,0.65,0.3L24,43.26l0.63,0.28c0.15,0.06.31,0.09,0.46,0.14l1,0.39,0.68,0.22L27,44.36l0.49,0.11,0.23,0.06,0.83,0.19,0.58,0.14L29.92,45l0.73,0.1a6.69,6.69,0,0,0,1.22.12c0.23,0,.47,0,0.7,0l0.58,0,0.72,0h0.73l0.76-.05,0.57,0c0.36,0,.72-0.07,1.08-0.13s0.76-.17,1.14-0.26l0.16,0a2.09,2.09,0,0,0,.3,0c0.35-.1.7-0.22,1.05-0.31a2.25,2.25,0,0,0,1.1-.65,0.71,0.71,0,0,0,.07-0.11,0.41,0.41,0,0,1,.05-0.08l0.47-.44c0.08-.08.15-0.17,0.22-0.26a0.48,0.48,0,0,0-.26,0,3.64,3.64,0,0,1-.66.17c-0.17.07-.36,0.1-0.54,0.16a0.62,0.62,0,0,1-.48.07c-0.07,0-.24.13-0.1-0.29-0.51.57-1.09,0.34-1.64,0.52a2.55,2.55,0,0,1-.64.06c-0.13,0-.25,0-0.38,0s-0.29.06-.44,0.07l-0.91.05H33.79l-0.48,0-0.58,0-0.37-.07-0.77-.09L31,43.37l-0.38-.08L30,43.13,29.55,43c-0.21-.06-0.42-0.11-0.63-0.18s-0.51-.2-0.76-0.3l-0.26-.11c-0.07,0-.15,0-0.22-0.06l-0.39-.2-0.18-.06-0.83-.42c-0.28-.14-0.57-0.25-0.84-0.4s-0.52-.23-0.76-0.4S24.2,40.62,24,40.48l-0.37-.2L23,39.94c-0.15-.08-0.3-0.15-0.45-0.23l-0.74-.45L21,38.73l-0.19-.1-0.37-.28c-0.26-.18-0.53-0.35-0.79-0.54s-0.63-.46-0.94-0.7a7,7,0,0,1-.53-0.47c-0.14-.14-0.27-0.3-0.41-0.44s-0.5-.51-0.75-0.77-0.31-.36-0.46-0.54l-0.39-.47c-0.08-.1-0.17-0.19-0.25-0.3s-0.12-.2-0.18-0.29c-0.18-.26-0.37-0.51-0.54-0.78s-0.41-.7-0.6-1.05-0.27-.55-0.41-0.83S14,30.88,14,30.74s-0.18-.46-0.26-0.7a0.12,0.12,0,0,0-.06-0.11,0.11,0.11,0,0,1-.06-0.1c0-.56-0.31-1.07-0.31-1.64C13.29,28,13.29,27.73,13.29,27.49Zm7.45-10.68a0.59,0.59,0,0,1-.09.14,0.9,0.9,0,0,0-.19,1c0.1,0.36.21,0.71,0.31,1.07s0.35,0.79.55,1.17,0.59,1,.88,1.53l0.16,0.26a10.44,10.44,0,0,0,.91,1.14,0.88,0.88,0,0,0,.41.27,1.89,1.89,0,0,0,.64,0,3.84,3.84,0,0,0,.56-0.15,0.31,0.31,0,0,1,.31.06,0.35,0.35,0,0,0,.3.1h0.82a1.61,1.61,0,0,1,.49.06,9.33,9.33,0,0,1,.95.38,3.51,3.51,0,0,1,.64.46l0.07,0.08a1.22,1.22,0,0,0,.56.39,0.91,0.91,0,0,0,.63.07,0.86,0.86,0,0,0,.48-0.33,3.41,3.41,0,0,0,.26-0.39c0.13-.23.26-0.46,0.38-0.69s0.16-.4.25-0.59L31.4,22c0-.06,0-0.13.06-0.2,0.12-.27.26-0.53,0.38-0.8S32,20.66,32,20.5s0.14-.3.19-0.46a2.38,2.38,0,0,0,0-.31,0.29,0.29,0,0,0,0-.21A0.22,0.22,0,0,0,32,19.39c-0.31.16-.62,0.34-0.94,0.47s-0.9.27-1.34,0.44a0.57,0.57,0,0,1-.21,0,10.06,10.06,0,0,0-1.4.16c-0.14,0-.29.05-0.43,0.06l-0.66,0a3.93,3.93,0,0,1-.64,0,2.45,2.45,0,0,1-.53-0.21l-0.52-.24-0.66-.31-0.55-.28-0.35-.18-0.39-.22L23,18.93a3.28,3.28,0,0,0-.38-0.26,0.81,0.81,0,0,1-.48-0.52,0.19,0.19,0,0,0-.07-0.08c-0.17-.14-0.36-0.26-0.52-0.41S21,17.12,20.74,16.81Zm11.82,2.09,0,0a1,1,0,0,1,.34.69,1.39,1.39,0,0,0,.17.58,0.32,0.32,0,0,1,.07.12,1.15,1.15,0,0,0,.2.53c0.08,0.13.13,0.28,0.21,0.4s0.22,0.23.3,0.36a1.71,1.71,0,0,0,.59.49,7.55,7.55,0,0,0,.66.37,2.14,2.14,0,0,0,.79.25l0.27,0c0.19,0,.39.06,0.58,0.07a4,4,0,0,0,1.11-.14l0.41-.09a3.35,3.35,0,0,0,1.39-.78l0,0a5.17,5.17,0,0,0,.69-1.08c0-.12.08-0.22,0.12-0.34a2.26,2.26,0,0,0,.13-0.42,5.53,5.53,0,0,0,0-.71,3.86,3.86,0,0,0,0-.54c0-.21-0.09-0.42-0.11-0.64a2.63,2.63,0,0,0-.25-0.83,1.87,1.87,0,0,0-.54-0.69c-0.2-.17-0.1-0.78-2.5,2.42,1.67-3.39,1.46-3.16,1.37-3.19l-0.42-.15a4.82,4.82,0,0,0-.55-0.18c-0.21,0-.42-0.06-0.64-0.08a1.66,1.66,0,0,0-.28,0c-0.35,0-.7,0-1.05.07a1.54,1.54,0,0,0-.52.17,4.87,4.87,0,0,0-.57.39,0.3,0.3,0,0,0-.09.14,3.63,3.63,0,0,1-.14.45c-0.15.31-.34,0.6-0.51,0.89s-0.37.5-.58,0.74-0.32.35-.49,0.53ZM14.65,15.4a1.48,1.48,0,0,0-.09.18c0,0.08,0,.17-0.06.26s-0.11.42-.14,0.63,0,0.38,0,.56a1.3,1.3,0,0,0,.1.68,1.65,1.65,0,0,0,.23.45,1.08,1.08,0,0,0,.76.31,3.5,3.5,0,0,0,.81,0,10.08,10.08,0,0,0,1.08-.29A1.59,1.59,0,0,1,17.68,18l0.76-.43c0.15-.09.32-0.15,0.46-0.25s0.35-.28.52-0.42,0.56-.46.85-0.66a0.41,0.41,0,0,0,.1-0.57,4.27,4.27,0,0,1,0-.73A2.51,2.51,0,0,1,20.51,14c0.12-.27.23-0.55,0.34-0.82a0.29,0.29,0,0,0,0-.18,2.14,2.14,0,0,0-.52-0.68,1,1,0,0,0-.25-0.18A2,2,0,0,0,18.94,12c-0.05,0-.14,0-0.08.11a1.44,1.44,0,0,1,.24.49,1,1,0,0,1,0,.81c-0.06.11-.12,0.23-0.18,0.34a2.86,2.86,0,0,1-.28.45c-0.14.17-.32,0.3-0.48,0.45a3.84,3.84,0,0,1-1.36.82c-0.25.1-.53,0.13-0.79,0.21a1.64,1.64,0,0,1-.66.07A1,1,0,0,1,14.65,15.4Zm0.82,3.71,0.37,0.32L16.48,20c0.26,0.25.52,0.5,0.79,0.74s0.48,0.41.72,0.61,0.27,0.25.42,0.37a2.83,2.83,0,0,0,.41.28,0.68,0.68,0,0,0,.93-0.18c0.1,0.22.13,0.14,0.17,0.12l0.55-.22,0.78-.33a0.1,0.1,0,0,0,0-.16l-0.19-.35c-0.14-.26-0.28-0.51-0.42-0.77s-0.28-.58-0.41-0.87c-0.06-.14-0.11-0.28-0.15-0.43l-0.22-.69c0-.11-0.07-0.21-0.1-0.32s0-.17,0-0.25l-0.39.25L19.06,18l-0.63.35-0.58.28c-0.21.1-.43,0.19-0.65,0.27a4,4,0,0,1-.56.13,5.47,5.47,0,0,1-.59.08C15.86,19.12,15.66,19.11,15.46,19.11Zm22,4.34v0H37.4c-0.19,0-.38,0-0.57,0a5.66,5.66,0,0,1-.65-0.06A3.31,3.31,0,0,1,35,23.09a5.85,5.85,0,0,1-1-.56,4.73,4.73,0,0,1-.57-0.47A3.49,3.49,0,0,1,33,21.51a2.67,2.67,0,0,1-.33-0.64,0.47,0.47,0,0,0-.06-0.09l-0.21.51c-0.08.19-.15,0.38-0.24,0.56s-0.18.35-.27,0.53-0.18.41-.28,0.61a0.12,0.12,0,0,0,0,.16L32,23.43l0.69,0.65c0.18,0.18.36,0.36,0.55,0.53a1.69,1.69,0,0,0,.86.4,2.16,2.16,0,0,0,.41,0A1.91,1.91,0,0,0,35,25a4.41,4.41,0,0,0,.8-0.39c0.39-.24.76-0.51,1.13-0.77ZM15.35,15.14h0.1c0.22,0,.44-0.08.65-0.14a3.25,3.25,0,0,0,.64-0.2,8.46,8.46,0,0,0,1.08-.67,4.16,4.16,0,0,0,.64-0.93,0.46,0.46,0,0,0,.05-0.45,0.19,0.19,0,0,1,0-.08,0.19,0.19,0,0,0-.25-0.21l-0.41,0a1.09,1.09,0,0,0-.33.07,3.87,3.87,0,0,0-.43.26l-0.72.49a3.71,3.71,0,0,0-1.24,1.33,0.39,0.39,0,0,0,0,.39A0.26,0.26,0,0,0,15.35,15.14Zm19.15-1.25a1.1,1.1,0,0,0,.42-0.56,1.64,1.64,0,0,0,0-1,0.75,0.75,0,0,0-.29-0.37,1.34,1.34,0,0,0-1-.06c-0.09,0-.11.08,0,0.14a3.08,3.08,0,0,1,.52.83A9.76,9.76,0,0,1,34.49,13.89ZM25.12,9.42l-0.19-.1-0.41-.18a1,1,0,0,0-.85,0,0.84,0.84,0,0,0-.26.25,2.36,2.36,0,0,0-.35.54C23,10,23,10.17,23,10.29s0,0.09.05,0.08,0.41-.12.62-0.19l0.75-.3a2.65,2.65,0,0,0,.26-0.16Z"/><path class="cls-1" d="M23.36,13.84L23.9,14l0.29,0.09,0.4,0.14c0.28,0.12.57,0.22,0.84,0.36s0.59,0.36.88,0.54a1.86,1.86,0,0,0,.4.2,0.62,0.62,0,0,0,.32,0,6.35,6.35,0,0,1,1.41-.23,0.44,0.44,0,0,0,.39-0.29,4.5,4.5,0,0,1,1-1.15c0.27-.23.53-0.47,0.81-0.67l0.07,0c0.29-.17.56-0.39,0.85-0.57a4.46,4.46,0,0,1,.5-0.27,0.27,0.27,0,0,1,.18,0,0.36,0.36,0,0,1,.13.54c-0.34.2-.69,0.39-1,0.61s-0.57.45-.87,0.66a3.67,3.67,0,0,0-.71.7l-0.26.33a0.12,0.12,0,0,0,0,.09,0.1,0.1,0,0,0,.08,0l0.81,0a0.88,0.88,0,0,1,.8.26,0.36,0.36,0,0,1,.08.26,0.26,0.26,0,0,1-.2.22,0.7,0.7,0,0,1-.28,0,2.92,2.92,0,0,0-.48,0H29.2a0.2,0.2,0,0,0-.2.13l-0.28.7a0.79,0.79,0,0,0,.18.85,0.82,0.82,0,0,1-1-.33,4.78,4.78,0,0,0-.71-0.69,3.05,3.05,0,0,0-.5-0.3c-0.59.17-1.17,0.35-1.75,0.54a0.48,0.48,0,0,1-.71,0l-0.07,0a0.16,0.16,0,0,1-.06-0.19A0.53,0.53,0,0,1,24.53,16c0.33-.13.67-0.23,1-0.34L26,15.54a4,4,0,0,0-.34-0.22C25.33,15.17,25,15,24.74,14.88a8.16,8.16,0,0,0-1.8-.47,1.78,1.78,0,0,1-.45-0.14,0.36,0.36,0,0,1-.12-0.19,0.35,0.35,0,0,1,.29-0.51l0.92-1,0.22-.25-0.43.1a0.51,0.51,0,0,1-.36,0,0.38,0.38,0,0,1-.15-0.54,0.12,0.12,0,0,1,.08-0.06l0.52-.07,0.3,0c0.3,0,.6-0.08.89-0.15s0.51-.46.76-0.71,0.23-.29.39-0.19l0.08,0a0.28,0.28,0,0,1,.2.3,0.55,0.55,0,0,1-.13.25,1.12,1.12,0,0,1-.12.13v0l0.25,0,1.09-.09c0.32,0,.65-0.08,1-0.09s0.85,0,1.28,0H30a0.82,0.82,0,0,1,.56.25,0.36,0.36,0,0,1,0,.33,0.28,0.28,0,0,1-.3.12,6.41,6.41,0,0,0-1.57-.17,12.25,12.25,0,0,1-1.66.16L25.85,12a3,3,0,0,1-.54,0,0.62,0.62,0,0,0-.49.22L24.1,13l-0.55.58Zm4.71,2.52,0.29-.63a5.43,5.43,0,0,0-.85.15Z"/><path class="cls-1" d="M37.51,21.71a3.32,3.32,0,0,1-1.38-.23,5.06,5.06,0,0,1-.65-0.35,5,5,0,0,1-.64-0.49,1.54,1.54,0,0,1-.4-0.63,3.11,3.11,0,0,1-.17-1.4,2.34,2.34,0,0,1,.24-0.71,2.57,2.57,0,0,1,1.16-1.09,1.43,1.43,0,0,1,.77-0.21,1.28,1.28,0,0,1,.62.14,2.81,2.81,0,0,0,.5.15,1.55,1.55,0,0,1,.3.13,2.69,2.69,0,0,1,.52.34,2.22,2.22,0,0,1,.6.8,5.7,5.7,0,0,1,.27.7,1.55,1.55,0,0,1,0,.94,1.37,1.37,0,0,1-.23,1.09,1.7,1.7,0,0,1-.45.52,1.86,1.86,0,0,1-1,.27H37.51ZM34.83,19A4,4,0,0,0,35,20.07a2.19,2.19,0,0,0,.71.58c0.14,0.07.25,0.17,0.4,0.25a1.76,1.76,0,0,0,.73.18c0.25,0,.5,0,0.75,0a0.88,0.88,0,0,0,.68-0.33,1,1,0,0,0,.3-0.46c0-.14.12-0.27,0.13-0.4a2.42,2.42,0,0,0,0-1,2.36,2.36,0,0,0-.3-0.71,2.1,2.1,0,0,0-.72-0.61,1.2,1.2,0,0,0-.83-0.17,0.56,0.56,0,0,1-.38,0,0.4,0.4,0,0,0-.25-0.06,3,3,0,0,0-.6.32,2,2,0,0,0-.59.67A1.74,1.74,0,0,0,34.83,19Z"/></svg>