<svg id="INCIDENT_FOLDER" data-name="INCIDENT FOLDER" xmlns="http://www.w3.org/2000/svg" viewBox="0 0 226.77 226.77"><defs><style>.cls-1{fill:#fff;}</style></defs><title>CC_comodicons_small_incidentfolder_NEW</title><path class="cls-1" d="M168.46,63.92c-0.52-1.54-.92-2.91-1.45-4.23-0.45-1.12-1-2.23-2.45-2.39a1.29,1.29,0,0,1-.5-1c-0.13-1.85-.16-3.7-0.27-5.54-0.21-3.49-1.55-4.48-4.95-3.72l-0.47.11c-2.79.65-5.6,1.21-8.36,2C143.28,51,136.56,53,129.84,54.9c-1.57.45-2.82,1.22-3,3.14-0.13,1.19-.74,2.32-0.95,3.51-0.26,1.47-1.11,2-2.49,2.32-8.36,2-16.68,4.13-25,6.17-6.07,1.49-12.16,2.9-18.23,4.38-7.25,1.77-14.51,3.51-21.73,5.39-3.32.86-6.57,2-9.84,3a16.52,16.52,0,0,0,.35,3.47c0.54,1.66.13,2.48-1.59,2.79a1.47,1.47,0,0,0-.93,1,12.41,12.41,0,0,0,0,3c0.79,6.2,1.83,12.37,2.38,18.59,0.61,6.89.84,13.82,1.12,20.73,0.29,7.35.54,14.71,0.61,22.07,0.06,6.62-.39,13.25-0.2,19.87,0.15,5.19.92,10.36,1.46,15.53a2.4,2.4,0,0,0,2.65,2.27,21.17,21.17,0,0,0,3.18-1c3.84-1.53,7.65-3.15,11.49-4.66,1.48-.58,3.06-0.89,4.56-1.43,5.8-2.06,11.56-4.23,17.38-6.23,8.17-2.82,16.38-5.53,24.58-8.28,7-2.35,14-4.63,21-7.08,6.59-2.31,13.12-4.81,19.69-7.2,3.43-1.25,6.92-2.33,10.3-3.7a5.58,5.58,0,0,0,2.68-2.42,23,23,0,0,0,1.71-5.28c1.89-8.35,3.57-16.74,5.6-25.05,2-8,4.14-16,6.45-24,1.41-4.88,3.23-9.65,4.87-14.46,1.07-3.14.82-3.64-2.06-4.34,0.18-1.92.47-3.8,0.51-5.68,0.06-2.74-.53-3.23-3.32-3.07a8.15,8.15,0,0,0-2.35.34c-1,.38-1.34,0-1.49-0.93a9.92,9.92,0,0,0-.4-1.37c-0.42-1.31-1.19-1.79-2.54-1.19a26,26,0,0,1-2.49.82C173.14,61.84,170.39,64,168.46,63.92Z"/><path d="M168.46,63.92c1.93,0.05,4.68-2.08,5.29,2a26,26,0,0,0,2.49-.82c1.35-.6,2.13-0.12,2.54,1.19a9.92,9.92,0,0,1,.4,1.37c0.15,0.91.46,1.31,1.49,0.93a8.15,8.15,0,0,1,2.35-.34c2.79-.16,3.38.33,3.32,3.07,0,1.89-.33,3.77-0.51,5.68,2.87,0.7,3.13,1.2,2.06,4.34C186.24,86.2,184.43,91,183,95.85c-2.3,8-4.48,15.94-6.45,24-2,8.31-3.71,16.71-5.6,25.05a23,23,0,0,1-1.71,5.28,5.58,5.58,0,0,1-2.68,2.42c-3.38,1.37-6.87,2.46-10.3,3.7-6.57,2.39-13.1,4.89-19.69,7.2-7,2.44-14,4.73-21,7.08-8.19,2.76-16.4,5.47-24.58,8.28-5.82,2-11.58,4.17-17.38,6.23-1.5.53-3.08,0.85-4.56,1.43-3.85,1.51-7.65,3.13-11.49,4.66a21.17,21.17,0,0,1-3.18,1,2.4,2.4,0,0,1-2.65-2.27c-0.55-5.17-1.31-10.34-1.46-15.53-0.19-6.61.25-13.25,0.2-19.87-0.06-7.36-.32-14.71-0.61-22.07-0.27-6.92-.51-13.84-1.12-20.73-0.55-6.22-1.59-12.39-2.38-18.59a12.41,12.41,0,0,1,0-3,1.47,1.47,0,0,1,.93-1C49,88.77,49.44,88,48.9,86.3a16.52,16.52,0,0,1-.35-3.47c3.27-1,6.52-2.15,9.84-3,7.22-1.87,14.48-3.62,21.73-5.39,6.07-1.48,12.16-2.89,18.23-4.38,8.35-2,16.67-4.17,25-6.17,1.39-.33,2.23-0.85,2.49-2.32,0.21-1.19.82-2.32,0.95-3.51,0.2-1.92,1.45-2.69,3-3.14C136.56,53,143.28,51,150,49.16c2.76-.76,5.57-1.32,8.36-2l0.47-.11c3.4-.76,4.73.24,4.95,3.72,0.11,1.85.14,3.7,0.27,5.54a1.29,1.29,0,0,0,.5,1c1.48,0.15,2,1.27,2.45,2.39C167.54,61,167.94,62.38,168.46,63.92ZM54.14,186.81c1-.32,1.55-0.47,2.09-0.67,6-2.26,12-4.63,18.09-6.76,4.81-1.69,9.75-3,14.6-4.6,7.89-2.6,15.8-5.18,23.62-8,11.68-4.17,23.3-8.5,34.93-12.8,6.9-2.55,13.78-5.18,20.65-7.82a2,2,0,0,0,1.13-1.1c1.09-4.31,2.13-8.64,3.1-13,0.69-3.07,1.08-6.22,1.89-9.26,2.44-9.19,4.93-18.37,7.56-27.51,1.27-4.42,2.9-8.74,4.32-13.11,0.36-1.12.58-2.28,0.91-3.63a18.05,18.05,0,0,0-2.4.14c-5.44,1.15-10.9,2.25-16.31,3.52q-8.5,2-16.93,4.31c-1.53.42-2.06-.23-2.51-1.34-1-2.36-1-2.37-3.46-2-0.21,0-.42.09-0.62,0.14-6.28,1.46-12.55,3-18.85,4.36-7.3,1.62-14.63,3.05-21.91,4.73-6,1.4-12,3-18,4.58-5.38,1.42-10.74,2.93-16.12,4.38A7.68,7.68,0,0,0,64,107.13c-0.55,2-1.2,4-1.61,6.1-0.75,3.74-1.48,7.49-2,11.26-0.69,5.18-1.15,10.4-1.74,15.59-0.27,2.37-.72,4.71-0.91,7.08-0.4,4.9-.58,9.82-1,14.72C55.95,170.11,55,178.32,54.14,186.81ZM150.78,85.3c5.83-1.45,11.54-2.91,17.28-4.27,4.78-1.14,9.59-2.15,14.39-3.24a1.92,1.92,0,0,0,1.21-.54c0.69-2.53,1.7-5,1-7.71-3.37.63-6.64,1.26-9.93,1.84q-9.37,1.67-18.76,3.3c-6.34,1.1-12.69,2.14-19,3.3-5.46,1-10.91,2.1-16.36,3.17q-6.86,1.35-13.71,2.73c-5.78,1.18-11.56,2.41-17.34,3.57-2.95.59-6,.93-8.86,1.67-5.9,1.5-11.73,3.29-17.63,4.76-1.71.43-2.11,1.24-2.15,2.82-0.09,3.92-.33,7.84-0.53,11.77-0.14,2.65-.33,5.29-0.5,7.94a37,37,0,0,0,1.59-4.86q1.26-4,2.74-7.91a2.63,2.63,0,0,1,1.28-1.36,76.84,76.84,0,0,1,7.69-3c3.68-1.11,7.46-1.91,11.18-2.9,4.69-1.25,9.34-2.69,14.07-3.79,6.77-1.58,13.61-2.88,20.4-4.4,8.77-2,17.51-4,26.27-6C149.2,81.28,149.21,81.29,150.78,85.3ZM52.27,92.24a0.89,0.89,0,0,1,.28-0.18c6.63-2,13.24-4.13,19.9-6.05,4.73-1.36,9.52-2.54,14.31-3.69,8.92-2.14,17.85-4.2,26.78-6.29q10.54-2.46,21.09-4.89c6.56-1.51,13.12-3,19.71-4.44,3.47-.74,7-1.31,10.51-1.84,1.4-.21,2-0.68,1.53-2.14-0.2-.6-0.23-1.25-0.46-1.84-0.8-2.08-1-2.15-3.14-1.68-3.52.77-7.07,1.45-10.57,2.3-9.93,2.42-19.88,4.83-29.77,7.41-8.1,2.11-16.13,4.49-24.2,6.72-10.32,2.86-20.66,5.66-31,8.55-2.74.77-5.38,1.87-8.11,2.64-3.39.95-6.83,1.73-10.26,2.54a1.59,1.59,0,0,0-1.39,2c0.39,3,.74,6,1.09,9,0.31,2.73.54,5.47,0.92,8.19,0.24,1.72.89,3.4,1,5.11,0.23,4.25.22,8.51,0.37,12.76,0.33,9.42.76,18.85,1,28.27,0.08,3.12-.44,6.25-0.41,9.37,0.05,5.51.28,11,.51,16.53,0.07,1.61.37,3.21,0.56,4.82l0.42,0a16.39,16.39,0,0,0,.4-1.84c0.45-4.25,1.08-8.49,1.26-12.75,0.3-7.09.42-14.2,0.39-21.3,0-4.56-.51-9.12-0.64-13.68-0.19-6.73-.06-13.48-0.39-20.2C53.58,107.84,52.85,100.08,52.27,92.24ZM162.42,58.08c-0.18-3-.39-5.79-0.49-8.53,0-1.3-.59-1.84-1.85-1.6-0.83.16-1.64,0.4-2.46,0.59-3.46.81-7,1.5-10.37,2.46-5.42,1.53-10.79,3.23-16.17,4.89a3.38,3.38,0,0,0-2.63,2.65c-0.3,1.44-1,2.8-1.31,4.23A3,3,0,0,1,124.55,65c-3.07.8-6.13,1.63-9.2,2.41-4.55,1.16-9.1,2.34-13.67,3.44-3.69.89-7.43,1.58-11.11,2.5-6.69,1.66-13.35,3.41-20,5.13-6.34,1.64-12.68,3.27-19,5a2,2,0,0,0-1.3,1.07,19,19,0,0,0,.51,3.29C88.13,77.87,124.69,65.84,162.42,58.08ZM59.77,93.27c0.65-.13,1.22-0.2,1.77-0.35,4.28-1.16,8.55-2.38,12.85-3.48,3.18-.82,6.39-1.58,9.61-2.22,5.51-1.09,11.06-2,16.57-3.11,5.71-1.15,11.39-2.5,17.09-3.69,5.5-1.15,11-2.23,16.54-3.29,4.53-.87,9.08-1.66,13.62-2.51,2.81-.52,5.73-0.76,8.4-1.69,5.1-1.78,10.07-3.94,15.07-6a3.65,3.65,0,0,0,1-1.3,3.5,3.5,0,0,0-1.48-.53c-3.3.6-6.58,1.33-9.89,1.95-2.69.5-5.42,0.77-8.09,1.37-5,1.12-10,2.46-15,3.6-6.33,1.44-12.7,2.7-19,4.16s-12.42,3.06-18.63,4.56c-2.66.64-5.35,1.16-8,1.79-3.23.77-6.43,1.64-9.67,2.39-4,.92-8,1.62-11.92,2.66-4.29,1.14-8.51,2.53-12.74,3.88-1.54.49-3,1.15-4.55,1.74,3,18.08,2.28,36.23,2.85,54.32l0.58,0Zm108.95,54.2c-1.7.77-3.07,1.48-4.5,2-2.53,1-5.12,1.77-7.66,2.71-1.64.6-3.21,1.37-4.84,2-4.77,1.78-9.57,3.51-14.35,5.27-3.34,1.23-6.65,2.52-10,3.73q-7.22,2.61-14.46,5.14c-4.39,1.54-8.77,3.11-13.19,4.54-6.07,2-12.19,3.78-18.26,5.75-5.07,1.65-10.14,3.34-15.13,5.23-3.84,1.46-7.55,3.27-11.31,4.94a6.71,6.71,0,0,0-1,.67l0.26,1.61c2.62-1,5.14-2,7.68-2.95,1.92-.72,3.84-1.45,5.78-2.11,2.2-.74,4.46-1.33,6.63-2.13,4.71-1.74,9.35-3.67,14.08-5.32,3.59-1.25,7.33-2.06,10.93-3.28,5.6-1.9,11.12-4,16.7-6,9.54-3.36,19.09-6.67,28.64-10,6.68-2.34,13.34-4.74,20.06-7C167,151.54,168.21,150.12,168.72,147.47Zm-4.24-76.2,0.1,0.5,13.6-2.13-0.91-3.39Z"/><path class="cls-1" d="M54.14,186.81c0.89-8.5,1.81-16.7,2.58-24.92,0.46-4.9.64-9.82,1-14.72,0.19-2.37.64-4.72,0.91-7.08,0.59-5.2,1-10.41,1.74-15.59,0.5-3.78,1.24-7.52,2-11.26,0.41-2.06,1.06-4.07,1.61-6.1a7.68,7.68,0,0,1,5.86-5.66c5.37-1.46,10.73-3,16.12-4.38,6-1.58,12-3.18,18-4.58,7.28-1.68,14.62-3.11,21.91-4.73,6.3-1.4,12.57-2.9,18.85-4.36,0.21,0,.41-0.1.62-0.14,2.51-.42,2.49-0.41,3.46,2,0.45,1.11,1,1.76,2.51,1.34q8.42-2.33,16.93-4.31c5.41-1.27,10.87-2.38,16.31-3.52a18.05,18.05,0,0,1,2.4-.14c-0.33,1.35-.55,2.51-0.91,3.63-1.43,4.38-3.05,8.69-4.32,13.11-2.63,9.14-5.12,18.32-7.56,27.51-0.81,3-1.2,6.19-1.89,9.26-1,4.34-2,8.67-3.1,13a2,2,0,0,1-1.13,1.1c-6.87,2.64-13.75,5.26-20.65,7.82-11.63,4.3-23.25,8.63-34.93,12.8-7.82,2.79-15.73,5.37-23.62,8-4.85,1.6-9.79,2.92-14.6,4.6-6.07,2.13-12.06,4.5-18.09,6.76C55.69,186.35,55.13,186.5,54.14,186.81Z"/><path class="cls-1" d="M150.78,85.3c-1.57-4-1.57-4-5.67-3.09-8.76,2-17.5,4-26.27,6-6.79,1.51-13.63,2.81-20.4,4.4-4.73,1.1-9.37,2.54-14.07,3.79-3.72,1-7.49,1.79-11.18,2.9a76.84,76.84,0,0,0-7.69,3,2.63,2.63,0,0,0-1.28,1.36q-1.47,3.92-2.74,7.91a37,37,0,0,1-1.59,4.86c0.17-2.64.36-5.29,0.5-7.94,0.21-3.92.44-7.84,0.53-11.77,0-1.58.43-2.39,2.15-2.82,5.9-1.48,11.73-3.26,17.63-4.76,2.91-.74,5.92-1.08,8.86-1.67,5.79-1.16,11.56-2.39,17.34-3.57q6.85-1.39,13.71-2.73C126,80.08,131.49,79,137,78c6.33-1.15,12.68-2.19,19-3.3s12.51-2.18,18.76-3.3c3.29-.59,6.57-1.22,9.93-1.84,0.69,2.67-.33,5.18-1,7.71a1.92,1.92,0,0,1-1.21.54c-4.79,1.09-9.61,2.1-14.39,3.24C162.32,82.39,156.6,83.85,150.78,85.3Z"/><path class="cls-1" d="M52.27,92.24c0.58,7.85,1.31,15.6,1.69,23.37,0.33,6.72.21,13.47,0.39,20.2,0.13,4.56.62,9.12,0.64,13.68,0,7.1-.09,14.2-0.39,21.3-0.18,4.26-.81,8.5-1.26,12.75a16.39,16.39,0,0,1-.4,1.84l-0.42,0c-0.19-1.61-.49-3.21-0.56-4.82-0.23-5.51-.46-11-0.51-16.53,0-3.12.49-6.25,0.41-9.37-0.24-9.43-.68-18.85-1-28.27-0.15-4.25-.13-8.51-0.37-12.76-0.09-1.72-.75-3.4-1-5.11-0.38-2.72-.61-5.46-0.92-8.19-0.35-3-.69-6-1.09-9a1.59,1.59,0,0,1,1.39-2c3.43-.81,6.87-1.59,10.26-2.54,2.74-.77,5.38-1.87,8.11-2.64,10.31-2.89,20.65-5.69,31-8.55,8.07-2.23,16.1-4.61,24.2-6.72,9.89-2.58,19.83-5,29.77-7.41,3.5-.85,7-1.54,10.57-2.3,2.17-.47,2.34-0.4,3.14,1.68,0.22,0.59.25,1.24,0.46,1.84,0.5,1.46-.13,1.93-1.53,2.14-3.52.53-7,1.1-10.51,1.84-6.58,1.41-13.14,2.94-19.71,4.44Q124.07,73.56,113.54,76c-8.93,2.08-17.86,4.15-26.78,6.29C82,83.46,77.18,84.64,72.45,86c-6.66,1.92-13.27,4-19.9,6.05A0.89,0.89,0,0,0,52.27,92.24Z"/><path class="cls-1" d="M162.42,58.08c-37.74,7.77-74.3,19.8-111.69,29.68a19,19,0,0,1-.51-3.29,2,2,0,0,1,1.3-1.07c6.33-1.69,12.67-3.32,19-5,6.67-1.72,13.33-3.47,20-5.13,3.68-.91,7.42-1.61,11.11-2.5,4.57-1.1,9.12-2.27,13.67-3.44,3.07-.79,6.14-1.61,9.2-2.41a3,3,0,0,0,2.59-2.19c0.36-1.43,1-2.79,1.31-4.23a3.38,3.38,0,0,1,2.63-2.65c5.38-1.66,10.75-3.36,16.17-4.89,3.42-1,6.91-1.65,10.37-2.46,0.82-.19,1.63-0.43,2.46-0.59,1.27-.25,1.8.3,1.85,1.6C162,52.29,162.24,55,162.42,58.08Z"/><path class="cls-1" d="M59.77,93.27l-3,54.25-0.58,0c-0.57-18.09.11-36.24-2.85-54.32,1.52-.59,3-1.25,4.55-1.74,4.23-1.34,8.45-2.74,12.74-3.88,3.93-1,8-1.74,11.92-2.66,3.23-.75,6.44-1.62,9.67-2.39,2.66-.63,5.36-1.15,8-1.79,6.21-1.5,12.4-3.12,18.63-4.56s12.69-2.72,19-4.16c5-1.14,10-2.48,15-3.6,2.66-.6,5.4-0.86,8.09-1.37,3.3-.62,6.58-1.35,9.89-1.95a3.5,3.5,0,0,1,1.48.53,3.65,3.65,0,0,1-1,1.3c-5,2.07-10,4.23-15.07,6-2.67.93-5.59,1.17-8.4,1.69-4.54.85-9.08,1.64-13.62,2.51-5.52,1.06-11,2.15-16.54,3.29C112,81.61,106.28,83,100.57,84.11c-5.51,1.11-11.06,2-16.57,3.11-3.22.64-6.43,1.4-9.61,2.22-4.3,1.11-8.56,2.32-12.85,3.48C61,93.06,60.41,93.14,59.77,93.27Z"/><path class="cls-1" d="M168.72,147.47c-0.5,2.65-1.67,4.07-3.94,4.83-6.71,2.25-13.38,4.65-20.06,7-9.55,3.34-19.1,6.65-28.64,10-5.58,2-11.1,4.07-16.7,6-3.6,1.22-7.34,2-10.93,3.28-4.74,1.65-9.37,3.59-14.08,5.32-2.18.8-4.43,1.39-6.63,2.13-1.94.66-3.86,1.38-5.78,2.11-2.53,1-5.05,1.94-7.68,2.95L54,189.46a6.71,6.71,0,0,1,1-.67c3.76-1.67,7.47-3.48,11.31-4.94,5-1.9,10.06-3.58,15.13-5.23,6.07-2,12.19-3.78,18.26-5.75,4.42-1.44,8.8-3,13.19-4.54q7.24-2.54,14.46-5.14c3.34-1.21,6.66-2.5,10-3.73,4.78-1.76,9.57-3.49,14.35-5.27,1.63-.61,3.21-1.38,4.84-2,2.54-.94,5.13-1.75,7.66-2.71C165.65,149,167,148.24,168.72,147.47Z"/><path class="cls-1" d="M164.47,71.27l12.79-5,0.91,3.39-13.6,2.13Z"/></svg>