<svg id="flooring_2" data-name="flooring #2" xmlns="http://www.w3.org/2000/svg" viewBox="0 0 226.77 226.77"><defs><style>.cls-1{fill:#fff;}</style></defs><title>CC_comodicons_big_flooring_alt</title><path class="cls-1" d="M101.9,65c-0.08-.38-0.29-0.22-0.5-0.16a1.2,1.2,0,0,1-.39,0,3.49,3.49,0,0,0-1.43-.07,4.37,4.37,0,0,1-1.71.16,8.42,8.42,0,0,0-2.13,0,0.86,0.86,0,0,1-.26,0H95.22l-0.64,0a3,3,0,0,0-1.26,0,3.3,3.3,0,0,1-1,0c-0.1,0-.2-0.08-0.3-0.07L90,65a0.84,0.84,0,0,1-.46,0,2,2,0,0,0-1.1-.16,9.43,9.43,0,0,0-1.28.16c-0.14,0-.3-0.15-0.44-0.14a6.56,6.56,0,0,0-1.08.15,0.76,0.76,0,0,1-.84,0,0.56,0.56,0,0,0-.36-0.1c-0.49,0-1,0-1.47,0s-0.8.1-1.2,0.14a3.08,3.08,0,0,1-.49,0,1.73,1.73,0,0,0-.77,0,2.6,2.6,0,0,1-1.35,0c-0.37,0-.75,0-1.12,0a3.35,3.35,0,0,1-.48.12,1.47,1.47,0,0,0-1.37.12,0.08,0.08,0,0,1-.07,0A0.86,0.86,0,0,0,75,65.13,0.53,0.53,0,0,1,74.77,65a0.83,0.83,0,0,0-.3-0.09,5.06,5.06,0,0,0-2.12.21,0.61,0.61,0,0,1-.34,0A2.48,2.48,0,0,0,71.57,65a11.94,11.94,0,0,1-1.3,0,1.86,1.86,0,0,0-1.26.1,0.52,0.52,0,0,1-.45,0A4,4,0,0,0,66.95,65a3.49,3.49,0,0,0-.85.09l-2,.1c-0.35,0-.7,0-1.05,0-0.74,0-1.48-.1-2.22-0.13-0.53,0-1.06,0-1.59,0s-0.92-.06-1.37,0a6.58,6.58,0,0,1-2.1.06,5.32,5.32,0,0,0-1.43.08,8.51,8.51,0,0,1-1.18,0c-0.65-.06-1.29-0.2-1.95-0.24S50,65,49.39,65l-3.66,0h-0.2c-0.68,0-1.36,0-2-.09a14.14,14.14,0,0,1-1.67-.17c-0.62-.12-1.22-0.31-1.83-0.47a0.41,0.41,0,0,0-.6.37c0,0.23,0,.47,0,0.7a0.74,0.74,0,0,0,.46.72,1.19,1.19,0,0,1,.67,1c0.07,0.73.05,1.46,0,2.19s0,1.26,0,1.89c0,1.23,0,2.46-.07,3.7,0,0.93,0,1.86-.1,2.79s-0.26,1.88-.38,2.82c0,0.32-.07.65-0.09,1,0,0.61,0,1.23-.06,1.84-0.12,1.13-.31,2.26-0.44,3.4-0.08.67-.09,1.35-0.17,2-0.11.91-.31,1.81-0.39,2.72-0.15,1.74-.25,3.49-0.36,5.23,0,0.4,0,.81,0,1.2-0.08.67-.22,1.32-0.32,2a8.82,8.82,0,0,0-.1.89,4.51,4.51,0,0,0-.24,1.61,2.82,2.82,0,0,1,.1.62c0,0.44-.08.54-0.55,0.48-0.66-.09-1.33-0.18-2-0.3a1.2,1.2,0,0,0-1.5,1.33c0,0.29.16,0.57,0.19,0.86,0.05,0.7.09,1.4,0.09,2.1,0,0.54-.06,1.07-0.08,1.61S34,110.32,34,111s0,1.13-.05,1.69-0.1.86-.17,1.28c0,0.18-.12.35-0.14,0.52-0.13,1.21-.27,2.42-0.36,3.63a3,3,0,0,0,.1,1.43A5.61,5.61,0,0,0,34.58,121a1.11,1.11,0,0,0,.88.22c1.07-.23,2.12-0.54,3.18-0.81l2.82-.68c0.73-.17,1.46-0.37,2.2-0.5,1.22-.21,2.45-0.37,3.68-0.56,0.68-.11,1.36-0.26,2-0.36,1-.15,1.93-0.25,2.89-0.4,0.76-.12,1.51-0.28,2.32-0.43,0.88,0.86,1.81,1.76,2.72,2.67,0.48,0.48.93,1,1.4,1.5s0.89,0.85,1.3,1.31c0.64,0.71,1.23,1.46,1.88,2.16,1.11,1.21,2.25,2.39,3.38,3.58,1,1,2,2,3,3.08,0.72,0.75,1.41,1.53,2.15,2.26s1.46,1.38,2.18,2.08,1.45,1.49,2.2,2.2c1.31,1.24,2.65,2.46,4,3.68l1.9,1.74c0.48,0.45,1,.91,1.44,1.36s0.91,0.83,1.38,1.22,1.17,0.92,1.73,1.41,1.15,1.07,1.73,1.59l3.18,2.83c0.62,0.55,1.26,1.08,1.88,1.62q1.54,1.35,3.07,2.71T98,159.15l2.4,2.23c1,0.91,2,1.8,3,2.71,0.63,0.58,1.22,1.22,1.86,1.79,0.83,0.75,1.7,1.46,2.54,2.19,0.34,0.29.65,0.62,1,.89s0.81,0.52,1.21.8a9.4,9.4,0,0,0,1.17.87,1.79,1.79,0,0,1,.84.89,1.28,1.28,0,0,0,1.1.74,8.33,8.33,0,0,0,1.36,0c0.75-.05,1.49-0.15,2.24-0.23a8.66,8.66,0,0,0,1.29-.17q1.48-.4,2.93-0.88c1.33-.44,2.64-0.95,4-1.38s2.91-.89,4.37-1.32c1.12-.33,2.25-0.64,3.38-0.94,1-.26,1.94-0.51,2.91-0.76l3.56-.89,3.44-.9,1.56-.4c0.67-.18,1.33-0.38,2-0.54,0.94-.23,1.89-0.44,2.83-0.66l2.21-.52,0.8-.17,2.87-.71c0.32-.08.65-0.09,1-0.17,0.51-.13,1-0.32,1.53-0.43,0.85-.17,1.71-0.26,2.55-0.45,1.46-.33,2.9-0.71,4.36-1.06,0.76-.18,1.53-0.32,2.29-0.5,1-.23,1.9-0.48,2.86-0.73a6.43,6.43,0,0,1,1.89-.45,5.23,5.23,0,0,0,1.46-.38l0.27-.05a8.49,8.49,0,0,0,.87-0.1c0.41-.09.8-0.22,1.2-0.34s1-.32,1.44-0.45a0.65,0.65,0,0,1,.46,0c0.3,0.19.55,0.44,0.84,0.65,0.61,0.45,1.23.89,1.85,1.32s1.27,0.84,1.89,1.27,1,0.75,1.51,1.13c0.85,0.62,1.71,1.23,2.55,1.86a1.64,1.64,0,0,1,.52.54,2.37,2.37,0,0,0,1.63,1.07,3.82,3.82,0,0,0,.53-0.06,1.44,1.44,0,0,0,1.11-.33,1.31,1.31,0,0,0-.26-1.18,1.71,1.71,0,0,1-.63-1.51,1.56,1.56,0,0,0-.1-0.77,6.47,6.47,0,0,1-.52-2.37c-0.12-.59-0.14-1.2-0.21-1.8s-0.18-1.49-.25-2.23c0-.53,0-1.07-0.09-1.61-0.08-.91-0.18-1.81-0.26-2.72s-0.11-1.61-.16-2.42-0.1-1.39-.15-2.08-0.1-1.45-.14-2.18-0.08-1.41-.08-2.12,0-1.66,0-2.49,0-1.79,0-2.68,0-1.63,0-2.45-0.11-1.81-.13-2.72,0-2,0-3.06q0-2.18,0-4.36c0-.68,0-1.36,0-2,0-.83,0-1.66,0-2.49,0-1,0-2,0-3s0.07-1.78.08-2.66,0-1.89,0-2.83,0.07-1.81.12-2.72c0.06-1.08.15-2.15,0.2-3.23,0-.78.05-1.55,0-2.33s0-1.77,0-2.65-0.09-1.67-.11-2.5,0-1.68,0-2.52,0-1.82,0-2.72a1.56,1.56,0,0,0-.75-1.56,0.45,0.45,0,0,1-.2-0.27c0-.3,0-0.6,0-0.9,0-.58,0-1.17,0-1.74-0.09-1.2-.21-2.4-0.33-3.59,0-.49-0.16-1-0.19-1.47,0-.78,0-1.57,0-2.35s0-1.36,0-2,0-1.49.06-2.24,0-1.24,0-1.85c0-.91.14-1.81,0.15-2.72,0-1.38,0-2.75-.06-4.13a0.36,0.36,0,0,1,.35-0.45,0.78,0.78,0,0,0,.77-0.62,0.73,0.73,0,0,0-.49-0.9,0.78,0.78,0,0,1-.21-0.17,2,2,0,0,0-1.35-.56l-3.3-.14c-0.72,0-1.43-.06-2.15-0.12a1.48,1.48,0,0,1-.82-0.21,0.84,0.84,0,0,0-1-.19,1,1,0,0,1-.31.06l-4.9.19a21.18,21.18,0,0,0-2.86.07,8.88,8.88,0,0,1-1.55-.11,1.68,1.68,0,0,0-1.23.11,5.08,5.08,0,0,0-.58-0.07c-0.39,0-.78,0-1.18,0-0.55,0-1.11-.12-1.66-0.1a2.64,2.64,0,0,0-1.64.17,1,1,0,0,0-1,0,0.08,0.08,0,0,1-.07,0,0.78,0.78,0,0,0-.92-0.18,4.55,4.55,0,0,1-1.07.17c-0.38-.1-0.74,0-1.14-0.09a5.87,5.87,0,0,0-1.87-.1,15.5,15.5,0,0,1-1.81.14,1.26,1.26,0,0,0-.84.13,1.79,1.79,0,0,1-.2-0.09,2.12,2.12,0,0,0-1,0,0.9,0.9,0,0,1-.63.08,4.05,4.05,0,0,0-2,0,1.89,1.89,0,0,1-1,0,0.72,0.72,0,0,0-.85,0,0.28,0.28,0,0,1-.21,0c-0.12,0-.23-0.11-0.35-0.14-0.58-.14-1.15.17-1.75,0s-1.29.18-2,.09a5.51,5.51,0,0,0-.77.1c-0.24,0-.48-0.09-0.72-0.08a4.69,4.69,0,0,0-.51.18,0.85,0.85,0,0,1-1-.15,0.17,0.17,0,0,0-.11,0c-0.5,0-1,0-1.49,0a1.35,1.35,0,0,0-.27.18,0.46,0.46,0,0,1-.33.05,1.16,1.16,0,0,0-1.18-.1c-0.25.23-.41,0.24-0.56-0.12l-0.56.27a1.44,1.44,0,0,0-1.31,0,1.1,1.1,0,0,1-.61.14c-0.31-.25-0.68,0-1-0.2a0.27,0.27,0,0,0-.17,0,2.9,2.9,0,0,1-.53.15,6.55,6.55,0,0,1-.8,0,0.64,0.64,0,0,1-.27,0,1.79,1.79,0,0,0-1.33-.09,8.44,8.44,0,0,1-1.25.13c-0.34,0-.68,0-1,0-0.12,0-.23,0-0.35,0a4.23,4.23,0,0,0-1.45.06,2.17,2.17,0,0,1-1.05.11c-0.68-.06-1.36-0.14-2-0.14s-1.63.08-2.47,0.12c0,0,0-.12,0-0.19a6.72,6.72,0,0,0-.08-1.34,1.61,1.61,0,0,0-1.64-.89,0.51,0.51,0,0,0-.43.58,8.32,8.32,0,0,1,.06,1c0,0.32.21,0.72-.41,0.86a2.77,2.77,0,0,1-.75.06,4.92,4.92,0,0,0-1.54,0c-0.35.11-.69,0.06-1,0.15a16,16,0,0,1-1.6.06,2.82,2.82,0,0,1-.93-0.07,1.94,1.94,0,0,0-1,.07,1.84,1.84,0,0,1-1.16,0,2.27,2.27,0,0,0-1.71,0,4.35,4.35,0,0,0-.62-0.09c-0.28,0-.56,0-0.85.06s-0.4,0-.59,0a7.65,7.65,0,0,1-.85,0,3.28,3.28,0,0,1-.86,0A2.4,2.4,0,0,0,101.9,65Z"/><path d="M101.9,65a2.4,2.4,0,0,1,1.85-.19,3.28,3.28,0,0,0,.86,0,7.65,7.65,0,0,0,.85,0c0.2,0,.4,0,0.59,0s0.56-.06.85-0.06a4.35,4.35,0,0,1,.62.09,2.27,2.27,0,0,1,1.71,0,1.84,1.84,0,0,0,1.16,0,1.94,1.94,0,0,1,1-.07,2.82,2.82,0,0,0,.93.07,16,16,0,0,0,1.6-.06c0.34-.09.68,0,1-0.15a4.92,4.92,0,0,1,1.54,0,2.77,2.77,0,0,0,.75-0.06c0.63-.14.39-0.55,0.41-0.86a8.32,8.32,0,0,0-.06-1,0.51,0.51,0,0,1,.43-0.58,1.61,1.61,0,0,1,1.64.89,6.72,6.72,0,0,1,.08,1.34c0,0.08,0,.15,0,0.19,0.84,0,1.66-.12,2.47-0.12s1.36,0.08,2,.14a2.17,2.17,0,0,0,1.05-.11,4.23,4.23,0,0,1,1.45-.06c0.12,0,.23,0,0.35,0,0.34,0,.68,0,1,0a8.44,8.44,0,0,0,1.25-.13,1.79,1.79,0,0,1,1.33.09,0.64,0.64,0,0,0,.27,0,6.55,6.55,0,0,0,.8,0,2.9,2.9,0,0,0,.53-0.15,0.27,0.27,0,0,1,.17,0c0.29,0.22.66,0,1,.2a1.1,1.1,0,0,0,.61-0.14,1.44,1.44,0,0,1,1.31,0l0.56-.27c0.14,0.36.31,0.35,0.56,0.12a1.16,1.16,0,0,1,1.18.1,0.46,0.46,0,0,0,.33-0.05,1.35,1.35,0,0,1,.27-0.18c0.5,0,1,0,1.49,0a0.17,0.17,0,0,1,.11,0,0.85,0.85,0,0,0,1,.15,4.69,4.69,0,0,1,.51-0.18c0.24,0,.48.09,0.72,0.08a5.51,5.51,0,0,1,.77-0.1c0.67,0.09,1.32-.22,2-0.09s1.17-.18,1.75,0c0.12,0,.23.1,0.35,0.14a0.28,0.28,0,0,0,.21,0,0.72,0.72,0,0,1,.85,0,1.89,1.89,0,0,0,1,0,4.05,4.05,0,0,1,2,0,0.9,0.9,0,0,0,.63-0.08,2.12,2.12,0,0,1,1,0,1.79,1.79,0,0,0,.2.09,1.26,1.26,0,0,1,.84-0.13,15.5,15.5,0,0,0,1.81-.14,5.87,5.87,0,0,1,1.87.1c0.4,0.12.76,0,1.14,0.09a4.55,4.55,0,0,0,1.07-.17,0.78,0.78,0,0,1,.92.18,0.08,0.08,0,0,0,.07,0,1,1,0,0,1,1,0,2.64,2.64,0,0,1,1.64-.17c0.55,0,1.1.08,1.66,0.1,0.39,0,.78,0,1.18,0a5.08,5.08,0,0,1,.58.07,1.68,1.68,0,0,1,1.23-.11,8.88,8.88,0,0,0,1.55.11,21.18,21.18,0,0,1,2.86-.07l4.9-.19a1,1,0,0,0,.31-0.06,0.84,0.84,0,0,1,1,.19,1.48,1.48,0,0,0,.82.21c0.71,0.06,1.43.08,2.15,0.12l3.3,0.14a2,2,0,0,1,1.35.56,0.78,0.78,0,0,0,.21.17,0.73,0.73,0,0,1,.49.9,0.78,0.78,0,0,1-.77.62,0.36,0.36,0,0,0-.35.45c0,1.38.07,2.75,0.06,4.13,0,0.91-.11,1.81-0.15,2.72,0,0.62,0,1.23,0,1.85s0,1.49-.06,2.24,0,1.36,0,2,0,1.57,0,2.35c0,0.49.14,1,.19,1.47,0.12,1.2.24,2.39,0.33,3.59,0,0.58,0,1.16,0,1.74,0,0.3,0,.6,0,0.9a0.45,0.45,0,0,0,.2.27,1.56,1.56,0,0,1,.75,1.56c-0.09.9,0,1.81,0,2.72s0,1.68,0,2.52,0.08,1.67.11,2.5,0,1.77,0,2.65,0,1.56,0,2.33c-0.05,1.08-.14,2.15-0.2,3.23-0.05.9-.1,1.81-0.12,2.72s0,1.89,0,2.83-0.06,1.78-.08,2.66,0,2,0,3c0,0.83,0,1.66,0,2.49,0,0.68,0,1.36,0,2q0,2.18,0,4.36c0,1,0,2,0,3.06s0.11,1.81.13,2.72,0,1.63,0,2.45,0,1.79,0,2.68,0,1.66,0,2.49,0,1.41.08,2.12,0.09,1.45.14,2.18,0.1,1.39.15,2.08,0.09,1.61.16,2.42,0.18,1.81.26,2.72c0,0.53,0,1.07.09,1.61,0.07,0.75.17,1.49,0.25,2.23s0.09,1.21.21,1.8a6.47,6.47,0,0,0,.52,2.37,1.56,1.56,0,0,1,.1.77,1.71,1.71,0,0,0,.63,1.51,1.31,1.31,0,0,1,.26,1.18,1.44,1.44,0,0,1-1.11.33,3.82,3.82,0,0,1-.53.06,2.37,2.37,0,0,1-1.63-1.07,1.64,1.64,0,0,0-.52-0.54c-0.84-.63-1.7-1.24-2.55-1.86-0.51-.37-1-0.76-1.51-1.13s-1.27-.84-1.89-1.27-1.24-.88-1.85-1.32c-0.29-.21-0.54-0.46-0.84-0.65a0.65,0.65,0,0,0-.46,0c-0.48.14-1,.31-1.44,0.45s-0.8.25-1.2,0.34a8.49,8.49,0,0,1-.87.1l-0.27.05a5.23,5.23,0,0,1-1.46.38,6.43,6.43,0,0,0-1.89.45c-1,.24-1.9.5-2.86,0.73-0.76.18-1.53,0.32-2.29,0.5-1.45.35-2.9,0.73-4.36,1.06-0.84.19-1.71,0.27-2.55,0.45-0.52.1-1,.3-1.53,0.43-0.32.08-.65,0.09-1,0.17l-2.87.71-0.8.17-2.21.52c-0.94.22-1.89,0.42-2.83,0.66-0.67.16-1.33,0.37-2,.54l-1.56.4-3.44.9-3.56.89c-1,.25-1.94.49-2.91,0.76-1.13.3-2.25,0.61-3.38,0.94-1.46.43-2.92,0.85-4.37,1.32s-2.65.94-4,1.38q-1.45.48-2.93,0.88a8.66,8.66,0,0,1-1.29.17c-0.75.08-1.49,0.18-2.24,0.23a8.33,8.33,0,0,1-1.36,0,1.28,1.28,0,0,1-1.1-.74,1.79,1.79,0,0,0-.84-0.89,9.4,9.4,0,0,1-1.17-.87c-0.39-.28-0.82-0.51-1.21-0.8s-0.66-.6-1-0.89c-0.85-.73-1.71-1.44-2.54-2.19-0.64-.57-1.23-1.21-1.86-1.79-1-.91-2-1.8-3-2.71L98,159.15q-1.46-1.34-2.93-2.66T92,153.78c-0.62-.55-1.26-1.08-1.88-1.62l-3.18-2.83c-0.58-.52-1.14-1.08-1.73-1.59s-1.16-.93-1.73-1.41-0.92-.81-1.38-1.22-1-.91-1.44-1.36L78.76,142c-1.33-1.23-2.66-2.44-4-3.68-0.75-.71-1.46-1.47-2.2-2.2s-1.47-1.37-2.18-2.08-1.43-1.51-2.15-2.26c-1-1-2-2-3-3.08-1.13-1.19-2.27-2.37-3.38-3.58-0.65-.7-1.24-1.45-1.88-2.16-0.41-.46-0.87-0.87-1.3-1.31s-0.92-1-1.4-1.5c-0.91-.91-1.84-1.81-2.72-2.67-0.81.15-1.56,0.31-2.32,0.43-1,.15-1.93.26-2.89,0.4-0.68.1-1.36,0.25-2,.36-1.23.19-2.46,0.35-3.68,0.56-0.74.13-1.47,0.32-2.2,0.5l-2.82.68c-1.06.27-2.11,0.58-3.18,0.81a1.11,1.11,0,0,1-.88-0.22,5.61,5.61,0,0,1-1.18-1.51,3,3,0,0,1-.1-1.43c0.09-1.21.23-2.42,0.36-3.63,0-.18.11-0.35,0.14-0.52,0.07-.43.14-0.85,0.17-1.28s0-1.12.05-1.69,0.06-1.26.09-1.89,0.09-1.07.08-1.61c0-.7,0-1.4-0.09-2.1,0-.29-0.15-0.57-0.19-0.86a1.2,1.2,0,0,1,1.5-1.33c0.66,0.12,1.32.21,2,.3,0.46,0.06.57,0,.55-0.48a2.82,2.82,0,0,0-.1-0.62,4.51,4.51,0,0,1,.24-1.61,8.82,8.82,0,0,1,.1-0.89c0.1-.66.24-1.32,0.32-2,0-.4,0-0.8,0-1.2,0.11-1.74.21-3.49,0.36-5.23,0.08-.91.28-1.81,0.39-2.72,0.08-.67.09-1.35,0.17-2,0.13-1.13.32-2.26,0.44-3.4,0.06-.61,0-1.23.06-1.84,0-.33,0-0.65.09-1,0.13-.94.3-1.88,0.38-2.82s0.08-1.86.1-2.79c0-1.23,0-2.46.07-3.7,0-.63,0-1.26,0-1.89s0-1.47,0-2.19a1.19,1.19,0,0,0-.67-1,0.74,0.74,0,0,1-.46-0.72c0-.23,0-0.47,0-0.7a0.41,0.41,0,0,1,.6-0.37c0.61,0.16,1.21.35,1.83,0.47a14.14,14.14,0,0,0,1.67.17c0.68,0,1.36.06,2,.09h0.2l3.66,0c0.63,0,1.26-.08,1.88,0s1.3,0.18,1.95.24a8.51,8.51,0,0,0,1.18,0,5.32,5.32,0,0,1,1.43-.08,6.58,6.58,0,0,0,2.1-.06c0.45,0,.91,0,1.37,0s1.06,0,1.59,0c0.74,0,1.48.09,2.22,0.13,0.35,0,.7,0,1.05,0l2-.1A3.49,3.49,0,0,1,66.95,65a4,4,0,0,1,1.62.19,0.52,0.52,0,0,0,.45,0,1.86,1.86,0,0,1,1.26-.1,11.94,11.94,0,0,0,1.3,0,2.48,2.48,0,0,1,.44.11,0.61,0.61,0,0,0,.34,0A5.06,5.06,0,0,1,74.47,65a0.83,0.83,0,0,1,.3.09,0.53,0.53,0,0,0,.21.08,0.86,0.86,0,0,1,1.14.11,0.08,0.08,0,0,0,.07,0,1.47,1.47,0,0,1,1.37-.12A3.35,3.35,0,0,0,78,65c0.37,0,.74,0,1.12,0a2.6,2.6,0,0,0,1.35,0,1.73,1.73,0,0,1,.77,0,3.08,3.08,0,0,0,.49,0c0.4,0,.8-0.11,1.2-0.14s1,0,1.47,0a0.56,0.56,0,0,1,.36.1,0.76,0.76,0,0,0,.84,0,6.56,6.56,0,0,1,1.08-.15c0.14,0,.3.15,0.44,0.14a9.43,9.43,0,0,1,1.28-.16,2,2,0,0,1,1.1.16A0.84,0.84,0,0,0,90,65l2-.2c0.1,0,.2.07,0.3,0.07a3.3,3.3,0,0,0,1,0,3,3,0,0,1,1.26,0l0.64,0h0.26a0.86,0.86,0,0,0,.26,0,8.42,8.42,0,0,1,2.13,0,4.37,4.37,0,0,0,1.71-.16,3.49,3.49,0,0,1,1.43.07,1.2,1.2,0,0,0,.39,0C101.61,64.77,101.82,64.6,101.9,65ZM56.12,115.91a1.74,1.74,0,0,0,.16.24L58,117.9c0.15,0.15.27,0.33,0.42,0.47,0.49,0.44,1,.83,1.46,1.31,0.91,1,1.77,2,2.65,2.94,0.42,0.47.81,1,1.24,1.42,0.61,0.64,1.26,1.25,1.88,1.88,0.78,0.8,1.54,1.62,2.32,2.42s1.4,1.39,2.09,2.1c1.1,1.14,2.17,2.3,3.29,3.42,0.73,0.74,1.53,1.41,2.28,2.14s1.55,1.58,2.35,2.34,1.4,1.2,2.08,1.82,1.38,1.37,2.1,2c1,0.94,2.13,1.84,3.19,2.75l1.52,1.32,2.39,2.13,2,1.73c0.76,0.68,1.5,1.37,2.27,2,1,0.83,1.95,1.64,2.91,2.47,0.63,0.54,1.23,1.11,1.85,1.67l2.07,1.89,2.8,2.51,2.36,2.16q0.85,0.77,1.71,1.52l2.12,1.82c0.48,0.41.93,0.84,1.42,1.24s1.14,0.93,1.74,1.35a4,4,0,0,0,1.47.87,6.74,6.74,0,0,0,2.24-.17c1-.2,2-0.52,3.05-0.78,0.35-.09.72-0.11,1.06-0.23,0.72-.24,1.42-0.52,2.13-0.76,0.39-.13.8-0.22,1.19-0.35s1-.42,1.58-0.58c1.21-.35,2.43-0.67,3.64-1,1-.28,2-0.59,3-0.85,1.17-.31,2.34-0.63,3.52-0.88a5.19,5.19,0,0,0,1.76-.52,0.38,0.38,0,0,1,.11,0c0.81-.18,1.62-0.36,2.42-0.55s1.89-.5,2.84-0.74c0.69-.17,1.41-0.27,2.08-0.5a11.27,11.27,0,0,1,1.88-.53c0.76-.12,1.5-0.36,2.26-0.54,0.38-.09.78-0.13,1.16-0.22,0.68-.16,1.35-0.34,2-0.52l1.48-.37c0.28-.07.55-0.17,0.83-0.23l3.24-.68c0.77-.17,1.54-0.37,2.31-0.54,0.32-.07.65-0.08,1-0.16,1-.23,1.91-0.48,2.86-0.72s1.64-.38,2.45-0.59c1.15-.31,2.31-0.58,3.43-1a11,11,0,0,0,2.62-.85,1.55,1.55,0,0,1,.57-0.12,5.54,5.54,0,0,0,.77-0.13c0.46-.15.54-0.43,0.23-0.8a6.68,6.68,0,0,0-.7-0.68c-1.2-1.07-2.39-2.15-3.6-3.21-0.76-.67-1.54-1.31-2.33-1.95s-1.39-1-2.06-1.6c-1.16-1-2.29-2-3.44-3q-1.14-1-2.31-1.93c-0.45-.37-0.93-0.69-1.37-1.06-0.67-.57-1.3-1.16-2-1.74s-1.4-1.16-2.09-1.76c-1.26-1.08-2.5-2.19-3.76-3.27-1-.88-2.09-1.74-3.13-2.62q-1.28-1.08-2.54-2.18c-0.73-.64-1.44-1.31-2.16-2-0.37-.33-0.75-0.65-1.11-1s-1-1-1.46-1.44c-0.86-.78-1.73-1.54-2.6-2.31s-1.68-1.45-2.47-2.22c-1.19-1.14-2.33-2.32-3.5-3.48-0.46-.45-0.94-0.87-1.39-1.33-0.9-.91-1.78-1.83-2.68-2.74s-1.89-1.86-2.84-2.79-2-1.9-3-2.84c-0.81-.77-1.62-1.54-2.46-2.28a2.07,2.07,0,0,0-1.7-.69c-1.58.27-3.16,0.6-4.73,0.91-0.47.09-.94,0.21-1.42,0.3-0.64.11-1.3,0.18-1.94,0.31-1.07.21-2.14,0.46-3.21,0.69l-2.23.48-4,.84-2.29.48c-0.51.11-1,.24-1.53,0.33-0.9.16-1.81,0.29-2.71,0.45s-1.52.32-2.28,0.46-1.71.28-2.56,0.44c-1.22.23-2.42,0.49-3.64,0.73l-3,.58c-0.41.08-.83,0.1-1.23,0.2-1,.25-2,0.52-3.08.72s-2.15.5-3.23,0.74l-2.36.52-4,.81c-1,.21-2.06.46-3.1,0.66-1.41.26-2.83,0.48-4.24,0.73-1.11.2-2.22,0.41-3.33,0.62C56.68,115.76,56.42,115.83,56.12,115.91Zm63.54-49.7c0,0.26,0,.46,0,0.67,0,0.43,0,.87,0,1.3,0,0.84-.09,1.68-0.11,2.52,0,0.55,0,1.1,0,1.65-0.06,1-.17,2.05-0.21,3.08s0,1.87,0,2.8c0,0.72-.07,1.44-0.1,2.17q0,0.76,0,1.53c0,0.46,0,.91,0,1.37s0.08,1,.14,1.46a5.82,5.82,0,0,0,.25,1.43,3.57,3.57,0,0,1,.18,1.35,1.76,1.76,0,0,0,.26,1,17.06,17.06,0,0,0,1.94,1.9c1,0.8,2,1.51,3,2.3,1.38,1.13,2.73,2.3,4.1,3.44s2.56,2.13,3.86,3.17,2.51,2,3.77,3q1.51,1.21,3,2.44c0.7,0.58,1.39,1.17,2.1,1.74,1.22,1,2.45,1.95,3.66,2.94,1.36,1.11,2.7,2.26,4.06,3.37,1.19,1,2.42,1.91,3.61,2.88,1.38,1.13,2.75,2.29,4.12,3.44,0.2,0.17.4,0.35,0.61,0.51,0.81,0.59,1.64,1.16,2.42,1.78s1.77,1.5,2.67,2.22c0.72,0.57,1.49,1.08,2.19,1.67s1.14,1.1,1.74,1.62q2.61,2.27,5.25,4.51c0.54,0.46,1.1.9,1.65,1.34,0.84,0.68,1.68,1.34,2.51,2s1.47,1.24,2.21,1.85c0.53,0.43,1.08.84,1.6,1.28s0.91,0.81,1.36,1.21,1,0.9,1.54,1.33,0.77,0.62,1.26,1c0-.44.05-0.74,0-1,0-.87,0-1.73,0-2.6,0-2.27,0-4.53,0-6.8,0-1.63,0-3.26-.07-4.89,0-.62-0.07-1.25,0-1.87,0-.95.17-1.9,0.2-2.84,0-1.75.06-3.5,0.07-5.26,0-2.26,0-4.53,0-6.79,0-1.72.22-3.44,0.3-5.17,0.06-1.31.07-2.63,0.09-3.95,0-1,0-2,0-3a13.63,13.63,0,0,0-.3-3c-0.25-1.16-.48-2.32-0.63-3.49-0.12-1-.11-2-0.18-3s-0.18-2.23-.25-3.35-0.14-1.94-.18-2.91,0-1.86,0-2.8,0.11-1.93.13-2.89c0-1.17,0-2.35,0-3.53,0-.69,0-1.39,0-2.08s0-1.64.05-2.47a1.2,1.2,0,0,0-.08-0.72,0.77,0.77,0,0,1-.13-0.88c0.1-.3,0-0.37-0.25-0.39-0.43-.05-0.86-0.1-1.3-0.11-1.33,0-2.65,0-4-.06-0.91,0-1.81,0-2.72,0-0.52,0-1-.16-1.55-0.16-1.06,0-2.12.05-3.18,0.05s-1.91,0-2.87-.07c-1.72,0-3.44-.08-5.16-0.11-1.09,0-2.18,0-3.28,0l-6.64,0c-1.12,0-2.24.06-3.36,0.09-2.18,0-4.37.07-6.55,0.12-1.47,0-2.94.11-4.42,0.14-0.46,0-.92-0.06-1.37,0-1.26,0-2.52.12-3.79,0.17-0.69,0-1.39,0-2.08,0s-1.63.06-2.45,0.07c-1.26,0-2.52,0-3.79,0-0.74,0-1.47.1-2.21,0.12S120.55,66.2,119.66,66.2ZM116.73,87a5.07,5.07,0,0,0,.25-1c0-.87,0-1.75,0-2.62s-0.12-1.68-.1-2.52c0-1.21.12-2.43,0.19-3.64,0-.66.08-1.31,0.11-2,0-.32,0-0.63.05-0.95,0.07-.84.15-1.68,0.21-2.51s0.06-1.53.08-2.29c0-1,0-2,0-2.95a0.39,0.39,0,0,0-.27-0.27c-1.58,0-3.15,0-4.73.06l-5.06.07-4.51.07h-2.8l-3,.06H93.4l-3.8,0-2.84.07-3.79,0c-0.36,0-.73.1-1.09,0.1-0.93,0-1.86-.1-2.79-0.11s-2,.06-3,0.07l-4.46,0c-0.7,0-1.41,0-2.11,0l-5.41-.06c-1,0-2.1,0-3.15,0-1.66,0-3.33.05-5,.06s-3.32,0-5,0H46.86l-3.4,0c-0.5,0-.57.06-0.58,0.56s0,1.1,0,1.66c0,0.76,0,1.52,0,2.28,0,1,0,1.94-.05,2.92,0,0.66-.07,1.31-0.11,2-0.05,1.08-.09,2.16-0.16,3.23-0.06.92-.16,1.83-0.24,2.75,0,0.56-.07,1.13-0.13,1.69-0.09,1-.19,1.94-0.29,2.91-0.07.67-.13,1.35-0.21,2s-0.19,1.28-.26,1.92c-0.09.84-.18,1.68-0.24,2.52a21.36,21.36,0,0,0-.1,2.31c0,0.86.19,1.72,0.24,2.59a4,4,0,0,1-.2,1.06,13,13,0,0,0-.38,1.63,12.16,12.16,0,0,0,0,1.85,0.36,0.36,0,0,0,.22.26c0.49,0,1-.11,1.47-0.18l1.83-.28,2.59-.44,1.72-.32c0.42-.07.84-0.12,1.25-0.21s0.94-.26,1.41-0.35c0.75-.14,1.51-0.2,2.26-0.35,1.09-.22,2.16-0.49,3.25-0.71,0.79-.16,1.6-0.22,2.36-0.45a18.72,18.72,0,0,1,3.26-.73c0.24,0,.46-0.19.7-0.24,0.81-.16,1.63-0.29,2.44-0.46,0.47-.1.93-0.26,1.41-0.37,0.81-.18,1.62-0.32,2.43-0.52s1.38-.4,2.08-0.57,1.39-.27,2.08-0.41c0.47-.1.94-0.24,1.41-0.34s1-.18,1.51-0.28,1.12-.26,1.69-0.37c0.76-.14,1.53-0.23,2.29-0.39,0.92-.2,1.83-0.47,2.75-0.68,1.16-.26,2.32-0.49,3.48-0.75,1-.22,2-0.46,2.95-0.71,0.7-.18,1.4-0.38,2.1-0.57L92.38,92c0.94-.22,1.88-0.43,2.81-0.67,1.2-.31,2.4-0.64,3.6-1,0.7-.18,1.41-0.31,2.11-0.5a4.61,4.61,0,0,1,1-.24,24.36,24.36,0,0,0,2.53-.38,0.36,0.36,0,0,0,.2-0.17c0.18-.29.35-0.29,0.57,0a0.46,0.46,0,0,1,.7-0.27,1.08,1.08,0,0,0,.53.09,12.18,12.18,0,0,0,1.26-.19,1.19,1.19,0,0,0,.62-0.24A2.62,2.62,0,0,1,110,88a14.23,14.23,0,0,1,1.5-.09,0.78,0.78,0,0,0,.75-0.36,0.47,0.47,0,0,1,.28-0.11c0.46-.1.91-0.21,1.37-0.28,0.69-.12,1.39-0.22,2.08-0.32a0.7,0.7,0,0,1,.19,0Zm0.36,3.55c0.1-.93-0.33-1.12-0.85-1.13a12.83,12.83,0,0,0-1.61.11c-1.41.16-2.82,0.32-4.22,0.52-0.81.12-1.61,0.34-2.42,0.48s-1.45.2-2.17,0.32q-1.56.26-3.11,0.56c-1,.2-2.05.38-3.06,0.63-1.45.35-2.88,0.75-4.33,1.11L90.7,94.33l-4.2,1q-1.44.35-2.88,0.67c-0.94.21-1.88,0.39-2.82,0.59l-3.67.76L75,97.87c-1,.21-2,0.39-3,0.62s-2.26.56-3.39,0.83c-0.82.19-1.66,0.35-2.48,0.54-0.45.1-.88,0.27-1.33,0.37l-4.55,1c-0.6.14-1.19,0.32-1.8,0.44s-1.22.17-1.82,0.3c-1,.22-2.07.49-3.12,0.7s-2,.35-3,0.52c-0.33.06-.68,0.06-1,0.13-0.84.18-1.68,0.41-2.52,0.58s-1.7.27-2.56,0.42-1.68.3-2.52,0.46l-3.39.67c-0.29.06-.58,0.13-0.87,0.16-0.63.07-.76,0.17-0.82,0.76,0,0.42-.1.84-0.13,1.27s-0.08,1-.09,1.53c0,1.08,0,2.16,0,3.24,0,0.91-.18,1.82-0.28,2.73-0.05.48-.1,1-0.14,1.43s-0.07.75-.09,1.12a0.31,0.31,0,0,0,.37.38l2.15-.21a5.72,5.72,0,0,0,.7-0.11c0.72-.17,1.42-0.38,2.15-0.51,1.18-.21,2.38-0.35,3.56-0.57s2.27-.49,3.41-0.73c0.88-.18,1.76-0.34,2.63-0.53a1.41,1.41,0,0,0,1.07-.72,1.27,1.27,0,0,1,1-.63c0.36,0,.72,0,1.07-0.11l4.69-.88,0.85-.15c1.08-.17,2.15-0.33,3.23-0.51,0.87-.15,1.73-0.33,2.59-0.5l3.25-.65c1.32-.27,2.64-0.52,3.95-0.8s2.34-.52,3.5-0.8c0.92-.22,1.82-0.49,2.75-0.68,1.36-.28,2.74-0.52,4.11-0.76,0.56-.1,1.12-0.14,1.67-0.25,0.8-.16,1.58-0.36,2.38-0.52l5.49-1.05c1.2-.23,2.4-0.43,3.6-0.65s2.42-.48,3.62-0.72,2.68-.54,4-0.83c0.68-.15,1.33-0.36,2-0.51,1.4-.29,2.81-0.55,4.21-0.83l4.27-.88,1.7-.33c0.2,0,.24-0.12.2-0.33a3.42,3.42,0,0,1,0-.9c0.05-.58.16-1.16,0.21-1.75s0.07-1.42.12-2.13c0-.52.14-1,0.17-1.55s0-1.07,0-1.6C116.92,92.48,117,91.52,117.1,90.57Zm68.21,69.49,0.15,0c0-.39,0-0.78-0.08-1.16-0.06-.54-0.16-1.07-0.19-1.61-0.08-1.18-.13-2.37-0.2-3.55s-0.17-2.41-.27-3.61c-0.08-1-.19-2-0.27-3.07,0-.54-0.06-1.08-0.08-1.62a1.34,1.34,0,0,0-.56-1.24,21.27,21.27,0,0,1-2.77-2.39c-0.71-.59-1.33-1.27-2-1.87-0.9-.79-1.82-1.54-2.74-2.3l-1.53-1.3c-0.53-.45-1-0.92-1.59-1.36s-1.09-.81-1.62-1.24q-1.58-1.3-3.13-2.64c-0.81-.7-1.6-1.44-2.4-2.16s-1.5-1.33-2.26-2c-0.44-.37-0.93-0.7-1.37-1.07-0.64-.54-1.24-1.12-1.89-1.65s-1.09-.82-1.63-1.23c-1.52-1.18-3-2.35-4.54-3.55-0.76-.61-1.46-1.29-2.21-1.9-1-.78-2-1.51-2.91-2.29q-1.84-1.48-3.66-3c-0.76-.65-1.47-1.36-2.25-2-1.49-1.21-3-2.37-4.51-3.56-1.17-.93-2.32-1.87-3.48-2.8a6.65,6.65,0,0,1-.92-0.67,20.67,20.67,0,0,0-2.44-2.12c-1-.87-2.12-1.67-3.17-2.53-0.67-.54-1.31-1.13-2-1.68l-2-1.64c-0.56-.46-1.11-0.93-1.68-1.38-1-.79-2-1.57-3-2.35l-0.76-.57c0,0.58-.09,1.07-0.12,1.56-0.06,1.11-.11,2.22-0.18,3.33-0.05.85-.14,1.71-0.19,2.56,0,0.4.06,0.82,0,1.22a3.05,3.05,0,0,0,.82,3,10.42,10.42,0,0,1,.72.79c0.39,0.42.77,0.86,1.2,1.26,0.81,0.75,1.66,1.45,2.46,2.21s1.79,1.79,2.69,2.68,1.55,1.47,2.32,2.21c0.56,0.54,1.13,1.06,1.66,1.62,0.37,0.39.68,0.84,1.06,1.22,0.78,0.76,1.61,1.48,2.39,2.24s1.41,1.46,2.13,2.17c0.38,0.37.82,0.66,1.21,1,0.57,0.51,1.1,1.06,1.67,1.57,1.11,1,2.25,2,3.36,3a26.07,26.07,0,0,0,2.92,2.66,5.67,5.67,0,0,1,.66.57c0.47,0.44.92,0.9,1.41,1.31s1.18,0.84,1.72,1.3c1.12,1,2.19,2,3.31,2.94s2.29,1.9,3.41,2.87,1.95,1.76,3,2.59c1.24,1,2.53,2,3.78,3,0.63,0.51,1.21,1.09,1.84,1.61,1.21,1,2.44,2,3.66,3,0.48,0.39,1,.77,1.43,1.17s0.93,0.82,1.4,1.21l1.85,1.53c0.74,0.61,1.46,1.25,2.23,1.81a8.72,8.72,0,0,1,1.85,1.68,11.06,11.06,0,0,0,1.07,1.14,7.55,7.55,0,0,0,.88.76c0.48,0.34,1,.66,1.48,1,0.67,0.43,1.37.83,2,1.29,0.88,0.63,1.73,1.3,2.59,2C185.12,160,185.21,160,185.3,160.06Z"/><path class="cls-1" d="M56.12,115.91c0.3-.07.56-0.15,0.83-0.2,1.11-.21,2.22-0.42,3.33-0.62,1.41-.25,2.83-0.47,4.24-0.73,1-.19,2.06-0.44,3.1-0.66l4-.81,2.36-.52c1.08-.25,2.14-0.53,3.23-0.74s2.05-.47,3.08-0.72c0.4-.1.82-0.12,1.23-0.2l3-.58c1.21-.24,2.42-0.5,3.64-0.73,0.85-.16,1.71-0.28,2.56-0.44s1.52-.32,2.28-0.46,1.81-.29,2.71-0.45c0.51-.09,1-0.22,1.53-0.33l2.29-.48,4-.84,2.23-.48c1.07-.23,2.13-0.48,3.21-0.69,0.64-.13,1.29-0.2,1.94-0.31,0.48-.08.94-0.2,1.42-0.3,1.58-.31,3.15-0.64,4.73-0.91a2.07,2.07,0,0,1,1.7.69c0.84,0.74,1.65,1.51,2.46,2.28q1.49,1.41,3,2.84c1,0.92,1.9,1.85,2.84,2.79s1.78,1.83,2.68,2.74c0.45,0.46.94,0.88,1.39,1.33,1.17,1.16,2.32,2.34,3.5,3.48,0.8,0.77,1.65,1.48,2.47,2.22s1.74,1.53,2.6,2.31c0.5,0.46,1,1,1.46,1.44s0.74,0.66,1.11,1c0.72,0.65,1.43,1.32,2.16,2s1.68,1.46,2.54,2.18c1,0.88,2.1,1.73,3.13,2.62,1.26,1.08,2.5,2.18,3.76,3.27,0.69,0.59,1.4,1.16,2.09,1.76s1.3,1.17,2,1.74c0.44,0.37.92,0.7,1.37,1.06q1.16,1,2.31,1.93c1.15,1,2.28,2,3.44,3,0.66,0.56,1.38,1.06,2.06,1.6s1.57,1.28,2.33,1.95c1.21,1.06,2.4,2.13,3.6,3.21a6.68,6.68,0,0,1,.7.68c0.31,0.37.23,0.65-.23,0.8a5.54,5.54,0,0,1-.77.13,1.55,1.55,0,0,0-.57.12,11,11,0,0,1-2.62.85c-1.12.4-2.28,0.67-3.43,1-0.81.22-1.64,0.39-2.45,0.59s-1.91.49-2.86,0.72c-0.32.08-.65,0.09-1,0.16-0.77.17-1.54,0.37-2.31,0.54l-3.24.68c-0.28.06-.55,0.16-0.83,0.23l-1.48.37c-0.68.17-1.35,0.36-2,.52-0.38.09-.78,0.13-1.16,0.22-0.75.17-1.49,0.41-2.26,0.54a11.27,11.27,0,0,0-1.88.53c-0.67.23-1.39,0.33-2.08,0.5-1,.24-1.89.5-2.84,0.74s-1.61.37-2.42,0.55a0.38,0.38,0,0,0-.11,0,5.19,5.19,0,0,1-1.76.52c-1.18.25-2.35,0.57-3.52,0.88-1,.27-2,0.57-3,0.85-1.21.34-2.43,0.66-3.64,1-0.54.16-1.05,0.4-1.58,0.58s-0.8.22-1.19,0.35c-0.71.25-1.41,0.53-2.13,0.76-0.34.11-.71,0.14-1.06,0.23-1,.26-2,0.57-3.05.78a6.74,6.74,0,0,1-2.24.17,4,4,0,0,1-1.47-.87c-0.6-.43-1.17-0.89-1.74-1.35s-0.94-.83-1.42-1.24l-2.12-1.82q-0.87-.75-1.71-1.52l-2.36-2.16-2.8-2.51-2.07-1.89c-0.61-.56-1.22-1.13-1.85-1.67-1-.83-2-1.64-2.91-2.47-0.77-.66-1.51-1.36-2.27-2l-2-1.73-2.39-2.13-1.52-1.32c-1.06-.92-2.14-1.82-3.19-2.75-0.72-.65-1.39-1.36-2.1-2S78.65,139,78,138.34s-1.56-1.57-2.35-2.34-1.55-1.4-2.28-2.14c-1.12-1.12-2.19-2.29-3.29-3.42-0.69-.71-1.4-1.39-2.09-2.1s-1.54-1.62-2.32-2.42c-0.62-.64-1.27-1.24-1.88-1.88-0.44-.46-0.83-1-1.24-1.42-0.88-1-1.74-2-2.65-2.94-0.45-.47-1-0.87-1.46-1.31-0.16-.14-0.28-0.32-0.42-0.47l-1.71-1.75A1.74,1.74,0,0,1,56.12,115.91Z"/><path class="cls-1" d="M119.66,66.2c0.9,0,1.73,0,2.57,0s1.47-.1,2.21-0.12c1.26,0,2.52,0,3.79,0,0.82,0,1.63-.05,2.45-0.07s1.39,0,2.08,0c1.26,0,2.52-.13,3.79-0.17,0.46,0,.91.06,1.37,0,1.47,0,2.94-.11,4.42-0.14,2.18,0,4.37-.07,6.55-0.12,1.12,0,2.24-.07,3.36-0.09l6.64,0c1.09,0,2.18,0,3.28,0,1.72,0,3.44.07,5.16,0.11,1,0,1.91.07,2.87,0.07s2.12-.06,3.18-0.05c0.52,0,1,.14,1.55.16,0.9,0,1.81,0,2.72,0,1.33,0,2.65,0,4,.06,0.43,0,.87.06,1.3,0.11,0.22,0,.35.09,0.25,0.39a0.77,0.77,0,0,0,.13.88,1.2,1.2,0,0,1,.08.72c0,0.82,0,1.64-.05,2.47s0,1.39,0,2.08c0,1.18,0,2.35,0,3.53,0,1-.11,1.93-0.13,2.89s0,1.87,0,2.8,0.11,1.94.18,2.91,0.18,2.23.25,3.35,0.05,2,.18,3c0.15,1.17.38,2.34,0.63,3.49a13.63,13.63,0,0,1,.3,3c0,1,0,2,0,3,0,1.32,0,2.63-.09,3.95-0.08,1.72-.25,3.44-0.3,5.17-0.06,2.26,0,4.53,0,6.79,0,1.75,0,3.5-.07,5.26,0,0.95-.16,1.9-0.2,2.84,0,0.62,0,1.25,0,1.87,0,1.63.06,3.26,0.07,4.89,0,2.27,0,4.53,0,6.8,0,0.87,0,1.73,0,2.6,0,0.31,0,.61,0,1-0.48-.39-0.88-0.69-1.26-1s-1-.89-1.54-1.33-0.9-.82-1.36-1.21-1.07-.84-1.6-1.28c-0.74-.61-1.47-1.24-2.21-1.85s-1.67-1.35-2.51-2c-0.55-.44-1.11-0.88-1.65-1.34q-2.63-2.25-5.25-4.51c-0.6-.52-1.13-1.11-1.74-1.62s-1.48-1.09-2.19-1.67c-0.9-.73-1.76-1.51-2.67-2.22s-1.62-1.18-2.42-1.78c-0.21-.16-0.4-0.34-0.61-0.51-1.37-1.15-2.74-2.31-4.12-3.44-1.19-1-2.42-1.91-3.61-2.88-1.36-1.11-2.7-2.26-4.06-3.37-1.21-1-2.45-2-3.66-2.94-0.71-.57-1.39-1.16-2.1-1.74q-1.5-1.23-3-2.44c-1.25-1-2.52-2-3.77-3s-2.58-2.11-3.86-3.17-2.71-2.32-4.1-3.44c-1-.79-2-1.5-3-2.3a17.06,17.06,0,0,1-1.94-1.9,1.76,1.76,0,0,1-.26-1,3.57,3.57,0,0,0-.18-1.35,5.82,5.82,0,0,1-.25-1.43c-0.06-.48-0.11-1-0.14-1.46s0-.91,0-1.37,0-1,0-1.53c0-.72.08-1.44,0.1-2.17,0-.93,0-1.87,0-2.8s0.16-2.05.21-3.08c0-.55,0-1.1,0-1.65,0-.84.08-1.68,0.11-2.52,0-.43,0-0.87,0-1.3C119.62,66.67,119.64,66.46,119.66,66.2Z"/><path class="cls-1" d="M116.73,87l-0.58-.09a0.7,0.7,0,0,0-.19,0c-0.69.1-1.39,0.2-2.08,0.32-0.46.08-.91,0.18-1.37,0.28a0.47,0.47,0,0,0-.28.11,0.78,0.78,0,0,1-.75.36A14.23,14.23,0,0,0,110,88a2.62,2.62,0,0,0-1.7.48,1.19,1.19,0,0,1-.62.24,12.18,12.18,0,0,1-1.26.19,1.08,1.08,0,0,1-.53-0.09,0.46,0.46,0,0,0-.7.27c-0.22-.29-0.4-0.29-0.57,0a0.36,0.36,0,0,1-.2.17,24.36,24.36,0,0,1-2.53.38,4.61,4.61,0,0,0-1,.24c-0.7.19-1.41,0.32-2.11,0.5-1.2.31-2.4,0.65-3.6,1-0.93.24-1.87,0.44-2.81,0.67l-0.68.18c-0.7.19-1.39,0.39-2.1,0.57-1,.25-2,0.49-2.95.71-1.16.26-2.32,0.49-3.48,0.75-0.92.21-1.83,0.48-2.75,0.68-0.76.16-1.53,0.25-2.29,0.39-0.57.11-1.12,0.25-1.69,0.37s-1,.17-1.51.28-0.94.24-1.41,0.34c-0.69.14-1.39,0.25-2.08,0.41s-1.38.4-2.08,0.57-1.62.33-2.43,0.52c-0.47.11-.93,0.27-1.41,0.37-0.81.17-1.63,0.3-2.44,0.46-0.24,0-.46.21-0.7,0.24a18.72,18.72,0,0,0-3.26.73c-0.76.23-1.58,0.29-2.36,0.45-1.08.23-2.16,0.5-3.25,0.71-0.75.15-1.51,0.22-2.26,0.35-0.48.09-.94,0.25-1.41,0.35s-0.84.13-1.25,0.21l-1.72.32-2.59.44-1.83.28c-0.49.07-1,.14-1.47,0.18a0.36,0.36,0,0,1-.22-0.26,12.16,12.16,0,0,1,0-1.85,13,13,0,0,1,.38-1.63,4,4,0,0,0,.2-1.06c0-.86-0.21-1.72-0.24-2.59a21.36,21.36,0,0,1,.1-2.31c0.06-.84.14-1.68,0.24-2.52,0.07-.64.18-1.28,0.26-1.92s0.14-1.35.21-2c0.1-1,.2-1.94.29-2.91,0.05-.56.08-1.13,0.13-1.69,0.08-.92.18-1.83,0.24-2.75,0.07-1.08.11-2.16,0.16-3.23,0-.65.09-1.31,0.11-2,0-1,0-1.94.05-2.92,0-.76,0-1.52,0-2.28,0-.55,0-1.1,0-1.66s0.08-.56.58-0.56l3.4,0H51c1.66,0,3.32,0,5,0s3.33,0,5-.06c1,0,2.1,0,3.15,0l5.41,0.06c0.7,0,1.41,0,2.11,0l4.46,0c1,0,2-.08,3-0.07s1.86,0.09,2.79.11c0.36,0,.73-0.09,1.09-0.1l3.79,0,2.84-.07,3.8,0h3.71l3-.06H103l4.51-.07,5.06-.07c1.58,0,3.15-.05,4.73-0.06a0.39,0.39,0,0,1,.27.27c0,1,0,2,0,2.95,0,0.76,0,1.53-.08,2.29s-0.14,1.68-.21,2.51c0,0.32,0,.63-0.05.95,0,0.66-.08,1.31-0.11,2-0.07,1.21-.16,2.42-0.19,3.64,0,0.84.08,1.68,0.1,2.52s0,1.75,0,2.62A5.07,5.07,0,0,1,116.73,87Z"/><path class="cls-1" d="M117.1,90.57c-0.08,1-.18,1.91-0.25,2.87,0,0.53,0,1.07,0,1.6s-0.13,1-.17,1.55c-0.05.71-.06,1.42-0.12,2.13s-0.16,1.16-.21,1.75a3.42,3.42,0,0,0,0,.9c0,0.21,0,.29-0.2.33l-1.7.33-4.27.88c-1.4.28-2.81,0.54-4.21,0.83-0.68.14-1.34,0.36-2,.51-1.34.29-2.68,0.56-4,.83s-2.41.49-3.62,0.72-2.4.43-3.6,0.65l-5.49,1.05c-0.8.16-1.58,0.37-2.38,0.52-0.55.11-1.12,0.15-1.67,0.25-1.37.24-2.75,0.48-4.11,0.76-0.92.19-1.83,0.47-2.75,0.68-1.17.28-2.33,0.55-3.5,0.8s-2.63.54-3.95,0.8l-3.25.65c-0.86.17-1.73,0.35-2.59,0.5-1.07.18-2.15,0.34-3.23,0.51l-0.85.15-4.69.88c-0.35.06-.72,0.06-1.07,0.11a1.27,1.27,0,0,0-1,.63,1.41,1.41,0,0,1-1.07.72c-0.87.19-1.76,0.34-2.63,0.53-1.14.24-2.27,0.52-3.41,0.73s-2.38.35-3.56,0.57c-0.72.13-1.43,0.34-2.15,0.51a5.72,5.72,0,0,1-.7.11l-2.15.21a0.31,0.31,0,0,1-.37-0.38c0-.37.05-0.75,0.09-1.12s0.09-1,.14-1.43c0.1-.91.24-1.82,0.28-2.73,0-1.08,0-2.16,0-3.24,0-.51,0-1,0.09-1.53s0.08-.85.13-1.27c0.07-.58.2-0.69,0.82-0.76,0.29,0,.58-0.1.87-0.16l3.39-.67c0.84-.16,1.68-0.32,2.52-0.46s1.71-.25,2.56-0.42,1.68-.4,2.52-0.58c0.33-.07.67-0.07,1-0.13,1-.16,2-0.32,3-0.52s2.07-.48,3.12-0.7c0.6-.13,1.22-0.18,1.82-0.3s1.2-.31,1.8-0.44l4.55-1c0.45-.1.88-0.27,1.33-0.37,0.82-.19,1.66-0.35,2.48-0.54C69.7,99,70.83,98.74,72,98.48s2-.41,3-0.62l2.16-.47,3.67-.76c0.94-.2,1.88-0.38,2.82-0.59s1.93-.43,2.88-0.67l4.2-1,4.63-1.14c1.44-.36,2.88-0.77,4.33-1.11,1-.24,2-0.43,3.06-0.63s2.07-.39,3.11-0.56c0.72-.12,1.45-0.19,2.17-0.32s1.61-.36,2.42-0.48c1.4-.2,2.81-0.36,4.22-0.52a12.83,12.83,0,0,1,1.61-.11C116.77,89.45,117.19,89.64,117.1,90.57Z"/><path class="cls-1" d="M185.3,160.06c-0.09-.05-0.18-0.1-0.26-0.17-0.86-.65-1.71-1.33-2.59-2-0.65-.46-1.34-0.86-2-1.29-0.5-.32-1-0.63-1.48-1a7.55,7.55,0,0,1-.88-0.76,11.06,11.06,0,0,1-1.07-1.14,8.72,8.72,0,0,0-1.85-1.68c-0.77-.57-1.49-1.21-2.23-1.81l-1.85-1.53c-0.47-.4-0.93-0.82-1.4-1.21s-1-.78-1.43-1.17c-1.22-1-2.45-2-3.66-3-0.63-.52-1.21-1.1-1.84-1.61-1.25-1-2.54-2-3.78-3-1-.83-2-1.74-3-2.59s-2.29-1.89-3.41-2.87-2.19-2-3.31-2.94c-0.54-.47-1.17-0.85-1.72-1.3s-0.94-.87-1.41-1.31a5.67,5.67,0,0,0-.66-0.57,26.07,26.07,0,0,1-2.92-2.66c-1.11-1-2.24-2-3.36-3-0.57-.51-1.1-1.06-1.67-1.57-0.39-.35-0.84-0.65-1.21-1-0.73-.71-1.41-1.46-2.13-2.17s-1.61-1.48-2.39-2.24c-0.38-.38-0.69-0.83-1.06-1.22-0.54-.56-1.1-1.08-1.66-1.62-0.77-.74-1.56-1.46-2.32-2.21s-1.77-1.8-2.69-2.68-1.65-1.46-2.46-2.21c-0.42-.39-0.8-0.83-1.2-1.26a10.42,10.42,0,0,0-.72-0.79,3.05,3.05,0,0,1-.82-3c0.05-.4,0-0.81,0-1.22,0-.85.14-1.71,0.19-2.56,0.07-1.11.11-2.22,0.18-3.33,0-.49.08-1,0.12-1.56l0.76,0.57c1,0.78,2,1.56,3,2.35,0.57,0.45,1.12.92,1.68,1.38l2,1.64c0.66,0.56,1.3,1.14,2,1.68,1.05,0.85,2.14,1.66,3.17,2.53a20.67,20.67,0,0,1,2.44,2.12,6.65,6.65,0,0,0,.92.67c1.17,0.93,2.32,1.87,3.48,2.8,1.5,1.19,3,2.36,4.51,3.56,0.78,0.63,1.48,1.35,2.25,2q1.81,1.53,3.66,3c1,0.77,2,1.51,2.91,2.29,0.75,0.61,1.45,1.3,2.21,1.9,1.5,1.2,3,2.37,4.54,3.55,0.54,0.42,1.11.8,1.63,1.23s1.25,1.11,1.89,1.65c0.44,0.37.93,0.7,1.37,1.07,0.76,0.65,1.51,1.31,2.26,2s1.59,1.45,2.4,2.16q1.55,1.34,3.13,2.64c0.52,0.43,1.09.81,1.62,1.24s1.06,0.9,1.59,1.36l1.53,1.3c0.91,0.77,1.84,1.52,2.74,2.3,0.69,0.6,1.31,1.29,2,1.87a21.27,21.27,0,0,0,2.77,2.39,1.34,1.34,0,0,1,.56,1.24c0,0.54,0,1.08.08,1.62,0.08,1,.19,2,0.27,3.07,0.1,1.2.19,2.41,0.27,3.61s0.12,2.37.2,3.55c0,0.54.14,1.07,0.19,1.61,0,0.39.06,0.78,0.08,1.16Z"/></svg>