<svg id="Layer_3" data-name="Layer 3" xmlns="http://www.w3.org/2000/svg" viewBox="0 0 56.69 56.69"><defs><style>.cls-1{fill:#fff;}</style></defs><title>CC_comodicons_small_flooring</title><path class="cls-1" d="M25.67,16.47a0.65,0.65,0,0,1,.5-0.05,0.89,0.89,0,0,0,.23,0H26.8l0.23,0,0.17,0a0.61,0.61,0,0,1,.46,0,0.5,0.5,0,0,0,.31,0,0.52,0.52,0,0,1,.26,0,0.76,0.76,0,0,0,.25,0,4.31,4.31,0,0,0,.43,0c0.09,0,.18,0,0.28,0a1.33,1.33,0,0,1,.42,0,0.75,0.75,0,0,0,.2,0c0.17,0,.11-0.15.11-0.23a2.25,2.25,0,0,0,0-.27A0.14,0.14,0,0,1,30,15.7a0.44,0.44,0,0,1,.44.24,1.82,1.82,0,0,1,0,.36s0,0,0,.05c0.23,0,.45,0,0.67,0s0.37,0,.55,0a0.59,0.59,0,0,0,.28,0,1.14,1.14,0,0,1,.39,0h0.37a2.28,2.28,0,0,0,.34,0,0.48,0.48,0,0,1,.36,0h0.29l0.14,0h0c0.08,0.06.18,0,.26,0.06a0.3,0.3,0,0,0,.16,0,0.39,0.39,0,0,1,.36,0l0.15-.07c0,0.1.08,0.1,0.15,0a0.31,0.31,0,0,1,.32,0,0.12,0.12,0,0,0,.09,0,0.37,0.37,0,0,1,.07,0h0.43a0.23,0.23,0,0,0,.27,0,1.27,1.27,0,0,1,.14,0c0.06,0,.13,0,0.19,0a1.49,1.49,0,0,1,.21,0c0.18,0,.36-0.06.53,0s0.32,0,.47,0l0.09,0h0.06a0.2,0.2,0,0,1,.23,0,0.51,0.51,0,0,0,.26,0,1.1,1.1,0,0,1,.55,0,0.24,0.24,0,0,0,.17,0,0.57,0.57,0,0,1,.27,0,0.48,0.48,0,0,0,.05,0,0.34,0.34,0,0,1,.23,0,4.19,4.19,0,0,0,.49,0,1.59,1.59,0,0,1,.51,0c0.11,0,.21,0,0.31,0a1.23,1.23,0,0,0,.29,0,0.21,0.21,0,0,1,.25,0h0a0.26,0.26,0,0,1,.27,0,0.71,0.71,0,0,1,.44,0c0.15,0,.3,0,0.45,0H43l0.16,0a0.46,0.46,0,0,1,.33,0,2.4,2.4,0,0,0,.42,0,5.73,5.73,0,0,1,.77,0L46,16.1l0.08,0a0.23,0.23,0,0,1,.26.05,0.4,0.4,0,0,0,.22.06l0.58,0,0.89,0a0.55,0.55,0,0,1,.36.15l0.06,0a0.2,0.2,0,0,1,.13.24,0.21,0.21,0,0,1-.21.17,0.1,0.1,0,0,0-.1.12c0,0.37,0,.74,0,1.12s0,0.49,0,.74,0,0.33,0,.5,0,0.4,0,.6,0,0.37,0,.55,0,0.42,0,.64,0,0.27.05,0.4c0,0.32.07,0.65,0.09,1,0,0.16,0,.31,0,0.47s0,0.16,0,.24a0.12,0.12,0,0,0,.05.07,0.42,0.42,0,0,1,.2.42c0,0.24,0,.49,0,0.74s0,0.45,0,.68,0,0.45,0,.68,0,0.48,0,.72,0,0.42,0,.63,0,0.58-.05.87,0,0.49,0,.73,0,0.51,0,.77,0,0.48,0,.72,0,0.53,0,.8,0,0.45,0,.67,0,0.37,0,.55q0,0.59,0,1.18c0,0.28,0,.55,0,0.83s0,0.49,0,.73,0,0.44,0,.66,0,0.48,0,.72,0,0.45,0,.67,0,0.38,0,.57,0,0.39,0,.59l0,0.56c0,0.22,0,.44,0,0.65s0,0.49.07,0.74,0,0.29,0,.43,0,0.4.07,0.6,0,0.33.06,0.49a1.75,1.75,0,0,0,.14.64,0.42,0.42,0,0,1,0,.21,0.46,0.46,0,0,0,.17.41,0.35,0.35,0,0,1,.07.32,0.39,0.39,0,0,1-.3.09,1,1,0,0,1-.14,0,0.64,0.64,0,0,1-.44-0.29A0.44,0.44,0,0,0,48.31,43l-0.69-.5-0.41-.3L46.7,41.8l-0.5-.36C46.12,41.39,46,41.32,46,41.27a0.18,0.18,0,0,0-.12,0l-0.39.12-0.32.09-0.24,0H44.82a1.41,1.41,0,0,1-.39.1,1.74,1.74,0,0,0-.51.12l-0.77.2-0.62.14-1.18.29c-0.23.05-.46,0.07-0.69,0.12s-0.28.08-.41,0.12l-0.26,0-0.77.19-0.22,0L38.4,43l-0.77.18-0.54.15-0.42.11-0.93.24-1,.24-0.79.2-0.91.25-1.18.36-1.08.37L30,45.37a2.34,2.34,0,0,1-.35,0l-0.61.06a2.25,2.25,0,0,1-.37,0,0.35,0.35,0,0,1-.3-0.2A0.48,0.48,0,0,0,28.18,45a2.54,2.54,0,0,1-.32-0.23l-0.33-.22c-0.1-.07-0.18-0.16-0.27-0.24l-0.69-.59c-0.17-.16-0.33-0.33-0.5-0.48l-0.81-.73-0.65-.6-0.79-.72L23,40.48,22.49,40l-0.86-.77-0.47-.43-0.47-.38-0.37-.33-0.39-.37-0.51-.47-1.07-1c-0.2-.19-0.4-0.4-0.6-0.59l-0.59-.56-0.58-.61-0.8-.83-0.91-1c-0.17-.19-0.34-0.39-0.51-0.58s-0.24-.23-0.35-0.35l-0.38-.4-0.74-.72-0.63.12-0.78.11-0.55.1-1,.15c-0.2,0-.4.09-0.59,0.13l-0.76.18c-0.29.07-.57,0.16-0.86,0.22a0.3,0.3,0,0,1-.24-0.06,1.52,1.52,0,0,1-.32-0.41,0.81,0.81,0,0,1,0-.39c0-.33.06-0.65,0.1-1,0,0,0-.09,0-0.14s0-.23,0-0.35,0-.3,0-0.46,0-.34,0-0.51,0-.29,0-0.44,0-.38,0-0.57,0-.15-0.05-0.23a0.32,0.32,0,0,1,.4-0.36l0.54,0.08c0.13,0,.15,0,0.15-0.13a0.76,0.76,0,0,0,0-.17,1.22,1.22,0,0,1,.06-0.44,2.38,2.38,0,0,1,0-.24c0-.18.07-0.36,0.09-0.54s0-.22,0-0.33c0-.47.06-0.94,0.1-1.41,0-.25.08-0.49,0.11-0.73s0-.37,0-0.55,0.09-.61.12-0.92,0-.33,0-0.5,0-.18,0-0.26C9,20.41,9,20.15,9,19.9s0-.5,0-0.75,0-.67,0-1c0-.17,0-0.34,0-0.51s0-.4,0-0.59a0.32,0.32,0,0,0-.18-0.28,0.2,0.2,0,0,1-.12-0.19c0-.06,0-0.13,0-0.19a0.11,0.11,0,0,1,.16-0.1c0.16,0,.33.09,0.49,0.13a3.82,3.82,0,0,0,.45,0l0.55,0h1c0.17,0,.34,0,0.51,0s0.35,0,.53.06a2.3,2.3,0,0,0,.32,0,1.44,1.44,0,0,1,.39,0,1.78,1.78,0,0,0,.57,0c0.12,0,.25,0,0.37,0h0.43l0.6,0h0.28l0.53,0a0.94,0.94,0,0,1,.23,0,1.07,1.07,0,0,1,.44.05,0.14,0.14,0,0,0,.12,0,0.5,0.5,0,0,1,.34,0,3.23,3.23,0,0,0,.35,0l0.12,0a0.17,0.17,0,0,0,.09,0,1.37,1.37,0,0,1,.57-0.06l0.08,0a0.14,0.14,0,0,0,.06,0,0.23,0.23,0,0,1,.31,0h0a0.4,0.4,0,0,1,.37,0,0.91,0.91,0,0,0,.13,0h0.3a0.7,0.7,0,0,0,.36,0,0.47,0.47,0,0,1,.21,0h0.13l0.33,0H21a0.15,0.15,0,0,1,.1,0,0.21,0.21,0,0,0,.23,0l0.29,0s0.08,0,.12,0a2.55,2.55,0,0,1,.35,0,0.54,0.54,0,0,1,.3,0,0.23,0.23,0,0,0,.12,0L23,16.43l0.08,0a0.89,0.89,0,0,0,.26,0,0.82,0.82,0,0,1,.34,0H24a2.28,2.28,0,0,1,.57,0,1.18,1.18,0,0,0,.46,0,0.94,0.94,0,0,1,.39,0h0.11C25.59,16.41,25.65,16.37,25.67,16.47ZM13.3,30.24l0,0.07,0.46,0.47,0.11,0.13c0.13,0.12.27,0.23,0.4,0.35S14.79,31.78,15,32s0.22,0.26.34,0.39l0.51,0.51L16.5,33.6l0.56,0.57c0.3,0.31.59,0.62,0.89,0.93s0.41,0.38.62,0.58,0.42,0.43.64,0.63,0.38,0.32.56,0.49,0.37,0.37.57,0.55l0.86,0.74,0.41,0.36L22.26,39l0.53,0.47L23.4,40l0.79,0.67,0.5,0.45,0.56,0.51L26,42.35l0.64,0.58,0.46,0.41,0.57,0.49,0.38,0.33c0.15,0.13.31,0.25,0.47,0.37a1.07,1.07,0,0,0,.4.23,1.82,1.82,0,0,0,.61,0c0.28-.06.55-0.14,0.83-0.21,0.09,0,.19,0,0.29-0.06l0.58-.21,0.32-.1c0.14,0,.28-0.11.43-0.16l1-.27,0.81-.23c0.32-.08.63-0.17,1-0.24a1.4,1.4,0,0,0,.48-0.14h0L35.88,43l0.77-.2c0.19,0,.38-0.07.56-0.14a3,3,0,0,1,.51-0.14c0.21,0,.41-0.1.61-0.14l0.31-.06,0.55-.14,0.4-.1L39.82,42l0.88-.18,0.62-.15,0.26,0,0.77-.2L43,41.24c0.31-.08.63-0.16,0.93-0.27a3,3,0,0,0,.71-0.23,0.42,0.42,0,0,1,.16,0,1.5,1.5,0,0,0,.21,0c0.12,0,.15-0.12.06-0.22a1.81,1.81,0,0,0-.19-0.18l-1-.87-0.63-.53c-0.18-.15-0.38-0.28-0.56-0.43l-0.93-.81-0.62-.52-0.37-.29-0.53-.47-0.56-.48-1-.88-0.85-.71-0.69-.59-0.58-.53-0.3-.27-0.39-.39-0.7-.62c-0.22-.2-0.45-0.39-0.67-0.6s-0.63-.63-0.95-0.94L33.19,30l-0.73-.74-0.77-.75-0.8-.77c-0.22-.21-0.44-0.42-0.67-0.62a0.56,0.56,0,0,0-.46-0.19l-1.28.25-0.38.08-0.52.08-0.87.19-0.6.13L25,27.89,24.41,28,24,28.11l-0.73.12-0.62.13L22,28.48l-1,.2-0.82.16-0.33.05C19.54,29,19.27,29,19,29.08s-0.58.13-.87,0.2l-0.64.14-1.07.22-0.84.18-1.15.2-0.9.17ZM30.47,16.8c0,0.07,0,.12,0,0.18s0,0.23,0,.35,0,0.45,0,.68,0,0.3,0,.45,0,0.55-.06.83,0,0.5,0,.76,0,0.39,0,.59,0,0.28,0,.41,0,0.25,0,.37,0,0.26,0,.39a1.57,1.57,0,0,0,.07.39,1,1,0,0,1,0,.36,0.47,0.47,0,0,0,.07.28,4.61,4.61,0,0,0,.52.51c0.26,0.22.54,0.41,0.8,0.62L33,24.91l1,0.86,1,0.81,0.81,0.66,0.57,0.47,1,0.79,1.1,0.91,1,0.78,1.11,0.93,0.16,0.14c0.22,0.16.44,0.31,0.65,0.48s0.48,0.4.72,0.6,0.4,0.29.59,0.45,0.31,0.3.47,0.44l1.42,1.22,0.45,0.36,0.68,0.55,0.6,0.5,0.43,0.35,0.37,0.33,0.42,0.36,0.34,0.27c0-.12,0-0.2,0-0.28,0-.23,0-0.47,0-0.7,0-.61,0-1.23,0-1.84,0-.44,0-0.88,0-1.32,0-.17,0-0.34,0-0.51s0-.51.05-0.77c0-.47,0-0.95,0-1.42s0-1.22,0-1.84,0.06-.93.08-1.4,0-.71,0-1.07,0-.54,0-0.8a3.68,3.68,0,0,0-.08-0.8c-0.07-.31-0.13-0.63-0.17-0.94s0-.53,0-0.8,0-.6-0.07-0.91,0-.52,0-0.79,0-.5,0-0.76,0-.52,0-0.78,0-.64,0-1,0-.38,0-0.56,0-.44,0-0.67a0.33,0.33,0,0,0,0-.2,0.21,0.21,0,0,1,0-.24c0-.08,0-0.1-0.07-0.11l-0.35,0-1.08,0H45.41c-0.14,0-.28,0-0.42,0H44.13l-0.77,0-1.4,0H39.28l-0.91,0-1.77,0-1.19,0H35l-1,0H33.45l-0.66,0h-1l-0.6,0H30.47Zm-0.79,5.63a1.37,1.37,0,0,0,.07-0.28c0-.24,0-0.47,0-0.71s0-.45,0-0.68,0-.66.05-1l0-.53c0-.09,0-0.17,0-0.26s0-.45.06-0.68,0-.41,0-0.62,0-.53,0-0.8a0.11,0.11,0,0,0-.07-0.07l-1.28,0-1.37,0-1.22,0H25.2l-0.82,0h-2l-0.77,0h-1c-0.1,0-.2,0-0.29,0l-0.76,0-0.81,0H16.92l-1.46,0H14.6l-1.35,0H9.87c-0.13,0-.15,0-0.16.15s0,0.3,0,.45,0,0.41,0,.62,0,0.53,0,.79,0,0.35,0,.53,0,0.58,0,.87,0,0.49-.07.74,0,0.31,0,.46-0.05.52-.08,0.79,0,0.36-.06.55-0.05.34-.07,0.52,0,0.45-.06.68a5.78,5.78,0,0,0,0,.62c0,0.23.05,0.47,0.06,0.7a1.08,1.08,0,0,1-.05.29,3.52,3.52,0,0,0-.1.44,3.29,3.29,0,0,0,0,.5,0.1,0.1,0,0,0,.06.07l0.4,0,0.49-.07,0.7-.12,0.47-.09,0.34-.06L12,26.23l0.61-.1,0.88-.19c0.21,0,.43-0.06.64-0.12a5.06,5.06,0,0,1,.88-0.2c0.06,0,.12-0.05.19-0.06l0.66-.13,0.38-.1,0.66-.14L17.44,25,18,24.93l0.38-.09,0.41-.08,0.46-.1,0.62-.11,0.74-.18,0.94-.2,0.8-.19,0.57-.15,0.18,0,0.76-.18,1-.26,0.57-.13a1.25,1.25,0,0,1,.26-0.06,6.59,6.59,0,0,0,.68-0.1,0.1,0.1,0,0,0,.06,0c0-.08.1-0.08,0.16,0a0.12,0.12,0,0,1,.19-0.07,0.29,0.29,0,0,0,.14,0l0.34-.05a0.32,0.32,0,0,0,.17-0.06,0.71,0.71,0,0,1,.46-0.13,3.85,3.85,0,0,1,.41,0,0.21,0.21,0,0,0,.2-0.1,0.13,0.13,0,0,1,.08,0l0.37-.08,0.56-.09h0.05Zm0.1,1c0-.25-0.09-0.3-0.23-0.3a3.47,3.47,0,0,0-.43,0L28,23.25c-0.22,0-.43.09-0.65,0.13l-0.59.09-0.84.15-0.83.17-1.17.3-1.25.31-1.14.28-0.78.18L20,25l-1,.21-0.58.13-0.81.17-0.92.22L16,25.9l-0.36.1-1.23.28-0.49.12-0.49.08-0.84.19-0.81.14-0.27,0L10.82,27l-0.69.11-0.68.12-0.92.18-0.23,0c-0.17,0-.21,0-0.22.2s0,0.23,0,.34,0,0.28,0,.41C8,28.71,8,29,8,29.3s0,0.49-.08.74,0,0.26,0,.39,0,0.2,0,.3a0.08,0.08,0,0,0,.1.1l0.58-.06,0.19,0c0.19,0,.38-0.1.58-0.14l1-.15,0.92-.2,0.71-.14a0.38,0.38,0,0,0,.29-0.19,0.34,0.34,0,0,1,.28-0.17l0.29,0,1.27-.24,0.23,0,0.87-.14,0.7-.13L16.73,29l1.07-.22,0.95-.22c0.25-.06.49-0.13,0.74-0.19l1.11-.21,0.45-.07L21.7,28l1.49-.29,1-.18,1-.19,1.09-.23,0.54-.14,1.14-.22,1.15-.24,0.46-.09c0.05,0,.07,0,0.06-0.09a0.93,0.93,0,0,1,0-.24c0-.16,0-0.31.06-0.47s0-.38,0-0.58,0-.28,0-0.42,0-.29,0-0.43S29.76,23.64,29.78,23.39ZM48.22,42.17h0c0-.1,0-0.21,0-0.31s0-.29-0.05-0.43c0-.32,0-0.64-0.05-1s0-.65-0.07-1S48,38.93,48,38.65s0-.29,0-0.44a0.36,0.36,0,0,0-.15-0.34,5.75,5.75,0,0,1-.75-0.65c-0.19-.16-0.36-0.34-0.55-0.51l-0.74-.62-0.41-.35-0.43-.37L44.5,35l-0.85-.71L43,33.75l-0.61-.53L42,32.92l-0.51-.44-0.44-.33-1.23-1c-0.21-.16-0.39-0.35-0.6-0.51l-0.79-.62-1-.81c-0.21-.17-0.4-0.37-0.61-0.54l-1.22-1L34.7,27a1.8,1.8,0,0,1-.25-0.18,5.59,5.59,0,0,0-.66-0.57c-0.28-.23-0.57-0.45-0.86-0.68l-0.53-.46-0.53-.44-0.45-.37-0.82-.63-0.21-.15c0,0.16,0,.29,0,0.42,0,0.3,0,.6,0,0.9s0,0.46-.05.69,0,0.22,0,.33a0.83,0.83,0,0,0,.22.8,2.82,2.82,0,0,1,.19.21c0.11,0.11.21,0.23,0.32,0.34s0.45,0.39.66,0.6,0.48,0.48.73,0.72L33,29.1l0.45,0.44c0.1,0.1.18,0.23,0.29,0.33l0.65,0.61L35,31.06c0.1,0.1.22,0.18,0.33,0.27l0.45,0.42,0.91,0.81a7,7,0,0,0,.79.72,1.53,1.53,0,0,1,.18.15c0.13,0.12.25,0.24,0.38,0.35s0.32,0.23.46,0.35l0.89,0.8,0.92,0.77c0.27,0.23.53,0.48,0.8,0.7s0.68,0.54,1,.81c0.17,0.14.33,0.3,0.5,0.44l1,0.8L44,38.78l0.38,0.33,0.5,0.41c0.2,0.16.39,0.34,0.6,0.49a2.36,2.36,0,0,1,.5.46,3,3,0,0,0,.29.31,2,2,0,0,0,.24.21l0.4,0.26c0.18,0.12.37,0.22,0.55,0.35s0.47,0.35.7,0.53Z"/></svg>