<svg id="folder" xmlns="http://www.w3.org/2000/svg" viewBox="0 0 167.63 141.76"><defs><style>.cls-1{fill:#fff;}.cls-2{fill:#231f20;}</style></defs><title>CC_comodicons_big_incidentfolder</title><path class="cls-1" d="M29.88,75.42l2.94-.52,42.07,3.71,50.79,7.49,7.19,0.95,42,7.43L177.48,105,182,134s-0.52,10.74-.44,11.13,2.33,25.58,2,25.64,1.94,12.53,1.94,12.53l-1.12.82-7.57-1.78-28.33-5.2-23-4.33-27.8-4.15L83.6,166.13,73,163.79,63.91,162,56,160.56l-9.48-1.74-5.43-1.49-1.22-1.92-5.21-31.27L29.88,87.08,29.19,76.63Z" transform="translate(-28.74 -43.51)"/><path class="cls-1" d="M107.17,170.6l3.6,0.51a15.77,15.77,0,0,1,1.53-2q11.55-10.27,23.13-20.5a9.53,9.53,0,0,0,.83-0.95,1.12,1.12,0,0,0-.95.22c-8.26,7.08-16.5,14.19-24.81,21.22a12.74,12.74,0,0,1-3.37,1.46l-1.21-1.45c2.87-2.26,5.94-4.56,8.87-7s5.91-5.12,8.82-7.73,5.54-5.07,8.3-7.61l-0.28-.3-27.76,23.32Zm-23.56-4.28,10.81,1.73,27.72-24.14a2.49,2.49,0,0,0-1.94.6c-3.22,2.7-6.4,5.45-9.62,8.15-5.53,4.66-11.05,9.33-16.67,13.89-0.74.6-2,.54-3.06,0.78l-0.43-1,27.77-23.67a3.15,3.15,0,0,0-1.86.73c-5.52,4.48-11.06,8.93-16.52,13.48-3.28,2.74-6.53,5.54-9.58,8.54-1.25,1.23-2.21,1.21-3.7.5l27.24-24.28-0.55-.69a20.77,20.77,0,0,0-1.76,1.34c-2.44,2.28-4.78,4.66-7.29,6.86Q96,156.4,87.73,163.44c-1.28,1.09-2.75,1.94-4.13,2.91-0.86-1.15-.17-1.84.69-2.58,2.69-2.33,5.36-4.67,8-7.07q8.27-7.56,16.49-15.19c0.44-.41.82-0.88,1.23-1.32l-0.44-.51c-1.91,1.56-3.9,3-5.72,4.71C96.94,150.69,90,157,83.27,163.47c-1.78,1.71-3.28,1.91-5.3.85,4.58-4.34,9.07-8.62,13.59-12.87s9-8.42,13.54-12.63l-0.32-.41a12.88,12.88,0,0,0-1.44,1c-8.7,7.88-17.42,15.75-26,23.71-1.34,1.23-2.29,1-3.35.27l27.46-25.94a3.53,3.53,0,0,0-1,0A13.78,13.78,0,0,0,99,138.49Q86.19,150.23,73.35,162c-1.53,1.4-1.8,1.45-3.59.33l27.12-25.88-0.63-.74A12.27,12.27,0,0,0,94.49,137c-1.26,1.3-2.34,2.79-3.67,4-7.1,6.54-14.28,13-21.34,19.56-1.38,1.29-2.53,2.22-4.24,1,4.63-4.48,9.22-8.9,13.77-13.37s8.89-8.82,13.34-13.24a1,1,0,0,0-1.09-.13c-4.52,4.4-9,8.84-13.54,13.21-4.39,4.22-8.87,8.34-13.26,12.54-1.18,1.12-2.22,1.09-3.23.23l27.6-27.13-0.34-.4c-0.57.49-1.18,0.94-1.72,1.46-3.6,3.46-7.18,6.95-10.79,10.41-5.12,4.91-9.71,10.41-15.69,14.37a12.15,12.15,0,0,1-3,1L57,159.79,86.14,132.1l-0.51-.62a11.6,11.6,0,0,0-1.54,1.08c-1.82,1.77-3.56,3.63-5.42,5.36-7.21,6.74-14.49,13.4-21.64,20.2-1.32,1.25-2.29,2.31-4.09.8L82.83,131a0.93,0.93,0,0,0-1-.13c-3.49,3-7,6-10.43,9.17-4.34,4.05-8.51,8.29-12.82,12.38-1.79,1.7-4,3-5.53,4.89s-2.69,1.72-4.67.84c5.25-4.89,10.26-9.69,15.42-14.32s10.31-8.95,15.48-13.41l-0.5-.56c-2.43,2-4.91,4-7.29,6.12-7.67,6.77-15.38,13.5-22.89,20.45-1.55,1.44-2.78,1.65-4.84.94l31.47-27.64-0.41-.51a6.39,6.39,0,0,0-1.24.68q-14.92,13-29.8,26.1c-1.63,1.43-3.07,1.17-3.7-.91a16.51,16.51,0,0,1-.5-2.34q-1.47-9.64-2.92-19.28c-1.53-10.18-3.2-20.34-4.54-30.54-1-7.69-1.59-15.44-2.41-23.16-0.4-3.79.49-4.67,4.33-4.23,5.89,0.68,11.79,1.36,17.69,1.94,8.43,0.82,16.9,1.34,25.31,2.34,11.94,1.42,23.87,3,35.74,4.83,10.73,1.68,21.37,3.89,32.06,5.84,6.34,1.16,12.68,2.32,19,3.38,2.21,0.37,4.48.31,6.69,0.66a3.17,3.17,0,0,1,2.21,1.42,44.16,44.16,0,0,1,2.68,8.47c1.22,7.29,2.09,14.63,3.13,22,0.28,2,.86,3.95.95,5.94,0.31,6.93.36,13.87,0.73,20.79,0.27,5.06.91,10.1,1.33,15.16a2.32,2.32,0,0,1-.46,1.69c-3.36,3.07-6.86,6-10.17,9.13-1.3,1.23-2.39,1.69-4.05.41,0.54-.58,1-1.19,1.61-1.69,3.13-2.71,6.3-5.37,9.4-8.1a35.88,35.88,0,0,0,2.57-2.77L180,166.5q-6.71,5.85-13.42,11.71c-1.77,1.55-2,1.6-4,.41l17.84-15.49-0.49-.6a11.79,11.79,0,0,0-1.1.74c-5.81,4.92-11.59,9.88-17.45,14.75-0.61.51-1.7,0.44-2.56,0.64,3.44-3.78,7.11-6.92,10.61-10.24s6.79-6.76,10.18-10.16l-0.66-.67c-0.51.5-1,1-1.53,1.49-2.86,2.87-5.64,5.84-8.61,8.6-3.5,3.25-7.27,6.21-10.73,9.5-1.31,1.25-2.33,1.32-4.15.36l21.46-19.92-0.57-.62c-1.85,1.75-3.7,3.51-5.57,5.25-5,4.64-10.11,9.17-14.94,14-1.58,1.57-2.75,1.75-4.41.59l21-20.2-0.47-.5a1.8,1.8,0,0,0-.58.23c-6.87,6.33-13.87,12.54-20.53,19.08-1.91,1.87-3.29,1.24-5.24.61l22.16-20-0.53-.68a29.09,29.09,0,0,0-2.43,1.83c-2.93,2.71-5.76,5.54-8.74,8.2-3.52,3.14-7.21,6.08-10.72,9.24-1.73,1.56-1.61,1.69-3.75.53L161.32,155l-0.34-.43a5.58,5.58,0,0,0-1.2.66q-9.71,9.06-19.39,18.17c-2.33,2.21-2.53,2.3-5.52.95l22.57-19.78-0.4-.52c-0.54.4-1.11,0.77-1.62,1.2-6.93,5.86-13.92,11.64-20.72,17.65-1.9,1.68-3.45,1.54-5.51.46l22.67-19.49-0.52-.64c-0.53.39-1.08,0.76-1.57,1.19-4.11,3.56-8.19,7.17-12.33,10.69-2.82,2.4-5.8,4.61-8.56,7.06-1.61,1.43-1.77,1.61-4,.32l21.26-17.83-0.53-.63c-1.86,1.56-3.7,3.13-5.57,4.68-5.14,4.26-10.42,8.37-15.38,12.83-1.77,1.59-3.07.86-4.83,0.64l23-20.41-0.44-.55c-0.95.72-1.94,1.38-2.83,2.16-6,5.2-11.88,10.46-17.87,15.62a38.68,38.68,0,0,1-4.25,2.8l-2.35-.38,23.83-21.71-0.4-.44L113.1,171.81h4.38a4.56,4.56,0,0,0,1.3.76c10.31,1.92,20.61,3.83,30.93,5.67,6.31,1.12,12.67,2,19,3.2,6,1.12,12,2.47,18.05,3.68,2.08,0.42,4,.12,4.78-2.21a23.82,23.82,0,0,0,1.66-6.2c0.38-7.85.44-15.72,0.71-23.57,0.19-5.65.59-11.29,0.78-16.93,0.48-14,.88-28,1.32-42,0.08-2.53.19-5.06,0.26-7.59a38,38,0,0,0,0-5.16c-0.17-1.52-.31-3.37-1.22-4.41-2.2-2.5-4.81-4.77-8.21-5.46-8-1.63-16-3.61-24.11-4.48-13.12-1.42-26.32-2.12-39.49-3a78.75,78.75,0,0,0-10.62,0c-2.85.2-4-.26-4.69-3.06s-1.24-5.51-1.66-8.3a5.84,5.84,0,0,0-5-5.29c-2.69-.55-5.42-1-8.15-1.33-7.49-.9-15-1.68-22.48-2.56a15.72,15.72,0,0,0-12.8,4.22,78.92,78.92,0,0,0-8.37,8.84,15.53,15.53,0,0,0-2.64,5.8,47.19,47.19,0,0,0-1.09,7.72c-0.13,1.51-.79,1.7-2.12,1.6a66.93,66.93,0,0,0-8.47-.3c-5,.25-6.91,2.81-6.33,7.76,0.74,6.34,1.19,12.71,2,19,1.44,11.43,3,22.85,4.59,34.27,1,7.17,2.23,14.3,3.23,21.47A5,5,0,0,0,43,158.51c8,1.61,16.06,3,24.08,4.51C72.58,164.07,78.09,165.23,83.61,166.32ZM42.48,153.14l0.37,0.25,6.82-5.59Q60,139.36,70.31,130.89a3.8,3.8,0,0,0,.65-1.3,2.32,2.32,0,0,0-1.59.54l-23.63,19.4a25.71,25.71,0,0,0-2.29,2A8.13,8.13,0,0,0,42.48,153.14ZM128,145.62l-0.41-.44L99.13,169l2.52,0.52-0.46-.49a7.2,7.2,0,0,1,1.06-1.49c5.23-4.36,10.51-8.65,15.72-13C121.38,151.58,124.68,148.57,128,145.62ZM67.5,127.74L67,127.13c-0.61.43-1.26,0.82-1.83,1.3C59.88,133,54.62,137.51,49.31,142c-2,1.73-4.25,3.27-6.32,5a8.38,8.38,0,0,0-1.3,1.9l0.56,0.35ZM41.81,144.23l0.4,0.1L63,127.56c-0.52-.39-0.76-0.42-0.9-0.31Q52.38,135,42.74,142.71A5.36,5.36,0,0,0,41.81,144.23Zm17.53-19c-4.48,3.53-9,7-13.43,10.58-1.31,1-2.57,2.13-3.78,3.29a8.12,8.12,0,0,0-1.08,1.74l0.54,0.42C46.9,135.21,54.32,131.56,59.34,125.21Zm-19.51,12,0.47,0.4,16.6-14.72-0.68-.73C51,127.38,44.69,131.51,39.83,137.18Zm0.34-3.57L50,124.19l-0.58-.57C46.45,127.06,42.24,129.3,40.18,133.61ZM33.53,85.49l0.61,0.62L41,79.66,40.43,79ZM39,130l0.46,0.51,7-6.65L46,123.4Z" transform="translate(-28.74 -43.51)"/><path d="M117.47,171.82A38.26,38.26,0,0,0,121.7,169c6-5.16,11.91-10.42,17.87-15.62,0.89-.78,1.88-1.45,2.83-2.16l0.44,0.55-23,20.41c1.76,0.22,3.05,1,4.83-.64,5-4.46,10.24-8.57,15.38-12.83,1.87-1.55,3.72-3.12,5.57-4.68l0.53,0.63-21.26,17.83c2.19,1.29,2.35,1.11,4-.32,2.76-2.45,5.74-4.66,8.56-7.06,4.14-3.53,8.22-7.13,12.33-10.69,0.5-.43,1-0.79,1.57-1.19l0.52,0.64L129.2,173.4c2.06,1.08,3.61,1.23,5.51-.46,6.8-6,13.79-11.79,20.72-17.65,0.51-.43,1.08-0.8,1.62-1.2l0.4,0.52L134.88,174.4c3,1.36,3.19,1.26,5.52-.95q9.65-9.13,19.39-18.17a5.58,5.58,0,0,1,1.2-.66l0.34,0.43-21.17,20.06c2.14,1.16,2,1,3.75-.53,3.5-3.16,7.2-6.1,10.72-9.24,3-2.66,5.81-5.48,8.74-8.2a29.09,29.09,0,0,1,2.43-1.83l0.53,0.68-22.16,20c2,0.62,3.33,1.26,5.24-.61,6.66-6.54,13.66-12.75,20.53-19.08a1.8,1.8,0,0,1,.58-0.23l0.47,0.5-21,20.2c1.66,1.17,2.83,1,4.41-.59,4.83-4.81,9.94-9.33,14.94-14,1.87-1.74,3.71-3.5,5.57-5.25l0.57,0.62L154,177.53c1.82,1,2.83.89,4.15-.36,3.46-3.29,7.23-6.25,10.73-9.5,3-2.75,5.74-5.73,8.61-8.6,0.5-.5,1-1,1.53-1.49l0.66,0.67c-3.39,3.39-6.7,6.86-10.18,10.16s-7.17,6.46-10.61,10.24c0.87-.2,2-0.13,2.56-0.64,5.86-4.86,11.64-9.82,17.45-14.75a11.79,11.79,0,0,1,1.1-.74l0.49,0.6L162.6,178.61c2,1.19,2.22,1.14,4-.41q6.7-5.87,13.42-11.71l0.48,0.42a35.88,35.88,0,0,1-2.57,2.77c-3.1,2.73-6.28,5.39-9.4,8.1-0.58.5-1.07,1.11-1.61,1.69,1.66,1.28,2.75.82,4.05-.41,3.31-3.13,6.81-6.05,10.17-9.13a2.32,2.32,0,0,0,.46-1.69c-0.42-5.06-1.06-10.1-1.33-15.16-0.37-6.92-.41-13.86-0.73-20.79-0.09-2-.67-4-0.95-5.94-1-7.32-1.91-14.66-3.13-22a44.16,44.16,0,0,0-2.68-8.47,3.17,3.17,0,0,0-2.21-1.42c-2.21-.36-4.49-0.3-6.69-0.66-6.36-1.06-12.7-2.22-19-3.38-10.69-2-21.33-4.15-32.06-5.84C100.9,82.78,89,81.24,77,79.82c-8.41-1-16.87-1.53-25.31-2.34-5.9-.57-11.8-1.25-17.69-1.94-3.84-.45-4.73.43-4.33,4.23,0.82,7.72,1.4,15.47,2.41,23.16,1.35,10.2,3,20.36,4.54,30.54q1.45,9.64,2.92,19.28a16.51,16.51,0,0,0,.5,2.34c0.64,2.08,2.08,2.35,3.7.91q14.86-13.09,29.8-26.1a6.39,6.39,0,0,1,1.24-.68l0.41,0.51L43.76,157.37c2.06,0.71,3.29.5,4.84-.94,7.5-6.95,15.22-13.68,22.89-20.45,2.38-2.1,4.85-4.09,7.29-6.12l0.5,0.56c-5.17,4.46-10.4,8.85-15.48,13.41s-10.17,9.43-15.42,14.32c2,0.87,3.24.91,4.67-.84s3.74-3.19,5.53-4.89c4.31-4.09,8.48-8.32,12.82-12.38,3.38-3.16,6.93-6.13,10.43-9.17a0.93,0.93,0,0,1,1,.13L52.94,158.93c1.81,1.51,2.77.45,4.09-.8,7.15-6.8,14.43-13.46,21.64-20.2,1.85-1.73,3.59-3.59,5.42-5.36a11.6,11.6,0,0,1,1.54-1.08l0.51,0.62L57,159.79l0.25,0.69a12.15,12.15,0,0,0,3-1c6-4,10.57-9.46,15.69-14.37,3.61-3.46,7.19-6.94,10.79-10.41,0.54-.52,1.14-1,1.72-1.46l0.34,0.4-27.6,27.13c1,0.86,2.05.9,3.23-.23,4.4-4.2,8.88-8.32,13.26-12.54,4.55-4.37,9-8.82,13.54-13.21a1,1,0,0,1,1.09.13c-4.44,4.42-8.87,8.85-13.34,13.24s-9.15,8.88-13.77,13.37c1.71,1.23,2.86.3,4.24-1,7.06-6.57,14.25-13,21.34-19.56,1.33-1.22,2.41-2.71,3.67-4a12.27,12.27,0,0,1,1.77-1.29l0.63,0.74L69.76,162.31c1.79,1.12,2.07,1.07,3.59-.33Q86.19,150.22,99,138.49a13.78,13.78,0,0,1,1.38-1.05,3.53,3.53,0,0,1,1,0L73.94,163.37c1.06,0.76,2,1,3.35-.27,8.63-8,17.35-15.83,26-23.71a12.88,12.88,0,0,1,1.44-1l0.32,0.41c-4.52,4.21-9,8.41-13.54,12.63S82.54,160,78,164.31c2,1.06,3.52.87,5.3-.85C90,157,96.94,150.69,103.85,144.38c1.82-1.66,3.81-3.14,5.72-4.71l0.44,0.51c-0.41.44-.79,0.91-1.23,1.32q-8.23,7.61-16.49,15.19c-2.63,2.4-5.3,4.74-8,7.07-0.86.74-1.54,1.43-.69,2.58h0c-5.52-1.11-11-2.26-16.55-3.32C59,161.49,51,160.11,43,158.51A5,5,0,0,1,38.64,154c-1-7.17-2.23-14.3-3.23-21.47-1.6-11.41-3.15-22.83-4.59-34.27-0.8-6.33-1.25-12.7-2-19-0.58-4.94,1.31-7.51,6.33-7.76a66.93,66.93,0,0,1,8.47.3c1.33,0.1,2-.09,2.12-1.6a47.19,47.19,0,0,1,1.09-7.72,15.53,15.53,0,0,1,2.64-5.8,78.92,78.92,0,0,1,8.37-8.84,15.72,15.72,0,0,1,12.8-4.22c7.49,0.88,15,1.66,22.48,2.56,2.73,0.33,5.45.77,8.15,1.33a5.84,5.84,0,0,1,5,5.29c0.42,2.79,1,5.56,1.66,8.3s1.83,3.25,4.69,3.06a78.75,78.75,0,0,1,10.62,0c13.17,0.88,26.37,1.58,39.49,3,8.11,0.88,16.1,2.85,24.11,4.48,3.4,0.69,6,3,8.21,5.46,0.91,1,1.05,2.89,1.22,4.41a38,38,0,0,1,0,5.16c-0.07,2.53-.18,5.06-0.26,7.59-0.44,14-.85,28-1.32,42-0.19,5.65-.59,11.29-0.78,16.93-0.27,7.86-.33,15.72-0.71,23.57a23.82,23.82,0,0,1-1.66,6.2c-0.78,2.32-2.7,2.62-4.78,2.21-6-1.2-12-2.56-18.05-3.68-6.3-1.17-12.66-2.08-19-3.2-10.32-1.84-20.63-3.75-30.93-5.67a4.56,4.56,0,0,1-1.3-.76h0Zm71.7,3.25c0.23-5,.51-9.65.66-14.36,0.58-18.2,1.21-36.4,1.61-54.6,0.19-8.41-.06-16.82-0.25-25.23A4,4,0,0,0,189.74,78a23.2,23.2,0,0,0-6.92-3.33,122.3,122.3,0,0,0-12.27-1.56c-6.19-.71-12.38-1.5-18.58-2.09-8.23-.79-16.47-1.51-24.71-2.1-5-.36-10.09-0.58-15.13-0.53-5.38.06-6.49-.55-7.91-5.84-0.7-2.59-1.22-5.22-2-7.79-0.88-3-2.38-4-5.54-4.25-6-.55-11.89-1.27-17.84-1.89-4.82-.5-9.64-1-14.47-1.41A8.7,8.7,0,0,0,57,50c-2.23,2.38-4.52,4.72-6.75,7.11a3.09,3.09,0,0,0-.74,1.3c-1.11,4.48-2.17,9-3.3,13.68l2.94,0.21,1.37-10a8.24,8.24,0,0,1,1.26-.12c3.75,0.3,7.5.59,11.24,0.95,6.79,0.64,13.59,1.16,20.35,2,9.26,1.21,18.48,2.81,27.74,4.06,8.33,1.13,16.7,2,25,3,6.47,0.82,12.91,1.92,19.39,2.6,9.22,1,18.51,1.3,27.61,3.36,1.76,0.4,2.64,1,2.36,2.85-0.22,1.42.49,2,1.8,2.09a14.49,14.49,0,0,1,2.13.53l-0.17.7L186,84.12l-0.35.65a12.21,12.21,0,0,0,1.75,1.11,16.66,16.66,0,0,0,2.23.63l-0.18.75-3.3-.5c-0.92,3.23,2.92,1.2,3.32,3.36l-3.14-.32c-0.58,2.7,2.89,1.18,3,3.34l-3-.5c-0.93,3.11,2.94,1.5,3.12,3.63l-3.36-.4c-1,3.53,3.07,1.78,3.65,3.93l-3.71-.45c-1.73,3.71,2.95,2.18,3.36,4.34l-3.62-.43c0,2.8,3.13,1.39,3.87,3.47l-4.11-.64v2.44l4.23,1.51-0.2.65-3.92-.44c-0.64,1.53-.32,2.16,1.24,2.3a8.94,8.94,0,0,1,2.52,1.06l-0.24.62a7.53,7.53,0,0,0-2.06-.34,2.42,2.42,0,0,0-1.74.82c-0.44.92,0,1.64,1.16,1.75a22.21,22.21,0,0,1,2.54.5l-0.09.6h-3.28c-0.7,2,.12,2.56,1.73,2.7a18.47,18.47,0,0,1,2.3.48l-0.19.75a11.48,11.48,0,0,0-2.48-.31,4.91,4.91,0,0,0-1.63.83,4.74,4.74,0,0,0,1.17,1.42,14.54,14.54,0,0,0,2.65.8l-0.14.65-3.52-.28v2.85l3.5,0.57-0.72,1.78-3.58-.52-0.27,2.31,4.4,1.52-0.2.67-4-.44v1.79l3.8,1.48-0.19.66-3.66-.49-0.13,2.43,3.67,0.92-0.1.59h-3.23c-0.73,1.88.09,2.46,1.6,2.61,0.81,0.08,1.6.29,2.4,0.45l-0.17.78a14.89,14.89,0,0,0-2.64-.3,4.22,4.22,0,0,0-1.49.77,4.3,4.3,0,0,0,1.08,1.47,14.37,14.37,0,0,0,2.73.81l-0.09.65-3.51-.23v2.78l3.71,0.79-0.11.71h-3.62c-0.75,2.84,1.82,2.05,2.72,2.82l-1.63.77c0.47,0.29,1,.55,1.41.87a13.2,13.2,0,0,1,1.05.94l-3.1.6,2.88,2.45-2.54.68,3.4,1.9-3.29.58,3.17,1.82-3.07.88,2.66,1.5-2.45,1,2.21,1.69c-3.81,1.74.51,1.88,0.39,3.06l-2.06.53ZM49.89,72.46c2.58,0.27,4.8.54,7,.72,6.8,0.54,13.62.86,20.4,1.6,9,1,18,2.17,26.94,3.49,14,2.07,27.93,4.32,41.89,6.49,3.06,0.48,6.12,1.29,9.2,1.37a55,55,0,0,1,19.43,4.16,5,5,0,0,1,2.61,2.89q2.6,10,4.74,20c0.84,4,1.28,8.07,1.89,12.11a26.61,26.61,0,0,0,.49-6c0.13-8,.37-16,0.39-23.94,0-4.78-.27-9.56-0.54-14.34A2.18,2.18,0,0,0,183,79.59c-4-.8-8.07-1.65-12.15-2.1-6.2-.68-12.45-0.86-18.65-1.59-9.21-1.09-18.37-2.49-27.56-3.72-6.3-.85-12.62-1.6-18.92-2.46-2.57-.35-5.11-1-7.69-1.29-5.6-.73-11.22-1.39-16.83-2-9.29-1.07-18.59-2.12-27.9-3.09a2.2,2.2,0,0,0-1.83,1C50.81,66.86,50.42,69.5,49.89,72.46Zm125.58,21,0.13-1.21a28.24,28.24,0,0,0-5.13-2c-5.8-1.09-11.66-1.9-17.49-2.9-7.68-1.32-15.32-2.9-23-4-11-1.64-22.08-3.07-33.14-4.44-11.35-1.4-22.72-2.66-34.09-3.91C58,74.35,53.2,74,48.43,73.59,44,73.24,39.48,72.88,35,72.76c-1.38,0-2.78.68-4.18,1.06L31,74.35c1.87,0,3.75-.16,5.61,0,7.28,0.73,14.54,1.62,21.82,2.35s14.61,1.12,21.86,2.07c9.83,1.28,19.62,2.94,29.42,4.45,6.08,0.94,12.18,1.79,18.23,2.9,11.32,2.07,22.61,4.35,33.94,6.4,3.48,0.63,7,.83,10.57,1.13A16.58,16.58,0,0,0,175.47,93.41Zm17.8-16.13c-3.16-2.71-6-4.72-9.63-5.4-8.81-1.66-17.56-3.76-26.58-4.09-3.33-.12-6.66-0.25-10-0.5-8.67-.65-17.32-1.4-26-2.06a24.65,24.65,0,0,0-6.26-.06c-2.73.51-5.28,1-7.48-1.52a3.54,3.54,0,0,0-.65,1.41c0.57,1.6,1.86,2,3.45,2,4.85,0.09,9.71.12,14.55,0.46,7.73,0.54,15.46,1.26,23.18,2,9.09,0.88,18.16,1.88,27.25,2.8,5.71,0.58,11.4,1.15,16,5.17C191.43,77.78,192.26,77.42,193.27,77.29ZM182.55,183.43l0.74-.25-1.78-12.36-10.17,9.47,0.55,0.76a10.19,10.19,0,0,0,1.94-1.09c1.79-1.58,3.49-3.26,5.26-4.87a5.85,5.85,0,0,1,1.22-.67l0.46,0.62-6.5,6c3.86,2,4.88-2,7.2-3.06l0.46,0.46L178.7,182c1.55,1.84,2.24-.79,3.36-0.68ZM102.68,50.14V49.24a50.45,50.45,0,0,0-5.58-1.33c-6.11-.77-12.22-1.43-18.35-2.05-4-.41-8.06-0.74-12.1-1a15.84,15.84,0,0,0-3.45.56c4.6,0.73,9.08,1,13.54,1.48,5.54,0.55,11.08,1.13,16.6,1.86,2.55,0.34,5,1.11,7.57,1.6A5.6,5.6,0,0,0,102.68,50.14Zm81.23,93.44c-1.56,1.07-4,1-2.82,3.94C182.22,146.3,184.68,146.49,183.91,143.58Zm-4.33-16.91c2.61-.84,3.29-1.78,2.55-3.65C180.94,124,178.56,124.12,179.59,126.68Zm1.91,26.65c2.84-.7,3-1,2.18-3C181.25,151.27,181.09,151.49,181.5,153.33Zm-3.65-41.49c2.45-1.15,2.79-1.86,1.72-3.61C178.13,109,176.81,109.87,177.85,111.84Zm7.52,61.79c-1.31.77-3.44,1-1.8,3.32C185,176.37,186.56,175.91,185.37,173.63Zm-1.39-20c-1.47.69-3.15,1.1-2.17,3.42C183.24,156.41,185.11,156.22,184,153.68ZM179.13,105c-2.59,1.21-2.79,1.63-1.61,3.35C179.87,107.05,179.87,107.05,179.13,105Zm1.36,44.56,0.7,0.77c1.45-.53,3-1,3-2.82l-0.59-.59Zm-1.64-29.21c2.8-.75,3.28-1.4,2.17-3.63C180.79,118.44,178.11,118.05,178.86,120.32Zm12.56,6.45,1,0.52c1.07-.78,2.2-1.53.83-3.56Zm-11.47,3.16c1.62-.9,3.34-1.3,2.82-3.67C181.44,127.16,179.66,127.47,179.94,129.93Zm11.22,20.51c1.52-.75,2.46-1.58,1.77-3.43C191.15,147.55,190.43,148.5,191.16,150.44Zm2-62.66c2.24-1,2.37-1.28,1.5-3.45C192.77,84.9,192.53,86.13,193.13,87.78Zm-1.26,73.55-1.67,3.58,0.68,0.32C192.67,164.6,193.16,163.38,191.88,161.33ZM180.81,137.9c2.67-1.06,3-1.6,2.17-3.23C182.07,135.63,180,135.69,180.81,137.9Zm2.43,35.66c1.25-1,3.18-1.27,1.77-3.33C182.59,170.9,182.59,170.9,183.24,173.56Zm-2.54-32.88c2.7-.28,3.34-1,2.71-3C182.54,138.76,180.44,138.53,180.7,140.68Zm1.18-20.82c-1,1.18-3.21,1.06-2.46,3.39C180.31,122.29,182.7,122.57,181.88,119.86Zm-3.25-2.39c2.46-1.2,2.74-1.65,2.06-3.4C179.66,115,177.75,115.32,178.63,117.47Zm4.15,46c1.32-.67,2.49-1.35,1.94-3.31C183,160.86,181.4,161.32,182.78,163.47Zm9.83-69c2.62-.25,2.88-0.88,1.45-3.55Zm-8.82,46.17c-1.2,1-3.5.61-2.87,3.31C182.12,143,184.22,143.23,183.79,140.66ZM176.35,102c2.16-1.23,2.18-1.3,1-2.93C175.45,100.22,175.45,100.22,176.35,102Zm17.06,49.17-1.13-.6-1.71,3.31,1.06,0.56ZM184.49,157c-1.19.82-2.85,0.86-2.54,3.16C183.37,159.51,185,159.43,184.49,157Zm-1.79,12.47c2.29-.37,2.51-0.65,2.11-2.73C183.68,167.37,182,167.46,182.7,169.48ZM180,131.72l0.48,0.52c3.05-1,3.05-1,2.14-3Zm14.27-51.26-1.72,2.79C194.89,83.41,195.39,82.43,194.26,80.46Zm-2.52,101-0.52-.82-4.3,2.87,0.44,0.69Zm3.24-71.5-1.12-.65L192.27,112l1.06,0.63ZM194.11,133l-1.11-.67-1.61,2.73,1.05,0.63Zm-1.8-30.83c3-.12,2.42-1.6,2.3-2.87L194,99ZM191,139.57c3.16-.23,2.43-1.72,2.28-2.95l-0.66-.32Zm-5.13,41c-1.79,1-1.82,1.06-1,2.76C186.71,182.15,186.71,182.15,185.87,180.59Zm6.22-64.16c2.55-.47,2.73-0.93,1.4-3.6Zm-9.85,49.4,0.51,0.51c2.43-1,2.43-1,1.8-3Zm3.83,12-1.15-.65-1.52,2.71,1,0.56ZM192,80.2l1.08,0.65,1.31-2.27a6.27,6.27,0,0,0-1.13-.53A22.83,22.83,0,0,0,192,80.2Z" transform="translate(-28.74 -43.51)"/><path d="M83.6,166.35c1.38-1,2.86-1.82,4.13-2.91q8.28-7.06,16.46-14.24c2.5-2.21,4.85-4.59,7.29-6.86a20.77,20.77,0,0,1,1.76-1.34l0.55,0.69L86.55,166c1.49,0.71,2.44.73,3.7-.5,3-3,6.3-5.8,9.58-8.54,5.46-4.55,11-9,16.52-13.48a3.15,3.15,0,0,1,1.86-.73L90.43,166.39l0.43,1c1-.25,2.32-0.18,3.06-0.78,5.62-4.56,11.13-9.23,16.67-13.89,3.22-2.71,6.4-5.45,9.62-8.15a2.49,2.49,0,0,1,1.94-.6L94.42,168.06l-10.82-1.73v0Z" transform="translate(-28.74 -43.51)"/><path d="M42.48,153.14a8.13,8.13,0,0,1,1-1.6,25.71,25.71,0,0,1,2.29-2l23.63-19.4A2.32,2.32,0,0,1,71,129.6a3.8,3.8,0,0,1-.65,1.3Q60,139.38,49.67,147.8l-6.82,5.59Z" transform="translate(-28.74 -43.51)"/><path d="M128,145.62c-3.35,3-6.66,6-10.07,8.84-5.2,4.39-10.49,8.68-15.72,13a7.2,7.2,0,0,0-1.06,1.49l0.46,0.49L99.13,169l28.5-23.79Z" transform="translate(-28.74 -43.51)"/><path d="M107.15,170.61l-3.28-.77,27.76-23.32,0.28,0.3c-2.77,2.54-5.51,5.1-8.3,7.61s-5.81,5.23-8.82,7.73-6,4.75-8.87,7l1.21,1.45h0Z" transform="translate(-28.74 -43.51)"/><path d="M67.5,127.74L42.25,149.22l-0.56-.35A8.38,8.38,0,0,1,43,147c2.06-1.71,4.27-3.25,6.32-5,5.32-4.49,10.57-9,15.87-13.56,0.57-.48,1.22-0.87,1.83-1.3Z" transform="translate(-28.74 -43.51)"/><path d="M107.14,170.61a12.74,12.74,0,0,0,3.37-1.46c8.31-7,16.54-14.14,24.81-21.22a1.12,1.12,0,0,1,.95-0.22,9.53,9.53,0,0,1-.83.95q-11.56,10.25-23.13,20.5a15.77,15.77,0,0,0-1.53,2l-3.61-.51h0Z" transform="translate(-28.74 -43.51)"/><path d="M117.49,171.81H113.1l25.43-22.51,0.4,0.44L115.1,171.45l2.36,0.37Z" transform="translate(-28.74 -43.51)"/><path d="M41.81,144.23a5.36,5.36,0,0,1,.92-1.53q9.63-7.77,19.32-15.46c0.13-.11.38-0.08,0.9,0.31L42.22,144.33Z" transform="translate(-28.74 -43.51)"/><path d="M59.34,125.21c-5,6.35-12.45,10-17.75,16l-0.54-.42a8.12,8.12,0,0,1,1.08-1.74c1.2-1.15,2.47-2.25,3.78-3.29C50.37,132.25,54.86,128.74,59.34,125.21Z" transform="translate(-28.74 -43.51)"/><path d="M39.83,137.18c4.85-5.68,11.13-9.81,16.39-15l0.68,0.73L40.3,137.59Z" transform="translate(-28.74 -43.51)"/><path d="M40.18,133.61c2.06-4.31,6.27-6.55,9.28-10L50,124.19Z" transform="translate(-28.74 -43.51)"/><path d="M33.53,85.49L40.43,79,41,79.66l-6.89,6.45Z" transform="translate(-28.74 -43.51)"/><path d="M39,130l7-6.62,0.45,0.48-7,6.65Z" transform="translate(-28.74 -43.51)"/><path class="cls-1" d="M189.17,175.07l-2.59-.92,2.06-.53c0.12-1.18-4.2-1.32-.39-3.06L186,168.87l2.45-1-2.66-1.5,3.07-.88-3.17-1.82,3.29-.58-3.4-1.9,2.54-.68L185.29,158l3.1-.6a13.2,13.2,0,0,0-1.05-.94c-0.45-.31-0.94-0.58-1.41-0.87l1.63-.77c-0.9-.77-3.48,0-2.72-2.82h3.62l0.11-.71-3.71-.79v-2.78l3.51,0.23,0.09-.65a14.37,14.37,0,0,1-2.73-.81,4.3,4.3,0,0,1-1.08-1.47,4.22,4.22,0,0,1,1.49-.77,14.89,14.89,0,0,1,2.64.3l0.17-.78c-0.8-.15-1.59-0.36-2.4-0.45-1.51-.15-2.33-0.73-1.6-2.61h3.23l0.1-.59-3.67-.92,0.13-2.43,3.66,0.49,0.19-.66-3.8-1.48v-1.79l4,0.44,0.2-.67-4.4-1.52,0.27-2.31,3.58,0.52,0.72-1.78-3.5-.57v-2.85l3.52,0.28,0.14-.65a14.54,14.54,0,0,1-2.65-.8,4.74,4.74,0,0,1-1.17-1.42,4.91,4.91,0,0,1,1.63-.83,11.48,11.48,0,0,1,2.48.31l0.19-.75a18.47,18.47,0,0,0-2.3-.48c-1.61-.14-2.43-0.74-1.73-2.7H189l0.09-.6a22.21,22.21,0,0,0-2.54-.5c-1.21-.1-1.6-0.83-1.16-1.75a2.42,2.42,0,0,1,1.74-.82,7.53,7.53,0,0,1,2.06.34l0.24-.62a8.94,8.94,0,0,0-2.52-1.06c-1.56-.14-1.88-0.77-1.24-2.3l3.92,0.44,0.2-.65-4.23-1.51V106.1l4.11,0.64c-0.74-2.08-3.9-.67-3.87-3.47l3.62,0.43c-0.42-2.16-5.09-.62-3.36-4.34l3.71,0.45c-0.58-2.15-4.65-.4-3.65-3.93l3.36,0.4c-0.18-2.13-4.05-.52-3.12-3.63l3,0.5c-0.15-2.16-3.61-.64-3-3.34l3.14,0.32c-0.4-2.16-4.24-.14-3.32-3.36l3.3,0.5,0.18-.75a16.66,16.66,0,0,1-2.23-.63,12.21,12.21,0,0,1-1.75-1.11l0.35-.65,3.22,0.31,0.17-.7a14.49,14.49,0,0,0-2.13-.53c-1.32-.13-2-0.67-1.8-2.09,0.28-1.83-.6-2.45-2.36-2.85-9.1-2.05-18.39-2.4-27.61-3.36-6.48-.67-12.92-1.78-19.39-2.6-8.34-1.05-16.71-1.9-25-3-9.26-1.25-18.47-2.85-27.74-4.06-6.76-.88-13.56-1.4-20.35-2-3.74-.36-7.49-0.64-11.24-0.95a8.24,8.24,0,0,0-1.26.12l-1.37,10-2.94-.21c1.13-4.7,2.19-9.2,3.3-13.68a3.09,3.09,0,0,1,.74-1.3C52.46,54.76,54.75,52.42,57,50a8.7,8.7,0,0,1,7.43-2.88c4.83,0.42,9.65.91,14.47,1.41,5.95,0.62,11.88,1.34,17.84,1.89,3.16,0.29,4.67,1.22,5.54,4.25,0.74,2.57,1.27,5.21,2,7.79,1.42,5.29,2.53,5.9,7.91,5.84,5-.05,10.1.17,15.13,0.53,8.25,0.58,16.48,1.31,24.71,2.1,6.2,0.6,12.39,1.38,18.58,2.09a122.3,122.3,0,0,1,12.27,1.56A23.2,23.2,0,0,1,189.74,78a4,4,0,0,1,1.46,2.92c0.19,8.41.44,16.83,0.25,25.23-0.4,18.2-1,36.4-1.61,54.6C189.69,165.42,189.41,170.12,189.17,175.07Z" transform="translate(-28.74 -43.51)"/><path class="cls-1" d="M49.89,72.46c0.53-3,.92-5.6,1.55-8.19a2.2,2.2,0,0,1,1.83-1c9.3,1,18.6,2,27.9,3.09C86.78,67,92.4,67.7,98,68.44c2.58,0.34,5.12.94,7.69,1.29,6.3,0.86,12.62,1.62,18.92,2.46,9.19,1.23,18.36,2.63,27.56,3.72,6.19,0.73,12.45.91,18.65,1.59,4.08,0.45,8.12,1.29,12.15,2.1a2.18,2.18,0,0,1,1.37,1.53c0.28,4.77.56,9.56,0.54,14.34,0,8-.26,16-0.39,23.94a26.61,26.61,0,0,1-.49,6c-0.62-4-1.05-8.12-1.89-12.11q-2.12-10.08-4.74-20a5,5,0,0,0-2.61-2.89,55,55,0,0,0-19.43-4.16c-3.08-.09-6.13-0.9-9.2-1.37-14-2.18-27.91-4.43-41.89-6.49-9-1.32-17.94-2.51-26.94-3.49-6.78-.74-13.6-1.06-20.4-1.6C54.69,73,52.47,72.73,49.89,72.46Z" transform="translate(-28.74 -43.51)"/><path class="cls-1" d="M175.47,93.41a16.58,16.58,0,0,1-3,.27c-3.53-.3-7.09-0.5-10.57-1.13-11.33-2-22.61-4.33-33.94-6.4-6.05-1.1-12.15-2-18.23-2.9-9.8-1.51-19.59-3.17-29.42-4.45-7.25-.95-14.58-1.33-21.86-2.07s-14.54-1.62-21.82-2.35c-1.85-.19-3.74,0-5.61,0l-0.21-.53c1.39-.37,2.79-1.09,4.18-1.06,4.48,0.12,9,.48,13.42.83C53.2,74,58,74.35,62.72,74.88c11.37,1.25,22.74,2.51,34.09,3.91,11.06,1.37,22.12,2.8,33.14,4.44,7.71,1.15,15.35,2.73,23,4,5.82,1,11.68,1.81,17.49,2.9a28.24,28.24,0,0,1,5.13,2Z" transform="translate(-28.74 -43.51)"/><path class="cls-1" d="M193.27,77.29c-1,.13-1.84.49-2.13,0.24-4.61-4-10.31-4.59-16-5.17-9.08-.92-18.16-1.92-27.25-2.8-7.72-.75-15.44-1.47-23.18-2-4.84-.34-9.7-0.36-14.55-0.46-1.59,0-2.88-.43-3.45-2a3.54,3.54,0,0,1,.65-1.41c2.2,2.56,4.75,2,7.48,1.52a24.65,24.65,0,0,1,6.26.06c8.67,0.66,17.32,1.4,26,2.06,3.32,0.25,6.66.38,10,.5,9,0.33,17.77,2.43,26.58,4.09C187.26,72.57,190.11,74.57,193.27,77.29Z" transform="translate(-28.74 -43.51)"/><path class="cls-1" d="M182.55,183.43l-0.49-2.14c-1.12-.11-1.8,2.52-3.36.68l3.23-3.55-0.46-.46c-2.33,1-3.35,5.06-7.2,3.06l6.5-6-0.46-.62a5.85,5.85,0,0,0-1.22.67c-1.77,1.61-3.47,3.29-5.26,4.87a10.19,10.19,0,0,1-1.94,1.09l-0.55-.76,10.17-9.47,1.78,12.36Z" transform="translate(-28.74 -43.51)"/><path class="cls-1" d="M102.68,50.14a5.6,5.6,0,0,1-1.77.24c-2.53-.49-5-1.26-7.57-1.6-5.52-.73-11.06-1.32-16.6-1.86-4.46-.44-8.94-0.75-13.54-1.48a15.84,15.84,0,0,1,3.45-.56c4,0.23,8.08.56,12.1,1C84.87,46.48,91,47.14,97.1,47.91a50.45,50.45,0,0,1,5.58,1.33v0.91Z" transform="translate(-28.74 -43.51)"/><path class="cls-1" d="M183.91,143.58c0.77,2.9-1.69,2.72-2.82,3.94C179.94,144.6,182.35,144.65,183.91,143.58Z" transform="translate(-28.74 -43.51)"/><path class="cls-1" d="M179.59,126.68c-1-2.56,1.35-2.64,2.55-3.65C182.88,124.9,182.19,125.84,179.59,126.68Z" transform="translate(-28.74 -43.51)"/><path class="cls-1" d="M181.5,153.33c-0.41-1.84-.24-2.06,2.18-3C184.53,152.37,184.34,152.63,181.5,153.33Z" transform="translate(-28.74 -43.51)"/><path class="cls-1" d="M177.85,111.84c-1-2,.28-2.82,1.72-3.61C180.63,110,180.29,110.69,177.85,111.84Z" transform="translate(-28.74 -43.51)"/><path class="cls-1" d="M185.37,173.63c1.19,2.28-.35,2.74-1.8,3.32C181.92,174.62,184.06,174.41,185.37,173.63Z" transform="translate(-28.74 -43.51)"/><path class="cls-1" d="M184,153.68c1.13,2.54-.74,2.73-2.17,3.42C180.83,154.78,182.51,154.37,184,153.68Z" transform="translate(-28.74 -43.51)"/><path class="cls-1" d="M179.13,105c0.73,2.08.73,2.08-1.61,3.35C176.34,106.6,176.54,106.19,179.13,105Z" transform="translate(-28.74 -43.51)"/><path class="cls-1" d="M180.49,149.54l3.15-2.64,0.59,0.59c-0.08,1.81-1.59,2.29-3,2.82Z" transform="translate(-28.74 -43.51)"/><path class="cls-1" d="M178.86,120.32c-0.75-2.27,1.93-1.88,2.17-3.63C182.14,118.93,181.66,119.57,178.86,120.32Z" transform="translate(-28.74 -43.51)"/><path class="cls-1" d="M191.41,126.77l1.8-3c1.37,2,.24,2.79-0.83,3.56Z" transform="translate(-28.74 -43.51)"/><path class="cls-1" d="M179.94,129.93c-0.28-2.46,1.5-2.77,2.82-3.67C183.28,128.62,181.56,129,179.94,129.93Z" transform="translate(-28.74 -43.51)"/><path class="cls-1" d="M191.16,150.44c-0.73-1.94,0-2.89,1.77-3.43C193.62,148.86,192.68,149.69,191.16,150.44Z" transform="translate(-28.74 -43.51)"/><path class="cls-1" d="M193.13,87.78c-0.6-1.65-.37-2.88,1.5-3.45C195.5,86.5,195.37,86.81,193.13,87.78Z" transform="translate(-28.74 -43.51)"/><path class="cls-1" d="M191.88,161.33c1.28,2,.79,3.27-1,3.89l-0.68-.32Z" transform="translate(-28.74 -43.51)"/><path class="cls-1" d="M180.81,137.9c-0.86-2.21,1.27-2.26,2.17-3.23C183.85,136.29,183.47,136.84,180.81,137.9Z" transform="translate(-28.74 -43.51)"/><path class="cls-1" d="M183.24,173.56c-0.65-2.66-.65-2.66,1.77-3.33C186.42,172.29,184.49,172.6,183.24,173.56Z" transform="translate(-28.74 -43.51)"/><path class="cls-1" d="M180.7,140.68c-0.26-2.14,1.84-1.92,2.71-3C184,139.72,183.4,140.4,180.7,140.68Z" transform="translate(-28.74 -43.51)"/><path class="cls-1" d="M181.88,119.86c0.82,2.71-1.57,2.43-2.46,3.39C178.67,120.92,180.86,121,181.88,119.86Z" transform="translate(-28.74 -43.51)"/><path class="cls-1" d="M178.63,117.47c-0.88-2.15,1-2.45,2.06-3.4C181.37,115.82,181.09,116.28,178.63,117.47Z" transform="translate(-28.74 -43.51)"/><path class="cls-1" d="M182.78,163.47c-1.37-2.15.21-2.61,1.94-3.31C185.27,162.11,184.1,162.79,182.78,163.47Z" transform="translate(-28.74 -43.51)"/><path class="cls-1" d="M192.61,94.48l1.45-3.55C195.49,93.6,195.23,94.23,192.61,94.48Z" transform="translate(-28.74 -43.51)"/><path class="cls-1" d="M183.79,140.66c0.43,2.58-1.67,2.36-2.87,3.31C180.29,141.27,182.59,141.67,183.79,140.66Z" transform="translate(-28.74 -43.51)"/><path class="cls-1" d="M176.35,102c-0.9-1.77-.9-1.77,1-2.93C178.53,100.69,178.51,100.76,176.35,102Z" transform="translate(-28.74 -43.51)"/><path class="cls-1" d="M193.41,151.16l-1.78,3.27-1.06-.56,1.71-3.31Z" transform="translate(-28.74 -43.51)"/><path class="cls-1" d="M184.49,157c0.49,2.42-1.12,2.5-2.54,3.16C181.64,157.87,183.3,157.83,184.49,157Z" transform="translate(-28.74 -43.51)"/><path class="cls-1" d="M182.7,169.48c-0.67-2,1-2.12,2.11-2.73C185.22,168.83,185,169.12,182.7,169.48Z" transform="translate(-28.74 -43.51)"/><path class="cls-1" d="M180,131.72l2.62-2.47c0.91,2,.91,2-2.14,3Z" transform="translate(-28.74 -43.51)"/><path class="cls-1" d="M194.26,80.46c1.13,2,.63,3-1.72,2.79Z" transform="translate(-28.74 -43.51)"/><path class="cls-1" d="M191.74,181.42l-4.38,2.74-0.44-.69,4.3-2.87Z" transform="translate(-28.74 -43.51)"/><path class="cls-1" d="M195,109.93l-1.65,2.7-1.06-.63,1.59-2.73Z" transform="translate(-28.74 -43.51)"/><path class="cls-1" d="M194.11,133l-1.66,2.69-1.05-.63,1.61-2.73Z" transform="translate(-28.74 -43.51)"/><path class="cls-1" d="M192.31,102.21L194,99l0.63,0.33C194.73,100.61,195.26,102.09,192.31,102.21Z" transform="translate(-28.74 -43.51)"/><path class="cls-1" d="M191,139.57l1.62-3.27,0.66,0.32C193.43,137.85,194.16,139.35,191,139.57Z" transform="translate(-28.74 -43.51)"/><path class="cls-1" d="M185.87,180.59c0.84,1.56.84,1.56-1,2.76C184.06,181.65,184.09,181.56,185.87,180.59Z" transform="translate(-28.74 -43.51)"/><path class="cls-1" d="M192.09,116.42l1.4-3.6C194.82,115.49,194.64,115.95,192.09,116.42Z" transform="translate(-28.74 -43.51)"/><path class="cls-1" d="M182.24,165.82l2.31-2.51c0.63,2.05.63,2.05-1.8,3Z" transform="translate(-28.74 -43.51)"/><path class="cls-1" d="M186.08,177.83l-1.7,2.62-1-.56,1.52-2.71Z" transform="translate(-28.74 -43.51)"/><path class="cls-1" d="M192,80.2a22.83,22.83,0,0,1,1.26-2.15,6.27,6.27,0,0,1,1.13.53l-1.31,2.27Z" transform="translate(-28.74 -43.51)"/><path class="cls-2" d="M82.29,165.22l42.06,7.19,0.34,1.25s-34.9-5.56-34.88-6-8.12-2-8.12-2Z" transform="translate(-28.74 -43.51)"/></svg>