<svg id="headphones" xmlns="http://www.w3.org/2000/svg" viewBox="0 0 147.1 162.98"><defs><style>.cls-1{fill:#fff;}</style></defs><title>CC_comodicons_big_headphones</title><path class="cls-1" d="M43.31,88.06L47,89.75l0.79,0.48,4.74-3.41,8.8-3.32L62,85l-0.66,3.73L59.69,96l1.67,5.36-0.72,1-4.45,2.83-3.74,10-3.7,33,10.42,19.25,1.48,1.68H56.19l-3.74-.53s-2.5.38-2.19-.21-4.33-2.62-4.33-2.62-2.69-4.62-2.88-5.06-2.45-12.52-2.45-12.52l-0.41-10.62-0.82-6.42s1.27-10,1.23-10.31,0.09-3.58.09-3.58l0.71-4.42s-0.66-2.36-.72-2.63-0.23-5.1-.23-5.1l-1.09-2V93.39Z" transform="translate(-36.69 -30.28)"/><path class="cls-1" d="M60.55,90.91h0a2.76,2.76,0,0,0-.4,1.51A15.58,15.58,0,0,0,59.77,98a8.36,8.36,0,0,0,1.13,3.89c-1.51,1.11-3.06,2-4.45,3.07a29.89,29.89,0,0,0-4.07,4.23c-1,1.14-1.79,2.43-2.65,3.67a7.66,7.66,0,0,0-.72,1.32c-0.5,1.15-.91,2.33-1.44,3.46a56.75,56.75,0,0,0-2.09,6.56,4.53,4.53,0,0,1-.08.9,5.13,5.13,0,0,0-.65,2.61c-0.2,2.62-.37,5.24-0.44,7.86a28.51,28.51,0,0,0,.23,4.27,65.62,65.62,0,0,0,1.3,7.18c0.54,2.25,1.23,4.45,2,6.64,0.68,2,1.44,4,2.25,6a24.49,24.49,0,0,0,2.4,5.05c0.76,1.08,1.5,2.18,2.25,3.27,0.11,0.17.2,0.35,0.36,0.62a3.33,3.33,0,0,1-.67-0.1,8,8,0,0,1-3.71-2.86c-0.61-.89-1.16-1.81-1.74-2.72a34,34,0,0,1-4.38-12.08c-0.33-1.78-.61-3.56-0.91-5.34-0.21-1.25-.51-2.49-0.6-3.75-0.24-3.54-.5-7.07-0.39-10.62,0-.34.07-0.67,0.1-1,0.1-1.31-.18-2.65.28-3.94a2.27,2.27,0,0,0,0-.69l-0.78-.1a3.77,3.77,0,0,1,.05.65c-0.13,1.15-.34,2.29-0.39,3.44-0.1,2.18-.17,4.35-0.16,6.53s0.09,4.22.24,6.32a33.16,33.16,0,0,0,.58,3.76c0.6,3.19,1,6.42,1.94,9.56a29.25,29.25,0,0,0,2.39,6.07,25.29,25.29,0,0,0,2.87,4.69c0.44,0.5.85,1,1.33,1.58a1.69,1.69,0,0,1-.34-0.08,14.16,14.16,0,0,1-1.25-.67,13.59,13.59,0,0,1-5.35-6.71A39.57,39.57,0,0,1,42,153.07c-0.36-2.11-.92-4.2-1.19-6.32a55.26,55.26,0,0,1-.63-7.23c0-1.8-.05-3.59,0-5.39,0-.34,0-0.68,0-1,0.08-1.06.2-2.12,0.28-3.19s0.12-2,.21-3.07c0.07-.8.23-1.59,0.25-2.38a14.54,14.54,0,0,1,.28-3A6.59,6.59,0,0,0,41.3,120a0.5,0.5,0,0,0-.3-0.39,0.52,0.52,0,0,0-.43.26,5.76,5.76,0,0,0-.2,1.12c-0.25,2.33-.53,4.66-0.72,7-0.23,2.78-.52,5.56-0.55,8.34s0.17,5.64.41,8.44a54.79,54.79,0,0,0,.89,5.54c0.44,2.32.94,4.64,1.46,6.95a12.89,12.89,0,0,0,.71,2.26,31.81,31.81,0,0,0,2.12,4.54,11.52,11.52,0,0,0,3.9,3.92,8.29,8.29,0,0,0,2.45.94,15.79,15.79,0,0,1,3.69.76,2.64,2.64,0,0,0,1.1.25,4.06,4.06,0,0,1,2.52.94,17.1,17.1,0,0,0,3.93,2.4A24.27,24.27,0,0,0,67.88,175a28.79,28.79,0,0,0,5.12.11,52.86,52.86,0,0,0,10-1.64,44.18,44.18,0,0,0,6.36-2.2,15.88,15.88,0,0,0,3.82-2.08,37.72,37.72,0,0,0,6.57-6.72,7.23,7.23,0,0,0,1.22-2.43,23.46,23.46,0,0,0,.69-3.93c0.19-1.88.31-3.77,0.34-5.66,0-2.11,0-4.23-.15-6.34-0.18-2.84-.44-5.68-0.74-8.51A53.14,53.14,0,0,0,100,129.2,48.72,48.72,0,0,0,95.87,118,30.26,30.26,0,0,0,92,111.82,18.36,18.36,0,0,0,90.48,110a57.6,57.6,0,0,0-6.92-5,13.71,13.71,0,0,0-2-1.12c-1.82-.8-3.63-1.65-5.51-2.28a20,20,0,0,0-4.42-.94,28.2,28.2,0,0,0-4.36.07,26.46,26.46,0,0,0-2.81.38c-0.62.1-1.24,0.28-1.85,0.42a0.61,0.61,0,0,1-.75-0.19,5.75,5.75,0,0,1-1.08-3.13A25,25,0,0,1,61,95.13a20.4,20.4,0,0,1,.45-3.58,35.87,35.87,0,0,0,.92-4.17,6.65,6.65,0,0,0-.34-3.84c-0.59-1.25-1.28-2.46-2-3.65a1.78,1.78,0,0,1-.21-1.54c0.11-.33.3-0.64,0.39-1a21.69,21.69,0,0,0,.81-3,4.73,4.73,0,0,1,.6-2.12,8,8,0,0,0,1-3.35c0.16-1.13.25-2.26,1.32-3a1.92,1.92,0,0,0,.42-0.62A1.12,1.12,0,0,1,64.55,65C66,64,66.67,62.34,67.74,61c0.73-.9,1.39-1.85,2.18-2.7a13.41,13.41,0,0,1,2.94-2.16c0.53-.33,1.11-0.59,1.63-0.93,1-.61,1.88-1.29,2.87-1.86a23.67,23.67,0,0,1,3.35-1.76c2-.77,4.06-1.4,6.1-2.07a22.14,22.14,0,0,1,5.45-1.18,29.73,29.73,0,0,1,8.11.67c2.44,0.52,4.89,1,7.32,1.61a41.86,41.86,0,0,1,7.9,2.69c2.11,1,4.28,1.88,6.38,2.88,1.71,0.82,3.41,1.67,5,2.63s3.48,2.19,5.18,3.34a19,19,0,0,1,2.61,2.06q4.81,4.69,9.53,9.46a28.14,28.14,0,0,1,2.07,2.36,47.12,47.12,0,0,1,5.89,8.63c0.26,0.54.64,1,.94,1.54,0.47,0.82.92,1.65,1.37,2.48a11.62,11.62,0,0,0,2.83,3,2.12,2.12,0,0,1,.67,1.31c0.15,0.81.23,1.63,0.42,2.42,0.4,1.63.77,3.28,1.33,4.86a54.21,54.21,0,0,1,1.63,5.63,2.76,2.76,0,0,1,0,.63c-1.11.75-1.11,0.75-1.27,2.13-0.05.44-.15,0.88-0.16,1.32-0.09,2.34-.16,4.67-0.24,7.12-1,0-2.09,0-3.17,0a1.16,1.16,0,0,1-.54-0.15,3.76,3.76,0,0,0-2.2-.37,11.61,11.61,0,0,0-3.73,1,21.8,21.8,0,0,0-4.49,2.61,36.6,36.6,0,0,0-5.61,5.25,73.54,73.54,0,0,0-9,13A69.07,69.07,0,0,0,126,149.33c-0.88,2.48-2,4.9-2.64,7.44a61.4,61.4,0,0,0-2.08,12.16,17.55,17.55,0,0,0,.78,7.51,18.36,18.36,0,0,1,.75,2.55,3.82,3.82,0,0,0,1.14,1.94,2.67,2.67,0,0,1,.79,1.36,7.66,7.66,0,0,0,1.42,2.86,14.17,14.17,0,0,0,2.6,2.48,17.53,17.53,0,0,0,4.82,2.81,17.79,17.79,0,0,0,8.35.68,3.4,3.4,0,0,1,2.51.55,8.47,8.47,0,0,0,4.14,1.56,12.72,12.72,0,0,0,5.12-.86,2.59,2.59,0,0,0,.59-0.29l3.05-2.08a6.64,6.64,0,0,0,.91-0.68,48.71,48.71,0,0,0,4.77-5.43c2.7-3.57,5.32-7.19,8.11-10.68a43.42,43.42,0,0,0,5.82-10,54.57,54.57,0,0,0,2.39-7c0.72-2.56,1.27-5.16,1.79-7.77a40.75,40.75,0,0,0,.51-4.23c0.12-1.26.18-2.52,0.25-3.78,0-.44,0-0.88,0-1.32a25.58,25.58,0,0,0-.3-5.85c-0.33-1.38-.49-2.81-0.83-4.19a7.44,7.44,0,0,1,.31-3.89c0.41-1.45.77-2.93,1.07-4.41,0.41-2,.74-4.11,1.12-6.17a15.6,15.6,0,0,0,.53-4.1c-0.06-.78-0.1-1.57-0.2-2.35-0.07-.55-0.24-1.09-0.34-1.64-0.34-1.89-.66-3.79-1-5.68-0.26-1.42-.55-2.84-0.83-4.26-0.22-1.13-.43-2.27-0.67-3.4-0.11-.51-0.27-1-0.39-1.53s-0.22-1.24-.39-1.84c-0.39-1.33-.81-2.65-1.24-4a7,7,0,0,0-.43-0.93,27.44,27.44,0,0,1-1.79-3,23,23,0,0,0-1.12-2.6c-1.24-2.48-2.51-4.94-3.77-7.4-1.17-2.29-2.29-4.61-3.54-6.86-0.92-1.65-2-3.2-3-4.8-0.37-.59-0.66-1.23-1.07-1.77s-1-1.23-1.45-1.84c-1.24-1.57-2.62-3-4-4.53a7.07,7.07,0,0,1-1.74-2,1,1,0,0,0-.4-0.37c-1-.67-2-1.35-3.09-2-2.32-1.4-4.63-2.81-7-4.15s-4.93-2.73-7.41-4.06a51.75,51.75,0,0,0-5.66-2.83,18.38,18.38,0,0,1-2.33-.95A16.7,16.7,0,0,0,128,34.5c-0.57-.18-1.11-0.44-1.67-0.64a17.3,17.3,0,0,1-2.65-1.05,1,1,0,0,0-.27-0.08c-1.84-.42-3.67-0.86-5.51-1.24-1-.22-2.12-0.32-3.18-0.48a3.17,3.17,0,0,1-.53-0.18,1.82,1.82,0,0,0-.52-0.17,24.7,24.7,0,0,1-2.5-.17c-1.31-.16-2.63-0.17-4-0.2-0.53,0-1.07.11-1.6,0.12-1.2,0-2.4,0-3.6,0-1.39,0-2.77.07-4.16,0.15a35.35,35.35,0,0,0-4.07.37c-1.8.32-3.58,0.79-5.36,1.23-2,.5-4.07.92-6,1.59s-4,1.18-6,2-3.89,1.48-5.72,2.49C70,38.67,69.29,39,68.6,39.43c-1.44.83-2.89,1.64-4.31,2.51-1.21.74-2.38,1.53-3.54,2.36-0.87.62-1.7,1.3-2.51,2S56.76,47.76,56,48.46c-1.11,1-2.31,1.92-3.37,3-1.37,1.36-2.64,2.82-3.95,4.25a4.67,4.67,0,0,0-.54.78c-0.39.65-.74,1.33-1.14,2A40.77,40.77,0,0,0,42.75,67c-0.9,2.73-1.72,5.48-2.57,8.22a2.38,2.38,0,0,0-.12.56A25.28,25.28,0,0,1,39,80.52a41.06,41.06,0,0,0-1.3,7.33c0,0.72-.13,1.45-0.24,2.17-0.25,1.69-.56,3.37-0.75,5.06A4.56,4.56,0,0,0,37,96.84c0.31,1,.71,2,1.08,3a9.25,9.25,0,0,0,.52,1.21,5,5,0,0,1,.81,2.77,5.81,5.81,0,0,0,.18,1.6c0.3,1.39.64,2.77,1,4.15a18.42,18.42,0,0,1,.32,5.39c-0.06,1.27-.21,2.53-0.29,3.79,0,0.61,0,.61.72,0.66a1.67,1.67,0,0,0,.08-1.25,0.6,0.6,0,0,1,0-.45c0.27-.6-0.06-1.33.43-1.88a0.71,0.71,0,0,0-.06-0.45,3.36,3.36,0,0,1,0-1.57,9.15,9.15,0,0,0-.54-5.12,19.92,19.92,0,0,1-.78-3.28,10.18,10.18,0,0,1-.09-2.28c0.07-1.25.23-2.5,0.36-3.75,0.76-.77.54-1.88,1-2.77a4.3,4.3,0,0,0,.31-0.87c0.12-.48.2-1,0.31-1.46a4.55,4.55,0,0,0,.42-2.13,3.14,3.14,0,0,1,.29-1.4c0.11-.36.32-0.68,0.45-1A1.07,1.07,0,0,1,45,89a6.4,6.4,0,0,1,1.36.67,1.26,1.26,0,0,1,.83,1.16c-0.35,1.75-.17,3.59-1,5.29A24.94,24.94,0,0,0,45,100c-0.28,1-.48,2-0.71,3a43.46,43.46,0,0,0-.53,6.41,6.26,6.26,0,0,0,0,1.77,12.73,12.73,0,0,1-.25,6.17,16.45,16.45,0,0,0-.32,1.86c-0.25,1.71-.48,3.42-0.77,5.12-0.08.48,0.07,0.64,0.6,0.69a17.19,17.19,0,0,1,.46-2.9A5.28,5.28,0,0,0,43.7,121a14.44,14.44,0,0,1,.25-2.75,10.86,10.86,0,0,0,.28-1.28,3.42,3.42,0,0,1,.67-2.19,1,1,0,0,0,.19-0.62c0-.7,0-1.39-0.1-2.08s-0.2-1.57-.24-2.35,0-1.65,0-2.48A24.21,24.21,0,0,1,46.59,98c0.88-2.22,1.74-4.44,1.41-6.91a1,1,0,0,1,.39-0.82,12.85,12.85,0,0,1,4.28-2.95c2.3-1.06,4.66-2,7-2.95a3.17,3.17,0,0,1,1.78-.09,6.94,6.94,0,0,1-.05.8q-0.35,1.91-.72,3.82A4.31,4.31,0,0,0,60.55,90.91Zm-2.71,2.24a16,16,0,0,0-.5-2.58,2.56,2.56,0,0,0-3.73-1.5,4,4,0,0,0-1.23,1c-0.49.57-.89,1.23-1.32,1.85a10,10,0,0,0-1.63,4.41,13.73,13.73,0,0,0,.14,3.49,1.57,1.57,0,0,0,1.77,1.48,7.13,7.13,0,0,1,.85,0,2.17,2.17,0,0,0,2.12-1,1.41,1.41,0,0,1,1-.86,1,1,0,0,0,.4-0.49c0.21-.35.39-0.73,0.61-1.07A9,9,0,0,0,57.83,93.14Zm-10,13.91c0.22-.16.46-0.32,0.67-0.5a2.75,2.75,0,0,0,.62-2.76,0.93,0.93,0,0,0-1.54-.32,2.91,2.91,0,0,0-.58.62,2.61,2.61,0,0,0-.26,2.18A1.18,1.18,0,0,0,47.86,107.05Zm8.33-4.8a0.75,0.75,0,0,0,1.05-.28,1.62,1.62,0,0,0,.49-1.88,1.25,1.25,0,0,0-1.36-.64,0.63,0.63,0,0,0,.45.59c0.54,0.26.65,0.45,0.35,1A10.22,10.22,0,0,1,56.19,102.25Z" transform="translate(-36.69 -30.28)"/><path d="M60.55,90.91a4.31,4.31,0,0,1,.13-2q0.37-1.91.72-3.82a6.94,6.94,0,0,0,.05-0.8,3.17,3.17,0,0,0-1.78.09c-2.34,1-4.7,1.88-7,2.95a12.85,12.85,0,0,0-4.28,2.95,1,1,0,0,0-.39.82c0.33,2.47-.53,4.68-1.41,6.91a24.21,24.21,0,0,0-1.83,9.26c0,0.83,0,1.65,0,2.48s0.18,1.57.24,2.35,0.09,1.39.1,2.08a1,1,0,0,1-.19.62,3.42,3.42,0,0,0-.67,2.19,10.86,10.86,0,0,1-.28,1.28A14.44,14.44,0,0,0,43.7,121a5.28,5.28,0,0,1-.23,1.21,17.19,17.19,0,0,0-.46,2.9c-0.53-.06-0.68-0.21-0.6-0.69,0.29-1.7.51-3.41,0.77-5.12a16.45,16.45,0,0,1,.32-1.86,12.73,12.73,0,0,0,.25-6.17,6.26,6.26,0,0,1,0-1.77,43.46,43.46,0,0,1,.53-6.41c0.23-1,.43-2,0.71-3a24.94,24.94,0,0,1,1.24-3.87c0.8-1.7.61-3.53,1-5.29a1.26,1.26,0,0,0-.83-1.16A6.4,6.4,0,0,0,45,89a1.07,1.07,0,0,0-1.46.72c-0.14.35-.34,0.68-0.45,1a3.14,3.14,0,0,0-.29,1.4,4.55,4.55,0,0,1-.42,2.13c-0.12.48-.19,1-0.31,1.46a4.3,4.3,0,0,1-.31.87c-0.44.88-.22,2-1,2.77-0.12,1.25-.28,2.5-0.36,3.75a10.18,10.18,0,0,0,.09,2.28,19.92,19.92,0,0,0,.78,3.28,9.15,9.15,0,0,1,.54,5.12,3.36,3.36,0,0,0,0,1.57,0.71,0.71,0,0,1,.06.45c-0.49.56-.16,1.28-0.43,1.88a0.6,0.6,0,0,0,0,.45,1.67,1.67,0,0,1-.08,1.25c-0.72,0-.76-0.05-0.72-0.66,0.08-1.27.23-2.53,0.29-3.79a18.42,18.42,0,0,0-.32-5.39c-0.34-1.38-.67-2.76-1-4.15a5.81,5.81,0,0,1-.18-1.6,5,5,0,0,0-.81-2.77,9.25,9.25,0,0,1-.52-1.21c-0.38-1-.77-2-1.08-3a4.56,4.56,0,0,1-.27-1.76c0.19-1.69.5-3.38,0.75-5.06,0.1-.72.19-1.44,0.24-2.17A41.06,41.06,0,0,1,39,80.52a25.28,25.28,0,0,0,1.08-4.7,2.38,2.38,0,0,1,.12-0.56c0.85-2.74,1.67-5.5,2.57-8.22A40.77,40.77,0,0,1,47,58.45c0.4-.65.75-1.32,1.14-2a4.67,4.67,0,0,1,.54-0.78c1.3-1.43,2.58-2.89,3.95-4.25,1.06-1.06,2.26-2,3.37-3,0.77-.7,1.48-1.46,2.27-2.15s1.64-1.39,2.51-2c1.15-.82,2.33-1.61,3.54-2.36,1.42-.87,2.87-1.68,4.31-2.51,0.68-.39,1.37-0.76,2.06-1.14,1.83-1,3.82-1.65,5.72-2.49s4-1.36,6-2,4-1.09,6-1.59c1.78-.44,3.56-0.91,5.36-1.23a35.35,35.35,0,0,1,4.07-.37c1.38-.08,2.77-0.12,4.16-0.15,1.2,0,2.4,0,3.6,0,0.54,0,1.07-.13,1.6-0.12,1.32,0,2.65,0,4,.2a24.7,24.7,0,0,0,2.5.17,1.82,1.82,0,0,1,.52.17,3.17,3.17,0,0,0,.53.18c1.06,0.17,2.13.27,3.18,0.48,1.84,0.38,3.68.82,5.51,1.24a1,1,0,0,1,.27.08,17.3,17.3,0,0,0,2.65,1.05c0.56,0.2,1.1.45,1.67,0.64a16.7,16.7,0,0,1,2.94,1.27,18.38,18.38,0,0,0,2.33.95,51.75,51.75,0,0,1,5.66,2.83c2.48,1.33,5,2.66,7.41,4.06s4.67,2.75,7,4.15c1,0.63,2.07,1.32,3.09,2a1,1,0,0,1,.4.37,7.07,7.07,0,0,0,1.74,2c1.35,1.49,2.73,3,4,4.53,0.48,0.61,1,1.22,1.45,1.84s0.7,1.19,1.07,1.77c1,1.6,2.09,3.15,3,4.8,1.25,2.25,2.37,4.57,3.54,6.86,1.26,2.47,2.53,4.93,3.77,7.4a23,23,0,0,1,1.12,2.6,27.44,27.44,0,0,0,1.79,3,7,7,0,0,1,.43.93c0.43,1.32.85,2.64,1.24,4,0.18,0.6.25,1.23,0.39,1.84s0.28,1,.39,1.53c0.23,1.13.44,2.27,0.67,3.4,0.28,1.42.57,2.84,0.83,4.26,0.35,1.89.67,3.79,1,5.68,0.1,0.55.27,1.09,0.34,1.64,0.1,0.78.13,1.57,0.2,2.35a15.6,15.6,0,0,1-.53,4.1c-0.38,2.05-.71,4.12-1.12,6.17-0.3,1.48-.66,3-1.07,4.41a7.44,7.44,0,0,0-.31,3.89c0.33,1.38.49,2.81,0.83,4.19a25.58,25.58,0,0,1,.3,5.85c0,0.44,0,.88,0,1.32-0.07,1.26-.13,2.52-0.25,3.78a40.75,40.75,0,0,1-.51,4.23c-0.52,2.6-1.07,5.21-1.79,7.77a54.57,54.57,0,0,1-2.39,7,43.42,43.42,0,0,1-5.82,10c-2.79,3.49-5.41,7.12-8.11,10.68a48.71,48.71,0,0,1-4.77,5.43,6.64,6.64,0,0,1-.91.68l-3.05,2.08a2.59,2.59,0,0,1-.59.29,12.72,12.72,0,0,1-5.12.86,8.47,8.47,0,0,1-4.14-1.56,3.4,3.4,0,0,0-2.51-.55,17.79,17.79,0,0,1-8.35-.68,17.53,17.53,0,0,1-4.82-2.81,14.17,14.17,0,0,1-2.6-2.48,7.66,7.66,0,0,1-1.42-2.86,2.67,2.67,0,0,0-.79-1.36,3.82,3.82,0,0,1-1.14-1.94,18.36,18.36,0,0,0-.75-2.55,17.55,17.55,0,0,1-.78-7.51,61.4,61.4,0,0,1,2.08-12.16c0.67-2.53,1.76-5,2.64-7.44A69.07,69.07,0,0,1,131,138.58a73.54,73.54,0,0,1,9-13,36.6,36.6,0,0,1,5.61-5.25,21.8,21.8,0,0,1,4.49-2.61,11.61,11.61,0,0,1,3.73-1,3.76,3.76,0,0,1,2.2.37,1.16,1.16,0,0,0,.54.15c1.07,0,2.15,0,3.17,0,0.08-2.45.15-4.78,0.24-7.12,0-.44.11-0.88,0.16-1.32,0.17-1.38.17-1.38,1.27-2.13a2.76,2.76,0,0,0,0-.63,54.21,54.21,0,0,0-1.63-5.63c-0.56-1.58-.92-3.23-1.33-4.86-0.2-.79-0.28-1.62-0.42-2.42a2.12,2.12,0,0,0-.67-1.31,11.62,11.62,0,0,1-2.83-3c-0.45-.83-0.9-1.66-1.37-2.48-0.3-.52-0.68-1-0.94-1.54a47.12,47.12,0,0,0-5.89-8.63,28.14,28.14,0,0,0-2.07-2.36q-4.74-4.76-9.53-9.46a19,19,0,0,0-2.61-2.06c-1.7-1.16-3.41-2.3-5.18-3.34s-3.34-1.81-5-2.63c-2.11-1-4.27-1.88-6.38-2.88a41.86,41.86,0,0,0-7.9-2.69c-2.42-.6-4.87-1.09-7.32-1.61a29.73,29.73,0,0,0-8.11-.67,22.14,22.14,0,0,0-5.45,1.18c-2,.67-4.1,1.29-6.1,2.07a23.67,23.67,0,0,0-3.35,1.76c-1,.58-1.9,1.25-2.87,1.86-0.53.33-1.1,0.6-1.63,0.93a13.41,13.41,0,0,0-2.94,2.16c-0.79.85-1.45,1.8-2.18,2.7C66.67,62.34,66,64,64.55,65a1.12,1.12,0,0,0-.15.33,1.92,1.92,0,0,1-.42.62c-1.07.73-1.17,1.86-1.32,3a8,8,0,0,1-1,3.35,4.73,4.73,0,0,0-.6,2.12,21.69,21.69,0,0,1-.81,3c-0.1.33-.29,0.64-0.39,1a1.78,1.78,0,0,0,.21,1.54c0.71,1.19,1.4,2.39,2,3.65a6.65,6.65,0,0,1,.34,3.84,35.87,35.87,0,0,1-.92,4.17A20.4,20.4,0,0,0,61,95.13a25,25,0,0,0-.22,3.12,5.75,5.75,0,0,0,1.08,3.13,0.61,0.61,0,0,0,.75.19c0.62-.15,1.23-0.32,1.85-0.42a26.46,26.46,0,0,1,2.81-.38,28.2,28.2,0,0,1,4.36-.07,20,20,0,0,1,4.42.94c1.88,0.64,3.69,1.48,5.51,2.28a13.71,13.71,0,0,1,2,1.12,57.6,57.6,0,0,1,6.92,5A18.36,18.36,0,0,1,92,111.82,30.26,30.26,0,0,1,95.87,118,48.72,48.72,0,0,1,100,129.2a53.14,53.14,0,0,1,1.08,6.43c0.3,2.83.56,5.67,0.74,8.51,0.13,2.11.18,4.22,0.15,6.34,0,1.89-.15,3.78-0.34,5.66a23.46,23.46,0,0,1-.69,3.93,7.23,7.23,0,0,1-1.22,2.43,37.72,37.72,0,0,1-6.57,6.72,15.88,15.88,0,0,1-3.82,2.08,44.18,44.18,0,0,1-6.36,2.2,52.86,52.86,0,0,1-10,1.64,28.79,28.79,0,0,1-5.12-.11,24.27,24.27,0,0,1-5.61-1.72,17.1,17.1,0,0,1-3.93-2.4,4.06,4.06,0,0,0-2.52-.94,2.64,2.64,0,0,1-1.1-.25,15.79,15.79,0,0,0-3.69-.76,8.29,8.29,0,0,1-2.45-.94,11.52,11.52,0,0,1-3.9-3.92,31.81,31.81,0,0,1-2.12-4.54,12.89,12.89,0,0,1-.71-2.26c-0.51-2.31-1-4.62-1.46-6.95a54.79,54.79,0,0,1-.89-5.54c-0.24-2.81-.43-5.63-0.41-8.44s0.31-5.56.55-8.34c0.2-2.34.47-4.66,0.72-7a5.76,5.76,0,0,1,.2-1.12,0.52,0.52,0,0,1,.43-0.26,0.5,0.5,0,0,1,.3.39,6.59,6.59,0,0,1-.11,1.48,14.54,14.54,0,0,0-.28,3c0,0.8-.18,1.59-0.25,2.38-0.09,1-.13,2-0.21,3.07s-0.2,2.12-.28,3.19c0,0.34,0,.68,0,1,0,1.8,0,3.6,0,5.39a55.26,55.26,0,0,0,.63,7.23c0.27,2.12.83,4.21,1.19,6.32a39.57,39.57,0,0,0,2.16,7.46,13.59,13.59,0,0,0,5.35,6.71,14.16,14.16,0,0,0,1.25.67,1.69,1.69,0,0,0,.34.08c-0.47-.57-0.89-1.08-1.33-1.58a25.29,25.29,0,0,1-2.87-4.69,29.25,29.25,0,0,1-2.39-6.07c-0.92-3.14-1.34-6.37-1.94-9.56a33.16,33.16,0,0,1-.58-3.76c-0.15-2.1-.23-4.21-0.24-6.32s0.05-4.36.16-6.53c0.05-1.15.26-2.29,0.39-3.44a3.77,3.77,0,0,0-.05-0.65l0.78,0.1a2.27,2.27,0,0,1,0,.69c-0.46,1.29-.17,2.63-0.28,3.94,0,0.34-.09.67-0.1,1-0.11,3.55.15,7.09,0.39,10.62,0.08,1.26.39,2.5,0.6,3.75,0.3,1.78.58,3.56,0.91,5.34a34,34,0,0,0,4.38,12.08c0.57,0.91,1.13,1.84,1.74,2.72a8,8,0,0,0,3.71,2.86,3.33,3.33,0,0,0,.67.1c-0.16-.27-0.25-0.45-0.36-0.62-0.75-1.09-1.48-2.19-2.25-3.27a24.49,24.49,0,0,1-2.4-5.05c-0.81-2-1.57-4-2.25-6-0.73-2.19-1.42-4.39-2-6.64a65.62,65.62,0,0,1-1.3-7.18,28.51,28.51,0,0,1-.23-4.27c0.07-2.62.24-5.25,0.44-7.86a5.13,5.13,0,0,1,.65-2.61,4.53,4.53,0,0,0,.08-0.9,56.75,56.75,0,0,1,2.09-6.56c0.53-1.13.95-2.31,1.44-3.46a7.66,7.66,0,0,1,.72-1.32c0.86-1.24,1.67-2.53,2.65-3.67a29.89,29.89,0,0,1,4.07-4.23c1.4-1.11,2.94-2,4.45-3.07A8.36,8.36,0,0,1,59.77,98a15.58,15.58,0,0,1,.39-5.54,2.76,2.76,0,0,1,.4-1.51l-0.19.57C60.7,91.07,60.7,91.07,60.55,90.91Zm90.35,28.18-1.23.48a20.72,20.72,0,0,0-3.86,2.55,2.71,2.71,0,0,1-.45.44,9.94,9.94,0,0,0-3.15,2.48,39.34,39.34,0,0,0-2.7,3c-0.54.61-1.1,1.21-1.58,1.87s-1.1,1.61-1.63,2.43a1.36,1.36,0,0,0-.17,1.65,0.6,0.6,0,0,0-.92.06,15.56,15.56,0,0,0-1.54,2.67,13.27,13.27,0,0,1-.8,1.55c-1,1.8-1.93,3.61-2.9,5.42,0,0.08-.07.17-0.11,0.26-0.61,1.44-1.11,2.93-1.85,4.29a27.12,27.12,0,0,0-1.53,3.73c-0.91,2.49-1.7,5-2.38,7.59a40.47,40.47,0,0,0-1.12,7.38,40.15,40.15,0,0,0-.31,5.46,25.48,25.48,0,0,0,.64,4.95,5.67,5.67,0,0,0,.21.55,1,1,0,0,0,.12-0.59,23.86,23.86,0,0,1-.11-3c0.22-2.54.51-5.08,0.85-7.61,0.23-1.69.58-3.36,0.88-5a6.34,6.34,0,0,1,.19-0.82c0.58-1.8,1.15-3.6,1.75-5.39,0.5-1.49,1-3,1.57-4.44,0.72-1.84,1.52-3.64,2.28-5.47l1.24-3a13.79,13.79,0,0,1,1.12-2.57c1.09-1.58,1.61-3.46,2.77-5a0.67,0.67,0,0,0,0-1,0.41,0.41,0,0,0,.71-0.09c0.72-1,1.49-2,2.13-3.11a4.49,4.49,0,0,1,.92-1.16,2.8,2.8,0,0,0,.56-0.63,22.39,22.39,0,0,1,4.45-5.13c1.39-1.23,2.86-2.37,4.28-3.57a0.7,0.7,0,0,0,.44-0.76,1,1,0,0,0,1.22-.49l0.85-.41-0.08-.14ZM45.28,130.36a8.37,8.37,0,0,1,.19,1.25c0,1.26-.07,2.51-0.1,3.76,0,0.47,0,.94,0,1.41a14.43,14.43,0,0,0,.06,1.6c0.23,1.59.52,3.18,0.74,4.77a34,34,0,0,0,1.4,5.94c0.29,0.9.65,1.79,0.89,2.7A74.53,74.53,0,0,0,51,158.92a42.8,42.8,0,0,0,3.36,6.78,12.43,12.43,0,0,0,1.1,1.4c0.2,0.25.4,0.49,0.62,0.72a10.49,10.49,0,0,0,1.33,1.33,7.37,7.37,0,0,1,2.11,1.68,1.58,1.58,0,0,0,.61.44A33.78,33.78,0,0,0,64,173.13a18.55,18.55,0,0,0,4.24,1,26,26,0,0,0,4.81,0c1.85-.15,3.68-0.53,5.53-0.77a37.46,37.46,0,0,0,7.61-1.92,30.2,30.2,0,0,0,4.13-1.64,21.4,21.4,0,0,0,6.31-5c1-1.18,1.92-2.43,2.8-3.7a5.42,5.42,0,0,0,.82-1.8,17.52,17.52,0,0,0,.65-4.2c0-3.13.12-6.27,0.09-9.4,0-1.74-.2-3.48-0.37-5.21-0.19-2-.39-4-0.68-6-0.18-1.21-.68-2.39-0.77-3.6a16.33,16.33,0,0,0-1-4.13A52.42,52.42,0,0,0,94,117.19a32.6,32.6,0,0,0-4.07-5.91,12.36,12.36,0,0,0-5-3.54,15.51,15.51,0,0,1-2-.78,14.05,14.05,0,0,0-5.25-1.51,9.71,9.71,0,0,0-5.4.63c-1,.48-1.91,1-2.87,1.49A16.45,16.45,0,0,0,68,109a5.62,5.62,0,0,0-1.59,1.31c-0.85,1.17-2,2.16-2.28,3.67a0.4,0.4,0,0,1-.09.17,7.89,7.89,0,0,0-1.45,3.33c-0.53,2.24-1.36,4.41-1.4,6.77a26.56,26.56,0,0,1-.55,3.27,23,23,0,0,0-.31,3.14,9.6,9.6,0,0,0-.07,1.34,2.76,2.76,0,0,1-.05,1.95,0.33,0.33,0,0,0,0,.19,45.37,45.37,0,0,0,1,7.24c0.15,0.54.16,1.13,0.26,1.69,0.26,1.38.47,2.78,0.84,4.13,0.49,1.79,1.12,3.54,1.69,5.31,0.41,1.26.77,2.53,1.24,3.77a16.49,16.49,0,0,0,2.47,4.25,22.34,22.34,0,0,0,2.53,2.93,23.64,23.64,0,0,0,2.9,1.94c0.26,0.17.51,0.38,0.76,0.57a0.53,0.53,0,0,1-.45.13c-0.33-.1-0.67-0.21-1-0.34a12.34,12.34,0,0,1-5.54-4.43,18.2,18.2,0,0,1-3-5.65c-0.34-1.28-.89-2.49-1.29-3.75s-0.8-2.59-1.12-3.9c-0.4-1.65-.77-3.32-1.08-5-0.25-1.37-.44-2.75-0.58-4.14s-0.32-3-.33-4.54c0-1.71.15-3.42,0.23-5.13,0-.25,0-0.5,0-0.75,0-.6,0-1.2,0-1.79,0.09-.85.22-1.7,0.38-2.54,0.08-.43-0.34-0.09-0.36-0.25,0.36-1.42.62-2.83,1.07-4.18,1-2.88,2-5.73,3.07-8.58a4.2,4.2,0,0,1,.71-1.32,18.92,18.92,0,0,1,8.88-5.53,2.08,2.08,0,0,1,.37-0.06c0.59-.07,1.17-0.15,1.76-0.2a4.33,4.33,0,0,1,.82,0c0.38,0,.74.13,1.12,0.16l2.55,0.23a18.43,18.43,0,0,0-2.66-1.18,29,29,0,0,0-3.73-1.06,26.64,26.64,0,0,0-4-.41c-1,0-2.08.11-3.12,0.15a10.82,10.82,0,0,0-4.77,1c-1.16.61-2.41,1.07-3.54,1.72a11.12,11.12,0,0,0-3.61,3.07c-1.28,1.77-2.69,3.46-3.91,5.27a16,16,0,0,0-1.95,3.69c-0.74,2.15-1.33,4.36-2.11,6.5a0.57,0.57,0,0,0,0,.09c-0.21,1.12-.42,2.24-0.62,3.36-0.07.41-.1,0.83-0.54,0.87C45.35,128.5,45.88,129.56,45.28,130.36Zm135.24,7.57c0.69-3-.32-5.72-0.57-8.53a4.79,4.79,0,0,0-.24-0.81c-0.33.27-.59,0.44-0.81,0.66a8.53,8.53,0,0,1-3,2.06q-2.79,1.05-5.61,2a1.36,1.36,0,0,1-2-1.2c-0.1-.52-0.11-1.07-0.21-1.59-0.24-1.25-.5-2.51-0.78-3.75-0.21-.92-0.42-1.84-0.71-2.74-0.56-1.8-1.18-3.59-1.77-5.39-0.11-.33-0.26-0.64-0.35-1-0.23-.88-0.43-1.77-0.66-2.65-0.4-1.56-.82-3.12-1.23-4.68-0.21-.8-0.4-1.61-0.6-2.41h-0.25a5.31,5.31,0,0,0-.29.93c-0.16,1.25-.35,2.5-0.39,3.76a22.49,22.49,0,0,0,.15,3.47,24.6,24.6,0,0,0,1.51,5,20.11,20.11,0,0,1,1.4,6.45,10.33,10.33,0,0,0,.1,1.52,10.07,10.07,0,0,1-.72,5.76c-0.78,1.72-1.71,3.38-2.58,5.06-0.69,1.35-1.4,2.68-2.06,4-1.5,3.1-3,6.22-4.45,9.32-1.18,2.45-2.4,4.88-3.57,7.32-0.94,2-1.86,4-2.77,5.93a10.71,10.71,0,0,0-.36,1,2.85,2.85,0,0,0,2.92-1.71c0.19-.4.38-0.8,0.59-1.19,1-1.78,1.93-3.56,2.88-5.35s1.76-3.35,2.62-5c0.56-1.1,1.1-2.21,1.66-3.31,0.44-.87.86-1.75,1.37-2.58,1.17-1.88,2.47-3.69,3.59-5.59a36.27,36.27,0,0,0,3.58-8.15,4.15,4.15,0,0,1,.38-0.86,0.5,0.5,0,0,1,.78-0.26,0.87,0.87,0,0,1,.23.72,16.62,16.62,0,0,1-.5,1.63,19.89,19.89,0,0,1-.91,2.89,64.39,64.39,0,0,1-4.19,7.51,37,37,0,0,0-2.08,3.15c-1.55,2.93-3,5.92-4.51,8.88-0.66,1.29-1.43,2.52-2.11,3.8-0.82,1.53-1.65,3.06-2.36,4.65a2.84,2.84,0,0,1-1.78,1.71,14.34,14.34,0,0,1-2.21.51,1,1,0,0,0-.86.62,11.52,11.52,0,0,0-.51,1.11c-0.62,2-1.29,3.9-1.81,5.89a17.72,17.72,0,0,0,.13,9.55,4.66,4.66,0,0,1,.1.71,0.76,0.76,0,0,1-1-.43,10.58,10.58,0,0,1-.72-1.64,15,15,0,0,1-.34-2.33,16.53,16.53,0,0,1,.35-5.67c0.49-1.89,1.09-3.76,1.64-5.64a13.85,13.85,0,0,1,.44-1.55c0.28-.66.67-1.27,1-1.92,0.78-1.66,1.54-3.32,2.31-5,0.87-1.86,1.73-3.73,2.64-5.58,0.45-.93,1-1.79,1.49-2.72,1.23-2.53,2.4-5.09,3.62-7.63,0.82-1.71,1.66-3.4,2.51-5.1s1.73-3.59,2.71-5.31a9.12,9.12,0,0,0,1.36-3.8c0.1-1.38.06-2.78,0-4.17a25.22,25.22,0,0,0-2.3-9.5,12,12,0,0,0-4.52-.08,14.36,14.36,0,0,0-6.74,3.48,22.42,22.42,0,0,1-2.78,2.41,15.18,15.18,0,0,0-3.43,3.48c-1.43,1.76-2.68,3.66-4,5.52a25.33,25.33,0,0,0-2.68,4.34c-0.47,1.06-1,2.09-1.51,3.13s-1.09,2.12-1.56,3.22q-1.31,3-2.53,6.14c-1,2.47-2,4.93-2.84,7.44a29,29,0,0,0-1.39,5.88c-0.29,2.27-.78,4.51-1.11,6.78a34.1,34.1,0,0,0-.28,3.58c0,0.85,0,1.7.07,2.55a9.26,9.26,0,0,0,.72,4,0.71,0.71,0,0,1,0,.34,4.53,4.53,0,0,0,.77,2.77,10.56,10.56,0,0,0,2.64,2.79,20,20,0,0,0,3.8,2.26,13.71,13.71,0,0,0,3.77,1.13,8.46,8.46,0,0,0,2.89.28c0.93-.19,1.88-0.25,2.82-0.35a2.43,2.43,0,0,1,1.89.4,6.39,6.39,0,0,0,.73.45,8.26,8.26,0,0,0,5.65,1.13,14.21,14.21,0,0,0,8.3-4.78,0.83,0.83,0,0,0,.11-0.25,0.25,0.25,0,0,0-.08-0.07l-0.16.09a4.71,4.71,0,0,1-3.65.57,8.77,8.77,0,0,1-2.52-1.21A6,6,0,0,1,150,181.4a13,13,0,0,1,1.1-6.12,6.62,6.62,0,0,0,.28-0.6,73.4,73.4,0,0,1,4.06-9c1.07-2.14,2.23-4.24,3.34-6.37a98.59,98.59,0,0,1,5.07-9.09,39.79,39.79,0,0,1,7.58-8.93,11.44,11.44,0,0,1,2.48-1.56,4.13,4.13,0,0,1,4.08.18c0.74,0.45,1.51.86,2.29,1.3,0-.38.28-0.86-0.32-1.15,0.05-.85-0.65-1.23-1.12-1.73a3.5,3.5,0,0,0-3.63-1,8.56,8.56,0,0,0-2.94,1.26c-1.46,1-3,1.95-4,3.51a1.18,1.18,0,0,1-.28.26c-0.39.3-.76,0.19-0.82-0.28a1.15,1.15,0,0,1,.21-0.69,11.28,11.28,0,0,1,2.25-2.42,13.18,13.18,0,0,1,5-2.88,4.32,4.32,0,0,1,4.36.73A17.1,17.1,0,0,0,180.51,137.93Zm-15.87-48-2.06-4.76c-0.25-.58-0.49-1.16-0.76-1.73s-0.56-1.05-.84-1.58c-0.73-1.4-1.43-2.81-2.2-4.19-1-1.77-2.05-3.48-3-5.27a26.6,26.6,0,0,0-2.94-4.51c-1.68-2-3.46-3.94-5.22-5.89-1.57-1.73-3.14-3.46-4.75-5.16a44.88,44.88,0,0,0-5.57-5.14c-0.81-.6-1.65-1.18-2.48-1.75-1.22-.85-2.39-1.77-3.67-2.5-1.93-1.1-3.92-2.07-5.91-3.07-1-.48-1.95-0.92-2.94-1.33-1.34-.55-2.71-1-4.06-1.58a41.93,41.93,0,0,0-6.46-2.21c-1.45-.33-2.9-0.61-4.36-0.91s-2.84-.67-4.28-0.82c-2.73-.28-5.48-0.44-8.22-0.63a29.87,29.87,0,0,0-3.09-.12,25.2,25.2,0,0,0-2.85.34c-1.15.17-2.28,0.4-3.43,0.57-1,.14-2,0.2-2.95.37s-2.15.44-3.21,0.72c-1.61.43-3.25,0.8-4.8,1.38s-3.09,1.08-4.66,1.54a12.74,12.74,0,0,0-1.68.61,22.1,22.1,0,0,0-3.75,2.09c-1.1.78-2.35,1.34-3.53,2a18.06,18.06,0,0,0-2.25,1.38c-1.08.85-2.07,1.81-3.11,2.71a0.65,0.65,0,0,1-.46.2c-0.33-.2-0.48,0-0.64.21-1,1.07-2.11,2.1-3,3.25-1.19,1.47-2.27,3-3.37,4.59-0.34.48-.62,1-0.92,1.5l-1.22,2a16.92,16.92,0,0,0-1.38,2.34c-0.79,2-1.49,4-2.19,6.05a1.27,1.27,0,0,0,.36,1.53,8.67,8.67,0,0,1,1,1.35,3.13,3.13,0,0,0,.74.83,3.44,3.44,0,0,0,3.16.35c1.42-.58,2.86-1.15,4.22-1.86,1.8-.93,3.52-2,5.29-3a32.85,32.85,0,0,0,3.53-2.19A20.06,20.06,0,0,0,65,63.21c0.28-.38.59-0.73,0.87-1.11a19.75,19.75,0,0,0,1.6-2.31c0.55-1.05,1.81-1.49,2.19-2.67a1,1,0,0,1,.47-0.28,2,2,0,0,0,.5-0.24,26.18,26.18,0,0,1,5.14-3.65c1-.57,2-1,3-1.51a11.94,11.94,0,0,0,1.37-.65c1.89-1.25,4.07-1.68,6.18-2.31,0.57-.17,1.11-0.44,1.68-0.57,1.25-.3,2.51-0.58,3.78-0.78a12,12,0,0,1,2.82-.21c1.62,0.13,3.24.4,4.85,0.66s3.37,0.53,5,.88,3.25,0.77,4.86,1.2c1.22,0.32,2.44.67,3.63,1.08s2.42,0.92,3.61,1.42c0.78,0.33,1.54.72,2.32,1.06,1.4,0.62,2.87,1.13,4.21,1.87a58.78,58.78,0,0,1,6.73,3.84c1.34,1,2.74,1.91,4.12,2.83a40.78,40.78,0,0,1,4.48,4.05c1.46,1.32,2.75,2.84,4.1,4.27,0.95,1,1.85,2.05,2.83,3a43.89,43.89,0,0,1,5.3,6.57c1.37,2.16,2.72,4.33,4.09,6.48,0.59,0.93,1.26,1.82,1.81,2.78a12,12,0,0,0,2.24,2.56,0.94,0.94,0,0,0,1.05.21c1.51-.55,3-1.07,4.55-1.61A0.54,0.54,0,0,0,164.64,89.93ZM66.75,41.6l0.11,0.25a6.61,6.61,0,0,0,1.48-.54c1.58-1,3.43-1.42,5.16-2.09,0.9-.35,1.92-0.42,2.82-0.79a29.11,29.11,0,0,1,6.9-1.67c2.65-.38,5.32-0.66,8-0.93,1.38-.14,2.77-0.19,4.16-0.2,1,0,2.08.08,3.12,0.16,1.57,0.12,3.15.22,4.72,0.44,1.84,0.26,3.67.64,5.5,1s3.46,0.77,5.18,1.19a5.19,5.19,0,0,1,1.61.51c1.22,0.81,2.66,1.09,3.92,1.78a9.06,9.06,0,0,0,1.64.46,44.71,44.71,0,0,1,5.44,2.43q1.71,0.8,3.4,1.63a11.47,11.47,0,0,1,2.32,1.24c1,0.8,2.15,1.27,3.09,2.09,0.47,0.41,1,.7,1.52,1.1,1.53,1.26,3,2.54,4.54,3.84A20.73,20.73,0,0,1,142.78,55c1.4,1.49,3,2.81,4.26,4.42a63.18,63.18,0,0,0,4.46,5c0.85,0.86,1.55,1.82,2.32,2.73a17.6,17.6,0,0,1,1.64,2.07c0.78,1.28,1.44,2.63,2.17,3.94,0.27,0.49.63,0.94,0.9,1.44,0.89,1.62,1.74,3.26,2.62,4.89,0.28,0.53.62,1,.89,1.55,0.4,0.78.76,1.59,1.15,2.38a11.77,11.77,0,0,1,1,2.1,32.21,32.21,0,0,0,1.53,3.74,2.41,2.41,0,0,0,.37.48c0.68-.38,1.34-0.74,2-1.12,1.09-.64,2.17-1.3,3.27-1.93s2.33-1.26,3.47-1.94,1.17-1.05.7-2.11c-1-2.25-2-4.5-3.09-6.7-1.18-2.38-2.45-4.71-3.68-7.06-0.48-.93-0.91-1.88-1.45-2.78-0.76-1.27-1.58-2.5-2.41-3.72-1.21-1.77-2.39-3.57-3.69-5.27-0.93-1.22-2.05-2.3-3.06-3.46a23.47,23.47,0,0,0-4.63-4.15c-1.93-1.29-3.83-2.63-5.84-3.81-1.63-1-3.26-1.91-4.91-2.82-1.35-.75-2.73-1.44-4.1-2.14-0.39-.2-0.8-0.36-1.19-0.56-1-.51-2.08-1-3.14-1.53s-2-.84-3-1.25c-2.28-.94-4.54-1.93-6.84-2.81a47.06,47.06,0,0,0-8.56-2,40.53,40.53,0,0,0-9.23-.84c-3.6.17-7.2,0.15-10.8,0.4A42.63,42.63,0,0,0,89,33.3c-2.15.51-4.27,1.16-6.39,1.78-1.63.48-3.28,1-4.87,1.55s-3.13,1.34-4.69,2S69.93,40,68.35,40.73C67.8,41,67.28,41.3,66.75,41.6Zm84.56,138.59a10.12,10.12,0,0,0,.63,3.55,4.38,4.38,0,0,0,6.86,1.91c1.1-.9,2.23-1.77,3.28-2.74a21,21,0,0,0,2.46-2.64c1.69-2.22,3.29-4.49,4.92-6.75,1.18-1.64,2.42-3.26,3.49-5,0.84-1.33,1.46-2.8,2.18-4.2a47.41,47.41,0,0,0,3-8.09c0.56-1.87,1-3.79,1.36-5.72s0.66-3.93.94-5.9a2.09,2.09,0,0,0-.61-1.92,13.75,13.75,0,0,0-1.51-1.27,4,4,0,0,0-4.63-.18,17,17,0,0,0-3.35,2.77,34.32,34.32,0,0,0-4.91,6.24c-1,1.66-2.08,3.24-3,4.93-1.22,2.21-2.29,4.5-3.47,6.73-0.83,1.59-1.78,3.11-2.59,4.71-1,2-1.94,4-2.86,6-0.43.95-.62,2-1.12,2.92A12.43,12.43,0,0,0,151.31,180.18Zm16-79.7a5.12,5.12,0,0,1,.51,1.05,11.78,11.78,0,0,1,0,1.22,3.27,3.27,0,0,0,.28.7,6,6,0,0,1,.35,1,17.24,17.24,0,0,0,.53,2.86,34.16,34.16,0,0,1,.95,3.84,39,39,0,0,0,1.35,5.59,1.53,1.53,0,0,1,.07.47,10.45,10.45,0,0,0,.84,2.68c1.49-.82,3-1.56,4.34-2.41a29.23,29.23,0,0,0,4.1-2.75,4.4,4.4,0,0,0,1.8-3.68c-0.08-1.39-.21-2.78-0.42-4.15-0.3-2-.69-3.93-1.07-5.88q-0.63-3.31-1.31-6.61c-0.09-.45-0.24-0.88-0.43-1.55A40.64,40.64,0,0,1,167.28,100.48ZM60.54,83.14a2.55,2.55,0,0,0-.68-1.9c-0.42-.52-0.86-1-1.24-1.56a1.43,1.43,0,0,1-.14-0.74c0.77-.23.53-0.86,0.58-1.38a0.86,0.86,0,0,1,.19-0.49c0.72-.74.72-1.78,1.1-2.66A1,1,0,0,0,60.24,74c-0.42.28-.76,0.56-1.14,0.76C57,75.88,54.93,77,52.81,78.07s-4.09,1.87-6.13,2.84c-0.76.36-1.48,0.83-2.11,1.19,0.14,1,.32,1.93.37,2.84a1.36,1.36,0,0,0,.86,1.39A4,4,0,0,1,48.46,89c0.32-.2.54-0.31,0.74-0.46a21.52,21.52,0,0,1,5.21-2.9C56.43,84.83,58.45,84,60.54,83.14ZM167.13,99.35c0.69-.35,1.22-0.6,1.74-0.88,0.22-.12.41-0.3,0.63-0.41a33.58,33.58,0,0,0,7.08-4.56c0.6-.52,1.25-1,1.85-1.49a1,1,0,0,0,.37-0.59,9.84,9.84,0,0,0-.19-2.24A29.23,29.23,0,0,0,177.54,86a6.91,6.91,0,0,0-.6-1c-1.05.65-2,1.25-2.93,1.79-1.56.89-3.12,1.79-4.72,2.61C168.06,90,167,91,165.49,91a1.59,1.59,0,0,0,0,1.37c0.13,0.52.28,1,.39,1.55,0.24,1.13.44,2.27,0.69,3.4C166.68,97.93,166.89,98.53,167.13,99.35Zm-5.1,2.38a22.64,22.64,0,0,0,1.12,4.41,21.38,21.38,0,0,1,.78,3.28,78.1,78.1,0,0,0,2.12,7.93c0.87,2.53,1.5,5.15,2.24,7.72a7.94,7.94,0,0,0,.34.83c0.43-1.41.76-2.83,1.31-4.17a3.61,3.61,0,0,0,.18-3.14,0.93,0.93,0,0,1,0-.19c-0.38-1.75-.73-3.51-1.13-5.26q-1.06-4.62-2.17-9.23c-0.23-1-.54-1.93-0.81-2.87ZM39.93,80.27a2.19,2.19,0,0,0-.25.36A27.24,27.24,0,0,0,38.46,85c-0.09.42,0,.87-0.06,1.3a23.52,23.52,0,0,0-.34,2.9c0,1-.48,1.86-0.27,2.84a1,1,0,0,1-.12.64c-0.48.9-.05,1.92-0.4,2.83a0.79,0.79,0,0,0,.15.49,14.75,14.75,0,0,1,.88,2c0.18,0.53.42,1,.62,1.57a4,4,0,0,0,.89,1.87c0.08-.24.14-0.37,0.17-0.51a28.41,28.41,0,0,1,.88-3.47,44.58,44.58,0,0,0,1.24-4.93c0.34-1.28.26-2.65,0.91-3.86a6.52,6.52,0,0,0,.53-1.21,8.32,8.32,0,0,0,.39-1.82c0-.69-0.09-1.38-0.11-2.08a1,1,0,0,0-.65-1.12,2.55,2.55,0,0,1-.69-0.64,1.27,1.27,0,0,0-.5-0.42A3.48,3.48,0,0,1,39.93,80.27ZM170.2,127.92c0.5-.22.83-0.33,1.12-0.49a47.07,47.07,0,0,0,7.05-4.24c1.35-1.06,2.63-2.16,2.76-4.05,0-.73.15-1.45,0.24-2.17,0-.39.11-0.78,0.18-1.24a1.5,1.5,0,0,0-.35.14,34,34,0,0,1-4.55,2.9c-0.91.56-1.94,1-2.81,1.58a3.65,3.65,0,0,1-2.15,1.07A20.09,20.09,0,0,0,170.2,127.92ZM61.43,68.51a0.73,0.73,0,0,0-1,.39c-0.07.09-.1,0.33-0.13,0.33a2.7,2.7,0,0,0-1.56.79c-1.8,1-3.59,2-5.37,3.1a18.9,18.9,0,0,1-6.17,2.58,6,6,0,0,0-.71.22,3.52,3.52,0,0,1-.21,3.25,4.72,4.72,0,0,0-.35,1.23c3-1.42,5.76-2.82,8.61-4.11a30.7,30.7,0,0,0,5.4-3.16,2.81,2.81,0,0,0,.79-0.8A7.35,7.35,0,0,0,61.43,68.51ZM165.27,99.76a6.22,6.22,0,0,0-.23-3c-0.28-1-.52-2-0.78-3-0.19-.72-0.4-1.44-0.62-2.26l-2.72,1.13c-1.16.47-1.2,1-1.16,2.17a3.34,3.34,0,0,0,.18.83c0.17,0.54.34,1.08,0.53,1.62,0.4,1.12.82,2.23,1.22,3.3A8.16,8.16,0,0,0,165.27,99.76Zm4.43,32.45a32.07,32.07,0,0,0,6.45-2.51,8.59,8.59,0,0,0,2.13-1.81,13.18,13.18,0,0,0,1.62-3.61,6,6,0,0,0,.18-0.81,60.81,60.81,0,0,1-10.65,6.27ZM41.9,72.4c-0.42,1.34-.82,2.46-1.1,3.61-0.2.79-.17,1.64-0.35,2.44A1.24,1.24,0,0,0,41.06,80a18.09,18.09,0,0,1,2.37,1.25,0.85,0.85,0,0,0,1.12-.39c0.4-.83.8-1.65,1.17-2.49A1.94,1.94,0,0,0,45,75.77a4.52,4.52,0,0,1-2.23-2.22A14.16,14.16,0,0,0,41.9,72.4Zm2.79,15.45a3,3,0,0,1,2,1,3.92,3.92,0,0,0,.81.5c-0.35-1.31-1.38-1.84-2.39-2.48ZM61.36,86.6v1C61.37,87.33,61.85,87.1,61.36,86.6Z" transform="translate(-36.69 -30.28)"/><path d="M57.83,93.14a9,9,0,0,1-1.49,4.78c-0.22.34-.39,0.72-0.61,1.07a1,1,0,0,1-.4.49,1.41,1.41,0,0,0-1,.86,2.17,2.17,0,0,1-2.12,1,7.13,7.13,0,0,0-.85,0,1.57,1.57,0,0,1-1.77-1.48,13.73,13.73,0,0,1-.14-3.49,10,10,0,0,1,1.63-4.41c0.44-.62.83-1.28,1.32-1.85a4,4,0,0,1,1.23-1,2.56,2.56,0,0,1,3.73,1.5A16,16,0,0,1,57.83,93.14Zm-5.21-1.74a1.65,1.65,0,0,1-.32.59c-0.67.43-.71,1.29-1.27,1.79a0.73,0.73,0,0,0,0,.27,5.82,5.82,0,0,1-.44,1.59,2,2,0,0,0-.3,1.06c0,0.72,0,1.45,0,2.17a8.66,8.66,0,0,0,.12.94,0.58,0.58,0,0,0,.64.56c1.5,0,1.57.44,2.3-1.13a0.49,0.49,0,0,1,.09-0.09l0.15,0.62a7.13,7.13,0,0,0,1-4.8l-0.41,1.49C53.94,92.52,53.77,91.92,52.63,91.41Zm2.92,5.66,0.26,0.06A4.8,4.8,0,0,0,56.29,96c0.1-.57.31-1.12,0.38-1.67a5.35,5.35,0,0,0-.48-3.59c-0.7-1.16-.84-1.36-2.32-0.93,0.11,0.34.2,0.69,0.34,1s0.45,0.77.59,1.18a11.84,11.84,0,0,1,.68,3.81C55.5,96.26,55.53,96.66,55.55,97.07Z" transform="translate(-36.69 -30.28)"/><path d="M47.86,107.05a1.18,1.18,0,0,1-1.09-.79,2.61,2.61,0,0,1,.26-2.18,2.91,2.91,0,0,1,.58-0.62,0.93,0.93,0,0,1,1.54.32,2.75,2.75,0,0,1-.62,2.76C48.31,106.73,48.08,106.89,47.86,107.05Zm0.64-3.17c-1,.1-1.21.29-1.41,1.33-0.14.72,0,.89,0.7,1.3A1.88,1.88,0,0,0,48.5,103.88Z" transform="translate(-36.69 -30.28)"/><path d="M56.19,102.25a10.22,10.22,0,0,0,1-1.25c0.29-.51.18-0.7-0.35-1a0.63,0.63,0,0,1-.45-0.59,1.25,1.25,0,0,1,1.36.64,1.62,1.62,0,0,1-.49,1.88A0.75,0.75,0,0,1,56.19,102.25Z" transform="translate(-36.69 -30.28)"/><path class="cls-1" d="M60.55,90.91c0.15,0.17.15,0.17-.18,0.57l0.19-.57h0Z" transform="translate(-36.69 -30.28)"/><path class="cls-1" d="M45.28,130.36c0.6-.8.07-1.85,0.29-2.87,0.44,0,.47-0.45.54-0.87,0.19-1.12.41-2.24,0.62-3.36a0.57,0.57,0,0,1,0-.09c0.79-2.14,1.37-4.35,2.11-6.5A16,16,0,0,1,50.82,113c1.23-1.81,2.63-3.49,3.91-5.27a11.12,11.12,0,0,1,3.61-3.07c1.14-.65,2.38-1.11,3.54-1.72a10.82,10.82,0,0,1,4.77-1c1,0,2.09-.19,3.12-0.15a26.64,26.64,0,0,1,4,.41,29,29,0,0,1,3.73,1.06,18.43,18.43,0,0,1,2.66,1.18l-2.55-.23c-0.38,0-.74-0.13-1.12-0.16a4.33,4.33,0,0,0-.82,0c-0.59.05-1.18,0.13-1.76,0.2a2.08,2.08,0,0,0-.37.06,18.92,18.92,0,0,0-8.88,5.53,4.2,4.2,0,0,0-.71,1.32c-1,2.85-2.1,5.7-3.07,8.58-0.45,1.35-.71,2.76-1.07,4.18,0,0.16.44-.18,0.36,0.25-0.17.84-.29,1.69-0.38,2.54-0.06.59,0,1.19,0,1.79,0,0.25,0,.5,0,0.75-0.08,1.71-.24,3.42-0.23,5.13,0,1.52.17,3,.33,4.54s0.33,2.77.58,4.14c0.31,1.67.68,3.34,1.08,5,0.32,1.31.71,2.61,1.12,3.9s1,2.48,1.29,3.75a18.2,18.2,0,0,0,3,5.65,12.34,12.34,0,0,0,5.54,4.43c0.32,0.13.65,0.24,1,.34a0.53,0.53,0,0,0,.45-0.13c-0.25-.19-0.5-0.39-0.76-0.57a23.64,23.64,0,0,1-2.9-1.94,22.34,22.34,0,0,1-2.53-2.93,16.49,16.49,0,0,1-2.47-4.25c-0.47-1.23-.83-2.51-1.24-3.77-0.57-1.77-1.2-3.52-1.69-5.31-0.37-1.35-.58-2.75-0.84-4.13-0.11-.56-0.11-1.14-0.26-1.69a45.37,45.37,0,0,1-1-7.24,0.33,0.33,0,0,1,0-.19,2.76,2.76,0,0,0,.05-1.95,9.6,9.6,0,0,1,.07-1.34,23,23,0,0,1,.31-3.14,26.56,26.56,0,0,0,.55-3.27c0-2.36.86-4.54,1.4-6.77A7.89,7.89,0,0,1,64,114.15a0.4,0.4,0,0,0,.09-0.17c0.3-1.51,1.43-2.51,2.28-3.67A5.62,5.62,0,0,1,68,109a16.45,16.45,0,0,1,1.44-1.43c1-.5,1.9-1,2.87-1.49a9.71,9.71,0,0,1,5.4-.63A14.05,14.05,0,0,1,82.94,107a15.51,15.51,0,0,0,2,.78,12.36,12.36,0,0,1,5,3.54A32.6,32.6,0,0,1,94,117.19a52.42,52.42,0,0,1,4.14,9.54,16.33,16.33,0,0,1,1,4.13c0.08,1.21.59,2.39,0.77,3.6,0.29,2,.49,4,0.68,6,0.16,1.73.35,3.47,0.37,5.21,0,3.13-.11,6.27-0.09,9.4a17.52,17.52,0,0,1-.65,4.2,5.42,5.42,0,0,1-.82,1.8c-0.88,1.27-1.8,2.52-2.8,3.7a21.4,21.4,0,0,1-6.31,5,30.2,30.2,0,0,1-4.13,1.64,37.46,37.46,0,0,1-7.61,1.92c-1.85.25-3.68,0.62-5.53,0.77a26,26,0,0,1-4.81,0,18.55,18.55,0,0,1-4.24-1,33.78,33.78,0,0,1-3.81-1.86,1.58,1.58,0,0,1-.61-0.44,7.37,7.37,0,0,0-2.11-1.68,10.49,10.49,0,0,1-1.33-1.33c-0.22-.23-0.42-0.47-0.62-0.72a12.43,12.43,0,0,1-1.1-1.4A42.8,42.8,0,0,1,51,158.92a74.53,74.53,0,0,1-2.54-7.13c-0.24-.92-0.6-1.8-0.89-2.7a34,34,0,0,1-1.4-5.94c-0.22-1.59-.51-3.18-0.74-4.77a14.43,14.43,0,0,1-.06-1.6c0-.47,0-0.94,0-1.41,0-1.26.09-2.51,0.1-3.76A8.37,8.37,0,0,0,45.28,130.36Zm47.5,11.29a26.76,26.76,0,0,0-.6-6.4c-0.1-.5-0.2-1-0.31-1.48-0.43-1.94-.82-3.89-1.32-5.81a17.08,17.08,0,0,0-2.6-5.24,8.2,8.2,0,0,0-5-3.63c-1.51-.33-3.07-0.44-4.6-0.63a6.13,6.13,0,0,0-1,0,5.31,5.31,0,0,0-4,2.38A18.19,18.19,0,0,0,69.8,128a29.61,29.61,0,0,0-.68,7.07,24.17,24.17,0,0,0,1.33,7.71c0.43,1.19.61,2.47,1.09,3.63,1,2.31,2.06,4.55,3,6.85a14.87,14.87,0,0,0,3.87,5.11,4.42,4.42,0,0,0,4.26,1.25,10.42,10.42,0,0,0,1.26-.39c1.54-.63,3.13-1.19,4.16-2.65,0.36-.51.76-1,1.17-1.48a10.87,10.87,0,0,0,2-3.85A36.37,36.37,0,0,0,92.78,141.65Z" transform="translate(-36.69 -30.28)"/><path class="cls-1" d="M180.51,137.93a17.1,17.1,0,0,1-1.57-1.13,4.32,4.32,0,0,0-4.36-.73,13.18,13.18,0,0,0-5,2.88,11.28,11.28,0,0,0-2.25,2.42,1.15,1.15,0,0,0-.21.69c0.06,0.48.43,0.59,0.82,0.28a1.18,1.18,0,0,0,.28-0.26c1-1.56,2.58-2.46,4-3.51a8.56,8.56,0,0,1,2.94-1.26,3.5,3.5,0,0,1,3.63,1c0.47,0.5,1.17.88,1.12,1.73,0.6,0.29.34,0.77,0.32,1.15-0.78-.44-1.55-0.84-2.29-1.3a4.13,4.13,0,0,0-4.08-.18,11.44,11.44,0,0,0-2.48,1.56,39.79,39.79,0,0,0-7.58,8.93,98.59,98.59,0,0,0-5.07,9.09c-1.11,2.13-2.27,4.23-3.34,6.37a73.4,73.4,0,0,0-4.06,9,6.62,6.62,0,0,1-.28.6,13,13,0,0,0-1.1,6.12,6,6,0,0,0,2.66,4.89,8.77,8.77,0,0,0,2.52,1.21,4.71,4.71,0,0,0,3.65-.57l0.16-.09a0.25,0.25,0,0,1,.08.07,0.83,0.83,0,0,1-.11.25,14.21,14.21,0,0,1-8.3,4.78,8.26,8.26,0,0,1-5.65-1.13,6.39,6.39,0,0,1-.73-0.45,2.43,2.43,0,0,0-1.89-.4c-0.94.1-1.9,0.16-2.82,0.35a8.46,8.46,0,0,1-2.89-.28,13.71,13.71,0,0,1-3.77-1.13,20,20,0,0,1-3.8-2.26,10.56,10.56,0,0,1-2.64-2.79,4.53,4.53,0,0,1-.77-2.77,0.71,0.71,0,0,0,0-.34,9.26,9.26,0,0,1-.72-4c0-.85-0.1-1.7-0.07-2.55a34.1,34.1,0,0,1,.28-3.58c0.33-2.26.82-4.51,1.11-6.78a29,29,0,0,1,1.39-5.88c0.87-2.51,1.86-5,2.84-7.44q1.22-3.09,2.53-6.14c0.47-1.09,1-2.14,1.56-3.22s1-2.07,1.51-3.13a25.33,25.33,0,0,1,2.68-4.34c1.31-1.86,2.56-3.76,4-5.52a15.18,15.18,0,0,1,3.43-3.48,22.42,22.42,0,0,0,2.78-2.41,14.36,14.36,0,0,1,6.74-3.48,12,12,0,0,1,4.52.08,25.22,25.22,0,0,1,2.3,9.5c0,1.39.06,2.78,0,4.17a9.12,9.12,0,0,1-1.36,3.8c-1,1.73-1.82,3.54-2.71,5.31s-1.69,3.39-2.51,5.1c-1.22,2.54-2.39,5.09-3.62,7.63-0.45.93-1,1.79-1.49,2.72-0.9,1.85-1.77,3.72-2.64,5.58-0.78,1.66-1.53,3.33-2.31,5-0.31.65-.7,1.26-1,1.92a13.85,13.85,0,0,0-.44,1.55c-0.55,1.88-1.15,3.75-1.64,5.64a16.53,16.53,0,0,0-.35,5.67,15,15,0,0,0,.34,2.33,10.58,10.58,0,0,0,.72,1.64,0.76,0.76,0,0,0,1,.43,4.66,4.66,0,0,0-.1-0.71,17.72,17.72,0,0,1-.13-9.55c0.52-2,1.19-3.93,1.81-5.89a11.52,11.52,0,0,1,.51-1.11,1,1,0,0,1,.86-0.62,14.34,14.34,0,0,0,2.21-.51,2.84,2.84,0,0,0,1.78-1.71c0.71-1.58,1.55-3.11,2.36-4.65,0.68-1.28,1.45-2.51,2.11-3.8,1.52-3,3-5.94,4.51-8.88a37,37,0,0,1,2.08-3.15,64.39,64.39,0,0,0,4.19-7.51,19.89,19.89,0,0,0,.91-2.89,16.62,16.62,0,0,0,.5-1.63,0.87,0.87,0,0,0-.23-0.72,0.5,0.5,0,0,0-.78.26,4.15,4.15,0,0,0-.38.86,36.27,36.27,0,0,1-3.58,8.15c-1.12,1.91-2.42,3.72-3.59,5.59-0.51.82-.93,1.71-1.37,2.58-0.56,1.1-1.09,2.21-1.66,3.31q-1.3,2.52-2.62,5c-0.95,1.79-1.92,3.56-2.88,5.35-0.21.39-.4,0.79-0.59,1.19a2.85,2.85,0,0,1-2.92,1.71,10.71,10.71,0,0,1,.36-1c0.91-2,1.83-4,2.77-5.93,1.18-2.45,2.39-4.88,3.57-7.32,1.49-3.1,3-6.22,4.45-9.32,0.66-1.36,1.37-2.7,2.06-4,0.86-1.69,1.8-3.34,2.58-5.06a10.07,10.07,0,0,0,.72-5.76,10.33,10.33,0,0,1-.1-1.52,20.11,20.11,0,0,0-1.4-6.45,24.6,24.6,0,0,1-1.51-5,22.49,22.49,0,0,1-.15-3.47c0-1.26.24-2.51,0.39-3.76a5.31,5.31,0,0,1,.29-0.93h0.25c0.2,0.8.4,1.61,0.6,2.41,0.41,1.56.82,3.12,1.23,4.68,0.23,0.88.43,1.77,0.66,2.65,0.09,0.33.24,0.65,0.35,1,0.6,1.79,1.21,3.58,1.77,5.39,0.28,0.9.5,1.82,0.71,2.74,0.28,1.25.54,2.5,0.78,3.75,0.1,0.52.11,1.07,0.21,1.59a1.36,1.36,0,0,0,2,1.2q2.82-1,5.61-2a8.53,8.53,0,0,0,3-2.06c0.21-.22.47-0.39,0.81-0.66a4.79,4.79,0,0,1,.24.81C180.19,132.21,181.2,135,180.51,137.93Zm-32.19,15.36a0.81,0.81,0,0,1,.06.38q-0.45,1-.94,2a0.9,0.9,0,0,0,.41,1.33c0.41,0.15.73-.08,1-0.63,0.3-.73.6-1.46,1-2.16,1-1.89,2-3.76,3.08-5.64a13.92,13.92,0,0,0,.68-1.24,0.56,0.56,0,0,0-.32-0.78,0.65,0.65,0,0,0-.85.22c-0.35.52-.72,1-1,1.57a22.4,22.4,0,0,0-1.45,2.55,10.37,10.37,0,0,1-1.56,2.47,6.28,6.28,0,0,1,.29-1.09c0.3-.65.66-1.28,1-1.92,1.33-2.47,2.63-5,4-7.41,1.05-1.91,2.16-3.79,3.25-5.68,0.11-.19.22-0.38,0.31-0.59,0.48-1.06.94-2.13,1.44-3.19a1.93,1.93,0,0,0-.05-1.83,2.2,2.2,0,0,0-.79.42,6.46,6.46,0,0,0-.79,1.49,43.67,43.67,0,0,1-3.3,6.39c-0.45.8-1,1.56-1.41,2.36-1.17,2.15-2.31,4.31-3.47,6.46-0.34.63-.76,1.22-1.08,1.86-0.46.93-.84,1.9-1.29,2.84-0.83,1.76-1.73,3.5-2.5,5.29-0.62,1.44-1.05,2.95-1.63,4.4a37,37,0,0,0-1.91,6c-0.44,2.09-1.28,4.11-1.33,6.28,0,0.09,0,.19,0,0.28-0.11.88-.28,1.75-0.31,2.63a23.92,23.92,0,0,0,.9,6.08c0.22,0.94.37,1.81-.6,2.43a0.52,0.52,0,0,0-.18.22,0.37,0.37,0,0,0,.24.59,1.46,1.46,0,0,0,.64,0,1.86,1.86,0,0,0,1.47-1.76,7.13,7.13,0,0,0-.2-1.87,18.46,18.46,0,0,1-.71-6.37c0.12-1.26.22-2.52,0.43-3.77a31.25,31.25,0,0,1,.78-3.12,6.54,6.54,0,0,1,.81-2.4c0.95,0.36,1.13.3,1.51-.62,0.24-.58.42-1.19,0.64-1.77,0.45-1.18.87-2.38,1.39-3.53,0.41-.92.94-1.79,1.42-2.68a0.6,0.6,0,0,0-.12-0.85,0.67,0.67,0,0,0-.94.09,4.24,4.24,0,0,0-.52.67c-0.37.61-.72,1.23-1.08,1.85a2,2,0,0,1,.11-0.72,55.47,55.47,0,0,1,3-6.65A5.77,5.77,0,0,1,148.32,153.29Zm10.62-15.51a1.86,1.86,0,0,0-.18-0.33,0.64,0.64,0,0,0-1.1.05c-0.65.89-1.28,1.79-1.84,2.74-0.78,1.29-1.49,2.63-2.22,3.95a0.83,0.83,0,0,0,.25,1.23c0.32,0.23.62,0.11,1-.39a3.65,3.65,0,0,0,.26-0.4l3.6-6.31A4.59,4.59,0,0,0,158.94,137.78Z" transform="translate(-36.69 -30.28)"/><path class="cls-1" d="M164.64,89.93a0.54,0.54,0,0,1-.17.14c-1.52.54-3,1.06-4.55,1.61a0.94,0.94,0,0,1-1.05-.21,12,12,0,0,1-2.24-2.56c-0.55-1-1.22-1.84-1.81-2.78-1.37-2.16-2.73-4.32-4.09-6.48a43.89,43.89,0,0,0-5.3-6.57c-1-1-1.88-2-2.83-3-1.35-1.44-2.64-3-4.1-4.27A40.78,40.78,0,0,0,134,61.73c-1.39-.92-2.78-1.84-4.12-2.83a58.78,58.78,0,0,0-6.73-3.84c-1.34-.74-2.8-1.25-4.21-1.87-0.78-.34-1.53-0.74-2.32-1.06-1.19-.5-2.39-1-3.61-1.42s-2.41-.75-3.63-1.08c-1.61-.43-3.23-0.86-4.86-1.2s-3.35-.62-5-0.88S96.27,47,94.65,46.9a12,12,0,0,0-2.82.21c-1.27.2-2.53,0.49-3.78,0.78-0.57.14-1.11,0.4-1.68,0.57-2.11.64-4.3,1.07-6.18,2.31a11.94,11.94,0,0,1-1.37.65c-1,.5-2.06.94-3,1.51a26.18,26.18,0,0,0-5.14,3.65,2,2,0,0,1-.5.24,1,1,0,0,0-.47.28C69.3,58.3,68,58.74,67.49,59.79a19.75,19.75,0,0,1-1.6,2.31c-0.27.38-.59,0.73-0.87,1.11a20.06,20.06,0,0,1-4.3,4.46,32.85,32.85,0,0,1-3.53,2.19c-1.77,1-3.49,2.06-5.29,3-1.36.71-2.8,1.28-4.22,1.86a3.44,3.44,0,0,1-3.16-.35,3.13,3.13,0,0,1-.74-0.83,8.67,8.67,0,0,0-1-1.35,1.27,1.27,0,0,1-.36-1.53c0.7-2,1.39-4.06,2.19-6.05a16.92,16.92,0,0,1,1.38-2.34l1.22-2c0.3-.5.58-1,0.92-1.5,1.11-1.54,2.18-3.11,3.37-4.59,0.93-1.15,2-2.18,3-3.25,0.16-.17.31-0.41,0.64-0.21a0.65,0.65,0,0,0,.46-0.2c1-.9,2-1.86,3.11-2.71A18.06,18.06,0,0,1,61,46.43c1.18-.67,2.43-1.23,3.53-2a22.1,22.1,0,0,1,3.75-2.09,12.74,12.74,0,0,1,1.68-.61c1.57-.46,3.13-1,4.66-1.54s3.19-1,4.8-1.38c1.06-.28,2.13-0.53,3.21-0.72s2-.23,2.95-0.37c1.15-.17,2.28-0.4,3.43-0.57a25.2,25.2,0,0,1,2.85-.34,29.87,29.87,0,0,1,3.09.12c2.74,0.19,5.49.35,8.22,0.63,1.44,0.15,2.86.53,4.28,0.82s2.91,0.58,4.36.91a41.93,41.93,0,0,1,6.46,2.21c1.35,0.55,2.72,1,4.06,1.58,1,0.41,2,.85,2.94,1.33,2,1,4,2,5.91,3.07,1.28,0.73,2.45,1.66,3.67,2.5,0.83,0.58,1.67,1.15,2.48,1.75a44.88,44.88,0,0,1,5.57,5.14c1.61,1.69,3.19,3.42,4.75,5.16,1.76,1.95,3.54,3.87,5.22,5.89a26.6,26.6,0,0,1,2.94,4.51c1,1.78,2,3.5,3,5.27,0.76,1.38,1.47,2.79,2.2,4.19,0.28,0.53.58,1,.84,1.58s0.51,1.15.76,1.73Z" transform="translate(-36.69 -30.28)"/><path class="cls-1" d="M66.75,41.6c0.53-.29,1-0.62,1.6-0.87,1.58-.71,3.17-1.39,4.75-2.08s3.1-1.42,4.69-2,3.24-1.07,4.87-1.55c2.12-.62,4.24-1.27,6.39-1.78a42.63,42.63,0,0,1,6.9-1.2c3.6-.26,7.21-0.23,10.8-0.4a40.53,40.53,0,0,1,9.23.84,47.06,47.06,0,0,1,8.56,2c2.3,0.88,4.56,1.87,6.84,2.81,1,0.41,2,.8,3,1.25s2.09,1,3.14,1.53c0.39,0.19.8,0.36,1.19,0.56,1.37,0.71,2.75,1.4,4.1,2.14,1.65,0.91,3.28,1.87,4.91,2.82,2,1.17,3.91,2.51,5.84,3.81a23.47,23.47,0,0,1,4.63,4.15c1,1.16,2.13,2.24,3.06,3.46,1.3,1.7,2.48,3.5,3.69,5.27,0.83,1.22,1.65,2.46,2.41,3.72,0.54,0.89,1,1.85,1.45,2.78,1.23,2.35,2.51,4.68,3.68,7.06,1.09,2.2,2.09,4.45,3.09,6.7,0.47,1.06.31,1.5-.7,2.11s-2.32,1.29-3.47,1.94-2.18,1.29-3.27,1.93c-0.65.38-1.31,0.74-2,1.12a2.41,2.41,0,0,1-.37-0.48,32.21,32.21,0,0,1-1.53-3.74,11.77,11.77,0,0,0-1-2.1c-0.39-.79-0.75-1.59-1.15-2.38-0.27-.53-0.61-1-0.89-1.55-0.88-1.63-1.74-3.26-2.62-4.89-0.27-.49-0.62-0.94-0.9-1.44-0.73-1.31-1.39-2.66-2.17-3.94a17.6,17.6,0,0,0-1.64-2.07c-0.77-.91-1.47-1.87-2.32-2.73a63.18,63.18,0,0,1-4.46-5c-1.29-1.62-2.86-2.93-4.26-4.42a20.73,20.73,0,0,0-1.43-1.51c-1.49-1.3-3-2.58-4.54-3.84-0.48-.4-1.05-0.69-1.52-1.1-0.94-.83-2.12-1.29-3.09-2.09a11.47,11.47,0,0,0-2.32-1.24q-1.69-.83-3.4-1.63a44.71,44.71,0,0,0-5.44-2.43,9.06,9.06,0,0,1-1.64-.46c-1.27-.69-2.71-1-3.92-1.78a5.19,5.19,0,0,0-1.61-.51c-1.72-.43-3.44-0.87-5.18-1.19s-3.66-.72-5.5-1c-1.56-.22-3.14-0.31-4.72-0.44-1-.08-2.08-0.17-3.12-0.16-1.39,0-2.78.06-4.16,0.2-2.67.26-5.34,0.54-8,.93a29.11,29.11,0,0,0-6.9,1.67c-0.9.36-1.91,0.43-2.82,0.79-1.73.68-3.58,1-5.16,2.09a6.61,6.61,0,0,1-1.48.54Z" transform="translate(-36.69 -30.28)"/><path class="cls-1" d="M151.31,180.18a12.43,12.43,0,0,1,1.07-4.64c0.5-.9.69-2,1.12-2.92,0.91-2,1.85-4,2.86-6,0.81-1.6,1.75-3.12,2.59-4.71,1.17-2.23,2.25-4.52,3.47-6.73,0.92-1.68,2-3.27,3-4.93a34.32,34.32,0,0,1,4.91-6.24,17,17,0,0,1,3.35-2.77,4,4,0,0,1,4.63.18,13.75,13.75,0,0,1,1.51,1.27,2.09,2.09,0,0,1,.61,1.92c-0.28,2-.55,3.95-0.94,5.9s-0.8,3.84-1.36,5.72a47.41,47.41,0,0,1-3,8.09c-0.72,1.4-1.34,2.87-2.18,4.2-1.07,1.71-2.31,3.32-3.49,5-1.63,2.26-3.23,4.54-4.92,6.75a21,21,0,0,1-2.46,2.64c-1,1-2.17,1.84-3.28,2.74a4.38,4.38,0,0,1-6.86-1.91A10.12,10.12,0,0,1,151.31,180.18ZM173.43,155c-0.09-.56-0.2-1.31-0.31-2.05a2.62,2.62,0,0,0-1.72-2.08,0.85,0.85,0,0,0-1.1.29,7.17,7.17,0,0,1-.72.73c-0.64.61-1.34,1.15-1.92,1.82-1.07,1.24-2.12,2.5-3.08,3.82a17.45,17.45,0,0,0-2.33,4c-0.41,1.06-.92,2.08-1.37,3.12-0.29.67-.55,1.35-0.8,2-0.18.5-.34,1-0.49,1.53-0.31,1.08-.66,2.16-0.89,3.26a4.91,4.91,0,0,0,0,2,2.18,2.18,0,0,0,3.16,1.67,12.1,12.1,0,0,0,4.26-3.55,52,52,0,0,0,5-8,14.23,14.23,0,0,0,.77-1.83c0.37-1.08.62-2.2,1-3.25A10.46,10.46,0,0,0,173.43,155Z" transform="translate(-36.69 -30.28)"/><path class="cls-1" d="M167.28,100.48a40.64,40.64,0,0,0,11.93-7.64c0.19,0.67.34,1.1,0.43,1.55q0.67,3.3,1.31,6.61c0.37,2,.76,3.91,1.07,5.88,0.21,1.37.33,2.76,0.42,4.15a4.4,4.4,0,0,1-1.8,3.68,29.23,29.23,0,0,1-4.1,2.75c-1.39.85-2.85,1.59-4.34,2.41a10.45,10.45,0,0,1-.84-2.68,1.53,1.53,0,0,0-.07-0.47,39,39,0,0,1-1.35-5.59,34.16,34.16,0,0,0-.95-3.84,17.24,17.24,0,0,1-.53-2.86,6,6,0,0,0-.35-1,3.27,3.27,0,0,1-.28-0.7,11.78,11.78,0,0,0,0-1.22A5.12,5.12,0,0,0,167.28,100.48Z" transform="translate(-36.69 -30.28)"/><path class="cls-1" d="M60.54,83.14c-2.08.85-4.1,1.69-6.13,2.5a21.52,21.52,0,0,0-5.21,2.9c-0.2.15-.42,0.27-0.74,0.46a4,4,0,0,0-2.65-2.68A1.36,1.36,0,0,1,45,84.94c-0.05-.91-0.23-1.81-0.37-2.84,0.63-.36,1.34-0.83,2.11-1.19,2-1,4.11-1.84,6.13-2.84s4.2-2.19,6.28-3.31c0.38-.2.72-0.48,1.14-0.76a1,1,0,0,1,.12.41c-0.39.88-.38,1.92-1.1,2.66a0.86,0.86,0,0,0-.19.49c-0.05.52,0.19,1.14-.58,1.38a1.43,1.43,0,0,0,.14.74c0.38,0.55.82,1,1.24,1.56A2.55,2.55,0,0,1,60.54,83.14Z" transform="translate(-36.69 -30.28)"/><path class="cls-1" d="M167.13,99.35c-0.24-.82-0.45-1.42-0.59-2-0.25-1.13-.45-2.27-0.69-3.4-0.11-.52-0.27-1-0.39-1.55a1.59,1.59,0,0,1,0-1.37c1.49,0,2.58-1,3.8-1.58,1.6-.81,3.16-1.71,4.72-2.61,1-.55,1.88-1.15,2.93-1.79a6.91,6.91,0,0,1,.6,1,29.23,29.23,0,0,1,1.07,3.14,9.84,9.84,0,0,1,.19,2.24,1,1,0,0,1-.37.59c-0.6.51-1.25,1-1.85,1.49a33.58,33.58,0,0,1-7.08,4.56c-0.22.11-.41,0.29-0.63,0.41C168.35,98.75,167.82,99,167.13,99.35Z" transform="translate(-36.69 -30.28)"/><path class="cls-1" d="M162,101.74l4-.69c0.27,0.95.57,1.9,0.81,2.87q1.11,4.61,2.17,9.23c0.4,1.75.76,3.5,1.13,5.26a0.93,0.93,0,0,0,0,.19,3.61,3.61,0,0,1-.18,3.14c-0.55,1.33-.88,2.76-1.31,4.17a7.94,7.94,0,0,1-.34-0.83c-0.74-2.58-1.37-5.19-2.24-7.72a78.1,78.1,0,0,1-2.12-7.93,21.38,21.38,0,0,0-.78-3.28A22.64,22.64,0,0,1,162,101.74Z" transform="translate(-36.69 -30.28)"/><path class="cls-1" d="M39.93,80.27A3.48,3.48,0,0,0,42,81.37a1.27,1.27,0,0,1,.5.42,2.55,2.55,0,0,0,.69.64,1,1,0,0,1,.65,1.12c0,0.69.15,1.39,0.11,2.08a8.32,8.32,0,0,1-.39,1.82A6.52,6.52,0,0,1,43,88.64c-0.65,1.21-.57,2.58-0.91,3.86a44.58,44.58,0,0,1-1.24,4.93A28.41,28.41,0,0,0,40,100.9c0,0.14-.09.27-0.17,0.51a4,4,0,0,1-.89-1.87c-0.2-.53-0.44-1-0.62-1.57a14.75,14.75,0,0,0-.88-2,0.79,0.79,0,0,1-.15-0.49c0.35-.92-0.08-1.93.4-2.83A1,1,0,0,0,37.78,92c-0.21-1,.29-1.87.27-2.84a23.52,23.52,0,0,1,.34-2.9c0-.43,0-0.88.06-1.3a27.24,27.24,0,0,1,1.22-4.36A2.19,2.19,0,0,1,39.93,80.27Z" transform="translate(-36.69 -30.28)"/><path class="cls-1" d="M136.17,134a0.67,0.67,0,0,1,0,1c-1.16,1.53-1.68,3.41-2.77,5a13.79,13.79,0,0,0-1.12,2.57l-1.24,3c-0.76,1.82-1.56,3.63-2.28,5.47-0.57,1.46-1.07,3-1.57,4.44-0.6,1.79-1.17,3.59-1.75,5.39a6.34,6.34,0,0,0-.19.82c-0.3,1.68-.65,3.35-0.88,5-0.34,2.53-.63,5.07-0.85,7.61a23.86,23.86,0,0,0,.11,3,1,1,0,0,1-.12.59,5.67,5.67,0,0,1-.21-0.55,25.48,25.48,0,0,1-.64-4.95,40.15,40.15,0,0,1,.31-5.46,40.47,40.47,0,0,1,1.12-7.38c0.68-2.56,1.47-5.1,2.38-7.59a27.12,27.12,0,0,1,1.53-3.73c0.74-1.36,1.25-2.85,1.85-4.29,0-.09.07-0.18,0.11-0.26,1-1.81,1.91-3.62,2.9-5.42a13.27,13.27,0,0,0,.8-1.55,15.56,15.56,0,0,1,1.54-2.67,0.6,0.6,0,0,1,.92-0.06Z" transform="translate(-36.69 -30.28)"/><path class="cls-1" d="M170.2,127.92a20.09,20.09,0,0,1,1.49-6.5,3.65,3.65,0,0,0,2.15-1.07c0.87-.62,1.89-1,2.81-1.58a34,34,0,0,0,4.55-2.9,1.5,1.5,0,0,1,.35-0.14c-0.07.46-.13,0.85-0.18,1.24-0.09.72-.19,1.44-0.24,2.17-0.13,1.9-1.41,3-2.76,4.05a47.07,47.07,0,0,1-7.05,4.24C171,127.59,170.71,127.7,170.2,127.92Z" transform="translate(-36.69 -30.28)"/><path class="cls-1" d="M61.43,68.51a7.35,7.35,0,0,1-.7,3.83,2.81,2.81,0,0,1-.79.8,30.7,30.7,0,0,1-5.4,3.16C51.7,77.58,48.9,79,45.94,80.4a4.72,4.72,0,0,1,.35-1.23,3.52,3.52,0,0,0,.21-3.25,6,6,0,0,1,.71-0.22,18.9,18.9,0,0,0,6.17-2.58c1.78-1,3.57-2.07,5.37-3.1a2.7,2.7,0,0,1,1.56-.79s0.06-.24.13-0.33A0.73,0.73,0,0,1,61.43,68.51ZM48.25,77.76c0.59-.72,1.68-0.61,2.22-1.51A3.33,3.33,0,0,0,49.89,76a2.68,2.68,0,0,0-1.77.78C47.69,77.08,47.71,77.13,48.25,77.76Zm10.26-5c0.59-.41,1.16-0.79,1.7-1.2A1,1,0,0,0,60.37,71a1.44,1.44,0,0,0-.57,0,16.17,16.17,0,0,0-1.57.83,0.57,0.57,0,0,0-.26.43A1.94,1.94,0,0,0,58.51,72.72Z" transform="translate(-36.69 -30.28)"/><path class="cls-1" d="M165.27,99.76a8.16,8.16,0,0,1-3.59.76c-0.39-1.07-.81-2.19-1.22-3.3-0.19-.53-0.36-1.08-0.53-1.62a3.34,3.34,0,0,1-.18-0.83c0-1.19,0-1.7,1.16-2.17l2.72-1.13c0.23,0.81.43,1.53,0.62,2.26,0.27,1,.51,2,0.78,3A6.22,6.22,0,0,1,165.27,99.76Z" transform="translate(-36.69 -30.28)"/><path class="cls-1" d="M169.7,132.21l-0.27-2.48a60.81,60.81,0,0,0,10.65-6.27,6,6,0,0,1-.18.81,13.18,13.18,0,0,1-1.62,3.61,8.59,8.59,0,0,1-2.13,1.81A32.07,32.07,0,0,1,169.7,132.21Z" transform="translate(-36.69 -30.28)"/><path class="cls-1" d="M41.9,72.4a14.16,14.16,0,0,1,.87,1.15A4.52,4.52,0,0,0,45,75.77a1.94,1.94,0,0,1,.72,2.58c-0.37.84-.77,1.66-1.17,2.49a0.85,0.85,0,0,1-1.12.39A18.09,18.09,0,0,0,41.06,80a1.24,1.24,0,0,1-.61-1.53c0.18-.8.15-1.65,0.35-2.44C41.08,74.86,41.49,73.74,41.9,72.4Z" transform="translate(-36.69 -30.28)"/><path class="cls-1" d="M136.17,134l-0.05,0a1.36,1.36,0,0,1,.17-1.65c0.53-.82,1.05-1.65,1.63-2.43s1-1.25,1.58-1.87a39.34,39.34,0,0,1,2.7-3,9.94,9.94,0,0,1,3.15-2.48,2.71,2.71,0,0,0,.45-0.44,20.47,20.47,0,0,1,3.86-2.54l0,0a0.69,0.69,0,0,1-.43.76c-1.42,1.2-2.89,2.34-4.28,3.57a22.39,22.39,0,0,0-4.45,5.13,2.8,2.8,0,0,1-.56.63,4.49,4.49,0,0,0-.92,1.16c-0.64,1.08-1.41,2.08-2.13,3.11A0.41,0.41,0,0,1,136.17,134Z" transform="translate(-36.69 -30.28)"/><path class="cls-1" d="M44.69,87.85l0.38-1c1,0.65,2,1.18,2.39,2.48a3.92,3.92,0,0,1-.81-0.5A3,3,0,0,0,44.69,87.85Z" transform="translate(-36.69 -30.28)"/><path class="cls-1" d="M150.88,119.06a1,1,0,0,1-1.22.49h0l1.23-.48Z" transform="translate(-36.69 -30.28)"/><path class="cls-1" d="M150.9,119.09l0.75-.58,0.08,0.14-0.85.41Z" transform="translate(-36.69 -30.28)"/><path class="cls-1" d="M61.36,86.6c0.49,0.5,0,.73,0,1v-1Z" transform="translate(-36.69 -30.28)"/><path class="cls-1" d="M52.63,91.41c1.14,0.51,1.32,1.11,1.56,5.05L54.59,95a7.13,7.13,0,0,1-1,4.8l-0.15-.62a0.49,0.49,0,0,0-.09.09c-0.74,1.57-.8,1.14-2.3,1.13a0.58,0.58,0,0,1-.64-0.56,8.66,8.66,0,0,1-.12-0.94c0-.72,0-1.45,0-2.17a2,2,0,0,1,.3-1.06A5.82,5.82,0,0,0,51,94.05a0.73,0.73,0,0,1,0-.27c0.56-.5.6-1.36,1.27-1.79A1.65,1.65,0,0,0,52.63,91.41ZM54,98l-0.29-.08-0.18.82,0.19,0Z" transform="translate(-36.69 -30.28)"/><path class="cls-1" d="M55.55,97.07c0-.4,0-0.8-0.05-1.21A11.84,11.84,0,0,0,54.81,92c-0.15-.41-0.42-0.78-0.59-1.18s-0.23-.67-0.34-1c1.48-.43,1.62-0.23,2.32.93a5.35,5.35,0,0,1,.48,3.59c-0.07.55-.28,1.1-0.38,1.67a4.8,4.8,0,0,1-.49,1.09Z" transform="translate(-36.69 -30.28)"/><path class="cls-1" d="M48.5,103.88a1.88,1.88,0,0,1-.71,2.63c-0.75-.41-0.84-0.58-0.7-1.3C47.29,104.17,47.49,104,48.5,103.88Z" transform="translate(-36.69 -30.28)"/><path d="M92.78,141.65a36.37,36.37,0,0,1-1.49,9.62,10.87,10.87,0,0,1-2,3.85c-0.41.48-.81,1-1.17,1.48-1,1.45-2.62,2-4.16,2.65a10.42,10.42,0,0,1-1.26.39,4.42,4.42,0,0,1-4.26-1.25,14.87,14.87,0,0,1-3.87-5.11c-1-2.3-2.09-4.54-3-6.85-0.48-1.16-.66-2.45-1.09-3.63a24.17,24.17,0,0,1-1.33-7.71A29.61,29.61,0,0,1,69.8,128a18.19,18.19,0,0,1,3.47-7.2,5.31,5.31,0,0,1,4-2.38,6.13,6.13,0,0,1,1,0c1.54,0.19,3.1.29,4.6,0.63a8.2,8.2,0,0,1,5,3.63,17.08,17.08,0,0,1,2.6,5.24c0.51,1.92.89,3.87,1.32,5.81,0.11,0.49.21,1,.31,1.48A26.76,26.76,0,0,1,92.78,141.65Zm-1.2.6a27.1,27.1,0,0,0-.62-7q-0.53-2.39-1-4.8a18.7,18.7,0,0,0-2.63-6.67,8.45,8.45,0,0,0-2.6-2.73,13,13,0,0,0-5.79-1.58,3.09,3.09,0,0,0-2.8.85,0.64,0.64,0,0,1-.48.1c-0.21-.41-0.4-0.13-0.6,0a4.18,4.18,0,0,0-1.75,2,0.36,0.36,0,0,1-.13.12c-0.87.59-.84,1.7-1.4,2.48a3.87,3.87,0,0,0-.51,1.3,26.48,26.48,0,0,0-.68,3.12,39.72,39.72,0,0,0-.43,5.16,38.76,38.76,0,0,0,.5,4.9,16.46,16.46,0,0,0,.55,2.39c0.3,1,.64,2,1,3.05,0.45,1.25.89,2.51,1.41,3.72,0.64,1.48,1.36,2.92,2,4.37a10.53,10.53,0,0,0,1.65,2.75c0.58,0.63,1.11,1.3,1.71,1.91a3.41,3.41,0,0,0,3.1,1.11,10.78,10.78,0,0,0,3.55-1.28,10.87,10.87,0,0,0,3.08-3.32A16.09,16.09,0,0,0,91,147.81,20.54,20.54,0,0,0,91.57,142.25Z" transform="translate(-36.69 -30.28)"/><path d="M148.32,153.3a5.58,5.58,0,0,0-.69.9,55.47,55.47,0,0,0-3,6.65,2,2,0,0,0-.11.72c0.36-.62.71-1.24,1.08-1.85a4.24,4.24,0,0,1,.52-0.67,0.67,0.67,0,0,1,.94-0.09,0.6,0.6,0,0,1,.12.85c-0.48.89-1,1.76-1.42,2.68-0.51,1.15-.94,2.35-1.39,3.53-0.22.59-.41,1.19-0.64,1.77-0.38.92-.56,1-1.51,0.62a6.54,6.54,0,0,0-.81,2.4,31.25,31.25,0,0,0-.78,3.12c-0.21,1.24-.32,2.51-0.43,3.77a18.46,18.46,0,0,0,.71,6.37,7.13,7.13,0,0,1,.2,1.87,1.86,1.86,0,0,1-1.47,1.76,1.46,1.46,0,0,1-.64,0,0.37,0.37,0,0,1-.24-0.59,0.52,0.52,0,0,1,.18-0.22c1-.62.82-1.49,0.6-2.43a23.92,23.92,0,0,1-.9-6.08c0-.88.2-1.75,0.31-2.63,0-.09,0-0.19,0-0.28,0.06-2.18.89-4.19,1.33-6.28a37,37,0,0,1,1.91-6c0.58-1.45,1-3,1.63-4.4,0.77-1.79,1.67-3.52,2.5-5.29,0.44-.94.83-1.91,1.29-2.84,0.32-.64.74-1.23,1.08-1.86,1.16-2.15,2.3-4.31,3.47-6.46,0.44-.8,1-1.56,1.41-2.36a43.67,43.67,0,0,0,3.3-6.39,6.46,6.46,0,0,1,.79-1.49,2.2,2.2,0,0,1,.79-0.42,1.93,1.93,0,0,1,.05,1.83c-0.5,1.05-1,2.12-1.44,3.19-0.09.2-.2,0.39-0.31,0.59-1.08,1.89-2.19,3.77-3.25,5.68-1.35,2.46-2.66,4.94-4,7.41-0.34.64-.7,1.26-1,1.92a6.28,6.28,0,0,0-.29,1.09v0Z" transform="translate(-36.69 -30.28)"/><path d="M148.31,153.32a10.37,10.37,0,0,0,1.56-2.47,22.4,22.4,0,0,1,1.45-2.55c0.32-.54.69-1.05,1-1.57a0.65,0.65,0,0,1,.85-0.22,0.56,0.56,0,0,1,.32.78,13.92,13.92,0,0,1-.68,1.24c-1,1.88-2.07,3.75-3.08,5.64-0.37.69-.67,1.43-1,2.16-0.23.55-.55,0.78-1,0.63a0.9,0.9,0,0,1-.41-1.33q0.49-1,.94-2a0.75,0.75,0,0,0-.07-0.38v0Z" transform="translate(-36.69 -30.28)"/><path d="M158.94,137.78a4.59,4.59,0,0,1-.22.54l-3.6,6.31a3.65,3.65,0,0,1-.26.4c-0.38.5-.68,0.62-1,0.39a0.83,0.83,0,0,1-.25-1.23c0.73-1.32,1.45-2.65,2.22-3.95,0.56-.94,1.2-1.85,1.84-2.74a0.64,0.64,0,0,1,1.1-.05A1.86,1.86,0,0,1,158.94,137.78Z" transform="translate(-36.69 -30.28)"/><path d="M173.43,155a10.46,10.46,0,0,1-.54,3.44c-0.42,1.06-.67,2.17-1,3.25a14.23,14.23,0,0,1-.77,1.83,52,52,0,0,1-5,8,12.1,12.1,0,0,1-4.26,3.55,2.18,2.18,0,0,1-3.16-1.67,4.91,4.91,0,0,1,0-2c0.22-1.1.58-2.18,0.89-3.26,0.15-.51.3-1,0.49-1.53,0.25-.68.51-1.36,0.8-2,0.45-1,1-2.06,1.37-3.12a17.45,17.45,0,0,1,2.33-4c1-1.32,2-2.58,3.08-3.82,0.57-.66,1.28-1.21,1.92-1.82a7.17,7.17,0,0,0,.72-0.73,0.85,0.85,0,0,1,1.1-.29,2.62,2.62,0,0,1,1.72,2.08C173.22,153.74,173.34,154.48,173.43,155Zm-3.48-1.5a3,3,0,0,0-.63.38,25.8,25.8,0,0,0-1.81,1.94c-0.89,1.11-1.74,2.25-2.55,3.42a22.57,22.57,0,0,0-2.09,4.12q-1.33,3.15-2.34,6.41a7.54,7.54,0,0,0-.57,3.24c0.12,1,.53,1.24,1.4.88a2.65,2.65,0,0,0,.43-0.21A12.33,12.33,0,0,0,165,171a42.1,42.1,0,0,0,5.73-9.93c0.37-.91.59-1.88,0.92-2.8a9.22,9.22,0,0,0,.48-3.93,2.46,2.46,0,0,0-.6-1.94,2.45,2.45,0,0,0-1.64,1.21Z" transform="translate(-36.69 -30.28)"/><path d="M48.25,77.76c-0.54-.62-0.56-0.68-0.13-0.94A2.68,2.68,0,0,1,49.89,76a3.33,3.33,0,0,1,.58.21C49.94,77.15,48.85,77,48.25,77.76Z" transform="translate(-36.69 -30.28)"/><path d="M58.51,72.72A1.94,1.94,0,0,1,58,72.28a0.57,0.57,0,0,1,.26-0.43A16.17,16.17,0,0,1,59.79,71a1.44,1.44,0,0,1,.57,0,1,1,0,0,1-.16.48C59.67,71.93,59.11,72.31,58.51,72.72Z" transform="translate(-36.69 -30.28)"/><path d="M54,98l-0.28.79-0.19,0,0.18-.82Z" transform="translate(-36.69 -30.28)"/><path class="cls-1" d="M91.57,142.25a20.54,20.54,0,0,1-.56,5.56,16.09,16.09,0,0,1-2.26,6.41,10.87,10.87,0,0,1-3.08,3.32,10.78,10.78,0,0,1-3.55,1.28A3.41,3.41,0,0,1,79,157.7c-0.6-.6-1.13-1.28-1.71-1.91A10.53,10.53,0,0,1,75.68,153c-0.69-1.46-1.41-2.9-2-4.37-0.53-1.22-1-2.47-1.41-3.72-0.36-1-.7-2-1-3.05a16.46,16.46,0,0,1-.55-2.39,38.76,38.76,0,0,1-.5-4.9,39.72,39.72,0,0,1,.43-5.16,26.48,26.48,0,0,1,.68-3.12,3.87,3.87,0,0,1,.51-1.3c0.55-.78.52-1.89,1.4-2.48a0.36,0.36,0,0,0,.13-0.12,4.18,4.18,0,0,1,1.75-2c0.19-.12.39-0.4,0.6,0a0.64,0.64,0,0,0,.48-0.1,3.09,3.09,0,0,1,2.8-.85,13,13,0,0,1,5.79,1.58,8.45,8.45,0,0,1,2.6,2.73A18.7,18.7,0,0,1,90,130.46q0.47,2.4,1,4.8A27.1,27.1,0,0,1,91.57,142.25Z" transform="translate(-36.69 -30.28)"/><path class="cls-1" d="M169.92,153.57a2.45,2.45,0,0,1,1.64-1.21,2.46,2.46,0,0,1,.6,1.94,9.22,9.22,0,0,1-.48,3.93c-0.33.92-.55,1.89-0.92,2.8A42.1,42.1,0,0,1,165,171a12.33,12.33,0,0,1-3.23,2.77,2.65,2.65,0,0,1-.43.21c-0.87.36-1.28,0.07-1.4-.88a7.54,7.54,0,0,1,.57-3.24q1-3.26,2.34-6.41a22.57,22.57,0,0,1,2.09-4.12c0.81-1.17,1.66-2.31,2.55-3.42a25.8,25.8,0,0,1,1.81-1.94,3,3,0,0,1,.63-0.39l-0.64,2.56a39.88,39.88,0,0,1-1.69,4.52,26.53,26.53,0,0,1-4,6.52c-0.63.82-1.36,1.58-2,2.36,0.54,1,.66,1.06,1.45.3a29.85,29.85,0,0,0,4.13-5.3,29.36,29.36,0,0,0,2.36-4.85,22.9,22.9,0,0,0,1.49-5C171.16,153.84,170.83,153.52,169.92,153.57Z" transform="translate(-36.69 -30.28)"/><path d="M169.92,153.57c0.91-.06,1.24.27,1.1,1.12a22.9,22.9,0,0,1-1.49,5,29.36,29.36,0,0,1-2.36,4.85,29.85,29.85,0,0,1-4.13,5.3c-0.79.76-.91,0.75-1.45-0.3,0.68-.78,1.41-1.54,2-2.36a26.53,26.53,0,0,0,4-6.52,39.88,39.88,0,0,0,1.69-4.52l0.64-2.56Z" transform="translate(-36.69 -30.28)"/></svg>