<svg id="phone" xmlns="http://www.w3.org/2000/svg" viewBox="0 0 166.69 193.02"><defs><style>.cls-1{fill:#fff;}</style></defs><title>CC_comodicons_big_smartphone</title><polygon class="cls-1" points="75.88 3.85 79.7 1.94 84.69 0.66 96.89 0.66 125.11 0.66 142.65 0.5 153.06 2.17 159.5 3.78 162.18 6.07 164.97 9.21 166.68 18.37 164.36 23.97 162.85 32.97 131.46 154.09 127.42 168.58 124.53 178.27 117.87 186.5 111.12 191.91 100.66 193 81.93 189.47 49.05 183.15 31.69 179.21 20.71 178.81 16.46 176.57 4.59 164.74 1.74 157.25 0.15 154.02 2.5 145.72 7.85 135.35 33.84 84.35 54.09 43.25 68.06 15.43 74.42 6.06 75.88 3.85"/><path class="cls-1" d="M105,21.92l0.14,0.24c-0.78.59-1.6,1.14-2.32,1.79a24.12,24.12,0,0,0-4.11,5.34c-1.37,2.19-2.68,4.43-4,6.66-0.5.85-.95,1.74-1.37,2.63-0.91,1.94-1.74,3.92-2.69,5.84C89.94,46,89,47.44,88.23,49c-1.22,2.29-2.44,4.58-3.59,6.9-0.82,1.66-1.52,3.39-2.3,5.08-1.15,2.51-2.47,4.95-3.46,7.52-0.79,2-1.72,4-2.67,6C75,77,73.66,79.6,72.39,82.19c-0.65,1.33-1.29,2.66-2,4S69,89.12,68.22,90.6c-0.9,1.8-1.79,3.61-2.7,5.41-1.14,2.24-2.31,4.45-3.43,6.7-0.89,1.8-1.71,3.63-2.57,5.44-0.62,1.31-1.27,2.61-1.88,3.92-0.91,1.94-1.78,3.91-2.72,5.84A21.69,21.69,0,0,0,53,121.78a5.52,5.52,0,0,1-.57,1.09c-1.31,2.48-2.62,5-3.94,7.44q-1.66,3.1-3.37,6.19c-0.49.89-1,1.75-1.55,2.63-0.33.57-.64,1.15-1,1.72-0.73,1.28-1.46,2.56-2.21,3.82-0.29.49-.68,0.92-0.95,1.42-0.59,1.12-1.12,2.28-1.69,3.41-0.29.58-.68,1.11-0.92,1.71a45.35,45.35,0,0,1-3.22,6.62c-0.58,1-1.14,1.92-1.64,2.91-1,2.06-2,4.16-3,6.2a6.45,6.45,0,0,0-.62,3.12c0,0.41,0,.82,0,1.23a15.42,15.42,0,0,0,1.69,6.89,9.48,9.48,0,0,0,3.37,3.38,22.49,22.49,0,0,0,8.44,3.74c3.34,0.68,6.71,1.24,10.06,1.84,3.12,0.55,6.23,1.11,9.35,1.62,3.91,0.64,7.84,1.24,11.75,1.87,2.24,0.36,4.47.78,6.72,1.1,3.23,0.46,6.47.81,9.69,1.27,5.08,0.73,10.14,1.54,15.21,2.29,4.45,0.66,8.89,1.32,13.35,1.91a59,59,0,0,0,10.38.76,12.77,12.77,0,0,0,7.78-2.47,7,7,0,0,1,1.17-1,15.8,15.8,0,0,0,4.13-3.43c0.8-.78,1.08-1.87,1.74-2.69,1.25-1.55,1.76-3.44,2.57-5.18A26.77,26.77,0,0,0,146.9,179c0.46-1.67.89-3.35,1.46-5,1-2.92,2.09-5.81,2.88-8.8,0.37-1.4.88-2.76,1.27-4.15,0.71-2.54,1.37-5.09,2.06-7.64,0.77-2.83,1.62-5.64,2.33-8.49,1-3.85,1.82-7.73,2.72-11.6,0.85-3.63,1.63-7.28,2.55-10.89,1-3.78,2-7.53,3.08-11.29q2.79-10.06,5.61-20.12c0.51-1.82,1-3.65,1.54-5.47,0.38-1.33.79-2.65,1.18-4q1.1-3.78,2.18-7.56c0.75-2.65,1.52-5.29,2.22-8,0.6-2.28,1.1-4.58,1.67-6.86,0.24-1,.58-1.89.82-2.84q1.49-5.93,2.95-11.87c0.51-2.08,1.09-4.15,1.48-6.25s0.56-4.12.85-6.19a3.15,3.15,0,0,1,.23-0.64,1.36,1.36,0,0,1,.6.92,21.09,21.09,0,0,1,.19,4.88,49.71,49.71,0,0,1-2,8.14c-1.25,4-2.24,8-3.25,12.1-0.42,1.68-.76,3.37-1.14,5.06s-0.81,3.54-1.23,5.31c-0.48,2-1,4.08-1.48,6.11-0.29,1.15-.68,2.28-1,3.42-0.66,2.49-1.29,5-2,7.46-0.26,1-.7,1.86-0.9,2.82-0.53,2.54-1.67,4.89-2.08,7.47a44.51,44.51,0,0,1-1.36,5.09c-0.5,1.75-1.07,3.47-1.52,5.23s-0.8,3.56-1.21,5.33-0.94,3.62-1.26,5.45-1.34,3.36-1.32,5.21a0.83,0.83,0,0,1-.08.23c-0.2.62-.45,1.23-0.59,1.86-0.36,1.64-.6,3.31-1,4.93-1.19,4.62-2.45,9.22-3.69,13.82-0.89,3.32-1.79,6.64-2.67,10-1.27,4.81-2.51,9.63-3.78,14.45-0.39,1.47-.78,2.94-1.25,4.39-0.29.9-.81,1.72-1.09,2.62-0.61,1.94-1.14,3.91-1.71,5.87a6.32,6.32,0,0,1-.29.66c-0.53,1.25-1.06,2.51-1.58,3.76-0.32.76-.58,1.55-0.94,2.29-0.59,1.17-1.33,2.27-1.85,3.47a14.38,14.38,0,0,1-3.07,4.3,14.26,14.26,0,0,0-1.16,1.28,8.53,8.53,0,0,1-3.69,3,21.19,21.19,0,0,1-6.29,1.34,44.75,44.75,0,0,1-6.19-.12c-2.18-.16-4.35-0.5-6.52-0.78q-4.3-.57-8.58-1.19c-1.51-.21-3-0.43-4.51-0.7-2.88-.52-5.74-1.09-8.62-1.63A15.24,15.24,0,0,0,93,194.8a36.09,36.09,0,0,1-6-.68c-2.17-.34-4.33-0.71-6.49-1-1.79-.28-3.59-0.51-5.39-0.77l-9.67-1.44c-2.78-.41-5.56-0.8-8.33-1.24-1.26-.2-2.51-0.53-3.77-0.74-2.4-.4-4.81-0.72-7.2-1.15-1.46-.26-2.88-0.76-4.34-1-3.44-.6-6.49-1.87-8.76-4.64a0.92,0.92,0,0,0-1.2-.48,2.12,2.12,0,0,0,.69,2.2,15.88,15.88,0,0,0,3.87,3,28.17,28.17,0,0,0,6.37,1.94c0.93,0.19,1.85.43,2.77,0.64,0.4,0.09.8,0.19,1.2,0.26,2.75,0.46,5.5.95,8.26,1.37,3.06,0.47,6.13.88,9.19,1.31,2,0.28,4,.51,6,0.79,2.65,0.38,5.29.8,7.94,1.21s5.19,0.83,7.79,1.19c2,0.27,4,.46,6,0.69,1.48,0.17,3,.3,4.43.55,2.08,0.36,4.13.86,6.2,1.22,3,0.51,6,1,9,1.41q3.79,0.57,7.59,1.09c1.11,0.15,2.22.27,3.33,0.34,2.67,0.16,5.35.29,8,.42a2,2,0,0,0,.48-0.1l6.28-1.29a4.11,4.11,0,0,0,2-1.13,52.37,52.37,0,0,0,4.56-4.81,18.35,18.35,0,0,0,2.86-5.13,4.05,4.05,0,0,1,.38-0.58c0.33-.55.68-1.1,1-1.67a10.78,10.78,0,0,1,.49-1.26,7.29,7.29,0,0,0,.92-2.67,10.41,10.41,0,0,1,.46-1.53c0.59-1.49,1.29-2.94,1.79-4.46,0.67-2,1.19-4.1,1.79-6.14,0.54-1.81,1.11-3.61,1.66-5.42a1.47,1.47,0,0,0,.13-0.6c-0.17-1.09.43-2,.67-3a3.31,3.31,0,0,0,.27-0.82,5.89,5.89,0,0,1,.76-2.7,9.29,9.29,0,0,0,.5-1.53c0.67-2.73,1.29-5.48,2-8.21,1.19-4.77,2.44-9.52,3.61-14.29,1.4-5.72,2.75-11.45,4.13-17.18,0.9-3.73,1.73-7.47,2.86-11.14,0.16-.51.13-1.07,0.26-1.59,0.57-2.27,1.64-4.4,1.77-6.79a1.75,1.75,0,0,1,.11-0.35c0.66-2.33,1.31-4.66,2-7a6,6,0,0,1,.77-2.07,7.13,7.13,0,0,0,1.21-3.66,7.7,7.7,0,0,1,.14-0.85c0.66-2.37,1.35-4.74,2-7.12s1.28-4.93,1.87-7.41c0.74-3.08,1.62-6.14,2.11-9.26,0.44-2.87,1.52-5.54,2.08-8.37a29.63,29.63,0,0,1,1-2.92c0.56-1.81,1.09-3.64,1.63-5.46,0.07-.23.11-0.48,0.16-0.72a41.43,41.43,0,0,1,1.09-4.69,7.59,7.59,0,0,0,.35-2.75,20.79,20.79,0,0,0-1.33-5.64,10.5,10.5,0,0,0-1.3-2.8,5.57,5.57,0,0,0-4.66-2.4c-1.72,0-3.39-.32-5.08-0.37-1.93-.06-3.81-0.77-5.75-0.38a1.79,1.79,0,0,1-.22-0.11c-1.27-.1-2.54-0.23-3.81-0.26s-2.27.13-3.4,0.09c-2-.07-3.92-0.25-5.89-0.34q-2.57-.12-5.15-0.16c-2.21,0-4.41,0-6.62,0-1.18,0-2.37,0-3.54,0s-2.61-.26-3.92-0.37a5.69,5.69,0,0,0-.86.06c-0.48,0-1,.07-1.45.09-0.65,0-1.31.05-2,0q-2.4,0-4.8-.07a22.2,22.2,0,0,0-3.41-.09,16.61,16.61,0,0,1-4.25-.22c-1-.12-2-0.19-3-0.23-0.78,0-1.56,0-2.33.05-1.44.07-2.84-.47-4.3-0.27a8.1,8.1,0,0,1-1.86-.16V20.68a24.2,24.2,0,0,1,3-.52c1.72-.1,3.46,0,5.18-0.07l7-.1a26.85,26.85,0,0,1,4.32,0c2.44,0.38,4.85,0,7.27,0,1.49,0,3,0,4.46,0,2.47,0.07,4.94.23,7.42,0.27q6.61,0.09,13.22.07a84,84,0,0,1,9.28.42c1.56,0.17,3.13.2,4.69,0.35,1.35,0.13,2.7.33,4.05,0.49s2.91,0.91,4.48.64a1.54,1.54,0,0,1,.93.31,8.92,8.92,0,0,1,1.81,1.29,5.88,5.88,0,0,1,1.82,3c0.33,2,.7,4,1.07,6,0.22,1.21.5,2.41,0.67,3.63a20.39,20.39,0,0,1-.83,7.7c-0.26,1-.68,2-1,3.08-0.63,2.39-1.23,4.79-1.83,7.19-0.37,1.48-.68,3-1.06,4.46-0.43,1.68-.93,3.34-1.36,5-0.25,1-.38,1.95-0.64,2.9-0.61,2.27-1.28,4.51-1.88,6.78s-1.08,4.46-1.67,6.68c-0.68,2.6-1.45,5.17-2.11,7.77-0.5,2-.84,3.95-1.33,5.91-0.36,1.47-.88,2.9-1.23,4.36-0.48,2-.85,3.94-1.31,5.9-0.29,1.25-.8,2.45-1,3.71-0.35,2.42-1.21,4.74-1.36,7.22-0.1,1.75-.94,3.38-1.21,5.15s-0.93,3.75-1.39,5.62c-0.7,2.86-1.38,5.73-2.07,8.59-0.37,1.51-.86,3-1.12,4.52a101.21,101.21,0,0,1-2.64,10.75c-0.37,1.31-.85,2.58-1.21,3.89-0.41,1.5-.71,3-1.11,4.52-0.71,2.64-1.46,5.27-2.17,7.91a2,2,0,0,0,.1.75l0.27,0c0.17-.44.38-0.87,0.51-1.32q0.54-1.83,1-3.68c0.22-.83.4-1.67,0.59-2.51,0-.2,0-0.41.09-0.6,0.34-1.09.72-2.17,1-3.27,0.8-2.76,1.63-5.51,2.35-8.29,1-3.86,1.87-7.75,2.82-11.63,0.15-.63.47-1.23,0.56-1.87a30.64,30.64,0,0,1,1.06-5c0.24-.74.39-1.51,0.58-2.28q0.79-3.24,1.56-6.47c0.17-.72.34-1.45,0.48-2.18,0.24-1.25.43-2.51,0.71-3.75,0.73-3.24,1.51-6.48,2.26-9.71,0.29-1.24.56-2.48,0.88-3.71,0.56-2.19,1.14-4.38,1.73-6.57,0.22-.84.48-1.66,0.69-2.5,0.36-1.44.67-2.88,1-4.31s0.81-2.76,1.17-4.16c0.67-2.59,1.29-5.2,2-7.79,0.44-1.72,1-3.42,1.39-5.14,0.48-1.91.89-3.84,1.36-5.75,0.55-2.22,1.13-4.44,1.7-6.65,0.51-2,1-4,1.55-6,0.17-.68.28-1.37,0.49-2,1-3.12,2-6.21,2.88-9.35a9.19,9.19,0,0,0,.43-3.66c-0.44-3.07-1.06-6.12-1.77-9.14a7.58,7.58,0,0,0-1.52-3.09,9.34,9.34,0,0,0-4.83-3.32,44.49,44.49,0,0,0-5.11-1c-2.93-.34-5.88-0.61-8.83-0.78-3.38-.2-6.77-0.36-10.15-0.34-10.81,0-21.62-.56-32.44-0.06-3.18.15-6.37,0-9.55,0-4.63,0-9.22.28-13.55,2.09a12.58,12.58,0,0,0-4,2.42,22.17,22.17,0,0,0-3.83,5C94,33,91.86,37.49,89.6,42S85.21,50.62,83,55c-1.2,2.37-2.42,4.73-3.55,7.13C77,67.27,74.72,72.51,72.22,77.65c-2.62,5.36-5.4,10.65-8.11,16l-7,13.74c-1.16,2.29-2.33,4.57-3.47,6.87-0.75,1.51-1.43,3.07-2.19,4.58-0.91,1.81-1.89,3.58-2.8,5.38-3.09,6.1-6.11,12.24-9.27,18.31-2.49,4.78-5.12,9.49-7.76,14.19a57.57,57.57,0,0,0-4.46,9.93c-0.68,2-1,4.17-1.61,6.25a4.64,4.64,0,0,0,.11,2.69c0.47,1.46,1,2.91,1.51,4.35a4,4,0,0,0,.57,1.09c1.13,1.43,2.23,2.89,3.44,4.24,1.58,1.76,3.28,3.4,4.89,5.14a75.74,75.74,0,0,0,7.15,6.16,2.23,2.23,0,0,0,.64.36A29.65,29.65,0,0,0,50,198.53c3,0.44,6,1,8.9,1.63,3.31,0.71,6.57,1.74,9.9,2.31,10.9,1.88,21.83,3.61,32.75,5.43,4.57,0.76,9.12,1.64,13.68,2.4,4.12,0.69,8.2,1.62,12.43,1.56a27.89,27.89,0,0,0,10.1-1.54c2.77-1.1,5.59-2.14,7.3-4.85a0.71,0.71,0,0,1,.17-0.17,23.34,23.34,0,0,0,4.29-5.1,21.89,21.89,0,0,0,3.26-7.7c0.5-2,.87-4,1.37-5.92,0.8-3.15,1.65-6.28,2.5-9.42,0.76-2.81,1.13-5.72,2.16-8.46a1.82,1.82,0,0,0,0-.53,3.93,3.93,0,0,0-.67.81,23,23,0,0,0-.78,2.29c-0.53,1.89-1,3.79-1.55,5.69-0.2.72-.44,1.42-0.64,2.13q-0.7,2.42-1.38,4.85a32.46,32.46,0,0,0-.92,3.47,44.52,44.52,0,0,1-2.06,7.65,15.65,15.65,0,0,1-3.54,6c-1.16,1.16-2.24,2.4-3.36,3.59a14,14,0,0,1-1.64,1.66c-2.88,2.18-6.3,3.07-9.76,3.69a31.81,31.81,0,0,1-10.73-.17c-3.45-.56-6.89-1.2-10.34-1.79q-4.71-.82-9.42-1.62c-0.93-.16-1.88-0.23-2.81-0.4-1.5-.27-3-0.64-4.49-0.87-5-.76-10-1.4-14.95-2.23q-8.31-1.39-16.49-3.5c-2-.53-4.08-1-6.14-1.4-3.23-.6-6.47-1.25-9.73-1.59a9.64,9.64,0,0,1-5.66-2.74c-1.46-1.33-2.88-2.71-4.33-4.07a30.12,30.12,0,0,1-5-5.3,2.31,2.31,0,0,0-.31-0.39,20.54,20.54,0,0,1-4.94-7.88,5.67,5.67,0,0,1-.4-2.54,50.77,50.77,0,0,1,1.08-5.06,13.93,13.93,0,0,1,.75-2.35c1-2.18,1.9-4.38,3-6.5,1.86-3.63,3.81-7.21,5.76-10.8,0.72-1.33,1.57-2.59,2.3-3.91,0.55-1,1-2.06,1.51-3.08,1.14-2.2,2.33-4.37,3.46-6.58,2.33-4.56,4.62-9.14,6.94-13.71,0.62-1.21,1.33-2.38,1.9-3.61,0.82-1.75,1.5-3.57,2.35-5.31,1.36-2.77,2.82-5.5,4.23-8.25q1.19-2.32,2.34-4.65c0.66-1.33,1.2-2.72,2-4a89.05,89.05,0,0,0,4.77-9.65A20.6,20.6,0,0,1,70.57,83a56.43,56.43,0,0,0,3.7-7.27c1.59-3.41,3.13-6.84,4.71-10.25,0.43-.94.92-1.85,1.38-2.78l2.12-4.33q1.59-3.22,3.19-6.44,1.8-3.6,3.62-7.19c1.3-2.55,2.64-5.09,3.92-7.65,0.62-1.25,1.07-2.59,1.74-3.81,1.2-2.21,2.53-4.35,3.77-6.54a12,12,0,0,1,5.6-4.7A2.42,2.42,0,0,1,105,21.92Zm-4.55,178.14-0.23.28a4.33,4.33,0,0,0,.44,1.06,2.4,2.4,0,0,1,.61,1.93,0.88,0.88,0,0,0,.81,1.05c0.24,0,.48.11,0.73,0.14l9.66,1.31a1.17,1.17,0,0,0,1.48-1,5.61,5.61,0,0,0-1-3.2,1.22,1.22,0,0,0-.46-0.19c-0.44-.09-0.89-0.18-1.34-0.23l-6.52-.69C103.23,200.42,101.85,200.23,100.47,200.06Z" transform="translate(-25.39 -18.84)"/><path d="M105,21.92a2.42,2.42,0,0,0-.71.11,12,12,0,0,0-5.6,4.7c-1.24,2.19-2.57,4.33-3.77,6.54-0.67,1.22-1.11,2.57-1.74,3.81-1.28,2.56-2.62,5.1-3.92,7.65q-1.82,3.59-3.62,7.19-1.61,3.21-3.19,6.44L80.37,62.7c-0.46.93-.95,1.84-1.38,2.78-1.58,3.41-3.12,6.84-4.71,10.25A56.43,56.43,0,0,1,70.57,83a20.6,20.6,0,0,0-1.5,3.11,89.05,89.05,0,0,1-4.77,9.65c-0.75,1.27-1.29,2.66-2,4q-1.15,2.33-2.34,4.65c-1.41,2.75-2.87,5.48-4.23,8.25-0.85,1.74-1.53,3.56-2.35,5.31-0.58,1.23-1.29,2.4-1.9,3.61-2.32,4.57-4.61,9.15-6.94,13.71-1.13,2.21-2.32,4.38-3.46,6.58-0.53,1-1,2.08-1.51,3.08-0.73,1.32-1.58,2.58-2.3,3.91-1.95,3.58-3.9,7.17-5.76,10.8-1.09,2.12-2,4.32-3,6.5a13.93,13.93,0,0,0-.75,2.35,50.77,50.77,0,0,0-1.08,5.06,5.67,5.67,0,0,0,.4,2.54A20.54,20.54,0,0,0,32.07,184a2.31,2.31,0,0,1,.31.39,30.12,30.12,0,0,0,5,5.3c1.45,1.35,2.86,2.73,4.33,4.07a9.64,9.64,0,0,0,5.66,2.74c3.26,0.34,6.5,1,9.73,1.59,2.06,0.38,4.11.87,6.14,1.4q8.17,2.12,16.49,3.5c5,0.83,10,1.47,14.95,2.23,1.51,0.23,3,.6,4.49.87,0.93,0.17,1.88.24,2.81,0.4q4.71,0.8,9.42,1.62c3.45,0.6,6.89,1.23,10.34,1.79a31.81,31.81,0,0,0,10.73.17c3.45-.62,6.87-1.51,9.76-3.69a14,14,0,0,0,1.64-1.66c1.12-1.19,2.21-2.43,3.36-3.59a15.65,15.65,0,0,0,3.54-6,44.52,44.52,0,0,0,2.06-7.65,32.46,32.46,0,0,1,.92-3.47q0.68-2.43,1.38-4.85c0.21-.71.44-1.42,0.64-2.13,0.52-1.89,1-3.8,1.55-5.69a23,23,0,0,1,.78-2.29,3.93,3.93,0,0,1,.67-0.81,1.82,1.82,0,0,1,0,.53c-1,2.74-1.41,5.65-2.16,8.46-0.84,3.14-1.7,6.27-2.5,9.42-0.5,2-.87,4-1.37,5.92a21.89,21.89,0,0,1-3.26,7.7,23.34,23.34,0,0,1-4.29,5.1,0.71,0.71,0,0,0-.17.17c-1.71,2.71-4.53,3.74-7.3,4.85a27.89,27.89,0,0,1-10.1,1.54c-4.23.07-8.31-.87-12.43-1.56-4.57-.76-9.12-1.64-13.68-2.4-10.91-1.82-21.84-3.54-32.75-5.43-3.33-.58-6.59-1.6-9.9-2.31-2.95-.63-5.92-1.19-8.9-1.63a29.65,29.65,0,0,1-6.11-1.63,2.23,2.23,0,0,1-.64-0.36,75.74,75.74,0,0,1-7.15-6.16c-1.61-1.73-3.31-3.38-4.89-5.14-1.22-1.35-2.32-2.81-3.44-4.24a4,4,0,0,1-.57-1.09c-0.52-1.44-1-2.89-1.51-4.35a4.64,4.64,0,0,1-.11-2.69c0.56-2.08.92-4.21,1.61-6.25a57.57,57.57,0,0,1,4.46-9.93c2.64-4.7,5.27-9.41,7.76-14.19,3.16-6.06,6.18-12.2,9.27-18.31,0.91-1.8,1.89-3.58,2.8-5.38,0.76-1.51,1.44-3.06,2.19-4.58,1.14-2.3,2.31-4.58,3.47-6.87l7-13.74c2.71-5.32,5.49-10.6,8.11-16,2.51-5.14,4.82-10.38,7.26-15.56,1.13-2.4,2.35-4.76,3.55-7.13q3.28-6.5,6.57-13c2.26-4.48,4.43-9,6.83-13.41a22.17,22.17,0,0,1,3.83-5,12.58,12.58,0,0,1,4-2.42c4.33-1.81,8.92-2.11,13.55-2.09,3.18,0,6.37.18,9.55,0,10.82-.51,21.63.11,32.44,0.06,3.38,0,6.77.15,10.15,0.34,2.95,0.17,5.89.44,8.83,0.78a44.49,44.49,0,0,1,5.11,1,9.34,9.34,0,0,1,4.83,3.32,7.58,7.58,0,0,1,1.52,3.09c0.71,3,1.33,6.07,1.77,9.14a9.19,9.19,0,0,1-.43,3.66c-0.88,3.14-1.92,6.23-2.88,9.35-0.2.67-.31,1.36-0.49,2-0.51,2-1,4-1.55,6-0.57,2.22-1.15,4.43-1.7,6.65-0.47,1.91-.88,3.84-1.36,5.75-0.43,1.72-.95,3.42-1.39,5.14-0.67,2.59-1.29,5.2-2,7.79-0.36,1.39-.81,2.76-1.17,4.16s-0.69,2.88-1,4.31c-0.21.84-.47,1.66-0.69,2.5-0.58,2.19-1.17,4.38-1.73,6.57-0.31,1.23-.59,2.47-0.88,3.71-0.76,3.24-1.53,6.47-2.26,9.71-0.28,1.24-.46,2.5-0.71,3.75-0.14.73-.31,1.46-0.48,2.18q-0.77,3.24-1.56,6.47c-0.18.76-.34,1.53-0.58,2.28a30.64,30.64,0,0,0-1.06,5c-0.09.64-.41,1.24-0.56,1.87-0.94,3.87-1.83,7.76-2.82,11.63-0.71,2.78-1.55,5.53-2.35,8.29-0.32,1.1-.7,2.18-1,3.27-0.06.19,0,.4-0.09,0.6-0.19.84-.37,1.68-0.59,2.51q-0.49,1.85-1,3.68c-0.13.45-.34,0.88-0.51,1.32l-0.27,0a2,2,0,0,1-.1-0.75c0.71-2.64,1.46-5.27,2.17-7.91,0.4-1.5.7-3,1.11-4.52,0.36-1.31.84-2.58,1.21-3.89a101.21,101.21,0,0,0,2.64-10.75c0.26-1.53.75-3,1.12-4.52,0.7-2.86,1.37-5.73,2.07-8.59,0.46-1.88,1.11-3.72,1.39-5.62s1.1-3.4,1.21-5.15c0.15-2.48,1-4.79,1.36-7.22,0.18-1.26.69-2.46,1-3.71,0.46-2,.83-3.94,1.31-5.9,0.36-1.47.87-2.9,1.23-4.36,0.48-2,.83-4,1.33-5.91,0.66-2.6,1.43-5.18,2.11-7.77,0.58-2.22,1.08-4.46,1.67-6.68s1.27-4.52,1.88-6.78c0.26-1,.39-1.94.64-2.9,0.43-1.68.93-3.34,1.36-5,0.38-1.48.7-3,1.06-4.46,0.6-2.4,1.2-4.8,1.83-7.19,0.28-1,.7-2,1-3.08a20.39,20.39,0,0,0,.83-7.7c-0.17-1.22-.45-2.42-0.67-3.63-0.36-2-.73-4-1.07-6a5.88,5.88,0,0,0-1.82-3,8.92,8.92,0,0,0-1.81-1.29A1.54,1.54,0,0,0,184,22.3c-1.57.26-3-.47-4.48-0.64s-2.7-.36-4.05-0.49c-1.56-.14-3.13-0.18-4.69-0.35a84,84,0,0,0-9.28-.42q-6.61,0-13.22-.07c-2.47,0-4.94-.2-7.42-0.27-1.48,0-3,0-4.46,0-2.42,0-4.83.34-7.27,0a26.85,26.85,0,0,0-4.32,0l-7,.1c-1.73,0-3.46,0-5.18.07a24.2,24.2,0,0,0-3,.52V21a8.1,8.1,0,0,0,1.86.16c1.46-.2,2.86.34,4.3,0.27,0.78,0,1.56-.08,2.33-0.05,1,0,2,.11,3,0.23a16.61,16.61,0,0,0,4.25.22,22.2,22.2,0,0,1,3.41.09q2.4,0.05,4.8.07c0.65,0,1.31,0,2,0,0.48,0,1-.06,1.45-0.09a5.69,5.69,0,0,1,.86-0.06c1.31,0.12,2.61.3,3.92,0.37s2.36,0,3.54,0c2.21,0,4.41,0,6.62,0q2.58,0,5.15.16c2,0.09,3.92.27,5.89,0.34,1.13,0,2.27-.11,3.4-0.09s2.54,0.17,3.81.26a1.79,1.79,0,0,0,.22.11c1.95-.4,3.83.32,5.75,0.38,1.68,0,3.36.35,5.08,0.37a5.57,5.57,0,0,1,4.66,2.4,10.5,10.5,0,0,1,1.3,2.8,20.79,20.79,0,0,1,1.33,5.64,7.59,7.59,0,0,1-.35,2.75A41.43,41.43,0,0,0,187.08,42c-0.05.24-.1,0.48-0.16,0.72-0.54,1.82-1.07,3.64-1.63,5.46a29.63,29.63,0,0,0-1,2.92c-0.55,2.82-1.63,5.5-2.08,8.37-0.48,3.12-1.36,6.18-2.11,9.26q-0.89,3.72-1.87,7.41c-0.63,2.38-1.33,4.75-2,7.12a7.7,7.7,0,0,0-.14.85,7.13,7.13,0,0,1-1.21,3.66,6,6,0,0,0-.77,2.07c-0.68,2.32-1.33,4.65-2,7a1.75,1.75,0,0,0-.11.35c-0.13,2.38-1.19,4.52-1.77,6.79-0.13.52-.11,1.08-0.26,1.59-1.13,3.67-2,7.41-2.86,11.14-1.38,5.73-2.72,11.46-4.13,17.18-1.17,4.77-2.42,9.52-3.61,14.29-0.68,2.73-1.31,5.48-2,8.21a9.29,9.29,0,0,1-.5,1.53,5.89,5.89,0,0,0-.76,2.7,3.31,3.31,0,0,1-.27.82c-0.24,1-.84,1.9-0.67,3a1.47,1.47,0,0,1-.13.6c-0.55,1.81-1.12,3.61-1.66,5.42-0.61,2-1.12,4.12-1.79,6.14-0.5,1.52-1.2,3-1.79,4.46a10.41,10.41,0,0,0-.46,1.53,7.29,7.29,0,0,1-.92,2.67,10.78,10.78,0,0,0-.49,1.26c-0.29.57-.64,1.12-1,1.67a4.05,4.05,0,0,0-.38.58,18.35,18.35,0,0,1-2.86,5.13,52.37,52.37,0,0,1-4.56,4.81,4.11,4.11,0,0,1-2,1.13l-6.28,1.29a2,2,0,0,1-.48.1c-2.67-.13-5.35-0.26-8-0.42-1.11-.07-2.23-0.19-3.33-0.34q-3.8-.52-7.59-1.09c-3-.45-6-0.9-9-1.41-2.08-.36-4.13-0.86-6.2-1.22-1.46-.25-2.95-0.38-4.43-0.55-2-.23-4-0.41-6-0.69-2.6-.36-5.2-0.79-7.79-1.19s-5.29-.82-7.94-1.21c-2-.29-4-0.52-6-0.79-3.07-.42-6.13-0.84-9.19-1.31-2.76-.42-5.51-0.91-8.26-1.37-0.4-.07-0.8-0.16-1.2-0.26-0.92-.21-1.84-0.44-2.77-0.64a28.17,28.17,0,0,1-6.37-1.94,15.88,15.88,0,0,1-3.87-3,2.12,2.12,0,0,1-.69-2.2,0.92,0.92,0,0,1,1.2.48c2.27,2.78,5.32,4,8.76,4.64,1.46,0.25,2.88.75,4.34,1,2.39,0.43,4.8.75,7.2,1.15,1.26,0.21,2.51.54,3.77,0.74,2.77,0.44,5.55.83,8.33,1.24l9.67,1.44c1.8,0.26,3.59.5,5.39,0.77,2.17,0.33,4.33.71,6.49,1a36.09,36.09,0,0,0,6,.68,15.24,15.24,0,0,1,2.92.47c2.87,0.54,5.74,1.11,8.62,1.63,1.5,0.27,3,.49,4.51.7q4.29,0.61,8.58,1.19c2.17,0.29,4.34.62,6.52,0.78a44.75,44.75,0,0,0,6.19.12,21.19,21.19,0,0,0,6.29-1.34,8.53,8.53,0,0,0,3.69-3,14.26,14.26,0,0,1,1.16-1.28,14.38,14.38,0,0,0,3.07-4.3c0.52-1.2,1.26-2.3,1.85-3.47,0.37-.74.63-1.53,0.94-2.29,0.52-1.26,1.05-2.51,1.58-3.76a6.32,6.32,0,0,0,.29-0.66c0.57-2,1.1-3.93,1.71-5.87,0.28-.9.8-1.72,1.09-2.62,0.47-1.45.86-2.92,1.25-4.39,1.27-4.81,2.51-9.63,3.78-14.45,0.88-3.33,1.78-6.64,2.67-10,1.23-4.61,2.49-9.2,3.69-13.82,0.42-1.62.66-3.29,1-4.93,0.14-.63.39-1.24,0.59-1.86a0.83,0.83,0,0,0,.08-0.23c0-1.85,1-3.44,1.32-5.21s0.84-3.63,1.26-5.45,0.75-3.57,1.21-5.33,1-3.48,1.52-5.23a44.51,44.51,0,0,0,1.36-5.09c0.41-2.58,1.55-4.94,2.08-7.47,0.2-1,.64-1.87.9-2.82,0.67-2.48,1.3-5,2-7.46,0.31-1.15.69-2.27,1-3.42,0.52-2,1-4.07,1.48-6.11q0.63-2.65,1.23-5.31c0.38-1.68.72-3.38,1.14-5.06,1-4.05,2-8.11,3.25-12.1a49.71,49.71,0,0,0,2-8.14,21.09,21.09,0,0,0-.19-4.88,1.36,1.36,0,0,0-.6-0.92,3.15,3.15,0,0,0-.23.64c-0.28,2.06-.46,4.14-0.85,6.19s-1,4.17-1.48,6.25Q182,50.46,180.48,56.4c-0.24,1-.58,1.89-0.82,2.84-0.57,2.28-1.07,4.58-1.67,6.86-0.7,2.66-1.47,5.31-2.22,8s-1.45,5-2.18,7.56c-0.39,1.33-.8,2.65-1.18,4-0.52,1.82-1,3.64-1.54,5.47q-2.81,10.06-5.61,20.12c-1,3.76-2.12,7.51-3.08,11.29-0.92,3.61-1.7,7.26-2.55,10.89-0.9,3.87-1.76,7.75-2.72,11.6-0.71,2.85-1.56,5.66-2.33,8.49-0.69,2.54-1.35,5.1-2.06,7.64-0.39,1.39-.9,2.75-1.27,4.15-0.79,3-1.87,5.88-2.88,8.8-0.56,1.63-1,3.31-1.46,5a26.77,26.77,0,0,1-1.12,4.16c-0.81,1.74-1.32,3.63-2.57,5.18-0.66.82-.95,1.91-1.74,2.69a15.8,15.8,0,0,1-4.13,3.43,7,7,0,0,0-1.17,1A12.77,12.77,0,0,1,128.4,198a59,59,0,0,1-10.38-.76c-4.46-.59-8.9-1.25-13.35-1.91-5.07-.75-10.14-1.56-15.21-2.29-3.23-.47-6.47-0.82-9.69-1.27-2.25-.32-4.48-0.74-6.72-1.1-3.92-.63-7.84-1.23-11.75-1.87-3.12-.51-6.24-1.07-9.35-1.62-3.36-.6-6.72-1.16-10.06-1.84a22.49,22.49,0,0,1-8.44-3.74,9.48,9.48,0,0,1-3.37-3.38,15.42,15.42,0,0,1-1.69-6.89c0-.41,0-0.82,0-1.23A6.45,6.45,0,0,1,29,167c1.06-2,2-4.15,3-6.2,0.5-1,1.07-2,1.64-2.91a45.35,45.35,0,0,0,3.22-6.62c0.24-.6.63-1.13,0.92-1.71,0.57-1.13,1.1-2.29,1.69-3.41,0.26-.5.66-0.93,0.95-1.42,0.75-1.27,1.48-2.55,2.21-3.82,0.33-.57.63-1.15,1-1.72,0.51-.88,1.06-1.74,1.55-2.63q1.71-3.08,3.37-6.19c1.33-2.48,2.63-5,3.94-7.44a5.52,5.52,0,0,0,.57-1.09,21.69,21.69,0,0,1,1.87-3.88c0.94-1.93,1.81-3.89,2.72-5.84,0.62-1.31,1.26-2.61,1.88-3.92,0.86-1.81,1.68-3.64,2.57-5.44,1.11-2.25,2.29-4.46,3.43-6.7,0.91-1.8,1.8-3.61,2.7-5.41,0.74-1.47,1.48-2.94,2.21-4.42s1.3-2.66,2-4C73.66,79.6,75,77,76.22,74.43c0.94-2,1.88-3.92,2.67-6,1-2.57,2.3-5,3.46-7.52,0.78-1.69,1.47-3.42,2.3-5.08,1.15-2.32,2.38-4.61,3.59-6.9,0.81-1.52,1.71-3,2.47-4.54,0.95-1.92,1.78-3.9,2.69-5.84,0.42-.89.87-1.78,1.37-2.63,1.31-2.23,2.61-4.47,4-6.66A24.12,24.12,0,0,1,102.84,24c0.73-.65,1.55-1.2,2.32-1.79ZM184.54,27a4.45,4.45,0,0,0-.78-1.05,5.11,5.11,0,0,0-3.21-1.12,4.36,4.36,0,0,1-1.21-.16,22.9,22.9,0,0,0-4.68-.73l-3.7-.19c-0.61,0-1.23-.12-1.84-0.14-1.51,0-3,0-4.54-.09-2.3-.08-4.6-0.2-6.9-0.29-1.68-.07-3.37-0.16-5-0.17s-3.43.1-5.14,0.08c-2.7,0-5.4-.14-8.1-0.18-2,0-4,0-6,0l-4.42,0-5.31.06c-2.45,0-4.88-.5-7.34-0.29-0.2,0-.41,0-0.62,0-2.16,0-4.32,0-6.48,0-2.94,0-5.1,1.6-6.75,3.76a42.08,42.08,0,0,0-4.27,6.75c-1,2-2.09,3.93-3.09,5.92S93.25,43,92.25,45c-2,3.79-4.11,7.52-6.07,11.33-1.58,3.08-3,6.25-4.48,9.38-0.34.71-.66,1.42-1,2.15-0.76,1.79-1.43,3.61-2.26,5.36-1.67,3.5-3.41,7-5.14,10.43-1.28,2.58-2.59,5.14-3.85,7.72-1,2-1.9,4-2.87,6-0.6,1.22-1.26,2.41-1.86,3.63-1,2-2,4.07-2.92,6.12-1.21,2.58-2.39,5.17-3.62,7.74-1,2.19-2.15,4.36-3.21,6.54-0.25.52-.39,1.09-0.66,1.6-0.79,1.48-1.66,2.93-2.44,4.42-1.77,3.4-3.41,6.87-5.46,10.13-0.92,1.46-1.7,3-2.52,4.53a15,15,0,0,1-1.39,2.59,24.79,24.79,0,0,0-3.11,5.14c-0.33.66-.54,1.38-0.83,2.07a68.69,68.69,0,0,1-4,7.9c-0.91,1.55-1.68,3.18-2.57,4.75a15.32,15.32,0,0,0-1.81,4.93A11.13,11.13,0,0,0,31,176a8.14,8.14,0,0,0,3.82,4.36,3.24,3.24,0,0,1,.63.37A17.26,17.26,0,0,0,43,183.92c1.36,0.3,2.75.45,4.12,0.72,2,0.39,4,.84,5.94,1.25,1.45,0.3,2.91.61,4.37,0.84,2,0.32,4,.54,6,0.86s3.86,0.77,5.8,1.08c3.34,0.53,6.69,1,10,1.49,1.67,0.23,3.36.33,5,.57,2.42,0.34,4.82.74,7.23,1.11l19.61,3c2.82,0.43,5.64.79,8.46,1.24a42,42,0,0,0,9.25.57,18.57,18.57,0,0,0,4.86-.93,2.67,2.67,0,0,0,1.36-1,7.49,7.49,0,0,1,1.61-1.5c0.72-.54,1.51-1,2.25-1.51a10.77,10.77,0,0,0,2.73-3.17,23.25,23.25,0,0,0,3.28-6.76c0.19-.74.51-1.46,0.72-2.2s0.33-1.43.55-2.13,0.62-1.54.82-2.33a18.46,18.46,0,0,1,1.61-4.88,2.72,2.72,0,0,0,.18-0.71,11.71,11.71,0,0,1,.39-1.56c0.63-1.59,1.65-3.06,1.63-4.87a1.14,1.14,0,0,1,.17-0.32,11.12,11.12,0,0,0,.58-1.47c0.3-1.2.5-2.43,0.82-3.62,1.32-5,2.66-10,4-15q2.16-8.18,4.29-16.37a26,26,0,0,0,1-4.2,30.33,30.33,0,0,1,1.54-6.4,48.34,48.34,0,0,0,1.41-5.07c0.49-2.51,1.36-4.91,2-7.37,0.86-3.32,2-6.57,2.91-9.88,0.77-2.87,1.42-5.76,2.47-8.54a12.53,12.53,0,0,0,.48-1.28c0.73-2.86,1.43-5.74,2.17-8.6q1-3.76,2-7.49c0.69-2.49,1.48-4.95,2-7.49,0.69-3.35,1.56-6.66,2.34-10,1.06-4.55,2.13-9.09,3.13-13.65a30.1,30.1,0,0,0,.52-4.15,7.69,7.69,0,0,0-1-4.52Z" transform="translate(-25.39 -18.84)"/><path d="M100.47,200.06c1.38,0.17,2.76.35,4.14,0.51l6.52,0.69c0.45,0,.9.14,1.34,0.23a1.22,1.22,0,0,1,.46.19,5.61,5.61,0,0,1,1,3.2,1.17,1.17,0,0,1-1.48,1l-9.66-1.31c-0.24,0-.48-0.09-0.73-0.14a0.88,0.88,0,0,1-.81-1.05,2.4,2.4,0,0,0-.61-1.93,4.33,4.33,0,0,1-.44-1.06Zm12.16,4.35c-0.54-.89-0.77-1.68-1.72-1.8l-9.08-1.2c0.29,1.51.28,1.56,1.53,1.76,2.52,0.42,5,.78,7.58,1.15C111.42,204.39,111.91,204.37,112.63,204.41Z" transform="translate(-25.39 -18.84)"/><path class="cls-1" d="M184.54,27l-0.92.6a7.69,7.69,0,0,1,1,4.52,30.1,30.1,0,0,1-.52,4.15c-1,4.56-2.07,9.1-3.13,13.65-0.78,3.33-1.64,6.64-2.34,10-0.53,2.54-1.31,5-2,7.49s-1.36,5-2,7.49c-0.74,2.86-1.44,5.74-2.17,8.6a12.53,12.53,0,0,1-.48,1.28c-1,2.78-1.7,5.68-2.47,8.54-0.89,3.32-2,6.56-2.91,9.88-0.64,2.46-1.51,4.86-2,7.37a48.34,48.34,0,0,1-1.41,5.07,30.33,30.33,0,0,0-1.54,6.4,26,26,0,0,1-1,4.2q-2.13,8.19-4.29,16.37c-1.32,5-2.67,10-4,15-0.31,1.2-.52,2.42-0.82,3.62a11.12,11.12,0,0,1-.58,1.47,1.14,1.14,0,0,0-.17.32c0,1.81-1,3.27-1.63,4.87a11.71,11.71,0,0,0-.39,1.56,2.72,2.72,0,0,1-.18.71,18.46,18.46,0,0,0-1.61,4.88c-0.2.8-.57,1.55-0.82,2.33s-0.34,1.43-.55,2.13-0.53,1.45-.72,2.2a23.25,23.25,0,0,1-3.28,6.76,10.77,10.77,0,0,1-2.73,3.17c-0.74.51-1.53,1-2.25,1.51a7.49,7.49,0,0,0-1.61,1.5,2.67,2.67,0,0,1-1.36,1,18.57,18.57,0,0,1-4.86.93,42,42,0,0,1-9.25-.57c-2.81-.45-5.64-0.81-8.46-1.24l-19.61-3c-2.41-.37-4.82-0.77-7.23-1.11-1.67-.23-3.36-0.33-5-0.57-3.35-.47-6.7-1-10-1.49-1.94-.31-3.86-0.76-5.8-1.08s-4-.54-6-0.86c-1.46-.23-2.92-0.54-4.37-0.84-2-.41-4-0.85-5.94-1.25-1.37-.27-2.76-0.42-4.12-0.72a17.26,17.26,0,0,1-7.58-3.16,3.24,3.24,0,0,0-.63-0.37A8.14,8.14,0,0,1,31,176a11.13,11.13,0,0,1-.79-6.62A15.32,15.32,0,0,1,32,164.49c0.88-1.57,1.65-3.2,2.57-4.75a68.69,68.69,0,0,0,4-7.9c0.29-.68.51-1.4,0.83-2.07a24.79,24.79,0,0,1,3.11-5.14A15,15,0,0,0,43.93,142c0.83-1.52,1.6-3.07,2.52-4.53,2-3.26,3.68-6.73,5.46-10.13,0.78-1.49,1.65-2.94,2.44-4.42,0.27-.5.41-1.08,0.66-1.6,1.06-2.19,2.16-4.35,3.21-6.54,1.23-2.57,2.41-5.17,3.62-7.74,1-2,1.93-4.09,2.92-6.12,0.6-1.22,1.26-2.41,1.86-3.63,1-2,1.89-4,2.87-6,1.27-2.58,2.57-5.15,3.85-7.72,1.72-3.47,3.47-6.93,5.14-10.43,0.83-1.75,1.5-3.57,2.26-5.36,0.31-.72.63-1.44,1-2.15,1.48-3.13,2.9-6.3,4.48-9.38,2-3.81,4.07-7.53,6.07-11.33,1-1.91,1.86-3.9,2.83-5.82s2.1-3.93,3.09-5.92a42.08,42.08,0,0,1,4.27-6.75c1.65-2.16,3.81-3.75,6.75-3.76,2.16,0,4.32,0,6.48,0,0.21,0,.42.05,0.62,0,2.46-.21,4.89.32,7.34,0.29l5.31-.06,4.42,0c2,0,4,0,6,0,2.7,0,5.4.15,8.1,0.18,1.71,0,3.43-.09,5.14-0.08s3.37,0.1,5,.17c2.3,0.09,4.6.21,6.9,0.29,1.51,0.05,3,.05,4.54.09,0.61,0,1.23.1,1.84,0.14l3.7,0.19a22.9,22.9,0,0,1,4.68.73,4.36,4.36,0,0,0,1.21.16A5.11,5.11,0,0,1,183.76,26,4.45,4.45,0,0,1,184.54,27Zm-4.36,11.3c-0.19-.56-0.32-0.56-1-0.61-2.13-.13-4.26-0.31-6.39-0.46a14.14,14.14,0,0,0-2.41-.15c-3.11.31-6.16-.4-9.24-0.5-2-.06-3.92-0.41-5.89-0.5-3.17-.14-6.34-0.16-9.51-0.27-2.89-.1-5.77-0.3-8.66-0.37-2.25-.05-4.51,0-6.77,0-3,0-6.08-.4-9.12-0.16a21.51,21.51,0,0,1-2.6,0c-2.38-.1-4.77-0.24-7.15-0.32-0.52,0-1.07.23-1.57,0.16a24.86,24.86,0,0,0-6,0c-1,.11-2.1.08-3.16,0.11A2,2,0,0,0,99,36.52a8.29,8.29,0,0,1-.34,1.05c-1,2.06-2.07,4.11-3.09,6.17-1.24,2.52-2.49,5-3.66,7.58C91,53.19,90.3,55.1,89.5,57c0,0.11-.12.22-0.17,0.33-0.63,1.21-1.27,2.41-1.88,3.63s-1.33,2.73-2,4.09l-0.9,1.89c-0.9,1.85-1.78,3.72-2.7,5.55-0.67,1.32-1.4,2.62-2.11,3.92-0.45.82-.93,1.62-1.36,2.46-0.34.66-.57,1.37-0.91,2-0.6,1.19-1.27,2.35-1.85,3.55-0.74,1.55-1.42,3.13-2.11,4.71-0.32.75-.57,1.53-0.91,2.26-0.71,1.53-1.42,3.06-2.19,4.55-0.66,1.27-1.39,2.52-2.14,3.74-0.66,1.08-1.11,2.25-1.8,3.32a66,66,0,0,0-3.14,6.13l-3.88,7.7c-0.37.73-.7,1.47-1.09,2.18-0.48.9-1,1.76-1.48,2.68-1.35,2.82-2.66,5.67-4,8.5-0.86,1.82-1.77,3.61-2.65,5.42-1.12,2.34-2.23,4.68-3.34,7q-1.3,2.72-2.61,5.42c-0.57,1.18-1.19,2.35-1.73,3.54a1.4,1.4,0,0,0,1.18,2.16c2.32,0.34,4.65.63,7,.93,0.78,0.1,1.56.16,2.33,0.27,2.17,0.3,4.32.68,6.5,0.9,3.78,0.38,7.52,1,11.32,1.27,2.95,0.19,5.87.77,8.8,1.24,3.86,0.61,7.71,1.28,11.57,1.91,2.65,0.44,5.3.9,8,1.27,3.27,0.46,6.55.88,9.83,1.23,4.35,0.46,8.71.83,13.07,1.26q3.15,0.31,6.29.69c3,0.37,6.07.77,9.11,1.15,1.68,0.21,3.36.45,5,.65a1.15,1.15,0,0,0,1.55-1c0.69-2.16,1.41-4.31,2.07-6.48,0.86-2.84,1.7-5.68,2.49-8.54,0.44-1.59.73-3.21,1.12-4.81,0.49-2,1.14-4.07,1.49-6.15,0.56-3.38,1.41-6.68,2.28-10,0.13-.48.22-1,0.37-1.43,0.71-2.28,1.48-4.55,2.14-6.85,1-3.33,1.83-6.69,2.77-10q2.64-9.4,5.31-18.79c2-7.06,4-14.14,6-21.18,2-6.79,3.57-13.7,6.12-20.32,0.22-.57.21-1.22,0.4-1.81,0.43-1.31,1-2.56,1.35-3.89a41.86,41.86,0,0,1,2-6.1A3.85,3.85,0,0,0,180.17,38.31ZM132.49,28.17a3.29,3.29,0,0,0-2.08,1.45,1.39,1.39,0,0,0-.47,1.56,1.6,1.6,0,0,0,1.35.92,27.57,27.57,0,0,0,5.79.21c2.6-.08,5.19-0.23,7.79-0.35,1.53-.07,3.06-0.11,4.58-0.2A2.27,2.27,0,0,0,151.64,30c0.45-1.5.09-2.11-1.47-2.24-0.78-.07-1.57,0-2.35,0-1.27,0-2.54-.13-3.81-0.13-2.3,0-4.6,0-6.9,0C135.6,27.67,134,27.33,132.49,28.17ZM119,174.9c-0.52,1.37-1,2.65-1.48,4-0.76,2.31-.6,2.45,1.71,2.7a34.22,34.22,0,0,1,6.12.82,1.7,1.7,0,0,0,2.39-1.13,27.55,27.55,0,0,0,.78-3.49,1.42,1.42,0,0,0-1.09-1.53Zm-65.38-9.2a1.83,1.83,0,0,0-1.78-1.37c-1.43-.12-2.87-0.23-4.31-0.29a1,1,0,0,0-.81.37c-0.71,1.48-1.43,3-2,4.51-0.42,1.17-.17,1.47,1.05,1.66s2.53,0.32,3.8.47c0.82,0.1,1.63.2,2.45,0.27a0.79,0.79,0,0,0,.92-0.77c0.22-1.39.45-2.77,0.66-4.16A3.94,3.94,0,0,0,53.58,165.71Zm33.05,10a3,3,0,0,0,1.88-2.44,12.5,12.5,0,0,0,.24-1.71c0.12-1.34-1.91-3.27-3.27-2.75-1,.36-1.94.65-2.9,1a3.19,3.19,0,0,0-1.94,2.41c-0.22,1-.35,2.05.52,2.75A5.09,5.09,0,0,0,86.64,175.75ZM125.51,31.88a4.14,4.14,0,0,0,1.69-1.55,1.57,1.57,0,0,0-.08-2c-0.86-1.05-3-1.61-4.22-.41-0.26.27-.51,0.54-0.79,0.8a1.72,1.72,0,0,0-.75,1.73,2,2,0,0,0,1.72,1.43A21.09,21.09,0,0,0,125.51,31.88Zm40.83-1.15c0.9,0,1.79.14,2.68,0.14,1.85,0,3.7-.06,5.55-0.07,1.32,0,2.64,0,4,0,0.54,0,1-.14.85-0.91a6.67,6.67,0,0,0-.84-0.13c-2-.07-4-0.14-6-0.16-1.69,0-3.37,0-5.06,0C166.53,29.67,166.5,29.71,166.34,30.73Zm-10.41-2.66a1.68,1.68,0,0,0-.5.27c-0.51.43-1.26,0.71-1.12,1.62a2.2,2.2,0,0,0,1.44,1.72,3.45,3.45,0,0,0,4.27-2,1.38,1.38,0,0,0-.83-1.66A3.93,3.93,0,0,0,155.93,28.07Z" transform="translate(-25.39 -18.84)"/><path class="cls-1" d="M112.63,204.41c-0.72,0-1.21,0-1.69-.09-2.53-.37-5.06-0.73-7.58-1.15-1.24-.21-1.23-0.26-1.53-1.76l9.08,1.2C111.86,202.73,112.09,203.52,112.63,204.41Z" transform="translate(-25.39 -18.84)"/><path d="M180.17,38.31a3.85,3.85,0,0,1-.18.89,41.86,41.86,0,0,0-2,6.1c-0.33,1.33-.93,2.58-1.35,3.89-0.19.58-.18,1.24-0.4,1.81-2.56,6.62-4.14,13.53-6.12,20.32-2.06,7-4,14.12-6,21.18q-2.66,9.4-5.31,18.79c-0.94,3.34-1.81,6.69-2.77,10-0.66,2.3-1.43,4.56-2.14,6.85-0.15.47-.24,1-0.37,1.43-0.87,3.3-1.72,6.6-2.28,10-0.34,2.07-1,4.1-1.49,6.15-0.39,1.6-.68,3.23-1.12,4.81-0.79,2.86-1.63,5.7-2.49,8.54-0.66,2.17-1.37,4.32-2.07,6.48a1.15,1.15,0,0,1-1.55,1c-1.68-.21-3.36-0.44-5-0.65-3-.39-6.07-0.79-9.11-1.15q-3.14-.38-6.29-0.69c-4.36-.43-8.72-0.8-13.07-1.26-3.28-.35-6.56-0.77-9.83-1.23-2.66-.37-5.31-0.84-8-1.27-3.86-.63-7.71-1.3-11.57-1.91-2.93-.46-5.85-1-8.8-1.24-3.8-.25-7.54-0.89-11.32-1.27-2.17-.22-4.33-0.6-6.5-0.9-0.77-.11-1.55-0.17-2.33-0.27-2.33-.3-4.66-0.59-7-0.93a1.4,1.4,0,0,1-1.18-2.16c0.55-1.19,1.16-2.36,1.73-3.54q1.31-2.71,2.61-5.42c1.12-2.34,2.22-4.68,3.34-7,0.87-1.81,1.78-3.6,2.65-5.42,1.34-2.83,2.65-5.67,4-8.5,0.44-.92,1-1.78,1.48-2.68,0.38-.72.72-1.46,1.09-2.18l3.88-7.7A66,66,0,0,1,66.47,103c0.69-1.08,1.15-2.25,1.8-3.32C69,98.47,69.75,97.23,70.41,96c0.78-1.49,1.49-3,2.19-4.55,0.34-.74.58-1.52,0.91-2.26,0.69-1.58,1.37-3.15,2.11-4.71,0.57-1.2,1.25-2.36,1.85-3.55,0.33-.66.57-1.37,0.91-2,0.42-.83.91-1.64,1.36-2.46,0.71-1.3,1.44-2.59,2.11-3.92,0.93-1.84,1.81-3.7,2.7-5.55L85.45,65c0.66-1.37,1.31-2.73,2-4.09s1.25-2.42,1.88-3.63c0.06-.11.13-0.21,0.17-0.33,0.8-1.89,1.55-3.8,2.41-5.66,1.18-2.55,2.42-5.06,3.66-7.58,1-2.06,2.07-4.11,3.09-6.17A8.29,8.29,0,0,0,99,36.52a2,2,0,0,1,1.66-1.3c1.05,0,2.11,0,3.16-.11a24.86,24.86,0,0,1,6,0c0.51,0.07,1.05-.18,1.57-0.16,2.38,0.09,4.77.22,7.15,0.32a21.51,21.51,0,0,0,2.6,0c3-.24,6.08.21,9.12,0.16,2.26,0,4.51-.09,6.77,0,2.89,0.07,5.77.27,8.66,0.37,3.17,0.11,6.35.12,9.51,0.27,2,0.09,3.92.44,5.89,0.5,3.09,0.09,6.13.81,9.24,0.5a14.14,14.14,0,0,1,2.41.15c2.13,0.16,4.26.33,6.39,0.46C179.85,37.74,180,37.75,180.17,38.31ZM142.53,165.11a10.77,10.77,0,0,0,.64-1.19c0.36-.92.67-1.86,1-2.8S145,159,145.28,158c0.38-1.22.66-2.47,1-3.7,0.48-1.66,1-3.3,1.48-5,0.22-.75.4-1.51,0.57-2.27q1-4.21,2-8.42c0.24-1,.38-2.11.68-3.13,0.56-1.93,1.11-3.85,1.54-5.82,0.54-2.49,1.25-4.94,1.92-7.39,0.17-.63.5-1.23,0.69-1.86,1.19-4.05,2.39-8.11,3.55-12.17,3.67-12.93,7.28-25.88,11-38.79,1.71-5.93,3.61-11.81,5.46-17.7q1.31-4.18,2.21-8.47c0.15-.73,0-1-0.78-1-0.95-.07-1.9-0.08-2.84-0.12-1.32,0-2.64-.06-4-0.13-1.77-.09-3.53-0.27-5.3-0.32-2.56-.07-5.12-0.07-7.67-0.08-2.14,0-4.28.05-6.41,0-4.74,0-9.48-.15-14.22-0.18-2.67,0-5.34.08-8,.09q-5.15,0-10.29,0c-2.76,0-5.52-.08-8.28-0.13-2.93-.05-5.86-0.07-8.78-0.18-1.36,0-2.36.27-2.66,1.75a1.51,1.51,0,0,1-.18.32c-1,2-2.07,4.08-3.07,6.13C94,51.22,93.23,53,92.4,54.73c-1.18,2.46-2.37,4.91-3.54,7.38C88,64,87.17,65.85,86.25,67.69,85.19,69.82,84,71.9,82.94,74q-2.71,5.4-5.34,10.84c-1.2,2.49-2.46,5-3.47,7.52a62.19,62.19,0,0,1-2.85,5.75c-1.13,2.2-2.41,4.33-3.53,6.53-1.58,3.12-3.05,6.29-4.61,9.43-0.75,1.51-1.56,3-2.36,4.46-0.49.9-1.07,1.77-1.5,2.69-0.54,1.14-.92,2.36-1.47,3.49-0.94,1.93-2,3.81-2.93,5.72-0.58,1.13-1.15,2.26-1.68,3.42-1.06,2.32-2.05,4.68-3.15,7-1.3,2.72-2.68,5.4-4,8.09-0.31.62-.64,1.24-0.91,1.88a1.11,1.11,0,0,0,.8,1.7c1.1,0.18,2.19.36,3.29,0.5,1.68,0.2,3.37.31,5,.55,2.33,0.32,4.64.74,7,1.08,1.19,0.17,2.38.29,3.57,0.4,1.59,0.15,3.2.22,4.78,0.42,2.44,0.31,4.87.69,7.3,1.05,2.24,0.33,4.48.65,6.71,1,1.83,0.3,3.64.67,5.47,1,3.74,0.61,7.48,1.26,11.23,1.78s7.3,0.9,11,1.29c2.79,0.3,5.6.51,8.39,0.8,1.89,0.19,3.76.56,5.65,0.65,2.93,0.13,5.79.77,8.7,1q1.36,0.1,2.71.28c1.72,0.23,3.44.48,5.16,0.73ZM99.8,39.6c0.67,0.1,1.23.23,1.79,0.26s1.15-.05,1.73,0L113,40.2c2.31,0.08,4.62.16,6.92,0.21q2.16,0,4.32,0c2.55-.05,5.09-0.18,7.64-0.2,2,0,3.95.1,5.92,0.11,3.16,0,6.32,0,9.48,0q5.92,0,11.85.15c1.52,0,3,.15,4.55.26s3.19,0.29,4.79.42c0.33,0,.66,0,1-0.05,0.9,0,1.8-.05,2.71,0,0.57,0,1.14.15,1.71,0.16a18.79,18.79,0,0,0,3.07,0c1.4-.2,1.74-0.85,1.47-2.38-1.62-.15-3.26-0.33-4.89-0.43s-3.54-.11-5.3-0.22c-2.13-.13-4.26-0.37-6.4-0.48-4.27-.21-8.54-0.34-12.81-0.54-1.73-.08-3.45-0.27-5.17-0.34-3.56-.14-7.13,0-10.69-0.18-2.05-.08-4.11,0-6.16-0.07-2.92-.06-5.84-0.19-8.75-0.24-2.71,0-5.42.07-8.12-.08a41,41,0,0,0-6.74.15,3.27,3.27,0,0,0-2.76,1.4A16.37,16.37,0,0,0,99.8,39.6Z" transform="translate(-25.39 -18.84)"/><path d="M132.49,28.17c1.55-.84,3.11-0.5,4.62-0.53,2.3,0,4.6-.06,6.9,0,1.27,0,2.54.1,3.81,0.13,0.78,0,1.57-.08,2.35,0,1.56,0.14,1.91.75,1.47,2.24a2.27,2.27,0,0,1-2.19,1.81c-1.53.09-3.05,0.13-4.58,0.2-2.6.12-5.19,0.27-7.79,0.35a27.57,27.57,0,0,1-5.79-.21,1.6,1.6,0,0,1-1.35-.92,1.39,1.39,0,0,1,.47-1.56A3.29,3.29,0,0,1,132.49,28.17Zm-1.39,2.35c1.55,0.81,3.12.59,4.6,0.57,4.41,0,8.83-.28,13.24-0.46a2.87,2.87,0,0,0,1.19-.29,0.63,0.63,0,0,0-.06-1.16,2.72,2.72,0,0,0-1-.21c-0.95-.06-1.89-0.07-2.84-0.11-1.11-.05-2.22-0.18-3.33-0.17-2,0-4,.09-6,0.16a32.69,32.69,0,0,0-3.7.19A2.12,2.12,0,0,0,131.11,30.52Z" transform="translate(-25.39 -18.84)"/><path d="M119,174.9l8.44,1.32a1.42,1.42,0,0,1,1.09,1.53,27.55,27.55,0,0,1-.78,3.49,1.7,1.7,0,0,1-2.39,1.13,34.22,34.22,0,0,0-6.12-.82c-2.31-.25-2.47-0.4-1.71-2.7C117.91,177.55,118.45,176.27,119,174.9Zm7.2,6.06a15.37,15.37,0,0,0,.49-2.21,1.22,1.22,0,0,0-.51-1,13,13,0,0,0-6.25-1,5,5,0,0,0-1,3.23Z" transform="translate(-25.39 -18.84)"/><path d="M53.58,165.71a3.94,3.94,0,0,1,0,.68c-0.21,1.39-.44,2.77-0.66,4.16a0.79,0.79,0,0,1-.92.77c-0.82-.07-1.63-0.17-2.45-0.27-1.27-.15-2.54-0.28-3.8-0.47s-1.47-.49-1.05-1.66c0.56-1.54,1.28-3,2-4.51A1,1,0,0,1,47.5,164c1.44,0.06,2.87.18,4.31,0.29A1.83,1.83,0,0,1,53.58,165.71Zm-2,.41c-1.05-.08-2.19-0.18-3.33-0.25a0.85,0.85,0,0,0-.66.21,7.88,7.88,0,0,0-1.54,3,41,41,0,0,0,5.27.45C52,167.58,52.05,167.24,51.62,166.12Z" transform="translate(-25.39 -18.84)"/><path d="M86.64,175.75a5.09,5.09,0,0,1-5.46-.73c-0.87-.7-0.74-1.8-0.52-2.75a3.19,3.19,0,0,1,1.94-2.41c1-.37,1.94-0.65,2.9-1,1.36-.52,3.39,1.41,3.27,2.75a12.5,12.5,0,0,1-.24,1.71A3,3,0,0,1,86.64,175.75Zm-1-1A3.12,3.12,0,0,0,87.31,173c0.46-1.53-.11-2.81-1.91-2.65-0.53,0-1,.21-1.57.27a2.46,2.46,0,0,0-2,1.76,1.42,1.42,0,0,0,.39,1.69A3.69,3.69,0,0,0,85.63,174.79Z" transform="translate(-25.39 -18.84)"/><path d="M125.51,31.88a21.09,21.09,0,0,1-2.44,0,2,2,0,0,1-1.72-1.43,1.72,1.72,0,0,1,.75-1.73c0.27-.25.53-0.53,0.79-0.8,1.18-1.2,3.36-.64,4.22.41a1.57,1.57,0,0,1,.08,2A4.14,4.14,0,0,1,125.51,31.88Zm-3.23-2c1.52,1,2.24,1.13,3.25.71a0.69,0.69,0,0,0,.58-0.8,1.41,1.41,0,0,0-.67-0.91,2.86,2.86,0,0,0-2.5.23A4.56,4.56,0,0,0,122.28,29.85Z" transform="translate(-25.39 -18.84)"/><path d="M166.34,30.73c0.16-1,.19-1.06,1.09-1.07,1.69,0,3.37-.07,5.06,0,2,0,4,.1,6,0.16a6.67,6.67,0,0,1,.84.13c0.15,0.77-.31.91-0.85,0.91-1.32,0-2.64,0-4,0-1.85,0-3.7.07-5.55,0.07C168.13,30.87,167.24,30.78,166.34,30.73Z" transform="translate(-25.39 -18.84)"/><path d="M155.93,28.07a3.93,3.93,0,0,1,3.26,0,1.38,1.38,0,0,1,.83,1.66,3.45,3.45,0,0,1-4.27,2A2.2,2.2,0,0,1,154.31,30c-0.15-.9.6-1.18,1.12-1.62A1.68,1.68,0,0,1,155.93,28.07Zm-0.43,1.69a2.21,2.21,0,0,0,2.92.43,0.63,0.63,0,0,0,0-1.11A2.46,2.46,0,0,0,155.5,29.76Z" transform="translate(-25.39 -18.84)"/><path class="cls-1" d="M142.53,165.11l-0.69-.07c-1.72-.24-3.44-0.5-5.16-0.73q-1.35-.18-2.71-0.28c-2.91-.22-5.78-0.86-8.7-1-1.89-.08-3.76-0.45-5.65-0.65-2.8-.29-5.6-0.5-8.39-0.8-3.66-.4-7.31-0.79-11-1.29s-7.49-1.17-11.23-1.78c-1.83-.3-3.64-0.68-5.47-1-2.23-.36-4.47-0.68-6.71-1-2.43-.36-4.86-0.75-7.3-1.05-1.59-.2-3.19-0.27-4.78-0.42-1.19-.11-2.39-0.22-3.57-0.4-2.33-.34-4.64-0.76-7-1.08-1.67-.23-3.37-0.35-5-0.55-1.1-.13-2.2-0.32-3.29-0.5a1.11,1.11,0,0,1-.8-1.7c0.27-.64.6-1.26,0.91-1.88,1.34-2.7,2.73-5.38,4-8.09,1.1-2.31,2.09-4.66,3.15-7,0.53-1.15,1.11-2.29,1.68-3.42,1-1.91,2-3.79,2.93-5.72,0.55-1.13.93-2.35,1.47-3.49,0.44-.93,1-1.79,1.5-2.69,0.8-1.48,1.62-3,2.36-4.46,1.55-3.13,3-6.31,4.61-9.43,1.12-2.21,2.4-4.33,3.53-6.53a62.19,62.19,0,0,0,2.85-5.75c1-2.57,2.27-5,3.47-7.52Q80.23,79.43,82.94,74c1.07-2.13,2.25-4.21,3.32-6.34C87.17,65.85,88,64,88.86,62.11c1.17-2.46,2.36-4.92,3.54-7.38,0.84-1.75,1.64-3.51,2.5-5.26,1-2.05,2-4.09,3.07-6.13A1.51,1.51,0,0,0,98.14,43c0.3-1.48,1.3-1.8,2.66-1.75,2.93,0.11,5.86.13,8.78,0.18,2.76,0,5.52.11,8.28,0.13q5.15,0,10.29,0c2.67,0,5.34-.11,8-0.09,4.74,0,9.48.13,14.22,0.18,2.14,0,4.28,0,6.41,0,2.56,0,5.12,0,7.67.08,1.77,0,3.53.23,5.3,0.32,1.32,0.07,2.64.08,4,.13,0.95,0,1.9,0,2.84.12,0.76,0.05.93,0.31,0.78,1q-0.9,4.29-2.21,8.47c-1.85,5.89-3.75,11.76-5.46,17.7-3.72,12.92-7.33,25.86-11,38.79-1.15,4.07-2.35,8.12-3.55,12.17-0.19.63-.52,1.22-0.69,1.86-0.67,2.46-1.39,4.91-1.92,7.39-0.43,2-1,3.89-1.54,5.82-0.3,1-.44,2.09-0.68,3.13q-1,4.21-2,8.42c-0.18.76-.36,1.52-0.57,2.27-0.48,1.66-1,3.3-1.48,5-0.35,1.23-.64,2.48-1,3.7-0.33,1.06-.74,2.09-1.12,3.14s-0.64,1.87-1,2.8A10.77,10.77,0,0,1,142.53,165.11Z" transform="translate(-25.39 -18.84)"/><path class="cls-1" d="M99.8,39.6a16.37,16.37,0,0,1,.76-1.81,3.27,3.27,0,0,1,2.76-1.4,41,41,0,0,1,6.74-.15c2.7,0.15,5.41,0,8.12.08,2.92,0.05,5.84.17,8.75,0.24,2.05,0,4.11,0,6.16.07,3.56,0.14,7.13,0,10.69.18,1.73,0.07,3.45.26,5.17,0.34,4.27,0.19,8.54.33,12.81,0.54,2.13,0.1,4.26.35,6.4,0.48,1.77,0.11,3.54.11,5.3,0.22s3.27,0.29,4.89.43c0.27,1.53-.07,2.18-1.47,2.38a18.79,18.79,0,0,1-3.07,0c-0.57,0-1.14-.15-1.71-0.16-0.9,0-1.8,0-2.71,0-0.33,0-.66.08-1,0.05-1.6-.13-3.19-0.3-4.79-0.42s-3-.23-4.55-0.26q-5.92-.12-11.85-0.15c-3.16,0-6.32,0-9.48,0-2,0-3.95-.13-5.92-0.11-2.55,0-5.09.15-7.64,0.2q-2.16,0-4.32,0c-2.31-.05-4.62-0.13-6.92-0.21l-9.64-.37c-0.57,0-1.15.06-1.73,0S100.48,39.71,99.8,39.6Z" transform="translate(-25.39 -18.84)"/><path class="cls-1" d="M131.11,30.52a2.12,2.12,0,0,1,2.1-1.48,32.69,32.69,0,0,1,3.7-.19c2-.07,4-0.15,6-0.16,1.11,0,2.22.12,3.33,0.17,0.95,0,1.89.06,2.84,0.11a2.72,2.72,0,0,1,1,.21,0.63,0.63,0,0,1,.06,1.16,2.87,2.87,0,0,1-1.19.29c-4.41.18-8.83,0.42-13.24,0.46C134.23,31.1,132.65,31.33,131.11,30.52Z" transform="translate(-25.39 -18.84)"/><path class="cls-1" d="M126.16,181l-7.29-1a5,5,0,0,1,1-3.23,13,13,0,0,1,6.25,1,1.22,1.22,0,0,1,.51,1A15.37,15.37,0,0,1,126.16,181Z" transform="translate(-25.39 -18.84)"/><path class="cls-1" d="M51.62,166.12c0.43,1.13.4,1.47-.26,3.46a41,41,0,0,1-5.27-.45,7.88,7.88,0,0,1,1.54-3,0.85,0.85,0,0,1,.66-0.21C49.44,165.93,50.57,166,51.62,166.12Z" transform="translate(-25.39 -18.84)"/><path class="cls-1" d="M85.63,174.79a3.69,3.69,0,0,1-3.45-.72,1.42,1.42,0,0,1-.39-1.69,2.46,2.46,0,0,1,2-1.76c0.53-.06,1-0.22,1.57-0.27,1.81-.16,2.38,1.12,1.91,2.65A3.12,3.12,0,0,1,85.63,174.79Z" transform="translate(-25.39 -18.84)"/><path class="cls-1" d="M122.28,29.85a4.56,4.56,0,0,1,.66-0.76,2.86,2.86,0,0,1,2.5-.23,1.41,1.41,0,0,1,.67.91,0.69,0.69,0,0,1-.58.8C124.52,31,123.79,30.87,122.28,29.85Z" transform="translate(-25.39 -18.84)"/><path class="cls-1" d="M155.5,29.76a2.46,2.46,0,0,1,2.92-.68,0.63,0.63,0,0,1,0,1.11A2.21,2.21,0,0,1,155.5,29.76Z" transform="translate(-25.39 -18.84)"/></svg>