<svg id="noticeboard" xmlns="http://www.w3.org/2000/svg" viewBox="0 0 164.73 118.59"><defs><style>.cls-1{fill:#fff;}</style></defs><title>CC_comodicons_big_uploadgallery</title><path class="cls-1" d="M194.75,113.69h-0.06q-0.44-24.87-.89-49.74a1.93,1.93,0,0,0-.38-1.2c-2.62-2.79-5.36-5.17-9.67-4.91-6.39.39-12.81,0.46-19.21,0.63L59.78,61.31C52.37,61.51,45,61.69,37.55,62c-1.38.06-3.24,0.19-4,1.06A8.76,8.76,0,0,0,31,69.15Q31.59,93,32,116.83c0.32,16.4.56,32.79,1,49.19a10.75,10.75,0,0,0,4.11,8.05c2.38,2,5.41,2.27,8.34,2.34,2.63,0.06,5.26-.3,7.9-0.45q20.7-1.21,41.39-2.4,24.46-1.46,48.91-3,24.17-1.45,48.35-2.85a3.31,3.31,0,0,0,3.41-2.65,12.34,12.34,0,0,0,.34-3.16Q195.28,137.81,194.75,113.69Z" transform="translate(-31.02 -57.82)"/><path d="M194.75,113.69q0.51,24.12,1,48.24a12.34,12.34,0,0,1-.34,3.16,3.31,3.31,0,0,1-3.41,2.65q-24.18,1.38-48.35,2.85-24.46,1.47-48.91,3Q74,174.78,53.35,176c-2.63.15-5.27,0.52-7.9,0.45-2.93-.07-6-0.36-8.34-2.34A10.75,10.75,0,0,1,33,166c-0.4-16.39-.64-32.79-1-49.19Q31.56,93,31,69.15a8.76,8.76,0,0,1,2.52-6.09c0.78-.87,2.63-1,4-1.06,7.41-.3,14.82-0.49,22.23-0.69l104.76-2.84c6.41-.17,12.82-0.24,19.21-0.63,4.31-.26,7,2.12,9.67,4.91a1.93,1.93,0,0,1,.38,1.2q0.46,24.87.89,49.74h0.06Zm-153.21,8.9h0q0.5,24.78,1,49.56c0,2.37.19,2.46,2.51,2.32l33.08-2,44.56-2.64,37.22-2.25q15.6-.93,31.21-1.83c2.74-.16,2.74-0.16,2.68-2.94-0.34-14.95-.72-29.89-1-44.84-0.31-15.27-.53-30.53-0.81-45.8,0-1.7-.16-3.39-0.17-5.09,0-1.24-.48-1.84-1.8-1.8-2.83.1-5.65,0.08-8.48,0.19-11.48.46-23,1-34.45,1.41s-22.85.8-34.27,1.25c-11,.43-22,0.95-32.94,1.39-12.3.49-24.6,0.92-36.9,1.41-2.5.1-2.49,0.16-2.44,2.65Q41,98.09,41.54,122.59Zm4-53V69.46c1.38,0,2.77.05,4.15,0C60.37,69,71,68.47,81.7,68c8.66-.34,17.33-0.53,26-0.87,14.31-.56,28.61-1.23,42.92-1.78,11.93-.46,23.85-0.82,35.78-1.23,0.88,0,1.76-.1,2.63-0.18,1.31-.12,1.52-1.14.89-1.84-1.09-1.21-2.17-2.49-4.21-2.4-7,.33-13.94.5-20.91,0.7q-26.84.78-53.68,1.53c-16.52.44-33,.79-49.55,1.2Q49,63.49,36.49,63.93a5.69,5.69,0,0,0-1.64.6,5,5,0,0,0,.74,1.75c2.3,2.2,4.73,4.16,8.28,3.29A7.29,7.29,0,0,1,45.56,69.54ZM40.25,122h0c-0.31-15.51-.74-31-0.83-46.52,0-3.6-.9-6.17-4.06-7.85a10.55,10.55,0,0,0-1.81-.58,7,7,0,0,0-.5,1.87c0.31,16,.69,32,1,48,0.32,16.26.65,32.53,0.82,48.79,0,3.25.88,5.71,3.89,7.16a17.64,17.64,0,0,0,1.84.66,6.06,6.06,0,0,0,.58-1.82Q40.74,146.88,40.25,122Z" transform="translate(-31.02 -57.82)"/><path class="cls-1" d="M41.54,122.59q-0.5-24.5-1-49C40.49,71.11,40.48,71,43,70.95c12.3-.48,24.6-0.92,36.9-1.41,11-.44,22-1,32.94-1.39,11.42-.45,22.85-0.81,34.27-1.25s23-1,34.45-1.41c2.82-.11,5.65-0.09,8.48-0.19,1.32,0,1.79.55,1.8,1.8,0,1.7.14,3.39,0.17,5.09,0.27,15.27.5,30.53,0.81,45.8,0.3,14.95.68,29.9,1,44.84,0.06,2.78.06,2.78-2.68,2.94q-15.61.91-31.21,1.83l-37.22,2.25-44.56,2.64-33.08,2c-2.31.14-2.46,0.05-2.51-2.32q-0.52-24.78-1-49.56h0Zm18.78,6.79c0.33,1.52.64,3.37,1.14,5.17,0.7,2.53,1.47,5.05,2.35,7.53,0.38,1.05,1,2,2.53,1.74a25,25,0,0,1,5.15-.7c7.57,0.22,15.2-.83,22.72.84a1.7,1.7,0,0,0,2.16-2.07c-0.67-5.54-1.34-11.08-2.12-16.61a51.67,51.67,0,0,1,1.06-20.16c0.48-1.89,1.07-3.74,1.49-5.64,0.25-1.1,0-2-1.46-2.05-4.46-.06-8.91-0.19-13.37-0.13-1.49,0-1.92-.44-2-1.87a29,29,0,0,1,1-11.55c0.73-2.22,0-2.89-2.29-2.58q-2.05.27-4.11,0.5c-7.73.83-15.46,1.73-23.21,2.43-3.05.27-3.79,0.64-3.83,3.79-0.11,8.08-1,16.17.86,24.2,1.27,5.5,2.14,11.09,3.36,16.6,0.18,0.82,1.33,2.09,1.93,2A50.56,50.56,0,0,0,60.31,129.38ZM129,157.93l0,0.26h2.07a16.51,16.51,0,0,0,2.07,0c2.15-.29,2.77-1.57,2-3.59a74.9,74.9,0,0,1-2.37-7.53c-1.21-4.86-1-9.83-.78-14.79,0.29-5.51.45-11,.84-16.54,0.24-3.41-.08-3.87-3.48-3.53-0.31,0-.62.11-0.93,0.15-4,.47-8,1.07-12,1.36-4.88.36-9.79,0.48-14.68,0.66-1.54.06-2.5,0.51-2.55,2.27-0.06,2-.46,4-0.47,6,0,8.22-.27,16.45.14,24.66a24,24,0,0,0,3.2,10.91c0.89,1.52,1.9,1.68,3.39,1.56C113.39,159.1,121.21,158.53,129,157.93Zm10.72-70.65c0.52,6.54.8,13.39,1.68,20.16A64.66,64.66,0,0,0,144.58,120c1.34,3.89,2.61,4.21,6.7,3.28q9.08-2.07,18.2-4a28.46,28.46,0,0,1,4.67-.57c3.89-.16,4.38-0.93,2.6-4.41-0.2-.39-0.41-0.78-0.6-1.17-2.46-5.14-4.39-10.45-4.28-16.23,0.12-6.39-.22-12.81,1.4-19.11,0.76-2.95-.36-4.23-3.4-4.1a92.58,92.58,0,0,0-9.55.89c-5.77.84-11.51,1.91-17.29,2.77-1.24.18-2.09,0.6-2.27,1.81C140.36,81.77,140.1,84.38,139.75,87.29ZM122,75.6c-6.77-.83-13.07.22-19.31,1.81A2.55,2.55,0,0,0,101,79a29.56,29.56,0,0,0,.31,5.42c0.8,6.29,1.65,12.56,2.5,18.84,0.45,3.37.83,3.72,4.22,3.43,7.57-.65,15.13-1.39,22.7-2,3-.25,3.54-0.87,3.26-3.92-0.33-3.56-.51-7.14-1-10.69-0.52-4-1.25-7.93-2-11.89a2.79,2.79,0,0,0-3.31-2.56C125.74,75.71,123.72,75.6,122,75.6Zm31.33,49.27h-2.82c-3,0-3.14,0-3.47,3q-1.24,11.4-2.28,22.83c-0.28,3.1,0,3.42,3.17,3.85,7.59,1,15.2,1.91,22.79,2.9,3,0.4,3.68-.09,4-3.09,0.41-3.55,1-7.09,1.32-10.65,0.34-4,.49-8,0.64-12,0-1.28-.21-2.7-1.75-3C167.76,127.44,160.87,124.36,153.34,124.87Z" transform="translate(-31.02 -57.82)"/><path class="cls-1" d="M45.56,69.54a7.29,7.29,0,0,0-1.69,0c-3.55.87-6-1.09-8.28-3.29a5,5,0,0,1-.74-1.75,5.69,5.69,0,0,1,1.64-.6Q49,63.51,61.55,63.18c16.52-.42,33-0.76,49.55-1.2q26.84-.71,53.68-1.53c7-.2,13.94-0.38,20.91-0.7,2-.1,3.13,1.18,4.21,2.4,0.63,0.71.43,1.72-.89,1.84-0.88.08-1.75,0.15-2.63,0.18-11.93.41-23.86,0.77-35.78,1.23-14.31.55-28.61,1.22-42.92,1.78-8.66.34-17.33,0.53-26,.87C71,68.47,60.37,69,49.7,69.45c-1.38.06-2.76,0-4.15,0v0.08Z" transform="translate(-31.02 -57.82)"/><path class="cls-1" d="M40.25,122q0.47,24.86.9,49.73a6.06,6.06,0,0,1-.58,1.82,17.64,17.64,0,0,1-1.84-.66c-3-1.45-3.85-3.9-3.89-7.16C34.67,149.5,34.34,133.23,34,117c-0.31-16-.69-32-1-48a7,7,0,0,1,.5-1.87,10.55,10.55,0,0,1,1.81.58c3.16,1.67,4,4.25,4.06,7.85,0.08,15.51.52,31,.83,46.52h0Z" transform="translate(-31.02 -57.82)"/><path d="M60.31,129.38a50.56,50.56,0,0,1-6.65,1.45c-0.6.06-1.75-1.22-1.93-2-1.22-5.51-2.09-11.1-3.36-16.6-1.86-8-1-16.12-.86-24.2,0-3.15.78-3.52,3.83-3.79,7.75-.7,15.47-1.6,23.21-2.43q2.06-.22,4.11-0.5C81,81,81.7,81.64,81,83.85a29,29,0,0,0-1,11.55c0.11,1.43.53,1.89,2,1.87,4.45-.06,8.91.07,13.37,0.13,1.43,0,1.7,1,1.46,2.05-0.43,1.9-1,3.76-1.49,5.64a51.67,51.67,0,0,0-1.06,20.16c0.78,5.53,1.44,11.07,2.12,16.61a1.7,1.7,0,0,1-2.16,2.07c-7.53-1.67-15.15-.62-22.72-0.84a25,25,0,0,0-5.15.7c-1.48.27-2.15-.69-2.53-1.74-0.89-2.47-1.65-5-2.35-7.53C61,132.75,60.64,130.9,60.31,129.38Zm2.43-31.12H75c3.58,0,3.64-.05,3.13-3.57a2.54,2.54,0,0,1,0-.56c0.21-2.6.3-5.22,0.69-7.79s-0.17-3.35-2.62-3.2-4.59.53-6.89,0.76c-6.07.62-12.15,1.26-18.23,1.81-1.42.13-2,.68-2,2.09-0.05,3.88-.16,7.77-0.28,11.65-0.18,5.73,1,11.3,2,16.89,0.57,3.44,1.33,6.86,2.17,10.24,0.54,2.18,1.17,2.41,3.43,2a10,10,0,0,1,2.61-.25c1.76,0.17,2.22-.76,2.14-2.25-0.18-3.5-.43-7-0.55-10.49-0.09-2.54,0-5.09,0-7.64a87.38,87.38,0,0,1,1,13.48,56.68,56.68,0,0,0,3.12,18.37c0.57,1.77,1.49,2.22,3.47,2a52.88,52.88,0,0,1,6.68-.58c5.76,0,11.51.2,17.27,0.35,1.35,0,2.26-.41,2.14-1.91-0.17-2.05-.47-4.1-0.67-6.15C93,128.36,92.27,123.21,92.12,118a39,39,0,0,1,2.44-15.66c0.85-2.16.06-3.4-1.9-3.43-9.1-.14-18.21-0.29-27.32-0.34-0.77,0-1.55.71-2.32,1.09l-0.27.1V98.26Z" transform="translate(-31.02 -57.82)"/><path d="M129,157.93c-7.82.59-15.64,1.16-23.46,1.8-1.49.12-2.5,0-3.39-1.56A24,24,0,0,1,99,147.27c-0.41-8.2-.19-16.43-0.14-24.66,0-2,.4-4,0.47-6,0.06-1.76,1-2.22,2.55-2.27,4.9-.18,9.8-0.3,14.68-0.66,4-.29,8-0.89,12-1.36,0.31,0,.62-0.11.93-0.15,3.39-.35,3.71.12,3.48,3.53-0.39,5.51-.55,11-0.84,16.54-0.26,5-.42,9.92.78,14.79a74.9,74.9,0,0,0,2.37,7.53c0.73,2,.12,3.3-2,3.59a16.51,16.51,0,0,1-2.07,0h-2.07Zm-28.26-25.88c-0.4,7.62-.64,15.24,1.49,22.7,0.78,2.74,1.9,3.61,4.63,3.08a19.57,19.57,0,0,1,2.94-.45q10.44-.41,20.88-0.74c2.21-.07,3-0.94,2.42-3.07-0.42-1.62-1.14-3.18-1.44-4.82-0.62-3.42-1.51-6.89-1.47-10.32,0.09-7.5.69-15,1.07-22.49,0.09-1.74-.66-2.44-2.38-2.19-1.16.17-2.3,0.57-3.47,0.65-6.12.43-12.24,0.81-18.36,1.18-1.25.08-2.51,0-3.77,0.08-1.92.09-2.53,0.74-2.53,2.66Q100.77,125.19,100.77,132.06Z" transform="translate(-31.02 -57.82)"/><path d="M139.75,87.29c0.35-2.91.61-5.52,1-8.11,0.18-1.2,1-1.62,2.27-1.81,5.77-.86,11.51-1.92,17.29-2.77a92.58,92.58,0,0,1,9.55-.89c3-.12,4.16,1.15,3.4,4.1-1.62,6.31-1.28,12.73-1.4,19.11-0.11,5.77,1.82,11.09,4.28,16.23,0.19,0.4.4,0.78,0.6,1.17,1.78,3.47,1.3,4.25-2.6,4.41a28.46,28.46,0,0,0-4.67.57q-9.12,1.92-18.2,4c-4.09.93-5.36,0.61-6.7-3.28a64.66,64.66,0,0,1-3.14-12.55C140.55,100.68,140.27,93.83,139.75,87.29Zm2,3.51c0.35,4.95.5,11.29,1.36,17.55,0.55,4,2.1,7.91,3.29,11.84,0.52,1.72,1.92,2,3.48,1.7,5.17-1.12,10.33-2.3,15.49-3.43a58.59,58.59,0,0,1,6.78-1.34c3-.3,3.5-1,2.28-3.89s-2.81-6-3.41-9.09c-1.37-7.17-.9-14.45-0.1-21.68a36.19,36.19,0,0,1,1-4.17c0.52-2.2-.16-3.19-2.36-3.06-3.23.2-6.47,0.5-9.68,0.93q-8.25,1.11-16.47,2.51a2.5,2.5,0,0,0-1.59,1.76C141.67,83.42,141.76,86.43,141.76,90.8Z" transform="translate(-31.02 -57.82)"/><path d="M122,75.6c1.71,0,3.73.11,5.73,0A2.79,2.79,0,0,1,131,78.13c0.71,4,1.44,7.91,2,11.89,0.46,3.54.64,7.12,1,10.69,0.28,3-.28,3.66-3.26,3.92-7.57.65-15.13,1.39-22.7,2-3.38.29-3.77-.06-4.22-3.43-0.84-6.28-1.7-12.56-2.5-18.84A29.56,29.56,0,0,1,101,79a2.55,2.55,0,0,1,1.7-1.55C108.93,75.82,115.24,74.77,122,75.6Zm-6.24,1.16L115.7,76c-4,.72-8,1.44-12,2.14-1.25.22-1.42,1.08-1.31,2.1,0.34,3.42.66,6.85,1.06,10.27,0.52,4.36,1.15,8.7,1.67,13.06a1.89,1.89,0,0,0,2.39,1.92c2.5-.24,5-0.41,7.5-0.64,5.12-.47,10.25-0.93,15.36-1.46,2.19-.23,2.59-0.79,2.39-2.91-0.4-4.37-.73-8.75-1.27-13.11-0.38-3-1-6.05-1.62-9.07a1.57,1.57,0,0,0-1.69-1.61C124,76.79,119.9,76.76,115.77,76.76Z" transform="translate(-31.02 -57.82)"/><path d="M153.34,124.87c7.53-.52,14.42,2.57,21.62,3.87,1.54,0.28,1.8,1.7,1.75,3-0.15,4-.3,8-0.64,12-0.31,3.56-.91,7.1-1.32,10.65-0.34,3-1,3.48-4,3.09-7.59-1-15.2-1.88-22.79-2.9-3.18-.43-3.45-0.75-3.17-3.85q1-11.42,2.28-22.83c0.33-3,.44-3,3.47-3h2.82Zm22.39,11-0.2,0c0-1.38,0-2.76,0-4.14a1.76,1.76,0,0,0-1.69-2,37.53,37.53,0,0,1-5.32-1.2,51.89,51.89,0,0,0-18-2.59c-1.49,0-2.18.52-2.32,2q-1.09,11.7-2.27,23.38c-0.16,1.63.73,2.09,2.06,2.26,4.11,0.53,8.21,1.07,12.32,1.58,3.3,0.41,6.6.79,9.9,1.17,2.37,0.27,3.08-.12,3.3-1.91C174.29,148.17,175,142,175.73,135.84Z" transform="translate(-31.02 -57.82)"/><path class="cls-1" d="M62.75,98.26v1.54L63,99.7c0.78-.38,1.55-1.09,2.32-1.09,9.11,0,18.21.2,27.32,0.34,2,0,2.75,1.27,1.9,3.43A39,39,0,0,0,92.12,118c0.16,5.17.91,10.32,1.42,15.47,0.2,2.05.5,4.1,0.67,6.15,0.12,1.49-.79,1.94-2.14,1.91-5.76-.14-11.51-0.32-17.27-0.35a52.88,52.88,0,0,0-6.68.58c-2,.25-2.9-0.21-3.47-2a56.68,56.68,0,0,1-3.12-18.37,87.38,87.38,0,0,0-1-13.48c0,2.55-.07,5.09,0,7.64,0.12,3.5.37,7,.55,10.49,0.08,1.49-.38,2.42-2.14,2.25a10,10,0,0,0-2.61.25c-2.26.4-2.89,0.17-3.43-2-0.84-3.38-1.6-6.8-2.17-10.24-0.93-5.59-2.15-11.16-2-16.89,0.12-3.88.23-7.77,0.28-11.65,0-1.41.59-2,2-2.09,6.08-.55,12.15-1.19,18.23-1.81,2.3-.24,4.59-0.62,6.89-0.76s3,0.74,2.62,3.2-0.47,5.19-.69,7.79a2.54,2.54,0,0,0,0,.56c0.5,3.51.45,3.57-3.13,3.57H62.75ZM79.33,103c-2.07.08-2.53,1.24-2.52,2.31a2.32,2.32,0,0,0,1.65,1.48c1.49,0.19,1.93-1.07,1.86-2.23A3.65,3.65,0,0,0,79.33,103ZM61.91,89.73L64,91.52A25.1,25.1,0,0,0,65.9,89a2.61,2.61,0,0,0-1.24-1.07A15.89,15.89,0,0,0,61.91,89.73Z" transform="translate(-31.02 -57.82)"/><path class="cls-1" d="M100.77,132.06q0-6.87,0-13.74c0-1.92.61-2.56,2.53-2.66,1.25-.06,2.52,0,3.77-0.08,6.12-.37,12.24-0.75,18.36-1.18,1.17-.08,2.31-0.48,3.47-0.65,1.72-.25,2.47.45,2.38,2.19-0.38,7.5-1,15-1.07,22.49,0,3.44.85,6.9,1.47,10.32,0.3,1.64,1,3.2,1.44,4.82,0.56,2.13-.21,3-2.42,3.07q-10.44.33-20.88,0.74a19.57,19.57,0,0,0-2.94.45c-2.73.53-3.85-.34-4.63-3.08C100.14,147.3,100.37,139.68,100.77,132.06Zm12.82-9.31c2.09,0,3.4-1.27,3.22-3a2.39,2.39,0,0,0-1.57-1.57c-1.25-.26-2.51,1.26-2.44,2.9A4.39,4.39,0,0,0,113.59,122.75Z" transform="translate(-31.02 -57.82)"/><path class="cls-1" d="M141.76,90.8c0-4.37-.09-7.38.08-10.38a2.5,2.5,0,0,1,1.59-1.76q8.21-1.41,16.47-2.51c3.21-.43,6.45-0.73,9.68-0.93,2.2-.14,2.88.85,2.36,3.06a36.19,36.19,0,0,0-1,4.17c-0.81,7.23-1.28,14.5.1,21.68,0.6,3.14,2.16,6.11,3.41,9.09s0.76,3.6-2.28,3.89a58.59,58.59,0,0,0-6.78,1.34c-5.17,1.13-10.32,2.31-15.49,3.43-1.56.34-3,0-3.48-1.7-1.18-3.93-2.73-7.82-3.29-11.84C142.27,102.09,142.12,95.74,141.76,90.8ZM154.27,87c2,0,3.1-1,3.06-2.22a1.56,1.56,0,0,0-1.89-1.6c-1.7,0-2.06,1.31-2,2.61A2.55,2.55,0,0,0,154.27,87Z" transform="translate(-31.02 -57.82)"/><path class="cls-1" d="M115.77,76.76c4.14,0,8.27,0,12.41,0a1.57,1.57,0,0,1,1.69,1.61c0.57,3,1.24,6,1.62,9.07,0.54,4.35.86,8.74,1.27,13.11,0.2,2.12-.21,2.68-2.39,2.91-5.12.53-10.24,1-15.36,1.46-2.5.23-5,.4-7.5,0.64a1.89,1.89,0,0,1-2.39-1.92c-0.52-4.36-1.15-8.7-1.67-13.06-0.41-3.42-.72-6.85-1.06-10.27-0.1-1,.06-1.88,1.31-2.1,4-.7,8-1.43,12-2.14Zm0.69,1.07c-0.78,1.13-1.5,1.75-1.6,2.46-0.06.46,0.79,1,1.23,1.56a5.7,5.7,0,0,0,1.55-1.74C117.77,79.65,117.07,78.94,116.45,77.82Z" transform="translate(-31.02 -57.82)"/><path class="cls-1" d="M175.73,135.84c-0.73,6.16-1.44,12.33-2.19,18.49-0.22,1.8-.93,2.19-3.3,1.91-3.3-.38-6.6-0.76-9.9-1.17-4.11-.51-8.21-1.06-12.32-1.58-1.33-.17-2.23-0.64-2.06-2.26q1.18-11.69,2.27-23.38c0.14-1.49.83-2,2.32-2a51.89,51.89,0,0,1,18,2.59,37.53,37.53,0,0,0,5.32,1.2,1.76,1.76,0,0,1,1.69,2c0,1.38,0,2.76,0,4.14Zm-14-3c0.74-1.16,1.42-1.8,1.5-2.5,0.05-.42-0.81-1-1.27-1.44a6.12,6.12,0,0,0-1.54,1.8C160.27,131.13,161,131.81,161.71,132.87Z" transform="translate(-31.02 -57.82)"/><path d="M79.33,103a3.65,3.65,0,0,1,1,1.56c0.07,1.16-.37,2.42-1.86,2.23a2.32,2.32,0,0,1-1.65-1.48C76.8,104.26,77.25,103.1,79.33,103Z" transform="translate(-31.02 -57.82)"/><path d="M61.91,89.73a15.89,15.89,0,0,1,2.75-1.84A2.61,2.61,0,0,1,65.9,89,25.1,25.1,0,0,1,64,91.52Z" transform="translate(-31.02 -57.82)"/><path d="M113.59,122.75a4.39,4.39,0,0,1-.8-1.68c-0.07-1.64,1.19-3.16,2.44-2.9a2.39,2.39,0,0,1,1.57,1.57C117,121.48,115.69,122.8,113.59,122.75Z" transform="translate(-31.02 -57.82)"/><path d="M154.27,87a2.55,2.55,0,0,1-.88-1.21c0-1.3.35-2.57,2-2.61a1.56,1.56,0,0,1,1.89,1.6C157.37,86,156.27,87,154.27,87Z" transform="translate(-31.02 -57.82)"/><path d="M116.45,77.82c0.62,1.12,1.32,1.82,1.18,2.27a5.7,5.7,0,0,1-1.55,1.74c-0.44-.52-1.29-1.1-1.23-1.56C115,79.58,115.67,79,116.45,77.82Z" transform="translate(-31.02 -57.82)"/><path d="M161.71,132.87c-0.68-1.06-1.44-1.74-1.31-2.14a6.12,6.12,0,0,1,1.54-1.8c0.45,0.48,1.32,1,1.27,1.44C163.12,131.07,162.45,131.71,161.71,132.87Z" transform="translate(-31.02 -57.82)"/></svg>