<svg id="LOGO_Perry_1" data-name="LOGO — Perry #1" xmlns="http://www.w3.org/2000/svg" viewBox="0 0 51.35 48.23"><defs><style>.cls-1{fill:#00a3d4;}.cls-2{fill:#fff;}.cls-3{fill:none;}</style></defs><title>CC_mainlogo_v1a</title><polygon class="cls-1" points="0.73 0.65 47.04 0.65 49.42 1.76 50.61 3.63 50.61 6.31 50.61 47.53 4.53 47.53 2.74 46.81 1.41 45.74 0.73 44.03 0.73 0.65"/><path class="cls-2" d="M93.26,44.16H46.64v43.5a4.73,4.73,0,0,0,4.73,4.73H98V48.89A4.73,4.73,0,0,0,93.26,44.16Zm3.31,22.69V91H51.37a3.32,3.32,0,0,1-3.31-3.31V45.58h45.2a3.32,3.32,0,0,1,3.31,3.31v18Z" transform="translate(-46.64 -44.16)"/><path class="cls-3" d="M84.17,68.28a11.87,11.87,0,0,0-8.64-11.4V79.67A11.87,11.87,0,0,0,84.17,68.28Z" transform="translate(-46.64 -44.16)"/><path class="cls-3" d="M60.46,68.28a11.87,11.87,0,0,0,8.64,11.4V56.88A11.87,11.87,0,0,0,60.46,68.28Z" transform="translate(-46.64 -44.16)"/><path class="cls-2" d="M60.46,68.28a11.87,11.87,0,0,1,8.64-11.4V50.29a18.27,18.27,0,0,0,0,36V79.67A11.87,11.87,0,0,1,60.46,68.28Z" transform="translate(-46.64 -44.16)"/><path class="cls-2" d="M90.6,68.28a18.3,18.3,0,0,0-15.07-18v6.59a11.84,11.84,0,0,1,0,22.79v6.59A18.3,18.3,0,0,0,90.6,68.28Z" transform="translate(-46.64 -44.16)"/></svg>