<svg id="LOGO_Perry_1" data-name="LOGO — Perry #1" xmlns="http://www.w3.org/2000/svg" viewBox="0 0 348.39 48.23"><defs><style>.cls-1{fill:#03a3d4;}.cls-2{fill:#fff;}.cls-3{fill:none;}</style></defs><title>CC_mainlogo_with_name_v1a</title><polygon class="cls-1" points="0.73 0.65 47.04 0.65 49.42 1.76 50.61 3.63 50.61 6.31 50.61 47.53 4.53 47.53 2.74 46.81 1.41 45.74 0.73 44.03 0.73 0.65"/><path class="cls-2" d="M93.26,44.16H46.64v43.5a4.73,4.73,0,0,0,4.73,4.73H98V48.89A4.73,4.73,0,0,0,93.26,44.16Zm3.31,22.69V91H51.37a3.32,3.32,0,0,1-3.31-3.31V45.58h45.2a3.32,3.32,0,0,1,3.31,3.31v18Z" transform="translate(-46.64 -44.16)"/><path class="cls-3" d="M84.17,68.28a11.87,11.87,0,0,0-8.64-11.4V79.67A11.87,11.87,0,0,0,84.17,68.28Z" transform="translate(-46.64 -44.16)"/><path class="cls-3" d="M60.46,68.28a11.87,11.87,0,0,0,8.64,11.4V56.88A11.87,11.87,0,0,0,60.46,68.28Z" transform="translate(-46.64 -44.16)"/><path class="cls-2" d="M60.46,68.28a11.87,11.87,0,0,1,8.64-11.4V50.29a18.27,18.27,0,0,0,0,36V79.67A11.87,11.87,0,0,1,60.46,68.28Z" transform="translate(-46.64 -44.16)"/><path class="cls-2" d="M90.6,68.28a18.3,18.3,0,0,0-15.07-18v6.59a11.84,11.84,0,0,1,0,22.79v6.59A18.3,18.3,0,0,0,90.6,68.28Z" transform="translate(-46.64 -44.16)"/><path class="cls-2" d="M109.86,68.48a15.3,15.3,0,0,1,1-5.64,12.59,12.59,0,0,1,2.63-4.19A11.17,11.17,0,0,1,117.33,56a12.25,12.25,0,0,1,4.66-.9,9.27,9.27,0,0,1,4.31,1,12.28,12.28,0,0,1,3.22,2.32L126.36,62a9,9,0,0,0-2-1.4,5.05,5.05,0,0,0-2.32-.51,5.55,5.55,0,0,0-2.48.57,6,6,0,0,0-2,1.62,7.77,7.77,0,0,0-1.34,2.57,11.19,11.19,0,0,0-.49,3.43,9.77,9.77,0,0,0,1.68,6.1,5.38,5.38,0,0,0,4.48,2.16,5.72,5.72,0,0,0,2.73-.62,7.92,7.92,0,0,0,2.11-1.64l3.16,3.47a10.27,10.27,0,0,1-8.07,3.74,12.82,12.82,0,0,1-4.64-.84,10.83,10.83,0,0,1-3.82-2.48,11.49,11.49,0,0,1-2.57-4.08A15.66,15.66,0,0,1,109.86,68.48Z" transform="translate(-46.64 -44.16)"/><path class="cls-2" d="M132.72,53.69h5.73V75.26a1.82,1.82,0,0,0,.33,1.25,1,1,0,0,0,.68.35h0.33a1.27,1.27,0,0,0,.37-0.08l0.7,4.25a6.06,6.06,0,0,1-1.19.33,9.25,9.25,0,0,1-1.7.14,5.93,5.93,0,0,1-2.5-.47,4,4,0,0,1-1.62-1.31,5.53,5.53,0,0,1-.88-2,12,12,0,0,1-.27-2.67V53.69Z" transform="translate(-46.64 -44.16)"/><path class="cls-2" d="M143.36,75.65a5.42,5.42,0,0,1,2.57-4.76q2.57-1.72,8.31-2.3a3.2,3.2,0,0,0-.78-2,3,3,0,0,0-2.26-.76,7.07,7.07,0,0,0-2.5.47,17.46,17.46,0,0,0-2.65,1.29l-2-3.78a20.29,20.29,0,0,1,3.92-1.83,13.31,13.31,0,0,1,4.35-.7A7.41,7.41,0,0,1,158,63.35q2,2.13,2,6.61V81H155.3l-0.43-2h-0.12a12.14,12.14,0,0,1-2.63,1.77,6.76,6.76,0,0,1-3,.68,6,6,0,0,1-2.38-.45,5.18,5.18,0,0,1-1.79-1.25A5.78,5.78,0,0,1,143.77,78,6.31,6.31,0,0,1,143.36,75.65Zm5.46-.43a1.61,1.61,0,0,0,.6,1.38,2.66,2.66,0,0,0,1.62.45,3.24,3.24,0,0,0,1.72-.43,8.25,8.25,0,0,0,1.48-1.21V72A10.46,10.46,0,0,0,150,73.27,2.36,2.36,0,0,0,148.82,75.22Z" transform="translate(-46.64 -44.16)"/><path class="cls-2" d="M167.15,58.84a3.43,3.43,0,0,1-2.38-.84,2.77,2.77,0,0,1-.94-2.16,2.71,2.71,0,0,1,.94-2.15,3.89,3.89,0,0,1,4.78,0,2.74,2.74,0,0,1,.92,2.15,2.8,2.8,0,0,1-.92,2.16A3.41,3.41,0,0,1,167.15,58.84Zm-2.85,2.85H170V81h-5.73V61.69Z" transform="translate(-46.64 -44.16)"/><path class="cls-2" d="M174.49,61.69h4.68l0.39,2.5h0.16a15.47,15.47,0,0,1,2.57-2.09,6.79,6.79,0,0,1,6.61,0,5.76,5.76,0,0,1,2,2.4,17,17,0,0,1,2.71-2.28,5.91,5.91,0,0,1,3.37-1,5.21,5.21,0,0,1,4.58,2.09A9.8,9.8,0,0,1,203,69V81H197.3V69.76a5.23,5.23,0,0,0-.57-2.89,2.09,2.09,0,0,0-1.81-.78q-1.44,0-3.31,1.87V81h-5.73V69.76a5.23,5.23,0,0,0-.57-2.89,2.09,2.09,0,0,0-1.81-.78A4.91,4.91,0,0,0,180.22,68V81h-5.73V61.69Z" transform="translate(-46.64 -44.16)"/><path class="cls-2" d="M212.16,68.36a16,16,0,0,1,.92-5.6,12.35,12.35,0,0,1,2.52-4.19A10.73,10.73,0,0,1,219.34,56a11.81,11.81,0,0,1,4.6-.9,8.87,8.87,0,0,1,4.19,1,11.52,11.52,0,0,1,3.06,2.26l-2.54,2.81a8.27,8.27,0,0,0-2.09-1.54A5.65,5.65,0,0,0,224,59a6.49,6.49,0,0,0-2.91.64,6.65,6.65,0,0,0-2.26,1.83,8.63,8.63,0,0,0-1.48,2.91,13.16,13.16,0,0,0-.53,3.86,11,11,0,0,0,1.89,6.84,6.11,6.11,0,0,0,5.13,2.48,6.36,6.36,0,0,0,3-.66A8.52,8.52,0,0,0,229.16,75l2.54,2.77a11,11,0,0,1-3.55,2.75,10.05,10.05,0,0,1-4.41,1,12,12,0,0,1-4.56-.86,10.22,10.22,0,0,1-3.67-2.53A12.06,12.06,0,0,1,213.06,74,16.32,16.32,0,0,1,212.16,68.36Z" transform="translate(-46.64 -44.16)"/><path class="cls-2" d="M232.95,71.48a11.48,11.48,0,0,1,.74-4.25,9.32,9.32,0,0,1,2-3.16A8.83,8.83,0,0,1,242,61.42a9,9,0,0,1,3.45.68,8.53,8.53,0,0,1,2.91,2,9.74,9.74,0,0,1,2,3.16,12.27,12.27,0,0,1,0,8.5,9.73,9.73,0,0,1-2,3.16,8.31,8.31,0,0,1-2.91,2,9.23,9.23,0,0,1-3.45.66,9.07,9.07,0,0,1-3.43-.66,8.55,8.55,0,0,1-2.91-2,9.32,9.32,0,0,1-2-3.16A11.47,11.47,0,0,1,232.95,71.48Zm4.6,0a8,8,0,0,0,1.19,4.62A3.78,3.78,0,0,0,242,77.84a3.83,3.83,0,0,0,3.32-1.74,7.94,7.94,0,0,0,1.21-4.62,8,8,0,0,0-1.21-4.66A3.83,3.83,0,0,0,242,65.08a3.78,3.78,0,0,0-3.29,1.74A8.11,8.11,0,0,0,237.55,71.48Z" transform="translate(-46.64 -44.16)"/><path class="cls-2" d="M254.24,61.88h3.71l0.31,2.61h0.16A13.45,13.45,0,0,1,261,62.31a5.91,5.91,0,0,1,3.22-.9,5.73,5.73,0,0,1,3.37.9,5.58,5.58,0,0,1,1.93,2.54,15.39,15.39,0,0,1,2.85-2.46,5.9,5.9,0,0,1,3.31-1,5.19,5.19,0,0,1,4.49,2A9.43,9.43,0,0,1,281.66,69V81h-4.52V69.61a5.83,5.83,0,0,0-.72-3.35,2.56,2.56,0,0,0-2.2-1q-1.79,0-4,2.38V81h-4.48V69.61a5.83,5.83,0,0,0-.72-3.35,2.61,2.61,0,0,0-2.24-1q-1.79,0-4,2.38V81h-4.49V61.88Z" transform="translate(-46.64 -44.16)"/><path class="cls-2" d="M290.24,82.59v6h-4.49V61.88h3.71l0.31,2h0.16a13.71,13.71,0,0,1,2.69-1.75,6.81,6.81,0,0,1,3.08-.74,7.11,7.11,0,0,1,3.18.68,6.59,6.59,0,0,1,2.36,2,9.19,9.19,0,0,1,1.48,3.08,14.76,14.76,0,0,1,.51,4,13.14,13.14,0,0,1-.68,4.39,10,10,0,0,1-1.81,3.24,7.92,7.92,0,0,1-2.61,2,7.12,7.12,0,0,1-3.08.7,6.18,6.18,0,0,1-2.5-.55,9.51,9.51,0,0,1-2.42-1.56Zm0-6.4a6.68,6.68,0,0,0,2,1.25,5.41,5.41,0,0,0,1.83.35,3.9,3.9,0,0,0,3.2-1.66,8,8,0,0,0,1.29-4.93,8.64,8.64,0,0,0-1-4.48,3.42,3.42,0,0,0-3.16-1.6,6.22,6.22,0,0,0-4.21,2.15V76.2Z" transform="translate(-46.64 -44.16)"/><path class="cls-2" d="M306.35,75.89A5.3,5.3,0,0,1,309,71.13q2.69-1.68,8.58-2.34a5.16,5.16,0,0,0-.2-1.42,3.52,3.52,0,0,0-.6-1.21,2.74,2.74,0,0,0-1.05-.82,3.91,3.91,0,0,0-1.62-.29,7.36,7.36,0,0,0-2.79.55,16.85,16.85,0,0,0-2.59,1.33l-1.64-3a19.42,19.42,0,0,1,3.57-1.75,12,12,0,0,1,4.27-.74,6.58,6.58,0,0,1,5.38,2.13,9.43,9.43,0,0,1,1.75,6.14V81h-3.67l-0.35-2.11H318a14,14,0,0,1-2.75,1.83,6.94,6.94,0,0,1-3.18.74A5.64,5.64,0,0,1,307.92,80,5.43,5.43,0,0,1,306.35,75.89Zm4.37-.35a2.21,2.21,0,0,0,.76,1.87,3.14,3.14,0,0,0,2,.59,4.31,4.31,0,0,0,2.15-.55,10.08,10.08,0,0,0,2-1.56V71.6a20.44,20.44,0,0,0-3.28.62,9,9,0,0,0-2.13.88,3.15,3.15,0,0,0-1.15,1.11A2.66,2.66,0,0,0,310.71,75.54Z" transform="translate(-46.64 -44.16)"/><path class="cls-2" d="M327,61.88h3.71L331,64.46h0.16a15.25,15.25,0,0,1,2.79-2.15,6.68,6.68,0,0,1,3.49-.9,5.13,5.13,0,0,1,4.49,2,9.63,9.63,0,0,1,1.4,5.64V81h-4.49V69.61a6,6,0,0,0-.7-3.35,2.64,2.64,0,0,0-2.3-1,4,4,0,0,0-2.2.6,14.06,14.06,0,0,0-2.16,1.77V81H327V61.88Z" transform="translate(-46.64 -44.16)"/><path class="cls-2" d="M350.49,58.53a2.86,2.86,0,0,1-2-.7,2.35,2.35,0,0,1-.78-1.83,2.41,2.41,0,0,1,.78-1.85,3.1,3.1,0,0,1,4,0,2.41,2.41,0,0,1,.78,1.85,2.35,2.35,0,0,1-.78,1.83A2.86,2.86,0,0,1,350.49,58.53Zm-2.26,3.35h4.49V81h-4.49V61.88Z" transform="translate(-46.64 -44.16)"/><path class="cls-2" d="M356.62,71.48a11.48,11.48,0,0,1,.74-4.25,9.32,9.32,0,0,1,2-3.16,8.83,8.83,0,0,1,6.34-2.65,9,9,0,0,1,3.45.68,8.53,8.53,0,0,1,2.91,2,9.74,9.74,0,0,1,2,3.16,12.27,12.27,0,0,1,0,8.5,9.73,9.73,0,0,1-2,3.16,8.31,8.31,0,0,1-2.91,2,9.23,9.23,0,0,1-3.45.66,9.07,9.07,0,0,1-3.43-.66,8.55,8.55,0,0,1-2.91-2,9.32,9.32,0,0,1-2-3.16A11.47,11.47,0,0,1,356.62,71.48Zm4.6,0a8,8,0,0,0,1.19,4.62,3.78,3.78,0,0,0,3.29,1.74A3.83,3.83,0,0,0,369,76.1a7.94,7.94,0,0,0,1.21-4.62A8,8,0,0,0,369,66.82a3.83,3.83,0,0,0-3.32-1.74,3.78,3.78,0,0,0-3.29,1.74A8.11,8.11,0,0,0,361.22,71.48Z" transform="translate(-46.64 -44.16)"/><path class="cls-2" d="M378.69,61.88h3.71l0.31,2.57h0.16a15.25,15.25,0,0,1,2.79-2.15,6.68,6.68,0,0,1,3.49-.9,5.13,5.13,0,0,1,4.49,2A9.63,9.63,0,0,1,395,69V81h-4.49V69.61a6,6,0,0,0-.7-3.35,2.64,2.64,0,0,0-2.3-1,4,4,0,0,0-2.2.6,14.06,14.06,0,0,0-2.16,1.77V81h-4.49V61.88Z" transform="translate(-46.64 -44.16)"/></svg>