<svg id="Layer_1_copy" data-name="Layer 1 copy" xmlns="http://www.w3.org/2000/svg" viewBox="0 0 51.02 51.02"><defs><style>.cls-1{fill:#fff;}.cls-2{fill:#a7a9ac;}.cls-3{fill:#010101;}</style></defs><title>CC_olayicons_hourglass_blk</title><path class="cls-1" d="M15.33,7.25H34.86v9.93L27,25.3l8.34,8.5-0.66,9.31s-20.3.26-20,0S15,33.51,15,33.51l8.2-8.2-8.63-9Z"/><polygon class="cls-2" points="14.7 14.81 35.32 14.81 33.11 18.07 25.78 25.3 25.78 33.8 33.77 41.79 16.18 41.79 24.11 33.85 24.11 25.3 15.47 16.8 14.58 16.34 14.7 14.81"/><path class="cls-3" d="M14.55,45.3H35.29l1.66-1.55V33.32h0l0,0-8-8,8-8,0,0h0V6.8L35.29,5.3H14.55l-1.6,1.5V17.3h0l0,0,8,8-8,8,0,0h0V43.75Zm18.4-11v7h-16v-7l8-8Zm-8-10-8-8v-7h16v7Z"/></svg>