<svg id="Layer_1_copy" data-name="Layer 1 copy" xmlns="http://www.w3.org/2000/svg" viewBox="0 0 51.02 51.02"><defs><style>.cls-1{fill:#fff;}.cls-2{fill:#010101;}</style></defs><title>CC_olayicons_locked_blk</title><rect class="cls-1" x="18.74" y="24.37" width="14.41" height="14.41"/><path class="cls-2" d="M36.44,18.24H34.7v-3.5a8.75,8.75,0,1,0-17.49,0v3.5H15.46a3.51,3.51,0,0,0-3.5,3.5V39.23a3.51,3.51,0,0,0,3.5,3.5h21a3.51,3.51,0,0,0,3.5-3.5V21.74A3.51,3.51,0,0,0,36.44,18.24ZM25.95,34a3.5,3.5,0,1,1,3.5-3.5A3.51,3.51,0,0,1,25.95,34Zm5.42-15.74H20.53v-3.5a5.42,5.42,0,0,1,10.84,0v3.5Z"/></svg>