<svg id="Layer_1_copy" data-name="Layer 1 copy" xmlns="http://www.w3.org/2000/svg" viewBox="0 0 51.02 51.02"><defs><style>.cls-1{fill:#fff;}.cls-2{fill:#010101;}</style></defs><title>CC_olayicons_photo_blk-01</title><circle class="cls-1" cx="24.95" cy="26.94" r="10.02"/><circle class="cls-2" cx="24.95" cy="26.94" r="5.06"/><path class="cls-2" d="M20.21,11.14L17.32,14.3h-5a3.17,3.17,0,0,0-3.16,3.16v19a3.17,3.17,0,0,0,3.16,3.16H37.59a3.17,3.17,0,0,0,3.16-3.16v-19a3.17,3.17,0,0,0-3.16-3.16h-5l-2.89-3.16H20.21Zm4.74,23.7a7.9,7.9,0,1,1,7.9-7.9A7.9,7.9,0,0,1,24.95,34.84Z"/></svg>