<svg id="Layer_1_copy" data-name="Layer 1 copy" xmlns="http://www.w3.org/2000/svg" viewBox="0 0 51.02 51.02"><defs><style>.cls-1{fill:#fff;}.cls-2{fill:#010101;}</style></defs><title>CC_olayicons_priority_star_blk</title><polygon class="cls-1" points="9.41 20.85 20.17 20.11 24.42 8.89 28.41 19.79 40.49 20.85 32.02 28.05 33.93 39.05 24.95 33.87 14.98 39.05 17.73 27.62 9.41 20.85"/><path class="cls-2" d="M44.95,19.44L30.57,18.2,24.95,5,19.33,18.22,4.95,19.44,15.87,28.9,12.59,43,24.95,35.5,37.31,43,34,28.9Zm-20,12.32L17.43,36.3l2-8.56L12.79,22l8.76-.76,3.4-8.06,3.42,8.08L37.13,22l-6.64,5.76,2,8.56Z"/></svg>