<svg id="Layer_1_copy" data-name="Layer 1 copy" xmlns="http://www.w3.org/2000/svg" viewBox="0 0 51.02 51.02"><defs><style>.cls-1{fill:#fff;}.cls-2{fill:none;}.cls-3{fill:#010101;}.cls-4{fill:#231f20;}</style></defs><title>CC_olayicons_priority_van_blk</title><path class="cls-1" d="M35,20.33s4.25-.69,4.5,0,3.75,5.06,3.75,5.06v3.13l-9.49-.87Z"/><circle class="cls-1" cx="37.11" cy="32.89" r="3.37"/><circle class="cls-1" cx="19.11" cy="32.89" r="3.37"/><circle class="cls-2" cx="37.23" cy="32.89" r="2.25"/><polygon class="cls-2" points="35.73 21.64 35.73 25.39 42.42 25.39 39.48 21.64 35.73 21.64"/><circle class="cls-2" cx="19.23" cy="32.89" r="2.25"/><path class="cls-3" d="M40.23,19.39h-4.5v-6h-21a3,3,0,0,0-3,3v2.13H30.79l-3.62,3.62H11.73V32.89h3a4.5,4.5,0,0,0,9,0h9a4.5,4.5,0,0,0,9,0h3v-7.5Zm-21,15.75a2.25,2.25,0,1,1,2.25-2.25A2.25,2.25,0,0,1,19.23,35.14Zm18,0a2.25,2.25,0,1,1,2.25-2.25A2.25,2.25,0,0,1,37.23,35.14Zm-1.5-9.75V21.64h3.75l2.94,3.75H35.73Z"/><polygon class="cls-4" points="6.92 18.52 3.17 22.14 11.73 22.14 11.73 18.52 6.92 18.52"/><polygon class="cls-1" points="30.79 18.52 11.73 18.52 11.73 22.14 27.17 22.14 30.79 18.52"/></svg>